%TF.GenerationSoftware,KiCad,Pcbnew,8.0.5*%
%TF.CreationDate,2024-12-27T02:30:01+01:00*%
%TF.ProjectId,walter_remix - C3v2,77616c74-6572-45f7-9265-6d6978202d20,rev?*%
%TF.SameCoordinates,Original*%
%TF.FileFunction,Legend,Bot*%
%TF.FilePolarity,Positive*%
%FSLAX45Y45*%
G04 Gerber Fmt 4.5, Leading zero omitted, Abs format (unit mm)*
G04 Created by KiCad (PCBNEW 8.0.5) date 2024-12-27 02:30:01*
%MOMM*%
%LPD*%
G01*
G04 APERTURE LIST*
%ADD10C,0.100000*%
%ADD11C,0.150000*%
%ADD12C,0.300000*%
%ADD13C,0.400000*%
%ADD14C,0.010000*%
%ADD15C,0.000100*%
%ADD16C,0.005000*%
G04 APERTURE END LIST*
D10*
D11*
X17700220Y-16600720D02*
X28500220Y-16600720D01*
X28500220Y-19800720D01*
X17700220Y-19800720D01*
X17700220Y-16600720D01*
D10*
D11*
X1000000Y-1000000D02*
X28700220Y-1000000D01*
X28700220Y-20000720D01*
X1000000Y-20000720D01*
X1000000Y-1000000D01*
D10*
D11*
X1200000Y-1200000D02*
X28500220Y-1200000D01*
X28500220Y-19800720D01*
X1200000Y-19800720D01*
X1200000Y-1200000D01*
D10*
D11*
X6000000Y-1200000D02*
X6000000Y-1000000D01*
D10*
D11*
X11000000Y-1200000D02*
X11000000Y-1000000D01*
D10*
D11*
X16000000Y-1200000D02*
X16000000Y-1000000D01*
D10*
D11*
X21000000Y-1200000D02*
X21000000Y-1000000D01*
D10*
D11*
X26000000Y-1200000D02*
X26000000Y-1000000D01*
D10*
D11*
X3608916Y-1159360D02*
X3534630Y-1159360D01*
X3571773Y-1159360D02*
X3571773Y-1029360D01*
X3571773Y-1029360D02*
X3559392Y-1047932D01*
X3559392Y-1047932D02*
X3547011Y-1060313D01*
X3547011Y-1060313D02*
X3534630Y-1066503D01*
D10*
D11*
X8534630Y-1041741D02*
X8540821Y-1035551D01*
X8540821Y-1035551D02*
X8553202Y-1029360D01*
X8553202Y-1029360D02*
X8584154Y-1029360D01*
X8584154Y-1029360D02*
X8596535Y-1035551D01*
X8596535Y-1035551D02*
X8602726Y-1041741D01*
X8602726Y-1041741D02*
X8608916Y-1054122D01*
X8608916Y-1054122D02*
X8608916Y-1066503D01*
X8608916Y-1066503D02*
X8602726Y-1085075D01*
X8602726Y-1085075D02*
X8528440Y-1159360D01*
X8528440Y-1159360D02*
X8608916Y-1159360D01*
D10*
D11*
X13528440Y-1029360D02*
X13608916Y-1029360D01*
X13608916Y-1029360D02*
X13565583Y-1078884D01*
X13565583Y-1078884D02*
X13584154Y-1078884D01*
X13584154Y-1078884D02*
X13596535Y-1085075D01*
X13596535Y-1085075D02*
X13602725Y-1091265D01*
X13602725Y-1091265D02*
X13608916Y-1103646D01*
X13608916Y-1103646D02*
X13608916Y-1134599D01*
X13608916Y-1134599D02*
X13602725Y-1146980D01*
X13602725Y-1146980D02*
X13596535Y-1153170D01*
X13596535Y-1153170D02*
X13584154Y-1159360D01*
X13584154Y-1159360D02*
X13547011Y-1159360D01*
X13547011Y-1159360D02*
X13534630Y-1153170D01*
X13534630Y-1153170D02*
X13528440Y-1146980D01*
D10*
D11*
X18596535Y-1072694D02*
X18596535Y-1159360D01*
X18565583Y-1023170D02*
X18534630Y-1116027D01*
X18534630Y-1116027D02*
X18615106Y-1116027D01*
D10*
D11*
X23602725Y-1029360D02*
X23540821Y-1029360D01*
X23540821Y-1029360D02*
X23534630Y-1091265D01*
X23534630Y-1091265D02*
X23540821Y-1085075D01*
X23540821Y-1085075D02*
X23553202Y-1078884D01*
X23553202Y-1078884D02*
X23584154Y-1078884D01*
X23584154Y-1078884D02*
X23596535Y-1085075D01*
X23596535Y-1085075D02*
X23602725Y-1091265D01*
X23602725Y-1091265D02*
X23608916Y-1103646D01*
X23608916Y-1103646D02*
X23608916Y-1134599D01*
X23608916Y-1134599D02*
X23602725Y-1146980D01*
X23602725Y-1146980D02*
X23596535Y-1153170D01*
X23596535Y-1153170D02*
X23584154Y-1159360D01*
X23584154Y-1159360D02*
X23553202Y-1159360D01*
X23553202Y-1159360D02*
X23540821Y-1153170D01*
X23540821Y-1153170D02*
X23534630Y-1146980D01*
D10*
D11*
X28596535Y-1029360D02*
X28571773Y-1029360D01*
X28571773Y-1029360D02*
X28559392Y-1035551D01*
X28559392Y-1035551D02*
X28553202Y-1041741D01*
X28553202Y-1041741D02*
X28540821Y-1060313D01*
X28540821Y-1060313D02*
X28534630Y-1085075D01*
X28534630Y-1085075D02*
X28534630Y-1134599D01*
X28534630Y-1134599D02*
X28540821Y-1146980D01*
X28540821Y-1146980D02*
X28547011Y-1153170D01*
X28547011Y-1153170D02*
X28559392Y-1159360D01*
X28559392Y-1159360D02*
X28584154Y-1159360D01*
X28584154Y-1159360D02*
X28596535Y-1153170D01*
X28596535Y-1153170D02*
X28602725Y-1146980D01*
X28602725Y-1146980D02*
X28608916Y-1134599D01*
X28608916Y-1134599D02*
X28608916Y-1103646D01*
X28608916Y-1103646D02*
X28602725Y-1091265D01*
X28602725Y-1091265D02*
X28596535Y-1085075D01*
X28596535Y-1085075D02*
X28584154Y-1078884D01*
X28584154Y-1078884D02*
X28559392Y-1078884D01*
X28559392Y-1078884D02*
X28547011Y-1085075D01*
X28547011Y-1085075D02*
X28540821Y-1091265D01*
X28540821Y-1091265D02*
X28534630Y-1103646D01*
D10*
D11*
X6000000Y-19800720D02*
X6000000Y-20000720D01*
D10*
D11*
X11000000Y-19800720D02*
X11000000Y-20000720D01*
D10*
D11*
X16000000Y-19800720D02*
X16000000Y-20000720D01*
D10*
D11*
X21000000Y-19800720D02*
X21000000Y-20000720D01*
D10*
D11*
X26000000Y-19800720D02*
X26000000Y-20000720D01*
D10*
D11*
X3608916Y-19960080D02*
X3534630Y-19960080D01*
X3571773Y-19960080D02*
X3571773Y-19830080D01*
X3571773Y-19830080D02*
X3559392Y-19848652D01*
X3559392Y-19848652D02*
X3547011Y-19861033D01*
X3547011Y-19861033D02*
X3534630Y-19867223D01*
D10*
D11*
X8534630Y-19842461D02*
X8540821Y-19836271D01*
X8540821Y-19836271D02*
X8553202Y-19830080D01*
X8553202Y-19830080D02*
X8584154Y-19830080D01*
X8584154Y-19830080D02*
X8596535Y-19836271D01*
X8596535Y-19836271D02*
X8602726Y-19842461D01*
X8602726Y-19842461D02*
X8608916Y-19854842D01*
X8608916Y-19854842D02*
X8608916Y-19867223D01*
X8608916Y-19867223D02*
X8602726Y-19885795D01*
X8602726Y-19885795D02*
X8528440Y-19960080D01*
X8528440Y-19960080D02*
X8608916Y-19960080D01*
D10*
D11*
X13528440Y-19830080D02*
X13608916Y-19830080D01*
X13608916Y-19830080D02*
X13565583Y-19879604D01*
X13565583Y-19879604D02*
X13584154Y-19879604D01*
X13584154Y-19879604D02*
X13596535Y-19885795D01*
X13596535Y-19885795D02*
X13602725Y-19891985D01*
X13602725Y-19891985D02*
X13608916Y-19904366D01*
X13608916Y-19904366D02*
X13608916Y-19935319D01*
X13608916Y-19935319D02*
X13602725Y-19947700D01*
X13602725Y-19947700D02*
X13596535Y-19953890D01*
X13596535Y-19953890D02*
X13584154Y-19960080D01*
X13584154Y-19960080D02*
X13547011Y-19960080D01*
X13547011Y-19960080D02*
X13534630Y-19953890D01*
X13534630Y-19953890D02*
X13528440Y-19947700D01*
D10*
D11*
X18596535Y-19873414D02*
X18596535Y-19960080D01*
X18565583Y-19823890D02*
X18534630Y-19916747D01*
X18534630Y-19916747D02*
X18615106Y-19916747D01*
D10*
D11*
X23602725Y-19830080D02*
X23540821Y-19830080D01*
X23540821Y-19830080D02*
X23534630Y-19891985D01*
X23534630Y-19891985D02*
X23540821Y-19885795D01*
X23540821Y-19885795D02*
X23553202Y-19879604D01*
X23553202Y-19879604D02*
X23584154Y-19879604D01*
X23584154Y-19879604D02*
X23596535Y-19885795D01*
X23596535Y-19885795D02*
X23602725Y-19891985D01*
X23602725Y-19891985D02*
X23608916Y-19904366D01*
X23608916Y-19904366D02*
X23608916Y-19935319D01*
X23608916Y-19935319D02*
X23602725Y-19947700D01*
X23602725Y-19947700D02*
X23596535Y-19953890D01*
X23596535Y-19953890D02*
X23584154Y-19960080D01*
X23584154Y-19960080D02*
X23553202Y-19960080D01*
X23553202Y-19960080D02*
X23540821Y-19953890D01*
X23540821Y-19953890D02*
X23534630Y-19947700D01*
D10*
D11*
X28596535Y-19830080D02*
X28571773Y-19830080D01*
X28571773Y-19830080D02*
X28559392Y-19836271D01*
X28559392Y-19836271D02*
X28553202Y-19842461D01*
X28553202Y-19842461D02*
X28540821Y-19861033D01*
X28540821Y-19861033D02*
X28534630Y-19885795D01*
X28534630Y-19885795D02*
X28534630Y-19935319D01*
X28534630Y-19935319D02*
X28540821Y-19947700D01*
X28540821Y-19947700D02*
X28547011Y-19953890D01*
X28547011Y-19953890D02*
X28559392Y-19960080D01*
X28559392Y-19960080D02*
X28584154Y-19960080D01*
X28584154Y-19960080D02*
X28596535Y-19953890D01*
X28596535Y-19953890D02*
X28602725Y-19947700D01*
X28602725Y-19947700D02*
X28608916Y-19935319D01*
X28608916Y-19935319D02*
X28608916Y-19904366D01*
X28608916Y-19904366D02*
X28602725Y-19891985D01*
X28602725Y-19891985D02*
X28596535Y-19885795D01*
X28596535Y-19885795D02*
X28584154Y-19879604D01*
X28584154Y-19879604D02*
X28559392Y-19879604D01*
X28559392Y-19879604D02*
X28547011Y-19885795D01*
X28547011Y-19885795D02*
X28540821Y-19891985D01*
X28540821Y-19891985D02*
X28534630Y-19904366D01*
D10*
D11*
X1000000Y-6000000D02*
X1200000Y-6000000D01*
D10*
D11*
X1000000Y-11000000D02*
X1200000Y-11000000D01*
D10*
D11*
X1000000Y-16000000D02*
X1200000Y-16000000D01*
D10*
D11*
X1069048Y-3522218D02*
X1130952Y-3522218D01*
X1056667Y-3559360D02*
X1100000Y-3429360D01*
X1100000Y-3429360D02*
X1143333Y-3559360D01*
D10*
D11*
X1109286Y-8491265D02*
X1127857Y-8497456D01*
X1127857Y-8497456D02*
X1134048Y-8503646D01*
X1134048Y-8503646D02*
X1140238Y-8516027D01*
X1140238Y-8516027D02*
X1140238Y-8534599D01*
X1140238Y-8534599D02*
X1134048Y-8546980D01*
X1134048Y-8546980D02*
X1127857Y-8553170D01*
X1127857Y-8553170D02*
X1115476Y-8559360D01*
X1115476Y-8559360D02*
X1065952Y-8559360D01*
X1065952Y-8559360D02*
X1065952Y-8429360D01*
X1065952Y-8429360D02*
X1109286Y-8429360D01*
X1109286Y-8429360D02*
X1121667Y-8435551D01*
X1121667Y-8435551D02*
X1127857Y-8441741D01*
X1127857Y-8441741D02*
X1134048Y-8454122D01*
X1134048Y-8454122D02*
X1134048Y-8466503D01*
X1134048Y-8466503D02*
X1127857Y-8478884D01*
X1127857Y-8478884D02*
X1121667Y-8485075D01*
X1121667Y-8485075D02*
X1109286Y-8491265D01*
X1109286Y-8491265D02*
X1065952Y-8491265D01*
D10*
D11*
X1140238Y-13546979D02*
X1134048Y-13553170D01*
X1134048Y-13553170D02*
X1115476Y-13559360D01*
X1115476Y-13559360D02*
X1103095Y-13559360D01*
X1103095Y-13559360D02*
X1084524Y-13553170D01*
X1084524Y-13553170D02*
X1072143Y-13540789D01*
X1072143Y-13540789D02*
X1065952Y-13528408D01*
X1065952Y-13528408D02*
X1059762Y-13503646D01*
X1059762Y-13503646D02*
X1059762Y-13485075D01*
X1059762Y-13485075D02*
X1065952Y-13460313D01*
X1065952Y-13460313D02*
X1072143Y-13447932D01*
X1072143Y-13447932D02*
X1084524Y-13435551D01*
X1084524Y-13435551D02*
X1103095Y-13429360D01*
X1103095Y-13429360D02*
X1115476Y-13429360D01*
X1115476Y-13429360D02*
X1134048Y-13435551D01*
X1134048Y-13435551D02*
X1140238Y-13441741D01*
D10*
D11*
X1065952Y-18559360D02*
X1065952Y-18429360D01*
X1065952Y-18429360D02*
X1096905Y-18429360D01*
X1096905Y-18429360D02*
X1115476Y-18435551D01*
X1115476Y-18435551D02*
X1127857Y-18447932D01*
X1127857Y-18447932D02*
X1134048Y-18460313D01*
X1134048Y-18460313D02*
X1140238Y-18485075D01*
X1140238Y-18485075D02*
X1140238Y-18503646D01*
X1140238Y-18503646D02*
X1134048Y-18528408D01*
X1134048Y-18528408D02*
X1127857Y-18540789D01*
X1127857Y-18540789D02*
X1115476Y-18553170D01*
X1115476Y-18553170D02*
X1096905Y-18559360D01*
X1096905Y-18559360D02*
X1065952Y-18559360D01*
D10*
D11*
X28700220Y-6000000D02*
X28500220Y-6000000D01*
D10*
D11*
X28700220Y-11000000D02*
X28500220Y-11000000D01*
D10*
D11*
X28700220Y-16000000D02*
X28500220Y-16000000D01*
D10*
D11*
X28569268Y-3522218D02*
X28631172Y-3522218D01*
X28556887Y-3559360D02*
X28600220Y-3429360D01*
X28600220Y-3429360D02*
X28643553Y-3559360D01*
D10*
D11*
X28609506Y-8491265D02*
X28628077Y-8497456D01*
X28628077Y-8497456D02*
X28634268Y-8503646D01*
X28634268Y-8503646D02*
X28640458Y-8516027D01*
X28640458Y-8516027D02*
X28640458Y-8534599D01*
X28640458Y-8534599D02*
X28634268Y-8546980D01*
X28634268Y-8546980D02*
X28628077Y-8553170D01*
X28628077Y-8553170D02*
X28615696Y-8559360D01*
X28615696Y-8559360D02*
X28566172Y-8559360D01*
X28566172Y-8559360D02*
X28566172Y-8429360D01*
X28566172Y-8429360D02*
X28609506Y-8429360D01*
X28609506Y-8429360D02*
X28621887Y-8435551D01*
X28621887Y-8435551D02*
X28628077Y-8441741D01*
X28628077Y-8441741D02*
X28634268Y-8454122D01*
X28634268Y-8454122D02*
X28634268Y-8466503D01*
X28634268Y-8466503D02*
X28628077Y-8478884D01*
X28628077Y-8478884D02*
X28621887Y-8485075D01*
X28621887Y-8485075D02*
X28609506Y-8491265D01*
X28609506Y-8491265D02*
X28566172Y-8491265D01*
D10*
D11*
X28640458Y-13546979D02*
X28634268Y-13553170D01*
X28634268Y-13553170D02*
X28615696Y-13559360D01*
X28615696Y-13559360D02*
X28603315Y-13559360D01*
X28603315Y-13559360D02*
X28584744Y-13553170D01*
X28584744Y-13553170D02*
X28572363Y-13540789D01*
X28572363Y-13540789D02*
X28566172Y-13528408D01*
X28566172Y-13528408D02*
X28559982Y-13503646D01*
X28559982Y-13503646D02*
X28559982Y-13485075D01*
X28559982Y-13485075D02*
X28566172Y-13460313D01*
X28566172Y-13460313D02*
X28572363Y-13447932D01*
X28572363Y-13447932D02*
X28584744Y-13435551D01*
X28584744Y-13435551D02*
X28603315Y-13429360D01*
X28603315Y-13429360D02*
X28615696Y-13429360D01*
X28615696Y-13429360D02*
X28634268Y-13435551D01*
X28634268Y-13435551D02*
X28640458Y-13441741D01*
D10*
D11*
X28566172Y-18559360D02*
X28566172Y-18429360D01*
X28566172Y-18429360D02*
X28597125Y-18429360D01*
X28597125Y-18429360D02*
X28615696Y-18435551D01*
X28615696Y-18435551D02*
X28628077Y-18447932D01*
X28628077Y-18447932D02*
X28634268Y-18460313D01*
X28634268Y-18460313D02*
X28640458Y-18485075D01*
X28640458Y-18485075D02*
X28640458Y-18503646D01*
X28640458Y-18503646D02*
X28634268Y-18528408D01*
X28634268Y-18528408D02*
X28628077Y-18540789D01*
X28628077Y-18540789D02*
X28615696Y-18553170D01*
X28615696Y-18553170D02*
X28597125Y-18559360D01*
X28597125Y-18559360D02*
X28566172Y-18559360D01*
D10*
D11*
X20045803Y-19379333D02*
X20045803Y-19229333D01*
X20045803Y-19229333D02*
X20081517Y-19229333D01*
X20081517Y-19229333D02*
X20102946Y-19236476D01*
X20102946Y-19236476D02*
X20117231Y-19250761D01*
X20117231Y-19250761D02*
X20124374Y-19265047D01*
X20124374Y-19265047D02*
X20131517Y-19293619D01*
X20131517Y-19293619D02*
X20131517Y-19315047D01*
X20131517Y-19315047D02*
X20124374Y-19343619D01*
X20124374Y-19343619D02*
X20117231Y-19357904D01*
X20117231Y-19357904D02*
X20102946Y-19372190D01*
X20102946Y-19372190D02*
X20081517Y-19379333D01*
X20081517Y-19379333D02*
X20045803Y-19379333D01*
X20260088Y-19379333D02*
X20260088Y-19300761D01*
X20260088Y-19300761D02*
X20252946Y-19286476D01*
X20252946Y-19286476D02*
X20238660Y-19279333D01*
X20238660Y-19279333D02*
X20210088Y-19279333D01*
X20210088Y-19279333D02*
X20195803Y-19286476D01*
X20260088Y-19372190D02*
X20245803Y-19379333D01*
X20245803Y-19379333D02*
X20210088Y-19379333D01*
X20210088Y-19379333D02*
X20195803Y-19372190D01*
X20195803Y-19372190D02*
X20188660Y-19357904D01*
X20188660Y-19357904D02*
X20188660Y-19343619D01*
X20188660Y-19343619D02*
X20195803Y-19329333D01*
X20195803Y-19329333D02*
X20210088Y-19322190D01*
X20210088Y-19322190D02*
X20245803Y-19322190D01*
X20245803Y-19322190D02*
X20260088Y-19315047D01*
X20310088Y-19279333D02*
X20367231Y-19279333D01*
X20331517Y-19229333D02*
X20331517Y-19357904D01*
X20331517Y-19357904D02*
X20338660Y-19372190D01*
X20338660Y-19372190D02*
X20352946Y-19379333D01*
X20352946Y-19379333D02*
X20367231Y-19379333D01*
X20474374Y-19372190D02*
X20460088Y-19379333D01*
X20460088Y-19379333D02*
X20431517Y-19379333D01*
X20431517Y-19379333D02*
X20417231Y-19372190D01*
X20417231Y-19372190D02*
X20410088Y-19357904D01*
X20410088Y-19357904D02*
X20410088Y-19300761D01*
X20410088Y-19300761D02*
X20417231Y-19286476D01*
X20417231Y-19286476D02*
X20431517Y-19279333D01*
X20431517Y-19279333D02*
X20460088Y-19279333D01*
X20460088Y-19279333D02*
X20474374Y-19286476D01*
X20474374Y-19286476D02*
X20481517Y-19300761D01*
X20481517Y-19300761D02*
X20481517Y-19315047D01*
X20481517Y-19315047D02*
X20410088Y-19329333D01*
X20545803Y-19365047D02*
X20552946Y-19372190D01*
X20552946Y-19372190D02*
X20545803Y-19379333D01*
X20545803Y-19379333D02*
X20538660Y-19372190D01*
X20538660Y-19372190D02*
X20545803Y-19365047D01*
X20545803Y-19365047D02*
X20545803Y-19379333D01*
X20545803Y-19286476D02*
X20552946Y-19293619D01*
X20552946Y-19293619D02*
X20545803Y-19300761D01*
X20545803Y-19300761D02*
X20538660Y-19293619D01*
X20538660Y-19293619D02*
X20545803Y-19286476D01*
X20545803Y-19286476D02*
X20545803Y-19300761D01*
D10*
D11*
X17700220Y-19450720D02*
X28500220Y-19450720D01*
D10*
D11*
X17845803Y-19659333D02*
X17845803Y-19509333D01*
X17931517Y-19659333D02*
X17867231Y-19573619D01*
X17931517Y-19509333D02*
X17845803Y-19595047D01*
X17995803Y-19659333D02*
X17995803Y-19559333D01*
X17995803Y-19509333D02*
X17988660Y-19516476D01*
X17988660Y-19516476D02*
X17995803Y-19523619D01*
X17995803Y-19523619D02*
X18002946Y-19516476D01*
X18002946Y-19516476D02*
X17995803Y-19509333D01*
X17995803Y-19509333D02*
X17995803Y-19523619D01*
X18152946Y-19645047D02*
X18145803Y-19652190D01*
X18145803Y-19652190D02*
X18124374Y-19659333D01*
X18124374Y-19659333D02*
X18110088Y-19659333D01*
X18110088Y-19659333D02*
X18088660Y-19652190D01*
X18088660Y-19652190D02*
X18074374Y-19637904D01*
X18074374Y-19637904D02*
X18067231Y-19623619D01*
X18067231Y-19623619D02*
X18060088Y-19595047D01*
X18060088Y-19595047D02*
X18060088Y-19573619D01*
X18060088Y-19573619D02*
X18067231Y-19545047D01*
X18067231Y-19545047D02*
X18074374Y-19530761D01*
X18074374Y-19530761D02*
X18088660Y-19516476D01*
X18088660Y-19516476D02*
X18110088Y-19509333D01*
X18110088Y-19509333D02*
X18124374Y-19509333D01*
X18124374Y-19509333D02*
X18145803Y-19516476D01*
X18145803Y-19516476D02*
X18152946Y-19523619D01*
X18281517Y-19659333D02*
X18281517Y-19580761D01*
X18281517Y-19580761D02*
X18274374Y-19566476D01*
X18274374Y-19566476D02*
X18260088Y-19559333D01*
X18260088Y-19559333D02*
X18231517Y-19559333D01*
X18231517Y-19559333D02*
X18217231Y-19566476D01*
X18281517Y-19652190D02*
X18267231Y-19659333D01*
X18267231Y-19659333D02*
X18231517Y-19659333D01*
X18231517Y-19659333D02*
X18217231Y-19652190D01*
X18217231Y-19652190D02*
X18210088Y-19637904D01*
X18210088Y-19637904D02*
X18210088Y-19623619D01*
X18210088Y-19623619D02*
X18217231Y-19609333D01*
X18217231Y-19609333D02*
X18231517Y-19602190D01*
X18231517Y-19602190D02*
X18267231Y-19602190D01*
X18267231Y-19602190D02*
X18281517Y-19595047D01*
X18417231Y-19659333D02*
X18417231Y-19509333D01*
X18417231Y-19652190D02*
X18402946Y-19659333D01*
X18402946Y-19659333D02*
X18374374Y-19659333D01*
X18374374Y-19659333D02*
X18360088Y-19652190D01*
X18360088Y-19652190D02*
X18352946Y-19645047D01*
X18352946Y-19645047D02*
X18345803Y-19630761D01*
X18345803Y-19630761D02*
X18345803Y-19587904D01*
X18345803Y-19587904D02*
X18352946Y-19573619D01*
X18352946Y-19573619D02*
X18360088Y-19566476D01*
X18360088Y-19566476D02*
X18374374Y-19559333D01*
X18374374Y-19559333D02*
X18402946Y-19559333D01*
X18402946Y-19559333D02*
X18417231Y-19566476D01*
X18602946Y-19580761D02*
X18652946Y-19580761D01*
X18674374Y-19659333D02*
X18602946Y-19659333D01*
X18602946Y-19659333D02*
X18602946Y-19509333D01*
X18602946Y-19509333D02*
X18674374Y-19509333D01*
X18738660Y-19645047D02*
X18745803Y-19652190D01*
X18745803Y-19652190D02*
X18738660Y-19659333D01*
X18738660Y-19659333D02*
X18731517Y-19652190D01*
X18731517Y-19652190D02*
X18738660Y-19645047D01*
X18738660Y-19645047D02*
X18738660Y-19659333D01*
X18810088Y-19659333D02*
X18810088Y-19509333D01*
X18810088Y-19509333D02*
X18845803Y-19509333D01*
X18845803Y-19509333D02*
X18867231Y-19516476D01*
X18867231Y-19516476D02*
X18881517Y-19530761D01*
X18881517Y-19530761D02*
X18888660Y-19545047D01*
X18888660Y-19545047D02*
X18895803Y-19573619D01*
X18895803Y-19573619D02*
X18895803Y-19595047D01*
X18895803Y-19595047D02*
X18888660Y-19623619D01*
X18888660Y-19623619D02*
X18881517Y-19637904D01*
X18881517Y-19637904D02*
X18867231Y-19652190D01*
X18867231Y-19652190D02*
X18845803Y-19659333D01*
X18845803Y-19659333D02*
X18810088Y-19659333D01*
X18960088Y-19645047D02*
X18967231Y-19652190D01*
X18967231Y-19652190D02*
X18960088Y-19659333D01*
X18960088Y-19659333D02*
X18952946Y-19652190D01*
X18952946Y-19652190D02*
X18960088Y-19645047D01*
X18960088Y-19645047D02*
X18960088Y-19659333D01*
X19024374Y-19616476D02*
X19095803Y-19616476D01*
X19010089Y-19659333D02*
X19060089Y-19509333D01*
X19060089Y-19509333D02*
X19110089Y-19659333D01*
X19160088Y-19645047D02*
X19167231Y-19652190D01*
X19167231Y-19652190D02*
X19160088Y-19659333D01*
X19160088Y-19659333D02*
X19152946Y-19652190D01*
X19152946Y-19652190D02*
X19160088Y-19645047D01*
X19160088Y-19645047D02*
X19160088Y-19659333D01*
X19367231Y-19573619D02*
X19352946Y-19566476D01*
X19352946Y-19566476D02*
X19345803Y-19559333D01*
X19345803Y-19559333D02*
X19338660Y-19545047D01*
X19338660Y-19545047D02*
X19338660Y-19537904D01*
X19338660Y-19537904D02*
X19345803Y-19523619D01*
X19345803Y-19523619D02*
X19352946Y-19516476D01*
X19352946Y-19516476D02*
X19367231Y-19509333D01*
X19367231Y-19509333D02*
X19395803Y-19509333D01*
X19395803Y-19509333D02*
X19410089Y-19516476D01*
X19410089Y-19516476D02*
X19417231Y-19523619D01*
X19417231Y-19523619D02*
X19424374Y-19537904D01*
X19424374Y-19537904D02*
X19424374Y-19545047D01*
X19424374Y-19545047D02*
X19417231Y-19559333D01*
X19417231Y-19559333D02*
X19410089Y-19566476D01*
X19410089Y-19566476D02*
X19395803Y-19573619D01*
X19395803Y-19573619D02*
X19367231Y-19573619D01*
X19367231Y-19573619D02*
X19352946Y-19580761D01*
X19352946Y-19580761D02*
X19345803Y-19587904D01*
X19345803Y-19587904D02*
X19338660Y-19602190D01*
X19338660Y-19602190D02*
X19338660Y-19630761D01*
X19338660Y-19630761D02*
X19345803Y-19645047D01*
X19345803Y-19645047D02*
X19352946Y-19652190D01*
X19352946Y-19652190D02*
X19367231Y-19659333D01*
X19367231Y-19659333D02*
X19395803Y-19659333D01*
X19395803Y-19659333D02*
X19410089Y-19652190D01*
X19410089Y-19652190D02*
X19417231Y-19645047D01*
X19417231Y-19645047D02*
X19424374Y-19630761D01*
X19424374Y-19630761D02*
X19424374Y-19602190D01*
X19424374Y-19602190D02*
X19417231Y-19587904D01*
X19417231Y-19587904D02*
X19410089Y-19580761D01*
X19410089Y-19580761D02*
X19395803Y-19573619D01*
X19488660Y-19645047D02*
X19495803Y-19652190D01*
X19495803Y-19652190D02*
X19488660Y-19659333D01*
X19488660Y-19659333D02*
X19481517Y-19652190D01*
X19481517Y-19652190D02*
X19488660Y-19645047D01*
X19488660Y-19645047D02*
X19488660Y-19659333D01*
X19588660Y-19509333D02*
X19602946Y-19509333D01*
X19602946Y-19509333D02*
X19617231Y-19516476D01*
X19617231Y-19516476D02*
X19624374Y-19523619D01*
X19624374Y-19523619D02*
X19631517Y-19537904D01*
X19631517Y-19537904D02*
X19638660Y-19566476D01*
X19638660Y-19566476D02*
X19638660Y-19602190D01*
X19638660Y-19602190D02*
X19631517Y-19630761D01*
X19631517Y-19630761D02*
X19624374Y-19645047D01*
X19624374Y-19645047D02*
X19617231Y-19652190D01*
X19617231Y-19652190D02*
X19602946Y-19659333D01*
X19602946Y-19659333D02*
X19588660Y-19659333D01*
X19588660Y-19659333D02*
X19574374Y-19652190D01*
X19574374Y-19652190D02*
X19567231Y-19645047D01*
X19567231Y-19645047D02*
X19560088Y-19630761D01*
X19560088Y-19630761D02*
X19552946Y-19602190D01*
X19552946Y-19602190D02*
X19552946Y-19566476D01*
X19552946Y-19566476D02*
X19560088Y-19537904D01*
X19560088Y-19537904D02*
X19567231Y-19523619D01*
X19567231Y-19523619D02*
X19574374Y-19516476D01*
X19574374Y-19516476D02*
X19588660Y-19509333D01*
X19702946Y-19645047D02*
X19710088Y-19652190D01*
X19710088Y-19652190D02*
X19702946Y-19659333D01*
X19702946Y-19659333D02*
X19695803Y-19652190D01*
X19695803Y-19652190D02*
X19702946Y-19645047D01*
X19702946Y-19645047D02*
X19702946Y-19659333D01*
X19845803Y-19509333D02*
X19774374Y-19509333D01*
X19774374Y-19509333D02*
X19767231Y-19580761D01*
X19767231Y-19580761D02*
X19774374Y-19573619D01*
X19774374Y-19573619D02*
X19788660Y-19566476D01*
X19788660Y-19566476D02*
X19824374Y-19566476D01*
X19824374Y-19566476D02*
X19838660Y-19573619D01*
X19838660Y-19573619D02*
X19845803Y-19580761D01*
X19845803Y-19580761D02*
X19852946Y-19595047D01*
X19852946Y-19595047D02*
X19852946Y-19630761D01*
X19852946Y-19630761D02*
X19845803Y-19645047D01*
X19845803Y-19645047D02*
X19838660Y-19652190D01*
X19838660Y-19652190D02*
X19824374Y-19659333D01*
X19824374Y-19659333D02*
X19788660Y-19659333D01*
X19788660Y-19659333D02*
X19774374Y-19652190D01*
X19774374Y-19652190D02*
X19767231Y-19645047D01*
D10*
D11*
X17700220Y-19150720D02*
X28500220Y-19150720D01*
D10*
D12*
X26441385Y-19378553D02*
X26391385Y-19307124D01*
X26355671Y-19378553D02*
X26355671Y-19228553D01*
X26355671Y-19228553D02*
X26412814Y-19228553D01*
X26412814Y-19228553D02*
X26427100Y-19235696D01*
X26427100Y-19235696D02*
X26434242Y-19242839D01*
X26434242Y-19242839D02*
X26441385Y-19257124D01*
X26441385Y-19257124D02*
X26441385Y-19278553D01*
X26441385Y-19278553D02*
X26434242Y-19292839D01*
X26434242Y-19292839D02*
X26427100Y-19299981D01*
X26427100Y-19299981D02*
X26412814Y-19307124D01*
X26412814Y-19307124D02*
X26355671Y-19307124D01*
X26562814Y-19371410D02*
X26548528Y-19378553D01*
X26548528Y-19378553D02*
X26519957Y-19378553D01*
X26519957Y-19378553D02*
X26505671Y-19371410D01*
X26505671Y-19371410D02*
X26498528Y-19357124D01*
X26498528Y-19357124D02*
X26498528Y-19299981D01*
X26498528Y-19299981D02*
X26505671Y-19285696D01*
X26505671Y-19285696D02*
X26519957Y-19278553D01*
X26519957Y-19278553D02*
X26548528Y-19278553D01*
X26548528Y-19278553D02*
X26562814Y-19285696D01*
X26562814Y-19285696D02*
X26569957Y-19299981D01*
X26569957Y-19299981D02*
X26569957Y-19314267D01*
X26569957Y-19314267D02*
X26498528Y-19328553D01*
X26619957Y-19278553D02*
X26655671Y-19378553D01*
X26655671Y-19378553D02*
X26691385Y-19278553D01*
X26748528Y-19364267D02*
X26755671Y-19371410D01*
X26755671Y-19371410D02*
X26748528Y-19378553D01*
X26748528Y-19378553D02*
X26741385Y-19371410D01*
X26741385Y-19371410D02*
X26748528Y-19364267D01*
X26748528Y-19364267D02*
X26748528Y-19378553D01*
X26748528Y-19285696D02*
X26755671Y-19292839D01*
X26755671Y-19292839D02*
X26748528Y-19299981D01*
X26748528Y-19299981D02*
X26741385Y-19292839D01*
X26741385Y-19292839D02*
X26748528Y-19285696D01*
X26748528Y-19285696D02*
X26748528Y-19299981D01*
D10*
D11*
X17838660Y-19372190D02*
X17860088Y-19379333D01*
X17860088Y-19379333D02*
X17895803Y-19379333D01*
X17895803Y-19379333D02*
X17910088Y-19372190D01*
X17910088Y-19372190D02*
X17917231Y-19365047D01*
X17917231Y-19365047D02*
X17924374Y-19350761D01*
X17924374Y-19350761D02*
X17924374Y-19336476D01*
X17924374Y-19336476D02*
X17917231Y-19322190D01*
X17917231Y-19322190D02*
X17910088Y-19315047D01*
X17910088Y-19315047D02*
X17895803Y-19307904D01*
X17895803Y-19307904D02*
X17867231Y-19300761D01*
X17867231Y-19300761D02*
X17852946Y-19293619D01*
X17852946Y-19293619D02*
X17845803Y-19286476D01*
X17845803Y-19286476D02*
X17838660Y-19272190D01*
X17838660Y-19272190D02*
X17838660Y-19257904D01*
X17838660Y-19257904D02*
X17845803Y-19243619D01*
X17845803Y-19243619D02*
X17852946Y-19236476D01*
X17852946Y-19236476D02*
X17867231Y-19229333D01*
X17867231Y-19229333D02*
X17902946Y-19229333D01*
X17902946Y-19229333D02*
X17924374Y-19236476D01*
X17988660Y-19379333D02*
X17988660Y-19279333D01*
X17988660Y-19229333D02*
X17981517Y-19236476D01*
X17981517Y-19236476D02*
X17988660Y-19243619D01*
X17988660Y-19243619D02*
X17995803Y-19236476D01*
X17995803Y-19236476D02*
X17988660Y-19229333D01*
X17988660Y-19229333D02*
X17988660Y-19243619D01*
X18045803Y-19279333D02*
X18124374Y-19279333D01*
X18124374Y-19279333D02*
X18045803Y-19379333D01*
X18045803Y-19379333D02*
X18124374Y-19379333D01*
X18238660Y-19372190D02*
X18224374Y-19379333D01*
X18224374Y-19379333D02*
X18195803Y-19379333D01*
X18195803Y-19379333D02*
X18181517Y-19372190D01*
X18181517Y-19372190D02*
X18174374Y-19357904D01*
X18174374Y-19357904D02*
X18174374Y-19300761D01*
X18174374Y-19300761D02*
X18181517Y-19286476D01*
X18181517Y-19286476D02*
X18195803Y-19279333D01*
X18195803Y-19279333D02*
X18224374Y-19279333D01*
X18224374Y-19279333D02*
X18238660Y-19286476D01*
X18238660Y-19286476D02*
X18245803Y-19300761D01*
X18245803Y-19300761D02*
X18245803Y-19315047D01*
X18245803Y-19315047D02*
X18174374Y-19329333D01*
X18310088Y-19365047D02*
X18317231Y-19372190D01*
X18317231Y-19372190D02*
X18310088Y-19379333D01*
X18310088Y-19379333D02*
X18302946Y-19372190D01*
X18302946Y-19372190D02*
X18310088Y-19365047D01*
X18310088Y-19365047D02*
X18310088Y-19379333D01*
X18310088Y-19286476D02*
X18317231Y-19293619D01*
X18317231Y-19293619D02*
X18310088Y-19300761D01*
X18310088Y-19300761D02*
X18302946Y-19293619D01*
X18302946Y-19293619D02*
X18310088Y-19286476D01*
X18310088Y-19286476D02*
X18310088Y-19300761D01*
X18488660Y-19336476D02*
X18560088Y-19336476D01*
X18474374Y-19379333D02*
X18524374Y-19229333D01*
X18524374Y-19229333D02*
X18574374Y-19379333D01*
X18688660Y-19279333D02*
X18688660Y-19379333D01*
X18652946Y-19222190D02*
X18617231Y-19329333D01*
X18617231Y-19329333D02*
X18710088Y-19329333D01*
D10*
D11*
X26345803Y-19659333D02*
X26345803Y-19509333D01*
X26481517Y-19659333D02*
X26481517Y-19509333D01*
X26481517Y-19652190D02*
X26467231Y-19659333D01*
X26467231Y-19659333D02*
X26438660Y-19659333D01*
X26438660Y-19659333D02*
X26424374Y-19652190D01*
X26424374Y-19652190D02*
X26417231Y-19645047D01*
X26417231Y-19645047D02*
X26410088Y-19630761D01*
X26410088Y-19630761D02*
X26410088Y-19587904D01*
X26410088Y-19587904D02*
X26417231Y-19573619D01*
X26417231Y-19573619D02*
X26424374Y-19566476D01*
X26424374Y-19566476D02*
X26438660Y-19559333D01*
X26438660Y-19559333D02*
X26467231Y-19559333D01*
X26467231Y-19559333D02*
X26481517Y-19566476D01*
X26552945Y-19645047D02*
X26560088Y-19652190D01*
X26560088Y-19652190D02*
X26552945Y-19659333D01*
X26552945Y-19659333D02*
X26545803Y-19652190D01*
X26545803Y-19652190D02*
X26552945Y-19645047D01*
X26552945Y-19645047D02*
X26552945Y-19659333D01*
X26552945Y-19566476D02*
X26560088Y-19573619D01*
X26560088Y-19573619D02*
X26552945Y-19580761D01*
X26552945Y-19580761D02*
X26545803Y-19573619D01*
X26545803Y-19573619D02*
X26552945Y-19566476D01*
X26552945Y-19566476D02*
X26552945Y-19580761D01*
X26817231Y-19659333D02*
X26731517Y-19659333D01*
X26774374Y-19659333D02*
X26774374Y-19509333D01*
X26774374Y-19509333D02*
X26760088Y-19530761D01*
X26760088Y-19530761D02*
X26745803Y-19545047D01*
X26745803Y-19545047D02*
X26731517Y-19552190D01*
X26988660Y-19502190D02*
X26860088Y-19695047D01*
X27117231Y-19659333D02*
X27031517Y-19659333D01*
X27074374Y-19659333D02*
X27074374Y-19509333D01*
X27074374Y-19509333D02*
X27060088Y-19530761D01*
X27060088Y-19530761D02*
X27045803Y-19545047D01*
X27045803Y-19545047D02*
X27031517Y-19552190D01*
D10*
D11*
X17700220Y-18750720D02*
X28500220Y-18750720D01*
D10*
D13*
X17869393Y-18821164D02*
X17983679Y-18821164D01*
X17901536Y-19021164D02*
X17926536Y-18821164D01*
X18025345Y-19021164D02*
X18042012Y-18887830D01*
X18050345Y-18821164D02*
X18039631Y-18830688D01*
X18039631Y-18830688D02*
X18047964Y-18840211D01*
X18047964Y-18840211D02*
X18058679Y-18830688D01*
X18058679Y-18830688D02*
X18050345Y-18821164D01*
X18050345Y-18821164D02*
X18047964Y-18840211D01*
X18108679Y-18887830D02*
X18184869Y-18887830D01*
X18145583Y-18821164D02*
X18124155Y-18992592D01*
X18124155Y-18992592D02*
X18131298Y-19011640D01*
X18131298Y-19011640D02*
X18149155Y-19021164D01*
X18149155Y-19021164D02*
X18168202Y-19021164D01*
X18263441Y-19021164D02*
X18245583Y-19011640D01*
X18245583Y-19011640D02*
X18238441Y-18992592D01*
X18238441Y-18992592D02*
X18259869Y-18821164D01*
X18417012Y-19011640D02*
X18396774Y-19021164D01*
X18396774Y-19021164D02*
X18358679Y-19021164D01*
X18358679Y-19021164D02*
X18340821Y-19011640D01*
X18340821Y-19011640D02*
X18333679Y-18992592D01*
X18333679Y-18992592D02*
X18343202Y-18916402D01*
X18343202Y-18916402D02*
X18355107Y-18897354D01*
X18355107Y-18897354D02*
X18375345Y-18887830D01*
X18375345Y-18887830D02*
X18413440Y-18887830D01*
X18413440Y-18887830D02*
X18431298Y-18897354D01*
X18431298Y-18897354D02*
X18438440Y-18916402D01*
X18438440Y-18916402D02*
X18436060Y-18935450D01*
X18436060Y-18935450D02*
X18338440Y-18954497D01*
X18513441Y-19002116D02*
X18521774Y-19011640D01*
X18521774Y-19011640D02*
X18511060Y-19021164D01*
X18511060Y-19021164D02*
X18502726Y-19011640D01*
X18502726Y-19011640D02*
X18513441Y-19002116D01*
X18513441Y-19002116D02*
X18511060Y-19021164D01*
X18526536Y-18897354D02*
X18534869Y-18906878D01*
X18534869Y-18906878D02*
X18524155Y-18916402D01*
X18524155Y-18916402D02*
X18515821Y-18906878D01*
X18515821Y-18906878D02*
X18526536Y-18897354D01*
X18526536Y-18897354D02*
X18524155Y-18916402D01*
D10*
D11*
X17895803Y-18560761D02*
X17845803Y-18560761D01*
X17845803Y-18639333D02*
X17845803Y-18489333D01*
X17845803Y-18489333D02*
X17917231Y-18489333D01*
X17974374Y-18639333D02*
X17974374Y-18539333D01*
X17974374Y-18489333D02*
X17967231Y-18496476D01*
X17967231Y-18496476D02*
X17974374Y-18503619D01*
X17974374Y-18503619D02*
X17981517Y-18496476D01*
X17981517Y-18496476D02*
X17974374Y-18489333D01*
X17974374Y-18489333D02*
X17974374Y-18503619D01*
X18067231Y-18639333D02*
X18052946Y-18632190D01*
X18052946Y-18632190D02*
X18045803Y-18617904D01*
X18045803Y-18617904D02*
X18045803Y-18489333D01*
X18181517Y-18632190D02*
X18167231Y-18639333D01*
X18167231Y-18639333D02*
X18138660Y-18639333D01*
X18138660Y-18639333D02*
X18124374Y-18632190D01*
X18124374Y-18632190D02*
X18117231Y-18617904D01*
X18117231Y-18617904D02*
X18117231Y-18560761D01*
X18117231Y-18560761D02*
X18124374Y-18546476D01*
X18124374Y-18546476D02*
X18138660Y-18539333D01*
X18138660Y-18539333D02*
X18167231Y-18539333D01*
X18167231Y-18539333D02*
X18181517Y-18546476D01*
X18181517Y-18546476D02*
X18188660Y-18560761D01*
X18188660Y-18560761D02*
X18188660Y-18575047D01*
X18188660Y-18575047D02*
X18117231Y-18589333D01*
X18252945Y-18625047D02*
X18260088Y-18632190D01*
X18260088Y-18632190D02*
X18252945Y-18639333D01*
X18252945Y-18639333D02*
X18245803Y-18632190D01*
X18245803Y-18632190D02*
X18252945Y-18625047D01*
X18252945Y-18625047D02*
X18252945Y-18639333D01*
X18252945Y-18546476D02*
X18260088Y-18553619D01*
X18260088Y-18553619D02*
X18252945Y-18560761D01*
X18252945Y-18560761D02*
X18245803Y-18553619D01*
X18245803Y-18553619D02*
X18252945Y-18546476D01*
X18252945Y-18546476D02*
X18252945Y-18560761D01*
X18424374Y-18539333D02*
X18452946Y-18639333D01*
X18452946Y-18639333D02*
X18481517Y-18567904D01*
X18481517Y-18567904D02*
X18510088Y-18639333D01*
X18510088Y-18639333D02*
X18538660Y-18539333D01*
X18660088Y-18639333D02*
X18660088Y-18560761D01*
X18660088Y-18560761D02*
X18652946Y-18546476D01*
X18652946Y-18546476D02*
X18638660Y-18539333D01*
X18638660Y-18539333D02*
X18610088Y-18539333D01*
X18610088Y-18539333D02*
X18595803Y-18546476D01*
X18660088Y-18632190D02*
X18645803Y-18639333D01*
X18645803Y-18639333D02*
X18610088Y-18639333D01*
X18610088Y-18639333D02*
X18595803Y-18632190D01*
X18595803Y-18632190D02*
X18588660Y-18617904D01*
X18588660Y-18617904D02*
X18588660Y-18603619D01*
X18588660Y-18603619D02*
X18595803Y-18589333D01*
X18595803Y-18589333D02*
X18610088Y-18582190D01*
X18610088Y-18582190D02*
X18645803Y-18582190D01*
X18645803Y-18582190D02*
X18660088Y-18575047D01*
X18752946Y-18639333D02*
X18738660Y-18632190D01*
X18738660Y-18632190D02*
X18731517Y-18617904D01*
X18731517Y-18617904D02*
X18731517Y-18489333D01*
X18788660Y-18539333D02*
X18845803Y-18539333D01*
X18810088Y-18489333D02*
X18810088Y-18617904D01*
X18810088Y-18617904D02*
X18817231Y-18632190D01*
X18817231Y-18632190D02*
X18831517Y-18639333D01*
X18831517Y-18639333D02*
X18845803Y-18639333D01*
X18952946Y-18632190D02*
X18938660Y-18639333D01*
X18938660Y-18639333D02*
X18910088Y-18639333D01*
X18910088Y-18639333D02*
X18895803Y-18632190D01*
X18895803Y-18632190D02*
X18888660Y-18617904D01*
X18888660Y-18617904D02*
X18888660Y-18560761D01*
X18888660Y-18560761D02*
X18895803Y-18546476D01*
X18895803Y-18546476D02*
X18910088Y-18539333D01*
X18910088Y-18539333D02*
X18938660Y-18539333D01*
X18938660Y-18539333D02*
X18952946Y-18546476D01*
X18952946Y-18546476D02*
X18960088Y-18560761D01*
X18960088Y-18560761D02*
X18960088Y-18575047D01*
X18960088Y-18575047D02*
X18888660Y-18589333D01*
X19024374Y-18639333D02*
X19024374Y-18539333D01*
X19024374Y-18567904D02*
X19031517Y-18553619D01*
X19031517Y-18553619D02*
X19038660Y-18546476D01*
X19038660Y-18546476D02*
X19052946Y-18539333D01*
X19052946Y-18539333D02*
X19067231Y-18539333D01*
X19081517Y-18653619D02*
X19195803Y-18653619D01*
X19231517Y-18639333D02*
X19231517Y-18539333D01*
X19231517Y-18567904D02*
X19238660Y-18553619D01*
X19238660Y-18553619D02*
X19245803Y-18546476D01*
X19245803Y-18546476D02*
X19260088Y-18539333D01*
X19260088Y-18539333D02*
X19274374Y-18539333D01*
X19381517Y-18632190D02*
X19367231Y-18639333D01*
X19367231Y-18639333D02*
X19338660Y-18639333D01*
X19338660Y-18639333D02*
X19324374Y-18632190D01*
X19324374Y-18632190D02*
X19317231Y-18617904D01*
X19317231Y-18617904D02*
X19317231Y-18560761D01*
X19317231Y-18560761D02*
X19324374Y-18546476D01*
X19324374Y-18546476D02*
X19338660Y-18539333D01*
X19338660Y-18539333D02*
X19367231Y-18539333D01*
X19367231Y-18539333D02*
X19381517Y-18546476D01*
X19381517Y-18546476D02*
X19388660Y-18560761D01*
X19388660Y-18560761D02*
X19388660Y-18575047D01*
X19388660Y-18575047D02*
X19317231Y-18589333D01*
X19452945Y-18639333D02*
X19452945Y-18539333D01*
X19452945Y-18553619D02*
X19460088Y-18546476D01*
X19460088Y-18546476D02*
X19474374Y-18539333D01*
X19474374Y-18539333D02*
X19495803Y-18539333D01*
X19495803Y-18539333D02*
X19510088Y-18546476D01*
X19510088Y-18546476D02*
X19517231Y-18560761D01*
X19517231Y-18560761D02*
X19517231Y-18639333D01*
X19517231Y-18560761D02*
X19524374Y-18546476D01*
X19524374Y-18546476D02*
X19538660Y-18539333D01*
X19538660Y-18539333D02*
X19560088Y-18539333D01*
X19560088Y-18539333D02*
X19574374Y-18546476D01*
X19574374Y-18546476D02*
X19581517Y-18560761D01*
X19581517Y-18560761D02*
X19581517Y-18639333D01*
X19652945Y-18639333D02*
X19652945Y-18539333D01*
X19652945Y-18489333D02*
X19645803Y-18496476D01*
X19645803Y-18496476D02*
X19652945Y-18503619D01*
X19652945Y-18503619D02*
X19660088Y-18496476D01*
X19660088Y-18496476D02*
X19652945Y-18489333D01*
X19652945Y-18489333D02*
X19652945Y-18503619D01*
X19710088Y-18639333D02*
X19788660Y-18539333D01*
X19710088Y-18539333D02*
X19788660Y-18639333D01*
X19960088Y-18582190D02*
X20074374Y-18582190D01*
X20345803Y-18625047D02*
X20338660Y-18632190D01*
X20338660Y-18632190D02*
X20317231Y-18639333D01*
X20317231Y-18639333D02*
X20302945Y-18639333D01*
X20302945Y-18639333D02*
X20281517Y-18632190D01*
X20281517Y-18632190D02*
X20267231Y-18617904D01*
X20267231Y-18617904D02*
X20260088Y-18603619D01*
X20260088Y-18603619D02*
X20252945Y-18575047D01*
X20252945Y-18575047D02*
X20252945Y-18553619D01*
X20252945Y-18553619D02*
X20260088Y-18525047D01*
X20260088Y-18525047D02*
X20267231Y-18510761D01*
X20267231Y-18510761D02*
X20281517Y-18496476D01*
X20281517Y-18496476D02*
X20302945Y-18489333D01*
X20302945Y-18489333D02*
X20317231Y-18489333D01*
X20317231Y-18489333D02*
X20338660Y-18496476D01*
X20338660Y-18496476D02*
X20345803Y-18503619D01*
X20395803Y-18489333D02*
X20488660Y-18489333D01*
X20488660Y-18489333D02*
X20438660Y-18546476D01*
X20438660Y-18546476D02*
X20460088Y-18546476D01*
X20460088Y-18546476D02*
X20474374Y-18553619D01*
X20474374Y-18553619D02*
X20481517Y-18560761D01*
X20481517Y-18560761D02*
X20488660Y-18575047D01*
X20488660Y-18575047D02*
X20488660Y-18610761D01*
X20488660Y-18610761D02*
X20481517Y-18625047D01*
X20481517Y-18625047D02*
X20474374Y-18632190D01*
X20474374Y-18632190D02*
X20460088Y-18639333D01*
X20460088Y-18639333D02*
X20417231Y-18639333D01*
X20417231Y-18639333D02*
X20402945Y-18632190D01*
X20402945Y-18632190D02*
X20395803Y-18625047D01*
X20538660Y-18539333D02*
X20574374Y-18639333D01*
X20574374Y-18639333D02*
X20610088Y-18539333D01*
X20660088Y-18503619D02*
X20667231Y-18496476D01*
X20667231Y-18496476D02*
X20681517Y-18489333D01*
X20681517Y-18489333D02*
X20717231Y-18489333D01*
X20717231Y-18489333D02*
X20731517Y-18496476D01*
X20731517Y-18496476D02*
X20738660Y-18503619D01*
X20738660Y-18503619D02*
X20745803Y-18517904D01*
X20745803Y-18517904D02*
X20745803Y-18532190D01*
X20745803Y-18532190D02*
X20738660Y-18553619D01*
X20738660Y-18553619D02*
X20652945Y-18639333D01*
X20652945Y-18639333D02*
X20745803Y-18639333D01*
X20810088Y-18625047D02*
X20817231Y-18632190D01*
X20817231Y-18632190D02*
X20810088Y-18639333D01*
X20810088Y-18639333D02*
X20802945Y-18632190D01*
X20802945Y-18632190D02*
X20810088Y-18625047D01*
X20810088Y-18625047D02*
X20810088Y-18639333D01*
X20881517Y-18639333D02*
X20881517Y-18489333D01*
X20895803Y-18582190D02*
X20938660Y-18639333D01*
X20938660Y-18539333D02*
X20881517Y-18596476D01*
X21002945Y-18639333D02*
X21002945Y-18539333D01*
X21002945Y-18489333D02*
X20995803Y-18496476D01*
X20995803Y-18496476D02*
X21002945Y-18503619D01*
X21002945Y-18503619D02*
X21010088Y-18496476D01*
X21010088Y-18496476D02*
X21002945Y-18489333D01*
X21002945Y-18489333D02*
X21002945Y-18503619D01*
X21138660Y-18632190D02*
X21124374Y-18639333D01*
X21124374Y-18639333D02*
X21095803Y-18639333D01*
X21095803Y-18639333D02*
X21081517Y-18632190D01*
X21081517Y-18632190D02*
X21074374Y-18625047D01*
X21074374Y-18625047D02*
X21067231Y-18610761D01*
X21067231Y-18610761D02*
X21067231Y-18567904D01*
X21067231Y-18567904D02*
X21074374Y-18553619D01*
X21074374Y-18553619D02*
X21081517Y-18546476D01*
X21081517Y-18546476D02*
X21095803Y-18539333D01*
X21095803Y-18539333D02*
X21124374Y-18539333D01*
X21124374Y-18539333D02*
X21138660Y-18546476D01*
X21267231Y-18639333D02*
X21267231Y-18560761D01*
X21267231Y-18560761D02*
X21260088Y-18546476D01*
X21260088Y-18546476D02*
X21245803Y-18539333D01*
X21245803Y-18539333D02*
X21217231Y-18539333D01*
X21217231Y-18539333D02*
X21202945Y-18546476D01*
X21267231Y-18632190D02*
X21252945Y-18639333D01*
X21252945Y-18639333D02*
X21217231Y-18639333D01*
X21217231Y-18639333D02*
X21202945Y-18632190D01*
X21202945Y-18632190D02*
X21195803Y-18617904D01*
X21195803Y-18617904D02*
X21195803Y-18603619D01*
X21195803Y-18603619D02*
X21202945Y-18589333D01*
X21202945Y-18589333D02*
X21217231Y-18582190D01*
X21217231Y-18582190D02*
X21252945Y-18582190D01*
X21252945Y-18582190D02*
X21267231Y-18575047D01*
X21402945Y-18639333D02*
X21402945Y-18489333D01*
X21402945Y-18632190D02*
X21388660Y-18639333D01*
X21388660Y-18639333D02*
X21360088Y-18639333D01*
X21360088Y-18639333D02*
X21345803Y-18632190D01*
X21345803Y-18632190D02*
X21338660Y-18625047D01*
X21338660Y-18625047D02*
X21331517Y-18610761D01*
X21331517Y-18610761D02*
X21331517Y-18567904D01*
X21331517Y-18567904D02*
X21338660Y-18553619D01*
X21338660Y-18553619D02*
X21345803Y-18546476D01*
X21345803Y-18546476D02*
X21360088Y-18539333D01*
X21360088Y-18539333D02*
X21388660Y-18539333D01*
X21388660Y-18539333D02*
X21402945Y-18546476D01*
X21438660Y-18653619D02*
X21552945Y-18653619D01*
X21588660Y-18539333D02*
X21588660Y-18689333D01*
X21588660Y-18546476D02*
X21602945Y-18539333D01*
X21602945Y-18539333D02*
X21631517Y-18539333D01*
X21631517Y-18539333D02*
X21645803Y-18546476D01*
X21645803Y-18546476D02*
X21652945Y-18553619D01*
X21652945Y-18553619D02*
X21660088Y-18567904D01*
X21660088Y-18567904D02*
X21660088Y-18610761D01*
X21660088Y-18610761D02*
X21652945Y-18625047D01*
X21652945Y-18625047D02*
X21645803Y-18632190D01*
X21645803Y-18632190D02*
X21631517Y-18639333D01*
X21631517Y-18639333D02*
X21602945Y-18639333D01*
X21602945Y-18639333D02*
X21588660Y-18632190D01*
X21788660Y-18632190D02*
X21774374Y-18639333D01*
X21774374Y-18639333D02*
X21745803Y-18639333D01*
X21745803Y-18639333D02*
X21731517Y-18632190D01*
X21731517Y-18632190D02*
X21724374Y-18625047D01*
X21724374Y-18625047D02*
X21717231Y-18610761D01*
X21717231Y-18610761D02*
X21717231Y-18567904D01*
X21717231Y-18567904D02*
X21724374Y-18553619D01*
X21724374Y-18553619D02*
X21731517Y-18546476D01*
X21731517Y-18546476D02*
X21745803Y-18539333D01*
X21745803Y-18539333D02*
X21774374Y-18539333D01*
X21774374Y-18539333D02*
X21788660Y-18546476D01*
X21852945Y-18639333D02*
X21852945Y-18489333D01*
X21852945Y-18546476D02*
X21867231Y-18539333D01*
X21867231Y-18539333D02*
X21895803Y-18539333D01*
X21895803Y-18539333D02*
X21910088Y-18546476D01*
X21910088Y-18546476D02*
X21917231Y-18553619D01*
X21917231Y-18553619D02*
X21924374Y-18567904D01*
X21924374Y-18567904D02*
X21924374Y-18610761D01*
X21924374Y-18610761D02*
X21917231Y-18625047D01*
X21917231Y-18625047D02*
X21910088Y-18632190D01*
X21910088Y-18632190D02*
X21895803Y-18639333D01*
X21895803Y-18639333D02*
X21867231Y-18639333D01*
X21867231Y-18639333D02*
X21852945Y-18632190D01*
D10*
D11*
X17700220Y-18150720D02*
X28500220Y-18150720D01*
D10*
D11*
X17838660Y-18362190D02*
X17860088Y-18369333D01*
X17860088Y-18369333D02*
X17895803Y-18369333D01*
X17895803Y-18369333D02*
X17910088Y-18362190D01*
X17910088Y-18362190D02*
X17917231Y-18355047D01*
X17917231Y-18355047D02*
X17924374Y-18340761D01*
X17924374Y-18340761D02*
X17924374Y-18326476D01*
X17924374Y-18326476D02*
X17917231Y-18312190D01*
X17917231Y-18312190D02*
X17910088Y-18305047D01*
X17910088Y-18305047D02*
X17895803Y-18297904D01*
X17895803Y-18297904D02*
X17867231Y-18290761D01*
X17867231Y-18290761D02*
X17852946Y-18283619D01*
X17852946Y-18283619D02*
X17845803Y-18276476D01*
X17845803Y-18276476D02*
X17838660Y-18262190D01*
X17838660Y-18262190D02*
X17838660Y-18247904D01*
X17838660Y-18247904D02*
X17845803Y-18233619D01*
X17845803Y-18233619D02*
X17852946Y-18226476D01*
X17852946Y-18226476D02*
X17867231Y-18219333D01*
X17867231Y-18219333D02*
X17902946Y-18219333D01*
X17902946Y-18219333D02*
X17924374Y-18226476D01*
X17988660Y-18369333D02*
X17988660Y-18219333D01*
X18052946Y-18369333D02*
X18052946Y-18290761D01*
X18052946Y-18290761D02*
X18045803Y-18276476D01*
X18045803Y-18276476D02*
X18031517Y-18269333D01*
X18031517Y-18269333D02*
X18010088Y-18269333D01*
X18010088Y-18269333D02*
X17995803Y-18276476D01*
X17995803Y-18276476D02*
X17988660Y-18283619D01*
X18181517Y-18362190D02*
X18167231Y-18369333D01*
X18167231Y-18369333D02*
X18138660Y-18369333D01*
X18138660Y-18369333D02*
X18124374Y-18362190D01*
X18124374Y-18362190D02*
X18117231Y-18347904D01*
X18117231Y-18347904D02*
X18117231Y-18290761D01*
X18117231Y-18290761D02*
X18124374Y-18276476D01*
X18124374Y-18276476D02*
X18138660Y-18269333D01*
X18138660Y-18269333D02*
X18167231Y-18269333D01*
X18167231Y-18269333D02*
X18181517Y-18276476D01*
X18181517Y-18276476D02*
X18188660Y-18290761D01*
X18188660Y-18290761D02*
X18188660Y-18305047D01*
X18188660Y-18305047D02*
X18117231Y-18319333D01*
X18310088Y-18362190D02*
X18295803Y-18369333D01*
X18295803Y-18369333D02*
X18267231Y-18369333D01*
X18267231Y-18369333D02*
X18252945Y-18362190D01*
X18252945Y-18362190D02*
X18245803Y-18347904D01*
X18245803Y-18347904D02*
X18245803Y-18290761D01*
X18245803Y-18290761D02*
X18252945Y-18276476D01*
X18252945Y-18276476D02*
X18267231Y-18269333D01*
X18267231Y-18269333D02*
X18295803Y-18269333D01*
X18295803Y-18269333D02*
X18310088Y-18276476D01*
X18310088Y-18276476D02*
X18317231Y-18290761D01*
X18317231Y-18290761D02*
X18317231Y-18305047D01*
X18317231Y-18305047D02*
X18245803Y-18319333D01*
X18360088Y-18269333D02*
X18417231Y-18269333D01*
X18381517Y-18219333D02*
X18381517Y-18347904D01*
X18381517Y-18347904D02*
X18388660Y-18362190D01*
X18388660Y-18362190D02*
X18402945Y-18369333D01*
X18402945Y-18369333D02*
X18417231Y-18369333D01*
X18467231Y-18355047D02*
X18474374Y-18362190D01*
X18474374Y-18362190D02*
X18467231Y-18369333D01*
X18467231Y-18369333D02*
X18460088Y-18362190D01*
X18460088Y-18362190D02*
X18467231Y-18355047D01*
X18467231Y-18355047D02*
X18467231Y-18369333D01*
X18467231Y-18276476D02*
X18474374Y-18283619D01*
X18474374Y-18283619D02*
X18467231Y-18290761D01*
X18467231Y-18290761D02*
X18460088Y-18283619D01*
X18460088Y-18283619D02*
X18467231Y-18276476D01*
X18467231Y-18276476D02*
X18467231Y-18290761D01*
D10*
D11*
X19700220Y-19150720D02*
X19700220Y-19450720D01*
D10*
D11*
X26100220Y-19150720D02*
X26100220Y-19800720D01*
G36*
X15240985Y-6995617D02*
G01*
X15247580Y-6995373D01*
X15245763Y-6985717D01*
X15244747Y-6980620D01*
X15242348Y-6971050D01*
X15241767Y-6969190D01*
X15237663Y-6961325D01*
X15231118Y-6956831D01*
X15221104Y-6955366D01*
X15212360Y-6955561D01*
X15202297Y-6955985D01*
X15201955Y-6956001D01*
X15192156Y-6956343D01*
X15190720Y-6956391D01*
X15180846Y-6956584D01*
X15179485Y-6956587D01*
X15169372Y-6956587D01*
X15163365Y-6956587D01*
X15153374Y-6956510D01*
X15150908Y-6956489D01*
X15141334Y-6956245D01*
X15133763Y-6955854D01*
X15127315Y-6955170D01*
X15121111Y-6954242D01*
X15121111Y-6959664D01*
X15126338Y-6966601D01*
X15136045Y-6968957D01*
X15137817Y-6968994D01*
X15147910Y-6968637D01*
X15153986Y-6968164D01*
X15163768Y-6967297D01*
X15174025Y-6966506D01*
X15174747Y-6966454D01*
X15177031Y-6976315D01*
X15179317Y-6986042D01*
X15179827Y-6988192D01*
X15182215Y-6998438D01*
X15184500Y-7008237D01*
X15185396Y-7012079D01*
X15187761Y-7022177D01*
X15190176Y-7032469D01*
X15191306Y-7037285D01*
X15193591Y-7046927D01*
X15195904Y-7056583D01*
X15197461Y-7063028D01*
X15199755Y-7072665D01*
X15202022Y-7082234D01*
X15203518Y-7088576D01*
X15205907Y-7098687D01*
X15208231Y-7108539D01*
X15209282Y-7113000D01*
X15225696Y-7115052D01*
X15226819Y-7114905D01*
X15224435Y-7105231D01*
X15221931Y-7095076D01*
X15220615Y-7089748D01*
X15218218Y-7080025D01*
X15215870Y-7070464D01*
X15214802Y-7066105D01*
X15212342Y-7055942D01*
X15209919Y-7045797D01*
X15209234Y-7042902D01*
X15206840Y-7032651D01*
X15204617Y-7022914D01*
X15203763Y-7019113D01*
X15201516Y-7008998D01*
X15199399Y-6999389D01*
X15198145Y-6993663D01*
X15195949Y-6983501D01*
X15193876Y-6973775D01*
X15192137Y-6965526D01*
X15199904Y-6965282D01*
X15207964Y-6965184D01*
X15215682Y-6965331D01*
X15222374Y-6966259D01*
X15228236Y-6968848D01*
X15233218Y-6973830D01*
X15237322Y-6981939D01*
X15240112Y-6991408D01*
X15240692Y-6994005D01*
X15240985Y-6995617D01*
G37*
G36*
X15160678Y-7114807D02*
G01*
X15161704Y-7114710D01*
X15159059Y-7105222D01*
X15157796Y-7100544D01*
X15155190Y-7090820D01*
X15153644Y-7084912D01*
X15151137Y-7075016D01*
X15149687Y-7069134D01*
X15147249Y-7059339D01*
X15146072Y-7054577D01*
X15143775Y-7044862D01*
X15143239Y-7042463D01*
X15141432Y-7034012D01*
X15140699Y-7029615D01*
X15140943Y-7026538D01*
X15142653Y-7024682D01*
X15146121Y-7024096D01*
X15148515Y-7024242D01*
X15151250Y-7024682D01*
X15154719Y-7025366D01*
X15159262Y-7026440D01*
X15159213Y-7021507D01*
X15149614Y-7018350D01*
X15139966Y-7015694D01*
X15130245Y-7014033D01*
X15124481Y-7016671D01*
X15124139Y-7024535D01*
X15124872Y-7027368D01*
X15126484Y-7033426D01*
X15128878Y-7042121D01*
X15131598Y-7051665D01*
X15131906Y-7052721D01*
X15134655Y-7062251D01*
X15135326Y-7064542D01*
X15138180Y-7074129D01*
X15138989Y-7076803D01*
X15138305Y-7076852D01*
X15134145Y-7067830D01*
X15129461Y-7058475D01*
X15125849Y-7051793D01*
X15120514Y-7042815D01*
X15114642Y-7034282D01*
X15112513Y-7031520D01*
X15105577Y-7023851D01*
X15098543Y-7018038D01*
X15089590Y-7013798D01*
X15084181Y-7013105D01*
X15079590Y-7013935D01*
X15076219Y-7016280D01*
X15074412Y-7019748D01*
X15074363Y-7024193D01*
X15076903Y-7030153D01*
X15082130Y-7035184D01*
X15082667Y-7035184D01*
X15087210Y-7031716D01*
X15092388Y-7030641D01*
X15098445Y-7031814D01*
X15104356Y-7035184D01*
X15111454Y-7042157D01*
X15113442Y-7044612D01*
X15119214Y-7052874D01*
X15122137Y-7057654D01*
X15126988Y-7066382D01*
X15130148Y-7072651D01*
X15134449Y-7081852D01*
X15137133Y-7087989D01*
X15140900Y-7097377D01*
X15142604Y-7102009D01*
X15145818Y-7111559D01*
X15146268Y-7113000D01*
X15160678Y-7114807D01*
G37*
G36*
X15034063Y-7014082D02*
G01*
X15043442Y-7016524D01*
X15043738Y-7016625D01*
X15052869Y-7020481D01*
X15061271Y-7025805D01*
X15067719Y-7032302D01*
X15071188Y-7039922D01*
X15071285Y-7044368D01*
X15069722Y-7047738D01*
X15066742Y-7049839D01*
X15062590Y-7050571D01*
X15054481Y-7048617D01*
X15054091Y-7047885D01*
X15056191Y-7041388D01*
X15055996Y-7034744D01*
X15053993Y-7029518D01*
X15050134Y-7025317D01*
X15044174Y-7022484D01*
X15035870Y-7021409D01*
X15029080Y-7022679D01*
X15023463Y-7026440D01*
X15020239Y-7032986D01*
X15020385Y-7042365D01*
X15022583Y-7051304D01*
X15025123Y-7059706D01*
X15029693Y-7059797D01*
X15039680Y-7060634D01*
X15043708Y-7061234D01*
X15053651Y-7063467D01*
X15056951Y-7064460D01*
X15066303Y-7068206D01*
X15068852Y-7069497D01*
X15077001Y-7074947D01*
X15078430Y-7076194D01*
X15084914Y-7083837D01*
X15085859Y-7085405D01*
X15089310Y-7094779D01*
X15089603Y-7103426D01*
X15086819Y-7110264D01*
X15081202Y-7114758D01*
X15073044Y-7116419D01*
X15071286Y-7116351D01*
X15061711Y-7113635D01*
X15058869Y-7112136D01*
X15050525Y-7106356D01*
X15047153Y-7103428D01*
X15040071Y-7096147D01*
X15037022Y-7092530D01*
X15030985Y-7084472D01*
X15030594Y-7084472D01*
X15031816Y-7088283D01*
X15032646Y-7091848D01*
X15032792Y-7092588D01*
X15033330Y-7102351D01*
X15030692Y-7109874D01*
X15025270Y-7114368D01*
X15017503Y-7115882D01*
X15015674Y-7115824D01*
X15005877Y-7113488D01*
X15002992Y-7112151D01*
X14994593Y-7106454D01*
X14995961Y-7103523D01*
X14998581Y-7104851D01*
X15008271Y-7107431D01*
X15016721Y-7102449D01*
X15018027Y-7097594D01*
X15017210Y-7087599D01*
X15016617Y-7084861D01*
X15014230Y-7075045D01*
X15013501Y-7072287D01*
X15011579Y-7065373D01*
X15026833Y-7065373D01*
X15026929Y-7065678D01*
X15030839Y-7074898D01*
X15031147Y-7075476D01*
X15036456Y-7083740D01*
X15036652Y-7084002D01*
X15043148Y-7091507D01*
X15050427Y-7097564D01*
X15057608Y-7101569D01*
X15064105Y-7102986D01*
X15068550Y-7101911D01*
X15071090Y-7098980D01*
X15072018Y-7094682D01*
X15071530Y-7089553D01*
X15068257Y-7081248D01*
X15062688Y-7074996D01*
X15055312Y-7070550D01*
X15046519Y-7067668D01*
X15036847Y-7066056D01*
X15026833Y-7065373D01*
X15011579Y-7065373D01*
X15010860Y-7062784D01*
X15010330Y-7060934D01*
X15007636Y-7051402D01*
X15007541Y-7051061D01*
X15005144Y-7041437D01*
X15004760Y-7039409D01*
X15004167Y-7029615D01*
X15006903Y-7020725D01*
X15013888Y-7015107D01*
X15015696Y-7014460D01*
X15025514Y-7013202D01*
X15034063Y-7014082D01*
G37*
G36*
X14920734Y-7042463D02*
G01*
X14917266Y-7034744D01*
X14917119Y-7029713D01*
X14918975Y-7025512D01*
X14922932Y-7022630D01*
X14929087Y-7021555D01*
X14938857Y-7023460D01*
X14947259Y-7028687D01*
X14954094Y-7036037D01*
X14954293Y-7036308D01*
X14959486Y-7044621D01*
X14959959Y-7045540D01*
X14963825Y-7054723D01*
X14964160Y-7055701D01*
X14966765Y-7065195D01*
X14966896Y-7065812D01*
X14968187Y-7075760D01*
X14968019Y-7081932D01*
X14965794Y-7091595D01*
X14964551Y-7094291D01*
X14958100Y-7101702D01*
X14957273Y-7102253D01*
X14947638Y-7105027D01*
X14946917Y-7105038D01*
X14937291Y-7103197D01*
X14933874Y-7101765D01*
X14925424Y-7096466D01*
X14919464Y-7091213D01*
X14918536Y-7091800D01*
X14917559Y-7092679D01*
X14916875Y-7093656D01*
X14916582Y-7094535D01*
X14916728Y-7094877D01*
X14916924Y-7095121D01*
X14923702Y-7102455D01*
X14931540Y-7108680D01*
X14935975Y-7111290D01*
X14945072Y-7114963D01*
X14955089Y-7116616D01*
X14957126Y-7116664D01*
X14966796Y-7115259D01*
X14967677Y-7114954D01*
X14975689Y-7110313D01*
X14981257Y-7103230D01*
X14984530Y-7094340D01*
X14985556Y-7084326D01*
X14984520Y-7074391D01*
X14984384Y-7073726D01*
X14981744Y-7064237D01*
X14979841Y-7059266D01*
X14975479Y-7050397D01*
X14972367Y-7045296D01*
X14966452Y-7037274D01*
X14962499Y-7032791D01*
X14954982Y-7025834D01*
X14950776Y-7022728D01*
X14942190Y-7017885D01*
X14937440Y-7015987D01*
X14927607Y-7013783D01*
X14923030Y-7013544D01*
X14913298Y-7014828D01*
X14913016Y-7014912D01*
X14905591Y-7018820D01*
X14901439Y-7024828D01*
X14901048Y-7032693D01*
X14902953Y-7037675D01*
X14906079Y-7041388D01*
X14910134Y-7043733D01*
X14914726Y-7044514D01*
X14917754Y-7044221D01*
X14920636Y-7043195D01*
X14920734Y-7042463D01*
G37*
G36*
X14858989Y-7068743D02*
G01*
X14849704Y-7065434D01*
X14843016Y-7062539D01*
X14834049Y-7057734D01*
X14829973Y-7055065D01*
X14822431Y-7048568D01*
X14820790Y-7046664D01*
X14816359Y-7037916D01*
X14816296Y-7037627D01*
X14816296Y-7034109D01*
X14817615Y-7031374D01*
X14819959Y-7029615D01*
X14823232Y-7028980D01*
X14832562Y-7031667D01*
X14840798Y-7037326D01*
X14843211Y-7039434D01*
X14850207Y-7046681D01*
X14854495Y-7051890D01*
X14860540Y-7060241D01*
X14865828Y-7068548D01*
X14870635Y-7077076D01*
X14875312Y-7086334D01*
X14876624Y-7089113D01*
X14880702Y-7098452D01*
X14884522Y-7108290D01*
X14886198Y-7113000D01*
X14900120Y-7114807D01*
X14901195Y-7114710D01*
X14898692Y-7105062D01*
X14896554Y-7096831D01*
X14894108Y-7087369D01*
X14891534Y-7077391D01*
X14891181Y-7076022D01*
X14888621Y-7066227D01*
X14885987Y-7056077D01*
X14885221Y-7053112D01*
X14882665Y-7043355D01*
X14880076Y-7033453D01*
X14878871Y-7028834D01*
X14876243Y-7018760D01*
X14873599Y-7008622D01*
X14872374Y-7003921D01*
X14869731Y-6993769D01*
X14867120Y-6983714D01*
X14865926Y-6979106D01*
X14863370Y-6969201D01*
X14860863Y-6959489D01*
X14859722Y-6955072D01*
X14857076Y-6945001D01*
X14854524Y-6935304D01*
X14853811Y-6932602D01*
X14852346Y-6929769D01*
X14849708Y-6927864D01*
X14846338Y-6926789D01*
X14842625Y-6926447D01*
X14834614Y-6928645D01*
X14837605Y-6938046D01*
X14840645Y-6947683D01*
X14842772Y-6954486D01*
X14845832Y-6964427D01*
X14848882Y-6974371D01*
X14849464Y-6976273D01*
X14852431Y-6986006D01*
X14855179Y-6995079D01*
X14858015Y-7004684D01*
X14860113Y-7011835D01*
X14862926Y-7021715D01*
X14864558Y-7027515D01*
X14867264Y-7037197D01*
X14868906Y-7043098D01*
X14871568Y-7052643D01*
X14873449Y-7059413D01*
X14876155Y-7069307D01*
X14878431Y-7077536D01*
X14877991Y-7077634D01*
X14873435Y-7068983D01*
X14869003Y-7061465D01*
X14863585Y-7053225D01*
X14858599Y-7046322D01*
X14852335Y-7038599D01*
X14847315Y-7033084D01*
X14839987Y-7026119D01*
X14835591Y-7022581D01*
X14827120Y-7017246D01*
X14823818Y-7015694D01*
X14814240Y-7013263D01*
X14812534Y-7013202D01*
X14806477Y-7014326D01*
X14802178Y-7017550D01*
X14799931Y-7022630D01*
X14800078Y-7029176D01*
X14803773Y-7038577D01*
X14804816Y-7040264D01*
X14811191Y-7048059D01*
X14813804Y-7050571D01*
X14821700Y-7056837D01*
X14826407Y-7059950D01*
X14835324Y-7064964D01*
X14841941Y-7068157D01*
X14838674Y-7077766D01*
X14836861Y-7082616D01*
X14832934Y-7091672D01*
X14832416Y-7092728D01*
X14828508Y-7099225D01*
X14824942Y-7102839D01*
X14821523Y-7104451D01*
X14818103Y-7104842D01*
X14810629Y-7103768D01*
X14802423Y-7100837D01*
X14801837Y-7104403D01*
X14808871Y-7108457D01*
X14817468Y-7112267D01*
X14826261Y-7115003D01*
X14833588Y-7116077D01*
X14840280Y-7113342D01*
X14846102Y-7105340D01*
X14846289Y-7104989D01*
X14850434Y-7095699D01*
X14852395Y-7090530D01*
X14855717Y-7080894D01*
X14858944Y-7071081D01*
X14859429Y-7069574D01*
X14858989Y-7068743D01*
G37*
G36*
X14737161Y-6926789D02*
G01*
X14740580Y-6927864D01*
X14743316Y-6929769D01*
X14744830Y-6932602D01*
X14746918Y-6940332D01*
X14749569Y-6950285D01*
X14750065Y-6952155D01*
X14752613Y-6961828D01*
X14755088Y-6971339D01*
X14755994Y-6974835D01*
X14758580Y-6984789D01*
X14761048Y-6994249D01*
X14761814Y-6997185D01*
X14764448Y-7007339D01*
X14767008Y-7017306D01*
X14767546Y-7019411D01*
X14770001Y-7028978D01*
X14772527Y-7038750D01*
X14774681Y-7047220D01*
X14777119Y-7056873D01*
X14778017Y-7060329D01*
X14780716Y-7070289D01*
X14783725Y-7080639D01*
X14786742Y-7090236D01*
X14788907Y-7096471D01*
X14792847Y-7106233D01*
X14797440Y-7115491D01*
X14794070Y-7116370D01*
X14788305Y-7110216D01*
X14787099Y-7108691D01*
X14781516Y-7100299D01*
X14776680Y-7107675D01*
X14770183Y-7112805D01*
X14762611Y-7115735D01*
X14754453Y-7116712D01*
X14751306Y-7116584D01*
X14741606Y-7114661D01*
X14737478Y-7113223D01*
X14728564Y-7108750D01*
X14723833Y-7105565D01*
X14716254Y-7099127D01*
X14711565Y-7094225D01*
X14705263Y-7086133D01*
X14700814Y-7078920D01*
X14696421Y-7069915D01*
X14693026Y-7060659D01*
X14690462Y-7050767D01*
X14690012Y-7047836D01*
X14706924Y-7047836D01*
X14708194Y-7057410D01*
X14708688Y-7059659D01*
X14711472Y-7069551D01*
X14715326Y-7079050D01*
X14719544Y-7086791D01*
X14725682Y-7095121D01*
X14729776Y-7099286D01*
X14738138Y-7105184D01*
X14741463Y-7106701D01*
X14751474Y-7108652D01*
X14758996Y-7107382D01*
X14764858Y-7103621D01*
X14768766Y-7097710D01*
X14770280Y-7089992D01*
X14768082Y-7083886D01*
X14763686Y-7075435D01*
X14762813Y-7073958D01*
X14757482Y-7065568D01*
X14755939Y-7063307D01*
X14750008Y-7055310D01*
X14748218Y-7053108D01*
X14741557Y-7045589D01*
X14740182Y-7044166D01*
X14732716Y-7037431D01*
X14732160Y-7036991D01*
X14723825Y-7031765D01*
X14715228Y-7029664D01*
X14709855Y-7032253D01*
X14707266Y-7038848D01*
X14706924Y-7047836D01*
X14690012Y-7047836D01*
X14689241Y-7042805D01*
X14688996Y-7034403D01*
X14690169Y-7026391D01*
X14693100Y-7019699D01*
X14698326Y-7015010D01*
X14706142Y-7013251D01*
X14709339Y-7013529D01*
X14718599Y-7016768D01*
X14725284Y-7020806D01*
X14733302Y-7027173D01*
X14735740Y-7029391D01*
X14742680Y-7036465D01*
X14749275Y-7044172D01*
X14754395Y-7050833D01*
X14760005Y-7058875D01*
X14765591Y-7067668D01*
X14766324Y-7067571D01*
X14765843Y-7065621D01*
X14763311Y-7055627D01*
X14760755Y-7045931D01*
X14759787Y-7042379D01*
X14757014Y-7032318D01*
X14754356Y-7022825D01*
X14753083Y-7018400D01*
X14750267Y-7008742D01*
X14747370Y-6998987D01*
X14745998Y-6994451D01*
X14743037Y-6984670D01*
X14740092Y-6974954D01*
X14738716Y-6970476D01*
X14735724Y-6960845D01*
X14732716Y-6951311D01*
X14731790Y-6948403D01*
X14728586Y-6938393D01*
X14725437Y-6928645D01*
X14733546Y-6926447D01*
X14737161Y-6926789D01*
G37*
G36*
X14622539Y-7013551D02*
G01*
X14632088Y-7015791D01*
X14636831Y-7017757D01*
X14645375Y-7022728D01*
X14649530Y-7025929D01*
X14656854Y-7033035D01*
X14660660Y-7037548D01*
X14666331Y-7045589D01*
X14669035Y-7050242D01*
X14673365Y-7059413D01*
X14675002Y-7063851D01*
X14677663Y-7073481D01*
X14678579Y-7079515D01*
X14678640Y-7089357D01*
X14678059Y-7093595D01*
X14674781Y-7103230D01*
X14673008Y-7106112D01*
X14665744Y-7113000D01*
X14660963Y-7115262D01*
X14651285Y-7116712D01*
X14646060Y-7116412D01*
X14636533Y-7114172D01*
X14631767Y-7112207D01*
X14623246Y-7107236D01*
X14619091Y-7104040D01*
X14611767Y-7096978D01*
X14607961Y-7092435D01*
X14602290Y-7084375D01*
X14599558Y-7079722D01*
X14595207Y-7070550D01*
X14593544Y-7066112D01*
X14590860Y-7056482D01*
X14590385Y-7053356D01*
X14607077Y-7053356D01*
X14608299Y-7062832D01*
X14610643Y-7071723D01*
X14610732Y-7072022D01*
X14614160Y-7081444D01*
X14614420Y-7082053D01*
X14618996Y-7090969D01*
X14619168Y-7091255D01*
X14625200Y-7099127D01*
X14632869Y-7104891D01*
X14641906Y-7107040D01*
X14649820Y-7105380D01*
X14655584Y-7100837D01*
X14659345Y-7094096D01*
X14661299Y-7085742D01*
X14661543Y-7076461D01*
X14660273Y-7066985D01*
X14657978Y-7058143D01*
X14657885Y-7057841D01*
X14654412Y-7048422D01*
X14654147Y-7047813D01*
X14649624Y-7038945D01*
X14649453Y-7038659D01*
X14643421Y-7030788D01*
X14635800Y-7025072D01*
X14626714Y-7022923D01*
X14618850Y-7024584D01*
X14613037Y-7029127D01*
X14609275Y-7035868D01*
X14607322Y-7044172D01*
X14607077Y-7053356D01*
X14590385Y-7053356D01*
X14589944Y-7050449D01*
X14589883Y-7040606D01*
X14590472Y-7036373D01*
X14593839Y-7026782D01*
X14595616Y-7023879D01*
X14602925Y-7016964D01*
X14607251Y-7014850D01*
X14617336Y-7013251D01*
X14622539Y-7013551D01*
G37*
G36*
X14556031Y-7113635D02*
G01*
X14556717Y-7103487D01*
X14556959Y-7099957D01*
X14557677Y-7090105D01*
X14558033Y-7085596D01*
X14558795Y-7075771D01*
X14559157Y-7071381D01*
X14559990Y-7061242D01*
X14560280Y-7058045D01*
X14561304Y-7048072D01*
X14561502Y-7046370D01*
X14562625Y-7037040D01*
X14563993Y-7030397D01*
X14565849Y-7026391D01*
X14568438Y-7024389D01*
X14571760Y-7023851D01*
X14576498Y-7024340D01*
X14582555Y-7025610D01*
X14582555Y-7020676D01*
X14574105Y-7017941D01*
X14566484Y-7015791D01*
X14560378Y-7014423D01*
X14556226Y-7013935D01*
X14553051Y-7014570D01*
X14550413Y-7016719D01*
X14548410Y-7021018D01*
X14546896Y-7027808D01*
X14546114Y-7034549D01*
X14545186Y-7043781D01*
X14544369Y-7053591D01*
X14544258Y-7055114D01*
X14543554Y-7064983D01*
X14543379Y-7067864D01*
X14542802Y-7077948D01*
X14542646Y-7081395D01*
X14542230Y-7091290D01*
X14542109Y-7095121D01*
X14537136Y-7086523D01*
X14531928Y-7077582D01*
X14531215Y-7076363D01*
X14526187Y-7067763D01*
X14521102Y-7059144D01*
X14519638Y-7056677D01*
X14514528Y-7048038D01*
X14509455Y-7039474D01*
X14508012Y-7037040D01*
X14502670Y-7028120D01*
X14497542Y-7019587D01*
X14496875Y-7018478D01*
X14494774Y-7016035D01*
X14492088Y-7014472D01*
X14489255Y-7013642D01*
X14486519Y-7013398D01*
X14482367Y-7014082D01*
X14478752Y-7015645D01*
X14484788Y-7023458D01*
X14487301Y-7026831D01*
X14493090Y-7034849D01*
X14496728Y-7039971D01*
X14502581Y-7048432D01*
X14506645Y-7054479D01*
X14512320Y-7063090D01*
X14516756Y-7069915D01*
X14522088Y-7078285D01*
X14526770Y-7085694D01*
X14531943Y-7094046D01*
X14536393Y-7101325D01*
X14541655Y-7110001D01*
X14545577Y-7116664D01*
X14550729Y-7125523D01*
X14554174Y-7131367D01*
X14559311Y-7140053D01*
X14562283Y-7145045D01*
X14567657Y-7153652D01*
X14570099Y-7157306D01*
X14576181Y-7165395D01*
X14577622Y-7167124D01*
X14584589Y-7174187D01*
X14585633Y-7175038D01*
X14594090Y-7180193D01*
X14594377Y-7180313D01*
X14604146Y-7182267D01*
X14609666Y-7181388D01*
X14613476Y-7179092D01*
X14615528Y-7175868D01*
X14615675Y-7171960D01*
X14613379Y-7167222D01*
X14609178Y-7163558D01*
X14604000Y-7166098D01*
X14598968Y-7166880D01*
X14589437Y-7164352D01*
X14588515Y-7163802D01*
X14580793Y-7157145D01*
X14578599Y-7154619D01*
X14572722Y-7146760D01*
X14567852Y-7139280D01*
X14562561Y-7130637D01*
X14557129Y-7121523D01*
X14554907Y-7117738D01*
X14552855Y-7114123D01*
X14556031Y-7113635D01*
G37*
G36*
X14494628Y-7107578D02*
G01*
X14486097Y-7102007D01*
X14477554Y-7096246D01*
X14471669Y-7092142D01*
X14463289Y-7086055D01*
X14455348Y-7079969D01*
X14453888Y-7078806D01*
X14446388Y-7072476D01*
X14440846Y-7067326D01*
X14434010Y-7060121D01*
X14431857Y-7057508D01*
X14426507Y-7049207D01*
X14426386Y-7048959D01*
X14423700Y-7041437D01*
X14423672Y-7031583D01*
X14423749Y-7031325D01*
X14427705Y-7024633D01*
X14434202Y-7020871D01*
X14441676Y-7019699D01*
X14450176Y-7020871D01*
X14456331Y-7023900D01*
X14460287Y-7028296D01*
X14462339Y-7033523D01*
X14462388Y-7041486D01*
X14458920Y-7048080D01*
X14459359Y-7048959D01*
X14467615Y-7050962D01*
X14472206Y-7050181D01*
X14475772Y-7047885D01*
X14477775Y-7044075D01*
X14477775Y-7038897D01*
X14474209Y-7031081D01*
X14467615Y-7024389D01*
X14459218Y-7019068D01*
X14458920Y-7018918D01*
X14449680Y-7015068D01*
X14449052Y-7014863D01*
X14439396Y-7012379D01*
X14439087Y-7012323D01*
X14429904Y-7011395D01*
X14420078Y-7012666D01*
X14418815Y-7013056D01*
X14410511Y-7017843D01*
X14405919Y-7025512D01*
X14405702Y-7035411D01*
X14405772Y-7035770D01*
X14408654Y-7044368D01*
X14413826Y-7052997D01*
X14414272Y-7053600D01*
X14420693Y-7061211D01*
X14423309Y-7063907D01*
X14430609Y-7070604D01*
X14436596Y-7075484D01*
X14444548Y-7081413D01*
X14453017Y-7087314D01*
X14454963Y-7088624D01*
X14463243Y-7094021D01*
X14471605Y-7099246D01*
X14478996Y-7103719D01*
X14478948Y-7104061D01*
X14469271Y-7101780D01*
X14465416Y-7100983D01*
X14455793Y-7099219D01*
X14452178Y-7098638D01*
X14442278Y-7097326D01*
X14440113Y-7097124D01*
X14430231Y-7096587D01*
X14429952Y-7096587D01*
X14423504Y-7097124D01*
X14418864Y-7098736D01*
X14416226Y-7101569D01*
X14415933Y-7105721D01*
X14419548Y-7113391D01*
X14429454Y-7112556D01*
X14438012Y-7112072D01*
X14448318Y-7111716D01*
X14456526Y-7111632D01*
X14466713Y-7111787D01*
X14474893Y-7112121D01*
X14484675Y-7112707D01*
X14494489Y-7113434D01*
X14495165Y-7113488D01*
X14494628Y-7107578D01*
G37*
G36*
X14334252Y-7011801D02*
G01*
X14344272Y-7013495D01*
X14347970Y-7014643D01*
X14357070Y-7018771D01*
X14360855Y-7021056D01*
X14368745Y-7027124D01*
X14372391Y-7030672D01*
X14378710Y-7038310D01*
X14381909Y-7043172D01*
X14386477Y-7052037D01*
X14388886Y-7058263D01*
X14391509Y-7067913D01*
X14391805Y-7069398D01*
X14393023Y-7079172D01*
X14392583Y-7089015D01*
X14391038Y-7095447D01*
X14386477Y-7104305D01*
X14382975Y-7108178D01*
X14374558Y-7113586D01*
X14367782Y-7115723D01*
X14357998Y-7116712D01*
X14354643Y-7116599D01*
X14344760Y-7114905D01*
X14341109Y-7113784D01*
X14332060Y-7109727D01*
X14328285Y-7107416D01*
X14320483Y-7101325D01*
X14316848Y-7097772D01*
X14310615Y-7090090D01*
X14307439Y-7085192D01*
X14302848Y-7076266D01*
X14300399Y-7069984D01*
X14297719Y-7060195D01*
X14297570Y-7059461D01*
X14297006Y-7055261D01*
X14314279Y-7055261D01*
X14314392Y-7057473D01*
X14315793Y-7067375D01*
X14317551Y-7074349D01*
X14321020Y-7083642D01*
X14323230Y-7088052D01*
X14329031Y-7096343D01*
X14331416Y-7098858D01*
X14339338Y-7104647D01*
X14341491Y-7105659D01*
X14351453Y-7107627D01*
X14354589Y-7107444D01*
X14363958Y-7103816D01*
X14366336Y-7101725D01*
X14371823Y-7093509D01*
X14373618Y-7088369D01*
X14375144Y-7078611D01*
X14375114Y-7071119D01*
X14373728Y-7061074D01*
X14371858Y-7053713D01*
X14368110Y-7044172D01*
X14365720Y-7039725D01*
X14359757Y-7031520D01*
X14357644Y-7029355D01*
X14349450Y-7023607D01*
X14347691Y-7022819D01*
X14338068Y-7020871D01*
X14329373Y-7022630D01*
X14322583Y-7027417D01*
X14317747Y-7034744D01*
X14314963Y-7044221D01*
X14314807Y-7045198D01*
X14314279Y-7055261D01*
X14297006Y-7055261D01*
X14296267Y-7049759D01*
X14296645Y-7039385D01*
X14298110Y-7033013D01*
X14302506Y-7024193D01*
X14305931Y-7020292D01*
X14314328Y-7014863D01*
X14321080Y-7012693D01*
X14330887Y-7011688D01*
X14334252Y-7011801D01*
G37*
G36*
X14222682Y-7011801D02*
G01*
X14232702Y-7013495D01*
X14236400Y-7014643D01*
X14245500Y-7018771D01*
X14249285Y-7021056D01*
X14257175Y-7027124D01*
X14260821Y-7030672D01*
X14267140Y-7038310D01*
X14270339Y-7043172D01*
X14274907Y-7052037D01*
X14277316Y-7058263D01*
X14279938Y-7067913D01*
X14280235Y-7069398D01*
X14281453Y-7079172D01*
X14281013Y-7089015D01*
X14279468Y-7095447D01*
X14274907Y-7104305D01*
X14271405Y-7108178D01*
X14262988Y-7113586D01*
X14256212Y-7115723D01*
X14246428Y-7116712D01*
X14243073Y-7116599D01*
X14233190Y-7114905D01*
X14229539Y-7113784D01*
X14220490Y-7109727D01*
X14216714Y-7107416D01*
X14208913Y-7101325D01*
X14205278Y-7097772D01*
X14199045Y-7090090D01*
X14195869Y-7085192D01*
X14191278Y-7076266D01*
X14188829Y-7069984D01*
X14186149Y-7060195D01*
X14186000Y-7059461D01*
X14185436Y-7055261D01*
X14202709Y-7055261D01*
X14202822Y-7057473D01*
X14204223Y-7067375D01*
X14205981Y-7074349D01*
X14209450Y-7083642D01*
X14211660Y-7088052D01*
X14217461Y-7096343D01*
X14219846Y-7098858D01*
X14227768Y-7104647D01*
X14229921Y-7105659D01*
X14239883Y-7107627D01*
X14243019Y-7107444D01*
X14252388Y-7103816D01*
X14254766Y-7101725D01*
X14260252Y-7093509D01*
X14262048Y-7088369D01*
X14263574Y-7078611D01*
X14263543Y-7071119D01*
X14262158Y-7061074D01*
X14260288Y-7053713D01*
X14256540Y-7044172D01*
X14254150Y-7039725D01*
X14248187Y-7031520D01*
X14246074Y-7029355D01*
X14237880Y-7023607D01*
X14236121Y-7022819D01*
X14226498Y-7020871D01*
X14217803Y-7022630D01*
X14211013Y-7027417D01*
X14206177Y-7034744D01*
X14203393Y-7044221D01*
X14203237Y-7045198D01*
X14202709Y-7055261D01*
X14185436Y-7055261D01*
X14184697Y-7049759D01*
X14185075Y-7039385D01*
X14186540Y-7033013D01*
X14190936Y-7024193D01*
X14194361Y-7020292D01*
X14202758Y-7014863D01*
X14209510Y-7012693D01*
X14219317Y-7011688D01*
X14222682Y-7011801D01*
G37*
G36*
X14111112Y-7011801D02*
G01*
X14121132Y-7013495D01*
X14124830Y-7014643D01*
X14133930Y-7018771D01*
X14137715Y-7021056D01*
X14145605Y-7027124D01*
X14149251Y-7030672D01*
X14155570Y-7038310D01*
X14158769Y-7043172D01*
X14163337Y-7052037D01*
X14165746Y-7058263D01*
X14168368Y-7067913D01*
X14168664Y-7069398D01*
X14169883Y-7079172D01*
X14169443Y-7089015D01*
X14167897Y-7095447D01*
X14163337Y-7104305D01*
X14159835Y-7108178D01*
X14151418Y-7113586D01*
X14144642Y-7115723D01*
X14134858Y-7116712D01*
X14131503Y-7116599D01*
X14121620Y-7114905D01*
X14117969Y-7113784D01*
X14108920Y-7109727D01*
X14105144Y-7107416D01*
X14097342Y-7101325D01*
X14093708Y-7097772D01*
X14087475Y-7090090D01*
X14084299Y-7085192D01*
X14079708Y-7076266D01*
X14077259Y-7069984D01*
X14074579Y-7060195D01*
X14074430Y-7059461D01*
X14073866Y-7055261D01*
X14091139Y-7055261D01*
X14091251Y-7057473D01*
X14092653Y-7067375D01*
X14094411Y-7074349D01*
X14097880Y-7083642D01*
X14100089Y-7088052D01*
X14105891Y-7096343D01*
X14108275Y-7098858D01*
X14116198Y-7104647D01*
X14118350Y-7105659D01*
X14128312Y-7107627D01*
X14131449Y-7107444D01*
X14140818Y-7103816D01*
X14143196Y-7101725D01*
X14148682Y-7093509D01*
X14150478Y-7088369D01*
X14152004Y-7078611D01*
X14151973Y-7071119D01*
X14150587Y-7061074D01*
X14148718Y-7053713D01*
X14144970Y-7044172D01*
X14142580Y-7039725D01*
X14136617Y-7031520D01*
X14134504Y-7029355D01*
X14126310Y-7023607D01*
X14124551Y-7022819D01*
X14114928Y-7020871D01*
X14106233Y-7022630D01*
X14099443Y-7027417D01*
X14094607Y-7034744D01*
X14091823Y-7044221D01*
X14091667Y-7045198D01*
X14091139Y-7055261D01*
X14073866Y-7055261D01*
X14073126Y-7049759D01*
X14073504Y-7039385D01*
X14074970Y-7033013D01*
X14079366Y-7024193D01*
X14082791Y-7020292D01*
X14091188Y-7014863D01*
X14097940Y-7012693D01*
X14107747Y-7011688D01*
X14111112Y-7011801D01*
G37*
D10*
X13521020Y-9185333D02*
X13516258Y-9171048D01*
X13516258Y-9171048D02*
X13516258Y-9147238D01*
X13516258Y-9147238D02*
X13521020Y-9137714D01*
X13521020Y-9137714D02*
X13525782Y-9132952D01*
X13525782Y-9132952D02*
X13535306Y-9128190D01*
X13535306Y-9128190D02*
X13544829Y-9128190D01*
X13544829Y-9128190D02*
X13554353Y-9132952D01*
X13554353Y-9132952D02*
X13559115Y-9137714D01*
X13559115Y-9137714D02*
X13563877Y-9147238D01*
X13563877Y-9147238D02*
X13568639Y-9166286D01*
X13568639Y-9166286D02*
X13573401Y-9175809D01*
X13573401Y-9175809D02*
X13578163Y-9180571D01*
X13578163Y-9180571D02*
X13587687Y-9185333D01*
X13587687Y-9185333D02*
X13597210Y-9185333D01*
X13597210Y-9185333D02*
X13606734Y-9180571D01*
X13606734Y-9180571D02*
X13611496Y-9175809D01*
X13611496Y-9175809D02*
X13616258Y-9166286D01*
X13616258Y-9166286D02*
X13616258Y-9142476D01*
X13616258Y-9142476D02*
X13611496Y-9128190D01*
X13616258Y-9094857D02*
X13516258Y-9071048D01*
X13516258Y-9071048D02*
X13587687Y-9052000D01*
X13587687Y-9052000D02*
X13516258Y-9032952D01*
X13516258Y-9032952D02*
X13616258Y-9009143D01*
X13516258Y-8918667D02*
X13516258Y-8975809D01*
X13516258Y-8947238D02*
X13616258Y-8947238D01*
X13616258Y-8947238D02*
X13601972Y-8956762D01*
X13601972Y-8956762D02*
X13592448Y-8966286D01*
X13592448Y-8966286D02*
X13587687Y-8975809D01*
X15465413Y-10123822D02*
X15465413Y-10195250D01*
X15465413Y-10195250D02*
X15470175Y-10209536D01*
X15470175Y-10209536D02*
X15479699Y-10219060D01*
X15479699Y-10219060D02*
X15493985Y-10223822D01*
X15493985Y-10223822D02*
X15503508Y-10223822D01*
X15374937Y-10157155D02*
X15374937Y-10223822D01*
X15398747Y-10119060D02*
X15422556Y-10190489D01*
X15422556Y-10190489D02*
X15360651Y-10190489D01*
X14194095Y-7502361D02*
X14179809Y-7507123D01*
X14179809Y-7507123D02*
X14175048Y-7511885D01*
X14175048Y-7511885D02*
X14170286Y-7521408D01*
X14170286Y-7521408D02*
X14170286Y-7535694D01*
X14170286Y-7535694D02*
X14175048Y-7545218D01*
X14175048Y-7545218D02*
X14179809Y-7549980D01*
X14179809Y-7549980D02*
X14189333Y-7554742D01*
X14189333Y-7554742D02*
X14227428Y-7554742D01*
X14227428Y-7554742D02*
X14227428Y-7454742D01*
X14227428Y-7454742D02*
X14194095Y-7454742D01*
X14194095Y-7454742D02*
X14184571Y-7459504D01*
X14184571Y-7459504D02*
X14179809Y-7464266D01*
X14179809Y-7464266D02*
X14175048Y-7473789D01*
X14175048Y-7473789D02*
X14175048Y-7483313D01*
X14175048Y-7483313D02*
X14179809Y-7492837D01*
X14179809Y-7492837D02*
X14184571Y-7497599D01*
X14184571Y-7497599D02*
X14194095Y-7502361D01*
X14194095Y-7502361D02*
X14227428Y-7502361D01*
X14136952Y-7454742D02*
X14070286Y-7454742D01*
X14070286Y-7454742D02*
X14136952Y-7554742D01*
X14136952Y-7554742D02*
X14070286Y-7554742D01*
X13979809Y-7554742D02*
X14036952Y-7554742D01*
X14008381Y-7554742D02*
X14008381Y-7454742D01*
X14008381Y-7454742D02*
X14017905Y-7469028D01*
X14017905Y-7469028D02*
X14027428Y-7478551D01*
X14027428Y-7478551D02*
X14036952Y-7483313D01*
X15343333Y-9717742D02*
X15343333Y-9789170D01*
X15343333Y-9789170D02*
X15348095Y-9803456D01*
X15348095Y-9803456D02*
X15357619Y-9812980D01*
X15357619Y-9812980D02*
X15371905Y-9817742D01*
X15371905Y-9817742D02*
X15381428Y-9817742D01*
X15248095Y-9717742D02*
X15295714Y-9717742D01*
X15295714Y-9717742D02*
X15300476Y-9765361D01*
X15300476Y-9765361D02*
X15295714Y-9760599D01*
X15295714Y-9760599D02*
X15286190Y-9755837D01*
X15286190Y-9755837D02*
X15262381Y-9755837D01*
X15262381Y-9755837D02*
X15252857Y-9760599D01*
X15252857Y-9760599D02*
X15248095Y-9765361D01*
X15248095Y-9765361D02*
X15243333Y-9774885D01*
X15243333Y-9774885D02*
X15243333Y-9798694D01*
X15243333Y-9798694D02*
X15248095Y-9808218D01*
X15248095Y-9808218D02*
X15252857Y-9812980D01*
X15252857Y-9812980D02*
X15262381Y-9817742D01*
X15262381Y-9817742D02*
X15286190Y-9817742D01*
X15286190Y-9817742D02*
X15295714Y-9812980D01*
X15295714Y-9812980D02*
X15300476Y-9808218D01*
X13962667Y-10656742D02*
X14010286Y-10656742D01*
X14010286Y-10656742D02*
X14010286Y-10556742D01*
X13934095Y-10566266D02*
X13929333Y-10561504D01*
X13929333Y-10561504D02*
X13919809Y-10556742D01*
X13919809Y-10556742D02*
X13896000Y-10556742D01*
X13896000Y-10556742D02*
X13886476Y-10561504D01*
X13886476Y-10561504D02*
X13881714Y-10566266D01*
X13881714Y-10566266D02*
X13876952Y-10575790D01*
X13876952Y-10575790D02*
X13876952Y-10585313D01*
X13876952Y-10585313D02*
X13881714Y-10599599D01*
X13881714Y-10599599D02*
X13938857Y-10656742D01*
X13938857Y-10656742D02*
X13876952Y-10656742D01*
D11*
X15550482Y-10627714D02*
X15502863Y-10594381D01*
X15550482Y-10570571D02*
X15450482Y-10570571D01*
X15450482Y-10570571D02*
X15450482Y-10608667D01*
X15450482Y-10608667D02*
X15455244Y-10618190D01*
X15455244Y-10618190D02*
X15460006Y-10622952D01*
X15460006Y-10622952D02*
X15469529Y-10627714D01*
X15469529Y-10627714D02*
X15483815Y-10627714D01*
X15483815Y-10627714D02*
X15493339Y-10622952D01*
X15493339Y-10622952D02*
X15498101Y-10618190D01*
X15498101Y-10618190D02*
X15502863Y-10608667D01*
X15502863Y-10608667D02*
X15502863Y-10570571D01*
X15460006Y-10665810D02*
X15455244Y-10670571D01*
X15455244Y-10670571D02*
X15450482Y-10680095D01*
X15450482Y-10680095D02*
X15450482Y-10703905D01*
X15450482Y-10703905D02*
X15455244Y-10713429D01*
X15455244Y-10713429D02*
X15460006Y-10718190D01*
X15460006Y-10718190D02*
X15469529Y-10722952D01*
X15469529Y-10722952D02*
X15479053Y-10722952D01*
X15479053Y-10722952D02*
X15493339Y-10718190D01*
X15493339Y-10718190D02*
X15550482Y-10661048D01*
X15550482Y-10661048D02*
X15550482Y-10722952D01*
X15450482Y-10784857D02*
X15450482Y-10794381D01*
X15450482Y-10794381D02*
X15455244Y-10803905D01*
X15455244Y-10803905D02*
X15460006Y-10808667D01*
X15460006Y-10808667D02*
X15469529Y-10813429D01*
X15469529Y-10813429D02*
X15488577Y-10818190D01*
X15488577Y-10818190D02*
X15512387Y-10818190D01*
X15512387Y-10818190D02*
X15531434Y-10813429D01*
X15531434Y-10813429D02*
X15540958Y-10808667D01*
X15540958Y-10808667D02*
X15545720Y-10803905D01*
X15545720Y-10803905D02*
X15550482Y-10794381D01*
X15550482Y-10794381D02*
X15550482Y-10784857D01*
X15550482Y-10784857D02*
X15545720Y-10775333D01*
X15545720Y-10775333D02*
X15540958Y-10770571D01*
X15540958Y-10770571D02*
X15531434Y-10765810D01*
X15531434Y-10765810D02*
X15512387Y-10761048D01*
X15512387Y-10761048D02*
X15488577Y-10761048D01*
X15488577Y-10761048D02*
X15469529Y-10765810D01*
X15469529Y-10765810D02*
X15460006Y-10770571D01*
X15460006Y-10770571D02*
X15455244Y-10775333D01*
X15455244Y-10775333D02*
X15450482Y-10784857D01*
X13889786Y-10980482D02*
X13923119Y-10932863D01*
X13946928Y-10980482D02*
X13946928Y-10880482D01*
X13946928Y-10880482D02*
X13908833Y-10880482D01*
X13908833Y-10880482D02*
X13899309Y-10885244D01*
X13899309Y-10885244D02*
X13894548Y-10890006D01*
X13894548Y-10890006D02*
X13889786Y-10899530D01*
X13889786Y-10899530D02*
X13889786Y-10913815D01*
X13889786Y-10913815D02*
X13894548Y-10923339D01*
X13894548Y-10923339D02*
X13899309Y-10928101D01*
X13899309Y-10928101D02*
X13908833Y-10932863D01*
X13908833Y-10932863D02*
X13946928Y-10932863D01*
X13794548Y-10980482D02*
X13851690Y-10980482D01*
X13823119Y-10980482D02*
X13823119Y-10880482D01*
X13823119Y-10880482D02*
X13832643Y-10894768D01*
X13832643Y-10894768D02*
X13842167Y-10904291D01*
X13842167Y-10904291D02*
X13851690Y-10909053D01*
X13746928Y-10980482D02*
X13727881Y-10980482D01*
X13727881Y-10980482D02*
X13718357Y-10975720D01*
X13718357Y-10975720D02*
X13713595Y-10970958D01*
X13713595Y-10970958D02*
X13704071Y-10956672D01*
X13704071Y-10956672D02*
X13699309Y-10937625D01*
X13699309Y-10937625D02*
X13699309Y-10899530D01*
X13699309Y-10899530D02*
X13704071Y-10890006D01*
X13704071Y-10890006D02*
X13708833Y-10885244D01*
X13708833Y-10885244D02*
X13718357Y-10880482D01*
X13718357Y-10880482D02*
X13737405Y-10880482D01*
X13737405Y-10880482D02*
X13746928Y-10885244D01*
X13746928Y-10885244D02*
X13751690Y-10890006D01*
X13751690Y-10890006D02*
X13756452Y-10899530D01*
X13756452Y-10899530D02*
X13756452Y-10923339D01*
X13756452Y-10923339D02*
X13751690Y-10932863D01*
X13751690Y-10932863D02*
X13746928Y-10937625D01*
X13746928Y-10937625D02*
X13737405Y-10942387D01*
X13737405Y-10942387D02*
X13718357Y-10942387D01*
X13718357Y-10942387D02*
X13708833Y-10937625D01*
X13708833Y-10937625D02*
X13704071Y-10932863D01*
X13704071Y-10932863D02*
X13699309Y-10923339D01*
X14238786Y-10840482D02*
X14272119Y-10792863D01*
X14295928Y-10840482D02*
X14295928Y-10740482D01*
X14295928Y-10740482D02*
X14257833Y-10740482D01*
X14257833Y-10740482D02*
X14248309Y-10745244D01*
X14248309Y-10745244D02*
X14243548Y-10750006D01*
X14243548Y-10750006D02*
X14238786Y-10759530D01*
X14238786Y-10759530D02*
X14238786Y-10773815D01*
X14238786Y-10773815D02*
X14243548Y-10783339D01*
X14243548Y-10783339D02*
X14248309Y-10788101D01*
X14248309Y-10788101D02*
X14257833Y-10792863D01*
X14257833Y-10792863D02*
X14295928Y-10792863D01*
X14143548Y-10840482D02*
X14200690Y-10840482D01*
X14172119Y-10840482D02*
X14172119Y-10740482D01*
X14172119Y-10740482D02*
X14181643Y-10754768D01*
X14181643Y-10754768D02*
X14191167Y-10764291D01*
X14191167Y-10764291D02*
X14200690Y-10769053D01*
X14086405Y-10783339D02*
X14095928Y-10778577D01*
X14095928Y-10778577D02*
X14100690Y-10773815D01*
X14100690Y-10773815D02*
X14105452Y-10764291D01*
X14105452Y-10764291D02*
X14105452Y-10759530D01*
X14105452Y-10759530D02*
X14100690Y-10750006D01*
X14100690Y-10750006D02*
X14095928Y-10745244D01*
X14095928Y-10745244D02*
X14086405Y-10740482D01*
X14086405Y-10740482D02*
X14067357Y-10740482D01*
X14067357Y-10740482D02*
X14057833Y-10745244D01*
X14057833Y-10745244D02*
X14053071Y-10750006D01*
X14053071Y-10750006D02*
X14048309Y-10759530D01*
X14048309Y-10759530D02*
X14048309Y-10764291D01*
X14048309Y-10764291D02*
X14053071Y-10773815D01*
X14053071Y-10773815D02*
X14057833Y-10778577D01*
X14057833Y-10778577D02*
X14067357Y-10783339D01*
X14067357Y-10783339D02*
X14086405Y-10783339D01*
X14086405Y-10783339D02*
X14095928Y-10788101D01*
X14095928Y-10788101D02*
X14100690Y-10792863D01*
X14100690Y-10792863D02*
X14105452Y-10802387D01*
X14105452Y-10802387D02*
X14105452Y-10821434D01*
X14105452Y-10821434D02*
X14100690Y-10830958D01*
X14100690Y-10830958D02*
X14095928Y-10835720D01*
X14095928Y-10835720D02*
X14086405Y-10840482D01*
X14086405Y-10840482D02*
X14067357Y-10840482D01*
X14067357Y-10840482D02*
X14057833Y-10835720D01*
X14057833Y-10835720D02*
X14053071Y-10830958D01*
X14053071Y-10830958D02*
X14048309Y-10821434D01*
X14048309Y-10821434D02*
X14048309Y-10802387D01*
X14048309Y-10802387D02*
X14053071Y-10792863D01*
X14053071Y-10792863D02*
X14057833Y-10788101D01*
X14057833Y-10788101D02*
X14067357Y-10783339D01*
X14977286Y-10175482D02*
X15010619Y-10127863D01*
X15034428Y-10175482D02*
X15034428Y-10075482D01*
X15034428Y-10075482D02*
X14996333Y-10075482D01*
X14996333Y-10075482D02*
X14986809Y-10080244D01*
X14986809Y-10080244D02*
X14982048Y-10085006D01*
X14982048Y-10085006D02*
X14977286Y-10094530D01*
X14977286Y-10094530D02*
X14977286Y-10108815D01*
X14977286Y-10108815D02*
X14982048Y-10118339D01*
X14982048Y-10118339D02*
X14986809Y-10123101D01*
X14986809Y-10123101D02*
X14996333Y-10127863D01*
X14996333Y-10127863D02*
X15034428Y-10127863D01*
X14882048Y-10175482D02*
X14939190Y-10175482D01*
X14910619Y-10175482D02*
X14910619Y-10075482D01*
X14910619Y-10075482D02*
X14920143Y-10089768D01*
X14920143Y-10089768D02*
X14929667Y-10099291D01*
X14929667Y-10099291D02*
X14939190Y-10104053D01*
X14848714Y-10075482D02*
X14782048Y-10075482D01*
X14782048Y-10075482D02*
X14824905Y-10175482D01*
X15078482Y-9711714D02*
X15030863Y-9678381D01*
X15078482Y-9654571D02*
X14978482Y-9654571D01*
X14978482Y-9654571D02*
X14978482Y-9692667D01*
X14978482Y-9692667D02*
X14983244Y-9702190D01*
X14983244Y-9702190D02*
X14988006Y-9706952D01*
X14988006Y-9706952D02*
X14997529Y-9711714D01*
X14997529Y-9711714D02*
X15011815Y-9711714D01*
X15011815Y-9711714D02*
X15021339Y-9706952D01*
X15021339Y-9706952D02*
X15026101Y-9702190D01*
X15026101Y-9702190D02*
X15030863Y-9692667D01*
X15030863Y-9692667D02*
X15030863Y-9654571D01*
X15078482Y-9806952D02*
X15078482Y-9749810D01*
X15078482Y-9778381D02*
X14978482Y-9778381D01*
X14978482Y-9778381D02*
X14992768Y-9768857D01*
X14992768Y-9768857D02*
X15002291Y-9759333D01*
X15002291Y-9759333D02*
X15007053Y-9749810D01*
X14978482Y-9892667D02*
X14978482Y-9873619D01*
X14978482Y-9873619D02*
X14983244Y-9864095D01*
X14983244Y-9864095D02*
X14988006Y-9859333D01*
X14988006Y-9859333D02*
X15002291Y-9849810D01*
X15002291Y-9849810D02*
X15021339Y-9845048D01*
X15021339Y-9845048D02*
X15059434Y-9845048D01*
X15059434Y-9845048D02*
X15068958Y-9849810D01*
X15068958Y-9849810D02*
X15073720Y-9854571D01*
X15073720Y-9854571D02*
X15078482Y-9864095D01*
X15078482Y-9864095D02*
X15078482Y-9883143D01*
X15078482Y-9883143D02*
X15073720Y-9892667D01*
X15073720Y-9892667D02*
X15068958Y-9897429D01*
X15068958Y-9897429D02*
X15059434Y-9902190D01*
X15059434Y-9902190D02*
X15035625Y-9902190D01*
X15035625Y-9902190D02*
X15026101Y-9897429D01*
X15026101Y-9897429D02*
X15021339Y-9892667D01*
X15021339Y-9892667D02*
X15016577Y-9883143D01*
X15016577Y-9883143D02*
X15016577Y-9864095D01*
X15016577Y-9864095D02*
X15021339Y-9854571D01*
X15021339Y-9854571D02*
X15026101Y-9849810D01*
X15026101Y-9849810D02*
X15035625Y-9845048D01*
X15085482Y-10441714D02*
X15037863Y-10408381D01*
X15085482Y-10384571D02*
X14985482Y-10384571D01*
X14985482Y-10384571D02*
X14985482Y-10422667D01*
X14985482Y-10422667D02*
X14990244Y-10432190D01*
X14990244Y-10432190D02*
X14995006Y-10436952D01*
X14995006Y-10436952D02*
X15004529Y-10441714D01*
X15004529Y-10441714D02*
X15018815Y-10441714D01*
X15018815Y-10441714D02*
X15028339Y-10436952D01*
X15028339Y-10436952D02*
X15033101Y-10432190D01*
X15033101Y-10432190D02*
X15037863Y-10422667D01*
X15037863Y-10422667D02*
X15037863Y-10384571D01*
X15085482Y-10536952D02*
X15085482Y-10479810D01*
X15085482Y-10508381D02*
X14985482Y-10508381D01*
X14985482Y-10508381D02*
X14999768Y-10498857D01*
X14999768Y-10498857D02*
X15009291Y-10489333D01*
X15009291Y-10489333D02*
X15014053Y-10479810D01*
X14985482Y-10627429D02*
X14985482Y-10579810D01*
X14985482Y-10579810D02*
X15033101Y-10575048D01*
X15033101Y-10575048D02*
X15028339Y-10579810D01*
X15028339Y-10579810D02*
X15023577Y-10589333D01*
X15023577Y-10589333D02*
X15023577Y-10613143D01*
X15023577Y-10613143D02*
X15028339Y-10622667D01*
X15028339Y-10622667D02*
X15033101Y-10627429D01*
X15033101Y-10627429D02*
X15042625Y-10632190D01*
X15042625Y-10632190D02*
X15066434Y-10632190D01*
X15066434Y-10632190D02*
X15075958Y-10627429D01*
X15075958Y-10627429D02*
X15080720Y-10622667D01*
X15080720Y-10622667D02*
X15085482Y-10613143D01*
X15085482Y-10613143D02*
X15085482Y-10589333D01*
X15085482Y-10589333D02*
X15080720Y-10579810D01*
X15080720Y-10579810D02*
X15075958Y-10575048D01*
X15775482Y-10057714D02*
X15727863Y-10024381D01*
X15775482Y-10000571D02*
X15675482Y-10000571D01*
X15675482Y-10000571D02*
X15675482Y-10038667D01*
X15675482Y-10038667D02*
X15680244Y-10048190D01*
X15680244Y-10048190D02*
X15685006Y-10052952D01*
X15685006Y-10052952D02*
X15694529Y-10057714D01*
X15694529Y-10057714D02*
X15708815Y-10057714D01*
X15708815Y-10057714D02*
X15718339Y-10052952D01*
X15718339Y-10052952D02*
X15723101Y-10048190D01*
X15723101Y-10048190D02*
X15727863Y-10038667D01*
X15727863Y-10038667D02*
X15727863Y-10000571D01*
X15775482Y-10152952D02*
X15775482Y-10095810D01*
X15775482Y-10124381D02*
X15675482Y-10124381D01*
X15675482Y-10124381D02*
X15689768Y-10114857D01*
X15689768Y-10114857D02*
X15699291Y-10105333D01*
X15699291Y-10105333D02*
X15704053Y-10095810D01*
X15675482Y-10186286D02*
X15675482Y-10248190D01*
X15675482Y-10248190D02*
X15713577Y-10214857D01*
X15713577Y-10214857D02*
X15713577Y-10229143D01*
X15713577Y-10229143D02*
X15718339Y-10238667D01*
X15718339Y-10238667D02*
X15723101Y-10243429D01*
X15723101Y-10243429D02*
X15732625Y-10248190D01*
X15732625Y-10248190D02*
X15756434Y-10248190D01*
X15756434Y-10248190D02*
X15765958Y-10243429D01*
X15765958Y-10243429D02*
X15770720Y-10238667D01*
X15770720Y-10238667D02*
X15775482Y-10229143D01*
X15775482Y-10229143D02*
X15775482Y-10200571D01*
X15775482Y-10200571D02*
X15770720Y-10191048D01*
X15770720Y-10191048D02*
X15765958Y-10186286D01*
X15634482Y-9813714D02*
X15586863Y-9780381D01*
X15634482Y-9756571D02*
X15534482Y-9756571D01*
X15534482Y-9756571D02*
X15534482Y-9794667D01*
X15534482Y-9794667D02*
X15539244Y-9804190D01*
X15539244Y-9804190D02*
X15544006Y-9808952D01*
X15544006Y-9808952D02*
X15553529Y-9813714D01*
X15553529Y-9813714D02*
X15567815Y-9813714D01*
X15567815Y-9813714D02*
X15577339Y-9808952D01*
X15577339Y-9808952D02*
X15582101Y-9804190D01*
X15582101Y-9804190D02*
X15586863Y-9794667D01*
X15586863Y-9794667D02*
X15586863Y-9756571D01*
X15634482Y-9908952D02*
X15634482Y-9851810D01*
X15634482Y-9880381D02*
X15534482Y-9880381D01*
X15534482Y-9880381D02*
X15548768Y-9870857D01*
X15548768Y-9870857D02*
X15558291Y-9861333D01*
X15558291Y-9861333D02*
X15563053Y-9851810D01*
X15544006Y-9947048D02*
X15539244Y-9951810D01*
X15539244Y-9951810D02*
X15534482Y-9961333D01*
X15534482Y-9961333D02*
X15534482Y-9985143D01*
X15534482Y-9985143D02*
X15539244Y-9994667D01*
X15539244Y-9994667D02*
X15544006Y-9999429D01*
X15544006Y-9999429D02*
X15553529Y-10004190D01*
X15553529Y-10004190D02*
X15563053Y-10004190D01*
X15563053Y-10004190D02*
X15577339Y-9999429D01*
X15577339Y-9999429D02*
X15634482Y-9942286D01*
X15634482Y-9942286D02*
X15634482Y-10004190D01*
X15660482Y-10327714D02*
X15612863Y-10294381D01*
X15660482Y-10270571D02*
X15560482Y-10270571D01*
X15560482Y-10270571D02*
X15560482Y-10308667D01*
X15560482Y-10308667D02*
X15565244Y-10318190D01*
X15565244Y-10318190D02*
X15570006Y-10322952D01*
X15570006Y-10322952D02*
X15579529Y-10327714D01*
X15579529Y-10327714D02*
X15593815Y-10327714D01*
X15593815Y-10327714D02*
X15603339Y-10322952D01*
X15603339Y-10322952D02*
X15608101Y-10318190D01*
X15608101Y-10318190D02*
X15612863Y-10308667D01*
X15612863Y-10308667D02*
X15612863Y-10270571D01*
X15660482Y-10422952D02*
X15660482Y-10365810D01*
X15660482Y-10394381D02*
X15560482Y-10394381D01*
X15560482Y-10394381D02*
X15574768Y-10384857D01*
X15574768Y-10384857D02*
X15584291Y-10375333D01*
X15584291Y-10375333D02*
X15589053Y-10365810D01*
X15660482Y-10518190D02*
X15660482Y-10461048D01*
X15660482Y-10489619D02*
X15560482Y-10489619D01*
X15560482Y-10489619D02*
X15574768Y-10480095D01*
X15574768Y-10480095D02*
X15584291Y-10470571D01*
X15584291Y-10470571D02*
X15589053Y-10461048D01*
X15694482Y-8086333D02*
X15646863Y-8053000D01*
X15694482Y-8029190D02*
X15594482Y-8029190D01*
X15594482Y-8029190D02*
X15594482Y-8067286D01*
X15594482Y-8067286D02*
X15599244Y-8076809D01*
X15599244Y-8076809D02*
X15604006Y-8081571D01*
X15604006Y-8081571D02*
X15613529Y-8086333D01*
X15613529Y-8086333D02*
X15627815Y-8086333D01*
X15627815Y-8086333D02*
X15637339Y-8081571D01*
X15637339Y-8081571D02*
X15642101Y-8076809D01*
X15642101Y-8076809D02*
X15646863Y-8067286D01*
X15646863Y-8067286D02*
X15646863Y-8029190D01*
X15594482Y-8176809D02*
X15594482Y-8129190D01*
X15594482Y-8129190D02*
X15642101Y-8124429D01*
X15642101Y-8124429D02*
X15637339Y-8129190D01*
X15637339Y-8129190D02*
X15632577Y-8138714D01*
X15632577Y-8138714D02*
X15632577Y-8162524D01*
X15632577Y-8162524D02*
X15637339Y-8172048D01*
X15637339Y-8172048D02*
X15642101Y-8176809D01*
X15642101Y-8176809D02*
X15651625Y-8181571D01*
X15651625Y-8181571D02*
X15675434Y-8181571D01*
X15675434Y-8181571D02*
X15684958Y-8176809D01*
X15684958Y-8176809D02*
X15689720Y-8172048D01*
X15689720Y-8172048D02*
X15694482Y-8162524D01*
X15694482Y-8162524D02*
X15694482Y-8138714D01*
X15694482Y-8138714D02*
X15689720Y-8129190D01*
X15689720Y-8129190D02*
X15684958Y-8124429D01*
X15742482Y-8357333D02*
X15694863Y-8324000D01*
X15742482Y-8300190D02*
X15642482Y-8300190D01*
X15642482Y-8300190D02*
X15642482Y-8338286D01*
X15642482Y-8338286D02*
X15647244Y-8347809D01*
X15647244Y-8347809D02*
X15652006Y-8352571D01*
X15652006Y-8352571D02*
X15661529Y-8357333D01*
X15661529Y-8357333D02*
X15675815Y-8357333D01*
X15675815Y-8357333D02*
X15685339Y-8352571D01*
X15685339Y-8352571D02*
X15690101Y-8347809D01*
X15690101Y-8347809D02*
X15694863Y-8338286D01*
X15694863Y-8338286D02*
X15694863Y-8300190D01*
X15675815Y-8443048D02*
X15742482Y-8443048D01*
X15637720Y-8419238D02*
X15709148Y-8395429D01*
X15709148Y-8395429D02*
X15709148Y-8457333D01*
X13822667Y-7866482D02*
X13856000Y-7818863D01*
X13879809Y-7866482D02*
X13879809Y-7766482D01*
X13879809Y-7766482D02*
X13841714Y-7766482D01*
X13841714Y-7766482D02*
X13832190Y-7771244D01*
X13832190Y-7771244D02*
X13827428Y-7776006D01*
X13827428Y-7776006D02*
X13822667Y-7785529D01*
X13822667Y-7785529D02*
X13822667Y-7799815D01*
X13822667Y-7799815D02*
X13827428Y-7809339D01*
X13827428Y-7809339D02*
X13832190Y-7814101D01*
X13832190Y-7814101D02*
X13841714Y-7818863D01*
X13841714Y-7818863D02*
X13879809Y-7818863D01*
X13789333Y-7766482D02*
X13727428Y-7766482D01*
X13727428Y-7766482D02*
X13760762Y-7804577D01*
X13760762Y-7804577D02*
X13746476Y-7804577D01*
X13746476Y-7804577D02*
X13736952Y-7809339D01*
X13736952Y-7809339D02*
X13732190Y-7814101D01*
X13732190Y-7814101D02*
X13727428Y-7823625D01*
X13727428Y-7823625D02*
X13727428Y-7847434D01*
X13727428Y-7847434D02*
X13732190Y-7856958D01*
X13732190Y-7856958D02*
X13736952Y-7861720D01*
X13736952Y-7861720D02*
X13746476Y-7866482D01*
X13746476Y-7866482D02*
X13775047Y-7866482D01*
X13775047Y-7866482D02*
X13784571Y-7861720D01*
X13784571Y-7861720D02*
X13789333Y-7856958D01*
X15519667Y-7848482D02*
X15553000Y-7800863D01*
X15576809Y-7848482D02*
X15576809Y-7748482D01*
X15576809Y-7748482D02*
X15538714Y-7748482D01*
X15538714Y-7748482D02*
X15529190Y-7753244D01*
X15529190Y-7753244D02*
X15524428Y-7758006D01*
X15524428Y-7758006D02*
X15519667Y-7767529D01*
X15519667Y-7767529D02*
X15519667Y-7781815D01*
X15519667Y-7781815D02*
X15524428Y-7791339D01*
X15524428Y-7791339D02*
X15529190Y-7796101D01*
X15529190Y-7796101D02*
X15538714Y-7800863D01*
X15538714Y-7800863D02*
X15576809Y-7800863D01*
X15481571Y-7758006D02*
X15476809Y-7753244D01*
X15476809Y-7753244D02*
X15467286Y-7748482D01*
X15467286Y-7748482D02*
X15443476Y-7748482D01*
X15443476Y-7748482D02*
X15433952Y-7753244D01*
X15433952Y-7753244D02*
X15429190Y-7758006D01*
X15429190Y-7758006D02*
X15424428Y-7767529D01*
X15424428Y-7767529D02*
X15424428Y-7777053D01*
X15424428Y-7777053D02*
X15429190Y-7791339D01*
X15429190Y-7791339D02*
X15486333Y-7848482D01*
X15486333Y-7848482D02*
X15424428Y-7848482D01*
X15761482Y-8753333D02*
X15713863Y-8720000D01*
X15761482Y-8696191D02*
X15661482Y-8696191D01*
X15661482Y-8696191D02*
X15661482Y-8734286D01*
X15661482Y-8734286D02*
X15666244Y-8743810D01*
X15666244Y-8743810D02*
X15671006Y-8748571D01*
X15671006Y-8748571D02*
X15680529Y-8753333D01*
X15680529Y-8753333D02*
X15694815Y-8753333D01*
X15694815Y-8753333D02*
X15704339Y-8748571D01*
X15704339Y-8748571D02*
X15709101Y-8743810D01*
X15709101Y-8743810D02*
X15713863Y-8734286D01*
X15713863Y-8734286D02*
X15713863Y-8696191D01*
X15761482Y-8848571D02*
X15761482Y-8791429D01*
X15761482Y-8820000D02*
X15661482Y-8820000D01*
X15661482Y-8820000D02*
X15675768Y-8810476D01*
X15675768Y-8810476D02*
X15685291Y-8800952D01*
X15685291Y-8800952D02*
X15690053Y-8791429D01*
X15230958Y-10623714D02*
X15235720Y-10618952D01*
X15235720Y-10618952D02*
X15240482Y-10604667D01*
X15240482Y-10604667D02*
X15240482Y-10595143D01*
X15240482Y-10595143D02*
X15235720Y-10580857D01*
X15235720Y-10580857D02*
X15226196Y-10571333D01*
X15226196Y-10571333D02*
X15216672Y-10566571D01*
X15216672Y-10566571D02*
X15197625Y-10561810D01*
X15197625Y-10561810D02*
X15183339Y-10561810D01*
X15183339Y-10561810D02*
X15164291Y-10566571D01*
X15164291Y-10566571D02*
X15154768Y-10571333D01*
X15154768Y-10571333D02*
X15145244Y-10580857D01*
X15145244Y-10580857D02*
X15140482Y-10595143D01*
X15140482Y-10595143D02*
X15140482Y-10604667D01*
X15140482Y-10604667D02*
X15145244Y-10618952D01*
X15145244Y-10618952D02*
X15150006Y-10623714D01*
X15240482Y-10718952D02*
X15240482Y-10661810D01*
X15240482Y-10690381D02*
X15140482Y-10690381D01*
X15140482Y-10690381D02*
X15154768Y-10680857D01*
X15154768Y-10680857D02*
X15164291Y-10671333D01*
X15164291Y-10671333D02*
X15169053Y-10661810D01*
X15150006Y-10757048D02*
X15145244Y-10761810D01*
X15145244Y-10761810D02*
X15140482Y-10771333D01*
X15140482Y-10771333D02*
X15140482Y-10795143D01*
X15140482Y-10795143D02*
X15145244Y-10804667D01*
X15145244Y-10804667D02*
X15150006Y-10809429D01*
X15150006Y-10809429D02*
X15159529Y-10814190D01*
X15159529Y-10814190D02*
X15169053Y-10814190D01*
X15169053Y-10814190D02*
X15183339Y-10809429D01*
X15183339Y-10809429D02*
X15240482Y-10752286D01*
X15240482Y-10752286D02*
X15240482Y-10814190D01*
X15294286Y-7502958D02*
X15299048Y-7507720D01*
X15299048Y-7507720D02*
X15313333Y-7512482D01*
X15313333Y-7512482D02*
X15322857Y-7512482D01*
X15322857Y-7512482D02*
X15337143Y-7507720D01*
X15337143Y-7507720D02*
X15346667Y-7498196D01*
X15346667Y-7498196D02*
X15351428Y-7488672D01*
X15351428Y-7488672D02*
X15356190Y-7469625D01*
X15356190Y-7469625D02*
X15356190Y-7455339D01*
X15356190Y-7455339D02*
X15351428Y-7436291D01*
X15351428Y-7436291D02*
X15346667Y-7426768D01*
X15346667Y-7426768D02*
X15337143Y-7417244D01*
X15337143Y-7417244D02*
X15322857Y-7412482D01*
X15322857Y-7412482D02*
X15313333Y-7412482D01*
X15313333Y-7412482D02*
X15299048Y-7417244D01*
X15299048Y-7417244D02*
X15294286Y-7422006D01*
X15199048Y-7512482D02*
X15256190Y-7512482D01*
X15227619Y-7512482D02*
X15227619Y-7412482D01*
X15227619Y-7412482D02*
X15237143Y-7426768D01*
X15237143Y-7426768D02*
X15246667Y-7436291D01*
X15246667Y-7436291D02*
X15256190Y-7441053D01*
X15103809Y-7512482D02*
X15160952Y-7512482D01*
X15132381Y-7512482D02*
X15132381Y-7412482D01*
X15132381Y-7412482D02*
X15141905Y-7426768D01*
X15141905Y-7426768D02*
X15151428Y-7436291D01*
X15151428Y-7436291D02*
X15160952Y-7441053D01*
X15283286Y-7780958D02*
X15288048Y-7785720D01*
X15288048Y-7785720D02*
X15302333Y-7790482D01*
X15302333Y-7790482D02*
X15311857Y-7790482D01*
X15311857Y-7790482D02*
X15326143Y-7785720D01*
X15326143Y-7785720D02*
X15335667Y-7776196D01*
X15335667Y-7776196D02*
X15340428Y-7766672D01*
X15340428Y-7766672D02*
X15345190Y-7747625D01*
X15345190Y-7747625D02*
X15345190Y-7733339D01*
X15345190Y-7733339D02*
X15340428Y-7714291D01*
X15340428Y-7714291D02*
X15335667Y-7704768D01*
X15335667Y-7704768D02*
X15326143Y-7695244D01*
X15326143Y-7695244D02*
X15311857Y-7690482D01*
X15311857Y-7690482D02*
X15302333Y-7690482D01*
X15302333Y-7690482D02*
X15288048Y-7695244D01*
X15288048Y-7695244D02*
X15283286Y-7700006D01*
X15188048Y-7790482D02*
X15245190Y-7790482D01*
X15216619Y-7790482D02*
X15216619Y-7690482D01*
X15216619Y-7690482D02*
X15226143Y-7704768D01*
X15226143Y-7704768D02*
X15235667Y-7714291D01*
X15235667Y-7714291D02*
X15245190Y-7719053D01*
X15126143Y-7690482D02*
X15116619Y-7690482D01*
X15116619Y-7690482D02*
X15107095Y-7695244D01*
X15107095Y-7695244D02*
X15102333Y-7700006D01*
X15102333Y-7700006D02*
X15097571Y-7709529D01*
X15097571Y-7709529D02*
X15092809Y-7728577D01*
X15092809Y-7728577D02*
X15092809Y-7752387D01*
X15092809Y-7752387D02*
X15097571Y-7771434D01*
X15097571Y-7771434D02*
X15102333Y-7780958D01*
X15102333Y-7780958D02*
X15107095Y-7785720D01*
X15107095Y-7785720D02*
X15116619Y-7790482D01*
X15116619Y-7790482D02*
X15126143Y-7790482D01*
X15126143Y-7790482D02*
X15135667Y-7785720D01*
X15135667Y-7785720D02*
X15140428Y-7780958D01*
X15140428Y-7780958D02*
X15145190Y-7771434D01*
X15145190Y-7771434D02*
X15149952Y-7752387D01*
X15149952Y-7752387D02*
X15149952Y-7728577D01*
X15149952Y-7728577D02*
X15145190Y-7709529D01*
X15145190Y-7709529D02*
X15140428Y-7700006D01*
X15140428Y-7700006D02*
X15135667Y-7695244D01*
X15135667Y-7695244D02*
X15126143Y-7690482D01*
X15609958Y-9003333D02*
X15614720Y-8998571D01*
X15614720Y-8998571D02*
X15619482Y-8984286D01*
X15619482Y-8984286D02*
X15619482Y-8974762D01*
X15619482Y-8974762D02*
X15614720Y-8960476D01*
X15614720Y-8960476D02*
X15605196Y-8950952D01*
X15605196Y-8950952D02*
X15595672Y-8946191D01*
X15595672Y-8946191D02*
X15576625Y-8941429D01*
X15576625Y-8941429D02*
X15562339Y-8941429D01*
X15562339Y-8941429D02*
X15543291Y-8946191D01*
X15543291Y-8946191D02*
X15533768Y-8950952D01*
X15533768Y-8950952D02*
X15524244Y-8960476D01*
X15524244Y-8960476D02*
X15519482Y-8974762D01*
X15519482Y-8974762D02*
X15519482Y-8984286D01*
X15519482Y-8984286D02*
X15524244Y-8998571D01*
X15524244Y-8998571D02*
X15529006Y-9003333D01*
X15562339Y-9060476D02*
X15557577Y-9050952D01*
X15557577Y-9050952D02*
X15552815Y-9046191D01*
X15552815Y-9046191D02*
X15543291Y-9041429D01*
X15543291Y-9041429D02*
X15538529Y-9041429D01*
X15538529Y-9041429D02*
X15529006Y-9046191D01*
X15529006Y-9046191D02*
X15524244Y-9050952D01*
X15524244Y-9050952D02*
X15519482Y-9060476D01*
X15519482Y-9060476D02*
X15519482Y-9079524D01*
X15519482Y-9079524D02*
X15524244Y-9089048D01*
X15524244Y-9089048D02*
X15529006Y-9093810D01*
X15529006Y-9093810D02*
X15538529Y-9098571D01*
X15538529Y-9098571D02*
X15543291Y-9098571D01*
X15543291Y-9098571D02*
X15552815Y-9093810D01*
X15552815Y-9093810D02*
X15557577Y-9089048D01*
X15557577Y-9089048D02*
X15562339Y-9079524D01*
X15562339Y-9079524D02*
X15562339Y-9060476D01*
X15562339Y-9060476D02*
X15567101Y-9050952D01*
X15567101Y-9050952D02*
X15571863Y-9046191D01*
X15571863Y-9046191D02*
X15581387Y-9041429D01*
X15581387Y-9041429D02*
X15600434Y-9041429D01*
X15600434Y-9041429D02*
X15609958Y-9046191D01*
X15609958Y-9046191D02*
X15614720Y-9050952D01*
X15614720Y-9050952D02*
X15619482Y-9060476D01*
X15619482Y-9060476D02*
X15619482Y-9079524D01*
X15619482Y-9079524D02*
X15614720Y-9089048D01*
X15614720Y-9089048D02*
X15609958Y-9093810D01*
X15609958Y-9093810D02*
X15600434Y-9098571D01*
X15600434Y-9098571D02*
X15581387Y-9098571D01*
X15581387Y-9098571D02*
X15571863Y-9093810D01*
X15571863Y-9093810D02*
X15567101Y-9089048D01*
X15567101Y-9089048D02*
X15562339Y-9079524D01*
X14390958Y-10536333D02*
X14395720Y-10531571D01*
X14395720Y-10531571D02*
X14400482Y-10517286D01*
X14400482Y-10517286D02*
X14400482Y-10507762D01*
X14400482Y-10507762D02*
X14395720Y-10493476D01*
X14395720Y-10493476D02*
X14386196Y-10483952D01*
X14386196Y-10483952D02*
X14376672Y-10479191D01*
X14376672Y-10479191D02*
X14357625Y-10474429D01*
X14357625Y-10474429D02*
X14343339Y-10474429D01*
X14343339Y-10474429D02*
X14324291Y-10479191D01*
X14324291Y-10479191D02*
X14314768Y-10483952D01*
X14314768Y-10483952D02*
X14305244Y-10493476D01*
X14305244Y-10493476D02*
X14300482Y-10507762D01*
X14300482Y-10507762D02*
X14300482Y-10517286D01*
X14300482Y-10517286D02*
X14305244Y-10531571D01*
X14305244Y-10531571D02*
X14310006Y-10536333D01*
X14300482Y-10569667D02*
X14300482Y-10636333D01*
X14300482Y-10636333D02*
X14400482Y-10593476D01*
X14453667Y-9736958D02*
X14458428Y-9741720D01*
X14458428Y-9741720D02*
X14472714Y-9746482D01*
X14472714Y-9746482D02*
X14482238Y-9746482D01*
X14482238Y-9746482D02*
X14496524Y-9741720D01*
X14496524Y-9741720D02*
X14506047Y-9732196D01*
X14506047Y-9732196D02*
X14510809Y-9722672D01*
X14510809Y-9722672D02*
X14515571Y-9703625D01*
X14515571Y-9703625D02*
X14515571Y-9689339D01*
X14515571Y-9689339D02*
X14510809Y-9670291D01*
X14510809Y-9670291D02*
X14506047Y-9660768D01*
X14506047Y-9660768D02*
X14496524Y-9651244D01*
X14496524Y-9651244D02*
X14482238Y-9646482D01*
X14482238Y-9646482D02*
X14472714Y-9646482D01*
X14472714Y-9646482D02*
X14458428Y-9651244D01*
X14458428Y-9651244D02*
X14453667Y-9656006D01*
X14367952Y-9646482D02*
X14387000Y-9646482D01*
X14387000Y-9646482D02*
X14396524Y-9651244D01*
X14396524Y-9651244D02*
X14401286Y-9656006D01*
X14401286Y-9656006D02*
X14410809Y-9670291D01*
X14410809Y-9670291D02*
X14415571Y-9689339D01*
X14415571Y-9689339D02*
X14415571Y-9727434D01*
X14415571Y-9727434D02*
X14410809Y-9736958D01*
X14410809Y-9736958D02*
X14406047Y-9741720D01*
X14406047Y-9741720D02*
X14396524Y-9746482D01*
X14396524Y-9746482D02*
X14377476Y-9746482D01*
X14377476Y-9746482D02*
X14367952Y-9741720D01*
X14367952Y-9741720D02*
X14363190Y-9736958D01*
X14363190Y-9736958D02*
X14358428Y-9727434D01*
X14358428Y-9727434D02*
X14358428Y-9703625D01*
X14358428Y-9703625D02*
X14363190Y-9694101D01*
X14363190Y-9694101D02*
X14367952Y-9689339D01*
X14367952Y-9689339D02*
X14377476Y-9684577D01*
X14377476Y-9684577D02*
X14396524Y-9684577D01*
X14396524Y-9684577D02*
X14406047Y-9689339D01*
X14406047Y-9689339D02*
X14410809Y-9694101D01*
X14410809Y-9694101D02*
X14415571Y-9703625D01*
D10*
X13619742Y-9788667D02*
X13691170Y-9788667D01*
X13691170Y-9788667D02*
X13705456Y-9783905D01*
X13705456Y-9783905D02*
X13714980Y-9774381D01*
X13714980Y-9774381D02*
X13719742Y-9760095D01*
X13719742Y-9760095D02*
X13719742Y-9750571D01*
X13629266Y-9831524D02*
X13624504Y-9836286D01*
X13624504Y-9836286D02*
X13619742Y-9845810D01*
X13619742Y-9845810D02*
X13619742Y-9869619D01*
X13619742Y-9869619D02*
X13624504Y-9879143D01*
X13624504Y-9879143D02*
X13629266Y-9883905D01*
X13629266Y-9883905D02*
X13638789Y-9888667D01*
X13638789Y-9888667D02*
X13648313Y-9888667D01*
X13648313Y-9888667D02*
X13662599Y-9883905D01*
X13662599Y-9883905D02*
X13719742Y-9826762D01*
X13719742Y-9826762D02*
X13719742Y-9888667D01*
%TO.C,SW1*%
X13770000Y-9560000D02*
X13290000Y-9560000D01*
X13290000Y-8540000D01*
X13770000Y-8540000D01*
X13770000Y-9560000D01*
X13530000Y-8650000D02*
X13530000Y-8540000D01*
D14*
X13530000Y-8540000D02*
X13530000Y-8551000D01*
X13530000Y-8555000D02*
X13530000Y-8566000D01*
X13530000Y-8570000D02*
X13530000Y-8581000D01*
X13530000Y-8585000D02*
X13530000Y-8596000D01*
X13530000Y-8600000D02*
X13530000Y-8611000D01*
X13530000Y-8615000D02*
X13530000Y-8626000D01*
X13530000Y-8630000D02*
X13530000Y-8641000D01*
X13530000Y-8645000D02*
X13530000Y-8656000D01*
X13530000Y-8660000D02*
X13530000Y-8671000D01*
X13530000Y-8675000D02*
X13530000Y-8686000D01*
X13530000Y-8690000D02*
X13530000Y-8701000D01*
X13530000Y-8705000D02*
X13530000Y-8716000D01*
X13530000Y-8720000D02*
X13530000Y-8731000D01*
X13530000Y-8735000D02*
X13530000Y-8746000D01*
X13530000Y-8750000D02*
X13530000Y-8761000D01*
X13530000Y-8765000D02*
X13530000Y-8776000D01*
X13530000Y-8780000D02*
X13530000Y-8791000D01*
X13530000Y-8795000D02*
X13530000Y-8806000D01*
X13530000Y-8810000D02*
X13530000Y-8821000D01*
X13530000Y-8825000D02*
X13530000Y-8836000D01*
X13530000Y-8840000D02*
X13530000Y-8851000D01*
X13530000Y-8855000D02*
X13530000Y-8866000D01*
X13530000Y-8870000D02*
X13530000Y-8881000D01*
X13530000Y-8885000D02*
X13530000Y-8896000D01*
X13530000Y-8900000D02*
X13530000Y-8911000D01*
X13530000Y-8915000D02*
X13530000Y-8926000D01*
X13530000Y-8930000D02*
X13530000Y-8941000D01*
X13530000Y-8945000D02*
X13530000Y-8956000D01*
X13530000Y-8960000D02*
X13530000Y-8971000D01*
X13530000Y-8975000D02*
X13530000Y-8986000D01*
X13530000Y-8990000D02*
X13530000Y-9001000D01*
X13530000Y-9005000D02*
X13530000Y-9016000D01*
X13530000Y-9020000D02*
X13530000Y-9031000D01*
X13530000Y-9035000D02*
X13530000Y-9046000D01*
X13530000Y-9050000D02*
X13530000Y-9061000D01*
X13530000Y-9065000D02*
X13530000Y-9076000D01*
X13530000Y-9080000D02*
X13530000Y-9091000D01*
X13530000Y-9095000D02*
X13530000Y-9106000D01*
X13530000Y-9110000D02*
X13530000Y-9121000D01*
X13530000Y-9125000D02*
X13530000Y-9136000D01*
X13530000Y-9140000D02*
X13530000Y-9151000D01*
X13530000Y-9155000D02*
X13530000Y-9166000D01*
X13530000Y-9170000D02*
X13530000Y-9181000D01*
X13530000Y-9185000D02*
X13530000Y-9196000D01*
X13530000Y-9200000D02*
X13530000Y-9211000D01*
X13530000Y-9215000D02*
X13530000Y-9226000D01*
X13530000Y-9230000D02*
X13530000Y-9241000D01*
X13530000Y-9245000D02*
X13530000Y-9256000D01*
X13530000Y-9260000D02*
X13530000Y-9271000D01*
X13530000Y-9275000D02*
X13530000Y-9286000D01*
X13530000Y-9290000D02*
X13530000Y-9301000D01*
X13530000Y-9305000D02*
X13530000Y-9316000D01*
X13530000Y-9320000D02*
X13530000Y-9331000D01*
X13530000Y-9335000D02*
X13530000Y-9346000D01*
X13530000Y-9350000D02*
X13530000Y-9361000D01*
X13530000Y-9365000D02*
X13530000Y-9376000D01*
X13530000Y-9380000D02*
X13530000Y-9391000D01*
X13530000Y-9395000D02*
X13530000Y-9406000D01*
X13530000Y-9410000D02*
X13530000Y-9421000D01*
X13530000Y-9425000D02*
X13530000Y-9436000D01*
X13530000Y-9440000D02*
X13530000Y-9451000D01*
X13530000Y-9455000D02*
X13530000Y-9466000D01*
X13530000Y-9470000D02*
X13530000Y-9481000D01*
X13530000Y-9485000D02*
X13530000Y-9496000D01*
X13530000Y-9500000D02*
X13530000Y-9511000D01*
X13530000Y-9515000D02*
X13530000Y-9526000D01*
X13530000Y-9530000D02*
X13530000Y-9541000D01*
X13530000Y-9545000D02*
X13530000Y-9556000D01*
X13530000Y-9560000D02*
X13530000Y-9560000D01*
D10*
X13530000Y-9450000D02*
X13530000Y-9560000D01*
%TO.C,J4*%
X15517627Y-10371800D02*
G75*
G02*
X15077173Y-10371800I-220227J0D01*
G01*
X15077173Y-10371800D02*
G75*
G02*
X15517627Y-10371800I220227J0D01*
G01*
%TO.C,BZ1*%
X14360000Y-7640000D02*
G75*
G02*
X13860000Y-7640000I-250000J0D01*
G01*
X13860000Y-7640000D02*
G75*
G02*
X14360000Y-7640000I250000J0D01*
G01*
%TO.C,J5*%
X15520227Y-9871800D02*
G75*
G02*
X15079773Y-9871800I-220227J0D01*
G01*
X15079773Y-9871800D02*
G75*
G02*
X15520227Y-9871800I220227J0D01*
G01*
%TO.C,L2*%
X14110000Y-10550000D02*
X14024000Y-10550000D01*
X14024000Y-10613000D01*
X14110000Y-10613000D01*
X14110000Y-10550000D01*
D15*
X14100500Y-10560000D02*
X14035500Y-10560000D01*
X14035500Y-10600000D01*
X14100500Y-10600000D01*
X14100500Y-10560000D01*
X14079500Y-10560000D02*
X14056500Y-10560000D01*
X14056500Y-10600000D01*
X14079500Y-10600000D01*
X14079500Y-10560000D01*
D16*
%TO.C,U5*%
X15210000Y-7905000D02*
X15210000Y-7899500D01*
X15210000Y-7897500D02*
X15210000Y-7892000D01*
X15210000Y-7890000D02*
X15210000Y-7884500D01*
X15210000Y-7882500D02*
X15210000Y-7877000D01*
X15210000Y-7875000D02*
X15210000Y-7869500D01*
X15210000Y-7867500D02*
X15210000Y-7862000D01*
X15210000Y-7860000D02*
X15210000Y-7854500D01*
X15210000Y-7852500D02*
X15210000Y-7847000D01*
X15210000Y-7845000D02*
X15210000Y-7839500D01*
X15210000Y-7837500D02*
X15210000Y-7835000D01*
X15155000Y-7870000D02*
X15160500Y-7870000D01*
X15162500Y-7870000D02*
X15168000Y-7870000D01*
X15170000Y-7870000D02*
X15175500Y-7870000D01*
X15177500Y-7870000D02*
X15183000Y-7870000D01*
X15185000Y-7870000D02*
X15190500Y-7870000D01*
X15192500Y-7870000D02*
X15198000Y-7870000D01*
X15200000Y-7870000D02*
X15205500Y-7870000D01*
X15207500Y-7870000D02*
X15213000Y-7870000D01*
X15215000Y-7870000D02*
X15220500Y-7870000D01*
X15222500Y-7870000D02*
X15228000Y-7870000D01*
X15230000Y-7870000D02*
X15235500Y-7870000D01*
X15237500Y-7870000D02*
X15243000Y-7870000D01*
X15245000Y-7870000D02*
X15250500Y-7870000D01*
X15252500Y-7870000D02*
X15258000Y-7870000D01*
X15260000Y-7870000D02*
X15265000Y-7870000D01*
D14*
X15155000Y-7835000D02*
X15265000Y-7835000D01*
X15265000Y-7905000D01*
X15155000Y-7905000D01*
X15155000Y-7835000D01*
D10*
%TO.C,J2*%
X14360000Y-10727000D02*
X14360000Y-9773000D01*
X14970000Y-10250000D02*
X13750000Y-10250000D01*
X13750000Y-9773000D02*
X14970000Y-9773000D01*
X14970000Y-10727000D01*
X13750000Y-10727000D01*
X13750000Y-9773000D01*
%TO.C,GM02SP1*%
X15490000Y-9615000D02*
X13790000Y-9615000D01*
X13790000Y-7985000D01*
X15490000Y-7985000D01*
X15490000Y-9615000D01*
%TD*%
M02*
