%TF.GenerationSoftware,KiCad,Pcbnew,8.0.5*%
%TF.CreationDate,2024-12-27T02:30:01+01:00*%
%TF.ProjectId,walter_remix - C3v2,77616c74-6572-45f7-9265-6d6978202d20,rev?*%
%TF.SameCoordinates,Original*%
%TF.FileFunction,Copper,L3,Inr*%
%TF.FilePolarity,Positive*%
%FSLAX45Y45*%
G04 Gerber Fmt 4.5, Leading zero omitted, Abs format (unit mm)*
G04 Created by KiCad (PCBNEW 8.0.5) date 2024-12-27 02:30:01*
%MOMM*%
%LPD*%
G01*
G04 APERTURE LIST*
%ADD10C,0.100000*%
%ADD11C,0.150000*%
%ADD12C,0.300000*%
%ADD13C,0.400000*%
%TA.AperFunction,HeatsinkPad*%
%ADD14C,0.600000*%
%TD*%
%TA.AperFunction,ComponentPad*%
%ADD15R,1.950000X1.950000*%
%TD*%
%TA.AperFunction,ComponentPad*%
%ADD16C,1.950000*%
%TD*%
%TA.AperFunction,ComponentPad*%
%ADD17O,1.000000X1.600000*%
%TD*%
%TA.AperFunction,ComponentPad*%
%ADD18O,1.000000X2.100000*%
%TD*%
%TA.AperFunction,ViaPad*%
%ADD19C,0.600000*%
%TD*%
%TA.AperFunction,Conductor*%
%ADD20C,0.250000*%
%TD*%
G04 APERTURE END LIST*
D10*
D11*
X17700220Y-16600720D02*
X28500220Y-16600720D01*
X28500220Y-19800720D01*
X17700220Y-19800720D01*
X17700220Y-16600720D01*
D10*
D11*
X1000000Y-1000000D02*
X28700220Y-1000000D01*
X28700220Y-20000720D01*
X1000000Y-20000720D01*
X1000000Y-1000000D01*
D10*
D11*
X1200000Y-1200000D02*
X28500220Y-1200000D01*
X28500220Y-19800720D01*
X1200000Y-19800720D01*
X1200000Y-1200000D01*
D10*
D11*
X6000000Y-1200000D02*
X6000000Y-1000000D01*
D10*
D11*
X11000000Y-1200000D02*
X11000000Y-1000000D01*
D10*
D11*
X16000000Y-1200000D02*
X16000000Y-1000000D01*
D10*
D11*
X21000000Y-1200000D02*
X21000000Y-1000000D01*
D10*
D11*
X26000000Y-1200000D02*
X26000000Y-1000000D01*
D10*
D11*
X3608916Y-1159360D02*
X3534630Y-1159360D01*
X3571773Y-1159360D02*
X3571773Y-1029360D01*
X3571773Y-1029360D02*
X3559392Y-1047932D01*
X3559392Y-1047932D02*
X3547011Y-1060313D01*
X3547011Y-1060313D02*
X3534630Y-1066503D01*
D10*
D11*
X8534630Y-1041741D02*
X8540821Y-1035551D01*
X8540821Y-1035551D02*
X8553202Y-1029360D01*
X8553202Y-1029360D02*
X8584154Y-1029360D01*
X8584154Y-1029360D02*
X8596535Y-1035551D01*
X8596535Y-1035551D02*
X8602726Y-1041741D01*
X8602726Y-1041741D02*
X8608916Y-1054122D01*
X8608916Y-1054122D02*
X8608916Y-1066503D01*
X8608916Y-1066503D02*
X8602726Y-1085075D01*
X8602726Y-1085075D02*
X8528440Y-1159360D01*
X8528440Y-1159360D02*
X8608916Y-1159360D01*
D10*
D11*
X13528440Y-1029360D02*
X13608916Y-1029360D01*
X13608916Y-1029360D02*
X13565583Y-1078884D01*
X13565583Y-1078884D02*
X13584154Y-1078884D01*
X13584154Y-1078884D02*
X13596535Y-1085075D01*
X13596535Y-1085075D02*
X13602725Y-1091265D01*
X13602725Y-1091265D02*
X13608916Y-1103646D01*
X13608916Y-1103646D02*
X13608916Y-1134599D01*
X13608916Y-1134599D02*
X13602725Y-1146980D01*
X13602725Y-1146980D02*
X13596535Y-1153170D01*
X13596535Y-1153170D02*
X13584154Y-1159360D01*
X13584154Y-1159360D02*
X13547011Y-1159360D01*
X13547011Y-1159360D02*
X13534630Y-1153170D01*
X13534630Y-1153170D02*
X13528440Y-1146980D01*
D10*
D11*
X18596535Y-1072694D02*
X18596535Y-1159360D01*
X18565583Y-1023170D02*
X18534630Y-1116027D01*
X18534630Y-1116027D02*
X18615106Y-1116027D01*
D10*
D11*
X23602725Y-1029360D02*
X23540821Y-1029360D01*
X23540821Y-1029360D02*
X23534630Y-1091265D01*
X23534630Y-1091265D02*
X23540821Y-1085075D01*
X23540821Y-1085075D02*
X23553202Y-1078884D01*
X23553202Y-1078884D02*
X23584154Y-1078884D01*
X23584154Y-1078884D02*
X23596535Y-1085075D01*
X23596535Y-1085075D02*
X23602725Y-1091265D01*
X23602725Y-1091265D02*
X23608916Y-1103646D01*
X23608916Y-1103646D02*
X23608916Y-1134599D01*
X23608916Y-1134599D02*
X23602725Y-1146980D01*
X23602725Y-1146980D02*
X23596535Y-1153170D01*
X23596535Y-1153170D02*
X23584154Y-1159360D01*
X23584154Y-1159360D02*
X23553202Y-1159360D01*
X23553202Y-1159360D02*
X23540821Y-1153170D01*
X23540821Y-1153170D02*
X23534630Y-1146980D01*
D10*
D11*
X28596535Y-1029360D02*
X28571773Y-1029360D01*
X28571773Y-1029360D02*
X28559392Y-1035551D01*
X28559392Y-1035551D02*
X28553202Y-1041741D01*
X28553202Y-1041741D02*
X28540821Y-1060313D01*
X28540821Y-1060313D02*
X28534630Y-1085075D01*
X28534630Y-1085075D02*
X28534630Y-1134599D01*
X28534630Y-1134599D02*
X28540821Y-1146980D01*
X28540821Y-1146980D02*
X28547011Y-1153170D01*
X28547011Y-1153170D02*
X28559392Y-1159360D01*
X28559392Y-1159360D02*
X28584154Y-1159360D01*
X28584154Y-1159360D02*
X28596535Y-1153170D01*
X28596535Y-1153170D02*
X28602725Y-1146980D01*
X28602725Y-1146980D02*
X28608916Y-1134599D01*
X28608916Y-1134599D02*
X28608916Y-1103646D01*
X28608916Y-1103646D02*
X28602725Y-1091265D01*
X28602725Y-1091265D02*
X28596535Y-1085075D01*
X28596535Y-1085075D02*
X28584154Y-1078884D01*
X28584154Y-1078884D02*
X28559392Y-1078884D01*
X28559392Y-1078884D02*
X28547011Y-1085075D01*
X28547011Y-1085075D02*
X28540821Y-1091265D01*
X28540821Y-1091265D02*
X28534630Y-1103646D01*
D10*
D11*
X6000000Y-19800720D02*
X6000000Y-20000720D01*
D10*
D11*
X11000000Y-19800720D02*
X11000000Y-20000720D01*
D10*
D11*
X16000000Y-19800720D02*
X16000000Y-20000720D01*
D10*
D11*
X21000000Y-19800720D02*
X21000000Y-20000720D01*
D10*
D11*
X26000000Y-19800720D02*
X26000000Y-20000720D01*
D10*
D11*
X3608916Y-19960080D02*
X3534630Y-19960080D01*
X3571773Y-19960080D02*
X3571773Y-19830080D01*
X3571773Y-19830080D02*
X3559392Y-19848652D01*
X3559392Y-19848652D02*
X3547011Y-19861033D01*
X3547011Y-19861033D02*
X3534630Y-19867223D01*
D10*
D11*
X8534630Y-19842461D02*
X8540821Y-19836271D01*
X8540821Y-19836271D02*
X8553202Y-19830080D01*
X8553202Y-19830080D02*
X8584154Y-19830080D01*
X8584154Y-19830080D02*
X8596535Y-19836271D01*
X8596535Y-19836271D02*
X8602726Y-19842461D01*
X8602726Y-19842461D02*
X8608916Y-19854842D01*
X8608916Y-19854842D02*
X8608916Y-19867223D01*
X8608916Y-19867223D02*
X8602726Y-19885795D01*
X8602726Y-19885795D02*
X8528440Y-19960080D01*
X8528440Y-19960080D02*
X8608916Y-19960080D01*
D10*
D11*
X13528440Y-19830080D02*
X13608916Y-19830080D01*
X13608916Y-19830080D02*
X13565583Y-19879604D01*
X13565583Y-19879604D02*
X13584154Y-19879604D01*
X13584154Y-19879604D02*
X13596535Y-19885795D01*
X13596535Y-19885795D02*
X13602725Y-19891985D01*
X13602725Y-19891985D02*
X13608916Y-19904366D01*
X13608916Y-19904366D02*
X13608916Y-19935319D01*
X13608916Y-19935319D02*
X13602725Y-19947700D01*
X13602725Y-19947700D02*
X13596535Y-19953890D01*
X13596535Y-19953890D02*
X13584154Y-19960080D01*
X13584154Y-19960080D02*
X13547011Y-19960080D01*
X13547011Y-19960080D02*
X13534630Y-19953890D01*
X13534630Y-19953890D02*
X13528440Y-19947700D01*
D10*
D11*
X18596535Y-19873414D02*
X18596535Y-19960080D01*
X18565583Y-19823890D02*
X18534630Y-19916747D01*
X18534630Y-19916747D02*
X18615106Y-19916747D01*
D10*
D11*
X23602725Y-19830080D02*
X23540821Y-19830080D01*
X23540821Y-19830080D02*
X23534630Y-19891985D01*
X23534630Y-19891985D02*
X23540821Y-19885795D01*
X23540821Y-19885795D02*
X23553202Y-19879604D01*
X23553202Y-19879604D02*
X23584154Y-19879604D01*
X23584154Y-19879604D02*
X23596535Y-19885795D01*
X23596535Y-19885795D02*
X23602725Y-19891985D01*
X23602725Y-19891985D02*
X23608916Y-19904366D01*
X23608916Y-19904366D02*
X23608916Y-19935319D01*
X23608916Y-19935319D02*
X23602725Y-19947700D01*
X23602725Y-19947700D02*
X23596535Y-19953890D01*
X23596535Y-19953890D02*
X23584154Y-19960080D01*
X23584154Y-19960080D02*
X23553202Y-19960080D01*
X23553202Y-19960080D02*
X23540821Y-19953890D01*
X23540821Y-19953890D02*
X23534630Y-19947700D01*
D10*
D11*
X28596535Y-19830080D02*
X28571773Y-19830080D01*
X28571773Y-19830080D02*
X28559392Y-19836271D01*
X28559392Y-19836271D02*
X28553202Y-19842461D01*
X28553202Y-19842461D02*
X28540821Y-19861033D01*
X28540821Y-19861033D02*
X28534630Y-19885795D01*
X28534630Y-19885795D02*
X28534630Y-19935319D01*
X28534630Y-19935319D02*
X28540821Y-19947700D01*
X28540821Y-19947700D02*
X28547011Y-19953890D01*
X28547011Y-19953890D02*
X28559392Y-19960080D01*
X28559392Y-19960080D02*
X28584154Y-19960080D01*
X28584154Y-19960080D02*
X28596535Y-19953890D01*
X28596535Y-19953890D02*
X28602725Y-19947700D01*
X28602725Y-19947700D02*
X28608916Y-19935319D01*
X28608916Y-19935319D02*
X28608916Y-19904366D01*
X28608916Y-19904366D02*
X28602725Y-19891985D01*
X28602725Y-19891985D02*
X28596535Y-19885795D01*
X28596535Y-19885795D02*
X28584154Y-19879604D01*
X28584154Y-19879604D02*
X28559392Y-19879604D01*
X28559392Y-19879604D02*
X28547011Y-19885795D01*
X28547011Y-19885795D02*
X28540821Y-19891985D01*
X28540821Y-19891985D02*
X28534630Y-19904366D01*
D10*
D11*
X1000000Y-6000000D02*
X1200000Y-6000000D01*
D10*
D11*
X1000000Y-11000000D02*
X1200000Y-11000000D01*
D10*
D11*
X1000000Y-16000000D02*
X1200000Y-16000000D01*
D10*
D11*
X1069048Y-3522218D02*
X1130952Y-3522218D01*
X1056667Y-3559360D02*
X1100000Y-3429360D01*
X1100000Y-3429360D02*
X1143333Y-3559360D01*
D10*
D11*
X1109286Y-8491265D02*
X1127857Y-8497456D01*
X1127857Y-8497456D02*
X1134048Y-8503646D01*
X1134048Y-8503646D02*
X1140238Y-8516027D01*
X1140238Y-8516027D02*
X1140238Y-8534599D01*
X1140238Y-8534599D02*
X1134048Y-8546980D01*
X1134048Y-8546980D02*
X1127857Y-8553170D01*
X1127857Y-8553170D02*
X1115476Y-8559360D01*
X1115476Y-8559360D02*
X1065952Y-8559360D01*
X1065952Y-8559360D02*
X1065952Y-8429360D01*
X1065952Y-8429360D02*
X1109286Y-8429360D01*
X1109286Y-8429360D02*
X1121667Y-8435551D01*
X1121667Y-8435551D02*
X1127857Y-8441741D01*
X1127857Y-8441741D02*
X1134048Y-8454122D01*
X1134048Y-8454122D02*
X1134048Y-8466503D01*
X1134048Y-8466503D02*
X1127857Y-8478884D01*
X1127857Y-8478884D02*
X1121667Y-8485075D01*
X1121667Y-8485075D02*
X1109286Y-8491265D01*
X1109286Y-8491265D02*
X1065952Y-8491265D01*
D10*
D11*
X1140238Y-13546979D02*
X1134048Y-13553170D01*
X1134048Y-13553170D02*
X1115476Y-13559360D01*
X1115476Y-13559360D02*
X1103095Y-13559360D01*
X1103095Y-13559360D02*
X1084524Y-13553170D01*
X1084524Y-13553170D02*
X1072143Y-13540789D01*
X1072143Y-13540789D02*
X1065952Y-13528408D01*
X1065952Y-13528408D02*
X1059762Y-13503646D01*
X1059762Y-13503646D02*
X1059762Y-13485075D01*
X1059762Y-13485075D02*
X1065952Y-13460313D01*
X1065952Y-13460313D02*
X1072143Y-13447932D01*
X1072143Y-13447932D02*
X1084524Y-13435551D01*
X1084524Y-13435551D02*
X1103095Y-13429360D01*
X1103095Y-13429360D02*
X1115476Y-13429360D01*
X1115476Y-13429360D02*
X1134048Y-13435551D01*
X1134048Y-13435551D02*
X1140238Y-13441741D01*
D10*
D11*
X1065952Y-18559360D02*
X1065952Y-18429360D01*
X1065952Y-18429360D02*
X1096905Y-18429360D01*
X1096905Y-18429360D02*
X1115476Y-18435551D01*
X1115476Y-18435551D02*
X1127857Y-18447932D01*
X1127857Y-18447932D02*
X1134048Y-18460313D01*
X1134048Y-18460313D02*
X1140238Y-18485075D01*
X1140238Y-18485075D02*
X1140238Y-18503646D01*
X1140238Y-18503646D02*
X1134048Y-18528408D01*
X1134048Y-18528408D02*
X1127857Y-18540789D01*
X1127857Y-18540789D02*
X1115476Y-18553170D01*
X1115476Y-18553170D02*
X1096905Y-18559360D01*
X1096905Y-18559360D02*
X1065952Y-18559360D01*
D10*
D11*
X28700220Y-6000000D02*
X28500220Y-6000000D01*
D10*
D11*
X28700220Y-11000000D02*
X28500220Y-11000000D01*
D10*
D11*
X28700220Y-16000000D02*
X28500220Y-16000000D01*
D10*
D11*
X28569268Y-3522218D02*
X28631172Y-3522218D01*
X28556887Y-3559360D02*
X28600220Y-3429360D01*
X28600220Y-3429360D02*
X28643553Y-3559360D01*
D10*
D11*
X28609506Y-8491265D02*
X28628077Y-8497456D01*
X28628077Y-8497456D02*
X28634268Y-8503646D01*
X28634268Y-8503646D02*
X28640458Y-8516027D01*
X28640458Y-8516027D02*
X28640458Y-8534599D01*
X28640458Y-8534599D02*
X28634268Y-8546980D01*
X28634268Y-8546980D02*
X28628077Y-8553170D01*
X28628077Y-8553170D02*
X28615696Y-8559360D01*
X28615696Y-8559360D02*
X28566172Y-8559360D01*
X28566172Y-8559360D02*
X28566172Y-8429360D01*
X28566172Y-8429360D02*
X28609506Y-8429360D01*
X28609506Y-8429360D02*
X28621887Y-8435551D01*
X28621887Y-8435551D02*
X28628077Y-8441741D01*
X28628077Y-8441741D02*
X28634268Y-8454122D01*
X28634268Y-8454122D02*
X28634268Y-8466503D01*
X28634268Y-8466503D02*
X28628077Y-8478884D01*
X28628077Y-8478884D02*
X28621887Y-8485075D01*
X28621887Y-8485075D02*
X28609506Y-8491265D01*
X28609506Y-8491265D02*
X28566172Y-8491265D01*
D10*
D11*
X28640458Y-13546979D02*
X28634268Y-13553170D01*
X28634268Y-13553170D02*
X28615696Y-13559360D01*
X28615696Y-13559360D02*
X28603315Y-13559360D01*
X28603315Y-13559360D02*
X28584744Y-13553170D01*
X28584744Y-13553170D02*
X28572363Y-13540789D01*
X28572363Y-13540789D02*
X28566172Y-13528408D01*
X28566172Y-13528408D02*
X28559982Y-13503646D01*
X28559982Y-13503646D02*
X28559982Y-13485075D01*
X28559982Y-13485075D02*
X28566172Y-13460313D01*
X28566172Y-13460313D02*
X28572363Y-13447932D01*
X28572363Y-13447932D02*
X28584744Y-13435551D01*
X28584744Y-13435551D02*
X28603315Y-13429360D01*
X28603315Y-13429360D02*
X28615696Y-13429360D01*
X28615696Y-13429360D02*
X28634268Y-13435551D01*
X28634268Y-13435551D02*
X28640458Y-13441741D01*
D10*
D11*
X28566172Y-18559360D02*
X28566172Y-18429360D01*
X28566172Y-18429360D02*
X28597125Y-18429360D01*
X28597125Y-18429360D02*
X28615696Y-18435551D01*
X28615696Y-18435551D02*
X28628077Y-18447932D01*
X28628077Y-18447932D02*
X28634268Y-18460313D01*
X28634268Y-18460313D02*
X28640458Y-18485075D01*
X28640458Y-18485075D02*
X28640458Y-18503646D01*
X28640458Y-18503646D02*
X28634268Y-18528408D01*
X28634268Y-18528408D02*
X28628077Y-18540789D01*
X28628077Y-18540789D02*
X28615696Y-18553170D01*
X28615696Y-18553170D02*
X28597125Y-18559360D01*
X28597125Y-18559360D02*
X28566172Y-18559360D01*
D10*
D11*
X20045803Y-19379333D02*
X20045803Y-19229333D01*
X20045803Y-19229333D02*
X20081517Y-19229333D01*
X20081517Y-19229333D02*
X20102946Y-19236476D01*
X20102946Y-19236476D02*
X20117231Y-19250761D01*
X20117231Y-19250761D02*
X20124374Y-19265047D01*
X20124374Y-19265047D02*
X20131517Y-19293619D01*
X20131517Y-19293619D02*
X20131517Y-19315047D01*
X20131517Y-19315047D02*
X20124374Y-19343619D01*
X20124374Y-19343619D02*
X20117231Y-19357904D01*
X20117231Y-19357904D02*
X20102946Y-19372190D01*
X20102946Y-19372190D02*
X20081517Y-19379333D01*
X20081517Y-19379333D02*
X20045803Y-19379333D01*
X20260088Y-19379333D02*
X20260088Y-19300761D01*
X20260088Y-19300761D02*
X20252946Y-19286476D01*
X20252946Y-19286476D02*
X20238660Y-19279333D01*
X20238660Y-19279333D02*
X20210088Y-19279333D01*
X20210088Y-19279333D02*
X20195803Y-19286476D01*
X20260088Y-19372190D02*
X20245803Y-19379333D01*
X20245803Y-19379333D02*
X20210088Y-19379333D01*
X20210088Y-19379333D02*
X20195803Y-19372190D01*
X20195803Y-19372190D02*
X20188660Y-19357904D01*
X20188660Y-19357904D02*
X20188660Y-19343619D01*
X20188660Y-19343619D02*
X20195803Y-19329333D01*
X20195803Y-19329333D02*
X20210088Y-19322190D01*
X20210088Y-19322190D02*
X20245803Y-19322190D01*
X20245803Y-19322190D02*
X20260088Y-19315047D01*
X20310088Y-19279333D02*
X20367231Y-19279333D01*
X20331517Y-19229333D02*
X20331517Y-19357904D01*
X20331517Y-19357904D02*
X20338660Y-19372190D01*
X20338660Y-19372190D02*
X20352946Y-19379333D01*
X20352946Y-19379333D02*
X20367231Y-19379333D01*
X20474374Y-19372190D02*
X20460088Y-19379333D01*
X20460088Y-19379333D02*
X20431517Y-19379333D01*
X20431517Y-19379333D02*
X20417231Y-19372190D01*
X20417231Y-19372190D02*
X20410088Y-19357904D01*
X20410088Y-19357904D02*
X20410088Y-19300761D01*
X20410088Y-19300761D02*
X20417231Y-19286476D01*
X20417231Y-19286476D02*
X20431517Y-19279333D01*
X20431517Y-19279333D02*
X20460088Y-19279333D01*
X20460088Y-19279333D02*
X20474374Y-19286476D01*
X20474374Y-19286476D02*
X20481517Y-19300761D01*
X20481517Y-19300761D02*
X20481517Y-19315047D01*
X20481517Y-19315047D02*
X20410088Y-19329333D01*
X20545803Y-19365047D02*
X20552946Y-19372190D01*
X20552946Y-19372190D02*
X20545803Y-19379333D01*
X20545803Y-19379333D02*
X20538660Y-19372190D01*
X20538660Y-19372190D02*
X20545803Y-19365047D01*
X20545803Y-19365047D02*
X20545803Y-19379333D01*
X20545803Y-19286476D02*
X20552946Y-19293619D01*
X20552946Y-19293619D02*
X20545803Y-19300761D01*
X20545803Y-19300761D02*
X20538660Y-19293619D01*
X20538660Y-19293619D02*
X20545803Y-19286476D01*
X20545803Y-19286476D02*
X20545803Y-19300761D01*
D10*
D11*
X17700220Y-19450720D02*
X28500220Y-19450720D01*
D10*
D11*
X17845803Y-19659333D02*
X17845803Y-19509333D01*
X17931517Y-19659333D02*
X17867231Y-19573619D01*
X17931517Y-19509333D02*
X17845803Y-19595047D01*
X17995803Y-19659333D02*
X17995803Y-19559333D01*
X17995803Y-19509333D02*
X17988660Y-19516476D01*
X17988660Y-19516476D02*
X17995803Y-19523619D01*
X17995803Y-19523619D02*
X18002946Y-19516476D01*
X18002946Y-19516476D02*
X17995803Y-19509333D01*
X17995803Y-19509333D02*
X17995803Y-19523619D01*
X18152946Y-19645047D02*
X18145803Y-19652190D01*
X18145803Y-19652190D02*
X18124374Y-19659333D01*
X18124374Y-19659333D02*
X18110088Y-19659333D01*
X18110088Y-19659333D02*
X18088660Y-19652190D01*
X18088660Y-19652190D02*
X18074374Y-19637904D01*
X18074374Y-19637904D02*
X18067231Y-19623619D01*
X18067231Y-19623619D02*
X18060088Y-19595047D01*
X18060088Y-19595047D02*
X18060088Y-19573619D01*
X18060088Y-19573619D02*
X18067231Y-19545047D01*
X18067231Y-19545047D02*
X18074374Y-19530761D01*
X18074374Y-19530761D02*
X18088660Y-19516476D01*
X18088660Y-19516476D02*
X18110088Y-19509333D01*
X18110088Y-19509333D02*
X18124374Y-19509333D01*
X18124374Y-19509333D02*
X18145803Y-19516476D01*
X18145803Y-19516476D02*
X18152946Y-19523619D01*
X18281517Y-19659333D02*
X18281517Y-19580761D01*
X18281517Y-19580761D02*
X18274374Y-19566476D01*
X18274374Y-19566476D02*
X18260088Y-19559333D01*
X18260088Y-19559333D02*
X18231517Y-19559333D01*
X18231517Y-19559333D02*
X18217231Y-19566476D01*
X18281517Y-19652190D02*
X18267231Y-19659333D01*
X18267231Y-19659333D02*
X18231517Y-19659333D01*
X18231517Y-19659333D02*
X18217231Y-19652190D01*
X18217231Y-19652190D02*
X18210088Y-19637904D01*
X18210088Y-19637904D02*
X18210088Y-19623619D01*
X18210088Y-19623619D02*
X18217231Y-19609333D01*
X18217231Y-19609333D02*
X18231517Y-19602190D01*
X18231517Y-19602190D02*
X18267231Y-19602190D01*
X18267231Y-19602190D02*
X18281517Y-19595047D01*
X18417231Y-19659333D02*
X18417231Y-19509333D01*
X18417231Y-19652190D02*
X18402946Y-19659333D01*
X18402946Y-19659333D02*
X18374374Y-19659333D01*
X18374374Y-19659333D02*
X18360088Y-19652190D01*
X18360088Y-19652190D02*
X18352946Y-19645047D01*
X18352946Y-19645047D02*
X18345803Y-19630761D01*
X18345803Y-19630761D02*
X18345803Y-19587904D01*
X18345803Y-19587904D02*
X18352946Y-19573619D01*
X18352946Y-19573619D02*
X18360088Y-19566476D01*
X18360088Y-19566476D02*
X18374374Y-19559333D01*
X18374374Y-19559333D02*
X18402946Y-19559333D01*
X18402946Y-19559333D02*
X18417231Y-19566476D01*
X18602946Y-19580761D02*
X18652946Y-19580761D01*
X18674374Y-19659333D02*
X18602946Y-19659333D01*
X18602946Y-19659333D02*
X18602946Y-19509333D01*
X18602946Y-19509333D02*
X18674374Y-19509333D01*
X18738660Y-19645047D02*
X18745803Y-19652190D01*
X18745803Y-19652190D02*
X18738660Y-19659333D01*
X18738660Y-19659333D02*
X18731517Y-19652190D01*
X18731517Y-19652190D02*
X18738660Y-19645047D01*
X18738660Y-19645047D02*
X18738660Y-19659333D01*
X18810088Y-19659333D02*
X18810088Y-19509333D01*
X18810088Y-19509333D02*
X18845803Y-19509333D01*
X18845803Y-19509333D02*
X18867231Y-19516476D01*
X18867231Y-19516476D02*
X18881517Y-19530761D01*
X18881517Y-19530761D02*
X18888660Y-19545047D01*
X18888660Y-19545047D02*
X18895803Y-19573619D01*
X18895803Y-19573619D02*
X18895803Y-19595047D01*
X18895803Y-19595047D02*
X18888660Y-19623619D01*
X18888660Y-19623619D02*
X18881517Y-19637904D01*
X18881517Y-19637904D02*
X18867231Y-19652190D01*
X18867231Y-19652190D02*
X18845803Y-19659333D01*
X18845803Y-19659333D02*
X18810088Y-19659333D01*
X18960088Y-19645047D02*
X18967231Y-19652190D01*
X18967231Y-19652190D02*
X18960088Y-19659333D01*
X18960088Y-19659333D02*
X18952946Y-19652190D01*
X18952946Y-19652190D02*
X18960088Y-19645047D01*
X18960088Y-19645047D02*
X18960088Y-19659333D01*
X19024374Y-19616476D02*
X19095803Y-19616476D01*
X19010089Y-19659333D02*
X19060089Y-19509333D01*
X19060089Y-19509333D02*
X19110089Y-19659333D01*
X19160088Y-19645047D02*
X19167231Y-19652190D01*
X19167231Y-19652190D02*
X19160088Y-19659333D01*
X19160088Y-19659333D02*
X19152946Y-19652190D01*
X19152946Y-19652190D02*
X19160088Y-19645047D01*
X19160088Y-19645047D02*
X19160088Y-19659333D01*
X19367231Y-19573619D02*
X19352946Y-19566476D01*
X19352946Y-19566476D02*
X19345803Y-19559333D01*
X19345803Y-19559333D02*
X19338660Y-19545047D01*
X19338660Y-19545047D02*
X19338660Y-19537904D01*
X19338660Y-19537904D02*
X19345803Y-19523619D01*
X19345803Y-19523619D02*
X19352946Y-19516476D01*
X19352946Y-19516476D02*
X19367231Y-19509333D01*
X19367231Y-19509333D02*
X19395803Y-19509333D01*
X19395803Y-19509333D02*
X19410089Y-19516476D01*
X19410089Y-19516476D02*
X19417231Y-19523619D01*
X19417231Y-19523619D02*
X19424374Y-19537904D01*
X19424374Y-19537904D02*
X19424374Y-19545047D01*
X19424374Y-19545047D02*
X19417231Y-19559333D01*
X19417231Y-19559333D02*
X19410089Y-19566476D01*
X19410089Y-19566476D02*
X19395803Y-19573619D01*
X19395803Y-19573619D02*
X19367231Y-19573619D01*
X19367231Y-19573619D02*
X19352946Y-19580761D01*
X19352946Y-19580761D02*
X19345803Y-19587904D01*
X19345803Y-19587904D02*
X19338660Y-19602190D01*
X19338660Y-19602190D02*
X19338660Y-19630761D01*
X19338660Y-19630761D02*
X19345803Y-19645047D01*
X19345803Y-19645047D02*
X19352946Y-19652190D01*
X19352946Y-19652190D02*
X19367231Y-19659333D01*
X19367231Y-19659333D02*
X19395803Y-19659333D01*
X19395803Y-19659333D02*
X19410089Y-19652190D01*
X19410089Y-19652190D02*
X19417231Y-19645047D01*
X19417231Y-19645047D02*
X19424374Y-19630761D01*
X19424374Y-19630761D02*
X19424374Y-19602190D01*
X19424374Y-19602190D02*
X19417231Y-19587904D01*
X19417231Y-19587904D02*
X19410089Y-19580761D01*
X19410089Y-19580761D02*
X19395803Y-19573619D01*
X19488660Y-19645047D02*
X19495803Y-19652190D01*
X19495803Y-19652190D02*
X19488660Y-19659333D01*
X19488660Y-19659333D02*
X19481517Y-19652190D01*
X19481517Y-19652190D02*
X19488660Y-19645047D01*
X19488660Y-19645047D02*
X19488660Y-19659333D01*
X19588660Y-19509333D02*
X19602946Y-19509333D01*
X19602946Y-19509333D02*
X19617231Y-19516476D01*
X19617231Y-19516476D02*
X19624374Y-19523619D01*
X19624374Y-19523619D02*
X19631517Y-19537904D01*
X19631517Y-19537904D02*
X19638660Y-19566476D01*
X19638660Y-19566476D02*
X19638660Y-19602190D01*
X19638660Y-19602190D02*
X19631517Y-19630761D01*
X19631517Y-19630761D02*
X19624374Y-19645047D01*
X19624374Y-19645047D02*
X19617231Y-19652190D01*
X19617231Y-19652190D02*
X19602946Y-19659333D01*
X19602946Y-19659333D02*
X19588660Y-19659333D01*
X19588660Y-19659333D02*
X19574374Y-19652190D01*
X19574374Y-19652190D02*
X19567231Y-19645047D01*
X19567231Y-19645047D02*
X19560088Y-19630761D01*
X19560088Y-19630761D02*
X19552946Y-19602190D01*
X19552946Y-19602190D02*
X19552946Y-19566476D01*
X19552946Y-19566476D02*
X19560088Y-19537904D01*
X19560088Y-19537904D02*
X19567231Y-19523619D01*
X19567231Y-19523619D02*
X19574374Y-19516476D01*
X19574374Y-19516476D02*
X19588660Y-19509333D01*
X19702946Y-19645047D02*
X19710088Y-19652190D01*
X19710088Y-19652190D02*
X19702946Y-19659333D01*
X19702946Y-19659333D02*
X19695803Y-19652190D01*
X19695803Y-19652190D02*
X19702946Y-19645047D01*
X19702946Y-19645047D02*
X19702946Y-19659333D01*
X19845803Y-19509333D02*
X19774374Y-19509333D01*
X19774374Y-19509333D02*
X19767231Y-19580761D01*
X19767231Y-19580761D02*
X19774374Y-19573619D01*
X19774374Y-19573619D02*
X19788660Y-19566476D01*
X19788660Y-19566476D02*
X19824374Y-19566476D01*
X19824374Y-19566476D02*
X19838660Y-19573619D01*
X19838660Y-19573619D02*
X19845803Y-19580761D01*
X19845803Y-19580761D02*
X19852946Y-19595047D01*
X19852946Y-19595047D02*
X19852946Y-19630761D01*
X19852946Y-19630761D02*
X19845803Y-19645047D01*
X19845803Y-19645047D02*
X19838660Y-19652190D01*
X19838660Y-19652190D02*
X19824374Y-19659333D01*
X19824374Y-19659333D02*
X19788660Y-19659333D01*
X19788660Y-19659333D02*
X19774374Y-19652190D01*
X19774374Y-19652190D02*
X19767231Y-19645047D01*
D10*
D11*
X17700220Y-19150720D02*
X28500220Y-19150720D01*
D10*
D12*
X26441385Y-19378553D02*
X26391385Y-19307124D01*
X26355671Y-19378553D02*
X26355671Y-19228553D01*
X26355671Y-19228553D02*
X26412814Y-19228553D01*
X26412814Y-19228553D02*
X26427100Y-19235696D01*
X26427100Y-19235696D02*
X26434242Y-19242839D01*
X26434242Y-19242839D02*
X26441385Y-19257124D01*
X26441385Y-19257124D02*
X26441385Y-19278553D01*
X26441385Y-19278553D02*
X26434242Y-19292839D01*
X26434242Y-19292839D02*
X26427100Y-19299981D01*
X26427100Y-19299981D02*
X26412814Y-19307124D01*
X26412814Y-19307124D02*
X26355671Y-19307124D01*
X26562814Y-19371410D02*
X26548528Y-19378553D01*
X26548528Y-19378553D02*
X26519957Y-19378553D01*
X26519957Y-19378553D02*
X26505671Y-19371410D01*
X26505671Y-19371410D02*
X26498528Y-19357124D01*
X26498528Y-19357124D02*
X26498528Y-19299981D01*
X26498528Y-19299981D02*
X26505671Y-19285696D01*
X26505671Y-19285696D02*
X26519957Y-19278553D01*
X26519957Y-19278553D02*
X26548528Y-19278553D01*
X26548528Y-19278553D02*
X26562814Y-19285696D01*
X26562814Y-19285696D02*
X26569957Y-19299981D01*
X26569957Y-19299981D02*
X26569957Y-19314267D01*
X26569957Y-19314267D02*
X26498528Y-19328553D01*
X26619957Y-19278553D02*
X26655671Y-19378553D01*
X26655671Y-19378553D02*
X26691385Y-19278553D01*
X26748528Y-19364267D02*
X26755671Y-19371410D01*
X26755671Y-19371410D02*
X26748528Y-19378553D01*
X26748528Y-19378553D02*
X26741385Y-19371410D01*
X26741385Y-19371410D02*
X26748528Y-19364267D01*
X26748528Y-19364267D02*
X26748528Y-19378553D01*
X26748528Y-19285696D02*
X26755671Y-19292839D01*
X26755671Y-19292839D02*
X26748528Y-19299981D01*
X26748528Y-19299981D02*
X26741385Y-19292839D01*
X26741385Y-19292839D02*
X26748528Y-19285696D01*
X26748528Y-19285696D02*
X26748528Y-19299981D01*
D10*
D11*
X17838660Y-19372190D02*
X17860088Y-19379333D01*
X17860088Y-19379333D02*
X17895803Y-19379333D01*
X17895803Y-19379333D02*
X17910088Y-19372190D01*
X17910088Y-19372190D02*
X17917231Y-19365047D01*
X17917231Y-19365047D02*
X17924374Y-19350761D01*
X17924374Y-19350761D02*
X17924374Y-19336476D01*
X17924374Y-19336476D02*
X17917231Y-19322190D01*
X17917231Y-19322190D02*
X17910088Y-19315047D01*
X17910088Y-19315047D02*
X17895803Y-19307904D01*
X17895803Y-19307904D02*
X17867231Y-19300761D01*
X17867231Y-19300761D02*
X17852946Y-19293619D01*
X17852946Y-19293619D02*
X17845803Y-19286476D01*
X17845803Y-19286476D02*
X17838660Y-19272190D01*
X17838660Y-19272190D02*
X17838660Y-19257904D01*
X17838660Y-19257904D02*
X17845803Y-19243619D01*
X17845803Y-19243619D02*
X17852946Y-19236476D01*
X17852946Y-19236476D02*
X17867231Y-19229333D01*
X17867231Y-19229333D02*
X17902946Y-19229333D01*
X17902946Y-19229333D02*
X17924374Y-19236476D01*
X17988660Y-19379333D02*
X17988660Y-19279333D01*
X17988660Y-19229333D02*
X17981517Y-19236476D01*
X17981517Y-19236476D02*
X17988660Y-19243619D01*
X17988660Y-19243619D02*
X17995803Y-19236476D01*
X17995803Y-19236476D02*
X17988660Y-19229333D01*
X17988660Y-19229333D02*
X17988660Y-19243619D01*
X18045803Y-19279333D02*
X18124374Y-19279333D01*
X18124374Y-19279333D02*
X18045803Y-19379333D01*
X18045803Y-19379333D02*
X18124374Y-19379333D01*
X18238660Y-19372190D02*
X18224374Y-19379333D01*
X18224374Y-19379333D02*
X18195803Y-19379333D01*
X18195803Y-19379333D02*
X18181517Y-19372190D01*
X18181517Y-19372190D02*
X18174374Y-19357904D01*
X18174374Y-19357904D02*
X18174374Y-19300761D01*
X18174374Y-19300761D02*
X18181517Y-19286476D01*
X18181517Y-19286476D02*
X18195803Y-19279333D01*
X18195803Y-19279333D02*
X18224374Y-19279333D01*
X18224374Y-19279333D02*
X18238660Y-19286476D01*
X18238660Y-19286476D02*
X18245803Y-19300761D01*
X18245803Y-19300761D02*
X18245803Y-19315047D01*
X18245803Y-19315047D02*
X18174374Y-19329333D01*
X18310088Y-19365047D02*
X18317231Y-19372190D01*
X18317231Y-19372190D02*
X18310088Y-19379333D01*
X18310088Y-19379333D02*
X18302946Y-19372190D01*
X18302946Y-19372190D02*
X18310088Y-19365047D01*
X18310088Y-19365047D02*
X18310088Y-19379333D01*
X18310088Y-19286476D02*
X18317231Y-19293619D01*
X18317231Y-19293619D02*
X18310088Y-19300761D01*
X18310088Y-19300761D02*
X18302946Y-19293619D01*
X18302946Y-19293619D02*
X18310088Y-19286476D01*
X18310088Y-19286476D02*
X18310088Y-19300761D01*
X18488660Y-19336476D02*
X18560088Y-19336476D01*
X18474374Y-19379333D02*
X18524374Y-19229333D01*
X18524374Y-19229333D02*
X18574374Y-19379333D01*
X18688660Y-19279333D02*
X18688660Y-19379333D01*
X18652946Y-19222190D02*
X18617231Y-19329333D01*
X18617231Y-19329333D02*
X18710088Y-19329333D01*
D10*
D11*
X26345803Y-19659333D02*
X26345803Y-19509333D01*
X26481517Y-19659333D02*
X26481517Y-19509333D01*
X26481517Y-19652190D02*
X26467231Y-19659333D01*
X26467231Y-19659333D02*
X26438660Y-19659333D01*
X26438660Y-19659333D02*
X26424374Y-19652190D01*
X26424374Y-19652190D02*
X26417231Y-19645047D01*
X26417231Y-19645047D02*
X26410088Y-19630761D01*
X26410088Y-19630761D02*
X26410088Y-19587904D01*
X26410088Y-19587904D02*
X26417231Y-19573619D01*
X26417231Y-19573619D02*
X26424374Y-19566476D01*
X26424374Y-19566476D02*
X26438660Y-19559333D01*
X26438660Y-19559333D02*
X26467231Y-19559333D01*
X26467231Y-19559333D02*
X26481517Y-19566476D01*
X26552945Y-19645047D02*
X26560088Y-19652190D01*
X26560088Y-19652190D02*
X26552945Y-19659333D01*
X26552945Y-19659333D02*
X26545803Y-19652190D01*
X26545803Y-19652190D02*
X26552945Y-19645047D01*
X26552945Y-19645047D02*
X26552945Y-19659333D01*
X26552945Y-19566476D02*
X26560088Y-19573619D01*
X26560088Y-19573619D02*
X26552945Y-19580761D01*
X26552945Y-19580761D02*
X26545803Y-19573619D01*
X26545803Y-19573619D02*
X26552945Y-19566476D01*
X26552945Y-19566476D02*
X26552945Y-19580761D01*
X26817231Y-19659333D02*
X26731517Y-19659333D01*
X26774374Y-19659333D02*
X26774374Y-19509333D01*
X26774374Y-19509333D02*
X26760088Y-19530761D01*
X26760088Y-19530761D02*
X26745803Y-19545047D01*
X26745803Y-19545047D02*
X26731517Y-19552190D01*
X26988660Y-19502190D02*
X26860088Y-19695047D01*
X27117231Y-19659333D02*
X27031517Y-19659333D01*
X27074374Y-19659333D02*
X27074374Y-19509333D01*
X27074374Y-19509333D02*
X27060088Y-19530761D01*
X27060088Y-19530761D02*
X27045803Y-19545047D01*
X27045803Y-19545047D02*
X27031517Y-19552190D01*
D10*
D11*
X17700220Y-18750720D02*
X28500220Y-18750720D01*
D10*
D13*
X17869393Y-18821164D02*
X17983679Y-18821164D01*
X17901536Y-19021164D02*
X17926536Y-18821164D01*
X18025345Y-19021164D02*
X18042012Y-18887830D01*
X18050345Y-18821164D02*
X18039631Y-18830688D01*
X18039631Y-18830688D02*
X18047964Y-18840211D01*
X18047964Y-18840211D02*
X18058679Y-18830688D01*
X18058679Y-18830688D02*
X18050345Y-18821164D01*
X18050345Y-18821164D02*
X18047964Y-18840211D01*
X18108679Y-18887830D02*
X18184869Y-18887830D01*
X18145583Y-18821164D02*
X18124155Y-18992592D01*
X18124155Y-18992592D02*
X18131298Y-19011640D01*
X18131298Y-19011640D02*
X18149155Y-19021164D01*
X18149155Y-19021164D02*
X18168202Y-19021164D01*
X18263441Y-19021164D02*
X18245583Y-19011640D01*
X18245583Y-19011640D02*
X18238441Y-18992592D01*
X18238441Y-18992592D02*
X18259869Y-18821164D01*
X18417012Y-19011640D02*
X18396774Y-19021164D01*
X18396774Y-19021164D02*
X18358679Y-19021164D01*
X18358679Y-19021164D02*
X18340821Y-19011640D01*
X18340821Y-19011640D02*
X18333679Y-18992592D01*
X18333679Y-18992592D02*
X18343202Y-18916402D01*
X18343202Y-18916402D02*
X18355107Y-18897354D01*
X18355107Y-18897354D02*
X18375345Y-18887830D01*
X18375345Y-18887830D02*
X18413440Y-18887830D01*
X18413440Y-18887830D02*
X18431298Y-18897354D01*
X18431298Y-18897354D02*
X18438440Y-18916402D01*
X18438440Y-18916402D02*
X18436060Y-18935450D01*
X18436060Y-18935450D02*
X18338440Y-18954497D01*
X18513441Y-19002116D02*
X18521774Y-19011640D01*
X18521774Y-19011640D02*
X18511060Y-19021164D01*
X18511060Y-19021164D02*
X18502726Y-19011640D01*
X18502726Y-19011640D02*
X18513441Y-19002116D01*
X18513441Y-19002116D02*
X18511060Y-19021164D01*
X18526536Y-18897354D02*
X18534869Y-18906878D01*
X18534869Y-18906878D02*
X18524155Y-18916402D01*
X18524155Y-18916402D02*
X18515821Y-18906878D01*
X18515821Y-18906878D02*
X18526536Y-18897354D01*
X18526536Y-18897354D02*
X18524155Y-18916402D01*
D10*
D11*
X17895803Y-18560761D02*
X17845803Y-18560761D01*
X17845803Y-18639333D02*
X17845803Y-18489333D01*
X17845803Y-18489333D02*
X17917231Y-18489333D01*
X17974374Y-18639333D02*
X17974374Y-18539333D01*
X17974374Y-18489333D02*
X17967231Y-18496476D01*
X17967231Y-18496476D02*
X17974374Y-18503619D01*
X17974374Y-18503619D02*
X17981517Y-18496476D01*
X17981517Y-18496476D02*
X17974374Y-18489333D01*
X17974374Y-18489333D02*
X17974374Y-18503619D01*
X18067231Y-18639333D02*
X18052946Y-18632190D01*
X18052946Y-18632190D02*
X18045803Y-18617904D01*
X18045803Y-18617904D02*
X18045803Y-18489333D01*
X18181517Y-18632190D02*
X18167231Y-18639333D01*
X18167231Y-18639333D02*
X18138660Y-18639333D01*
X18138660Y-18639333D02*
X18124374Y-18632190D01*
X18124374Y-18632190D02*
X18117231Y-18617904D01*
X18117231Y-18617904D02*
X18117231Y-18560761D01*
X18117231Y-18560761D02*
X18124374Y-18546476D01*
X18124374Y-18546476D02*
X18138660Y-18539333D01*
X18138660Y-18539333D02*
X18167231Y-18539333D01*
X18167231Y-18539333D02*
X18181517Y-18546476D01*
X18181517Y-18546476D02*
X18188660Y-18560761D01*
X18188660Y-18560761D02*
X18188660Y-18575047D01*
X18188660Y-18575047D02*
X18117231Y-18589333D01*
X18252945Y-18625047D02*
X18260088Y-18632190D01*
X18260088Y-18632190D02*
X18252945Y-18639333D01*
X18252945Y-18639333D02*
X18245803Y-18632190D01*
X18245803Y-18632190D02*
X18252945Y-18625047D01*
X18252945Y-18625047D02*
X18252945Y-18639333D01*
X18252945Y-18546476D02*
X18260088Y-18553619D01*
X18260088Y-18553619D02*
X18252945Y-18560761D01*
X18252945Y-18560761D02*
X18245803Y-18553619D01*
X18245803Y-18553619D02*
X18252945Y-18546476D01*
X18252945Y-18546476D02*
X18252945Y-18560761D01*
X18424374Y-18539333D02*
X18452946Y-18639333D01*
X18452946Y-18639333D02*
X18481517Y-18567904D01*
X18481517Y-18567904D02*
X18510088Y-18639333D01*
X18510088Y-18639333D02*
X18538660Y-18539333D01*
X18660088Y-18639333D02*
X18660088Y-18560761D01*
X18660088Y-18560761D02*
X18652946Y-18546476D01*
X18652946Y-18546476D02*
X18638660Y-18539333D01*
X18638660Y-18539333D02*
X18610088Y-18539333D01*
X18610088Y-18539333D02*
X18595803Y-18546476D01*
X18660088Y-18632190D02*
X18645803Y-18639333D01*
X18645803Y-18639333D02*
X18610088Y-18639333D01*
X18610088Y-18639333D02*
X18595803Y-18632190D01*
X18595803Y-18632190D02*
X18588660Y-18617904D01*
X18588660Y-18617904D02*
X18588660Y-18603619D01*
X18588660Y-18603619D02*
X18595803Y-18589333D01*
X18595803Y-18589333D02*
X18610088Y-18582190D01*
X18610088Y-18582190D02*
X18645803Y-18582190D01*
X18645803Y-18582190D02*
X18660088Y-18575047D01*
X18752946Y-18639333D02*
X18738660Y-18632190D01*
X18738660Y-18632190D02*
X18731517Y-18617904D01*
X18731517Y-18617904D02*
X18731517Y-18489333D01*
X18788660Y-18539333D02*
X18845803Y-18539333D01*
X18810088Y-18489333D02*
X18810088Y-18617904D01*
X18810088Y-18617904D02*
X18817231Y-18632190D01*
X18817231Y-18632190D02*
X18831517Y-18639333D01*
X18831517Y-18639333D02*
X18845803Y-18639333D01*
X18952946Y-18632190D02*
X18938660Y-18639333D01*
X18938660Y-18639333D02*
X18910088Y-18639333D01*
X18910088Y-18639333D02*
X18895803Y-18632190D01*
X18895803Y-18632190D02*
X18888660Y-18617904D01*
X18888660Y-18617904D02*
X18888660Y-18560761D01*
X18888660Y-18560761D02*
X18895803Y-18546476D01*
X18895803Y-18546476D02*
X18910088Y-18539333D01*
X18910088Y-18539333D02*
X18938660Y-18539333D01*
X18938660Y-18539333D02*
X18952946Y-18546476D01*
X18952946Y-18546476D02*
X18960088Y-18560761D01*
X18960088Y-18560761D02*
X18960088Y-18575047D01*
X18960088Y-18575047D02*
X18888660Y-18589333D01*
X19024374Y-18639333D02*
X19024374Y-18539333D01*
X19024374Y-18567904D02*
X19031517Y-18553619D01*
X19031517Y-18553619D02*
X19038660Y-18546476D01*
X19038660Y-18546476D02*
X19052946Y-18539333D01*
X19052946Y-18539333D02*
X19067231Y-18539333D01*
X19081517Y-18653619D02*
X19195803Y-18653619D01*
X19231517Y-18639333D02*
X19231517Y-18539333D01*
X19231517Y-18567904D02*
X19238660Y-18553619D01*
X19238660Y-18553619D02*
X19245803Y-18546476D01*
X19245803Y-18546476D02*
X19260088Y-18539333D01*
X19260088Y-18539333D02*
X19274374Y-18539333D01*
X19381517Y-18632190D02*
X19367231Y-18639333D01*
X19367231Y-18639333D02*
X19338660Y-18639333D01*
X19338660Y-18639333D02*
X19324374Y-18632190D01*
X19324374Y-18632190D02*
X19317231Y-18617904D01*
X19317231Y-18617904D02*
X19317231Y-18560761D01*
X19317231Y-18560761D02*
X19324374Y-18546476D01*
X19324374Y-18546476D02*
X19338660Y-18539333D01*
X19338660Y-18539333D02*
X19367231Y-18539333D01*
X19367231Y-18539333D02*
X19381517Y-18546476D01*
X19381517Y-18546476D02*
X19388660Y-18560761D01*
X19388660Y-18560761D02*
X19388660Y-18575047D01*
X19388660Y-18575047D02*
X19317231Y-18589333D01*
X19452945Y-18639333D02*
X19452945Y-18539333D01*
X19452945Y-18553619D02*
X19460088Y-18546476D01*
X19460088Y-18546476D02*
X19474374Y-18539333D01*
X19474374Y-18539333D02*
X19495803Y-18539333D01*
X19495803Y-18539333D02*
X19510088Y-18546476D01*
X19510088Y-18546476D02*
X19517231Y-18560761D01*
X19517231Y-18560761D02*
X19517231Y-18639333D01*
X19517231Y-18560761D02*
X19524374Y-18546476D01*
X19524374Y-18546476D02*
X19538660Y-18539333D01*
X19538660Y-18539333D02*
X19560088Y-18539333D01*
X19560088Y-18539333D02*
X19574374Y-18546476D01*
X19574374Y-18546476D02*
X19581517Y-18560761D01*
X19581517Y-18560761D02*
X19581517Y-18639333D01*
X19652945Y-18639333D02*
X19652945Y-18539333D01*
X19652945Y-18489333D02*
X19645803Y-18496476D01*
X19645803Y-18496476D02*
X19652945Y-18503619D01*
X19652945Y-18503619D02*
X19660088Y-18496476D01*
X19660088Y-18496476D02*
X19652945Y-18489333D01*
X19652945Y-18489333D02*
X19652945Y-18503619D01*
X19710088Y-18639333D02*
X19788660Y-18539333D01*
X19710088Y-18539333D02*
X19788660Y-18639333D01*
X19960088Y-18582190D02*
X20074374Y-18582190D01*
X20345803Y-18625047D02*
X20338660Y-18632190D01*
X20338660Y-18632190D02*
X20317231Y-18639333D01*
X20317231Y-18639333D02*
X20302945Y-18639333D01*
X20302945Y-18639333D02*
X20281517Y-18632190D01*
X20281517Y-18632190D02*
X20267231Y-18617904D01*
X20267231Y-18617904D02*
X20260088Y-18603619D01*
X20260088Y-18603619D02*
X20252945Y-18575047D01*
X20252945Y-18575047D02*
X20252945Y-18553619D01*
X20252945Y-18553619D02*
X20260088Y-18525047D01*
X20260088Y-18525047D02*
X20267231Y-18510761D01*
X20267231Y-18510761D02*
X20281517Y-18496476D01*
X20281517Y-18496476D02*
X20302945Y-18489333D01*
X20302945Y-18489333D02*
X20317231Y-18489333D01*
X20317231Y-18489333D02*
X20338660Y-18496476D01*
X20338660Y-18496476D02*
X20345803Y-18503619D01*
X20395803Y-18489333D02*
X20488660Y-18489333D01*
X20488660Y-18489333D02*
X20438660Y-18546476D01*
X20438660Y-18546476D02*
X20460088Y-18546476D01*
X20460088Y-18546476D02*
X20474374Y-18553619D01*
X20474374Y-18553619D02*
X20481517Y-18560761D01*
X20481517Y-18560761D02*
X20488660Y-18575047D01*
X20488660Y-18575047D02*
X20488660Y-18610761D01*
X20488660Y-18610761D02*
X20481517Y-18625047D01*
X20481517Y-18625047D02*
X20474374Y-18632190D01*
X20474374Y-18632190D02*
X20460088Y-18639333D01*
X20460088Y-18639333D02*
X20417231Y-18639333D01*
X20417231Y-18639333D02*
X20402945Y-18632190D01*
X20402945Y-18632190D02*
X20395803Y-18625047D01*
X20538660Y-18539333D02*
X20574374Y-18639333D01*
X20574374Y-18639333D02*
X20610088Y-18539333D01*
X20660088Y-18503619D02*
X20667231Y-18496476D01*
X20667231Y-18496476D02*
X20681517Y-18489333D01*
X20681517Y-18489333D02*
X20717231Y-18489333D01*
X20717231Y-18489333D02*
X20731517Y-18496476D01*
X20731517Y-18496476D02*
X20738660Y-18503619D01*
X20738660Y-18503619D02*
X20745803Y-18517904D01*
X20745803Y-18517904D02*
X20745803Y-18532190D01*
X20745803Y-18532190D02*
X20738660Y-18553619D01*
X20738660Y-18553619D02*
X20652945Y-18639333D01*
X20652945Y-18639333D02*
X20745803Y-18639333D01*
X20810088Y-18625047D02*
X20817231Y-18632190D01*
X20817231Y-18632190D02*
X20810088Y-18639333D01*
X20810088Y-18639333D02*
X20802945Y-18632190D01*
X20802945Y-18632190D02*
X20810088Y-18625047D01*
X20810088Y-18625047D02*
X20810088Y-18639333D01*
X20881517Y-18639333D02*
X20881517Y-18489333D01*
X20895803Y-18582190D02*
X20938660Y-18639333D01*
X20938660Y-18539333D02*
X20881517Y-18596476D01*
X21002945Y-18639333D02*
X21002945Y-18539333D01*
X21002945Y-18489333D02*
X20995803Y-18496476D01*
X20995803Y-18496476D02*
X21002945Y-18503619D01*
X21002945Y-18503619D02*
X21010088Y-18496476D01*
X21010088Y-18496476D02*
X21002945Y-18489333D01*
X21002945Y-18489333D02*
X21002945Y-18503619D01*
X21138660Y-18632190D02*
X21124374Y-18639333D01*
X21124374Y-18639333D02*
X21095803Y-18639333D01*
X21095803Y-18639333D02*
X21081517Y-18632190D01*
X21081517Y-18632190D02*
X21074374Y-18625047D01*
X21074374Y-18625047D02*
X21067231Y-18610761D01*
X21067231Y-18610761D02*
X21067231Y-18567904D01*
X21067231Y-18567904D02*
X21074374Y-18553619D01*
X21074374Y-18553619D02*
X21081517Y-18546476D01*
X21081517Y-18546476D02*
X21095803Y-18539333D01*
X21095803Y-18539333D02*
X21124374Y-18539333D01*
X21124374Y-18539333D02*
X21138660Y-18546476D01*
X21267231Y-18639333D02*
X21267231Y-18560761D01*
X21267231Y-18560761D02*
X21260088Y-18546476D01*
X21260088Y-18546476D02*
X21245803Y-18539333D01*
X21245803Y-18539333D02*
X21217231Y-18539333D01*
X21217231Y-18539333D02*
X21202945Y-18546476D01*
X21267231Y-18632190D02*
X21252945Y-18639333D01*
X21252945Y-18639333D02*
X21217231Y-18639333D01*
X21217231Y-18639333D02*
X21202945Y-18632190D01*
X21202945Y-18632190D02*
X21195803Y-18617904D01*
X21195803Y-18617904D02*
X21195803Y-18603619D01*
X21195803Y-18603619D02*
X21202945Y-18589333D01*
X21202945Y-18589333D02*
X21217231Y-18582190D01*
X21217231Y-18582190D02*
X21252945Y-18582190D01*
X21252945Y-18582190D02*
X21267231Y-18575047D01*
X21402945Y-18639333D02*
X21402945Y-18489333D01*
X21402945Y-18632190D02*
X21388660Y-18639333D01*
X21388660Y-18639333D02*
X21360088Y-18639333D01*
X21360088Y-18639333D02*
X21345803Y-18632190D01*
X21345803Y-18632190D02*
X21338660Y-18625047D01*
X21338660Y-18625047D02*
X21331517Y-18610761D01*
X21331517Y-18610761D02*
X21331517Y-18567904D01*
X21331517Y-18567904D02*
X21338660Y-18553619D01*
X21338660Y-18553619D02*
X21345803Y-18546476D01*
X21345803Y-18546476D02*
X21360088Y-18539333D01*
X21360088Y-18539333D02*
X21388660Y-18539333D01*
X21388660Y-18539333D02*
X21402945Y-18546476D01*
X21438660Y-18653619D02*
X21552945Y-18653619D01*
X21588660Y-18539333D02*
X21588660Y-18689333D01*
X21588660Y-18546476D02*
X21602945Y-18539333D01*
X21602945Y-18539333D02*
X21631517Y-18539333D01*
X21631517Y-18539333D02*
X21645803Y-18546476D01*
X21645803Y-18546476D02*
X21652945Y-18553619D01*
X21652945Y-18553619D02*
X21660088Y-18567904D01*
X21660088Y-18567904D02*
X21660088Y-18610761D01*
X21660088Y-18610761D02*
X21652945Y-18625047D01*
X21652945Y-18625047D02*
X21645803Y-18632190D01*
X21645803Y-18632190D02*
X21631517Y-18639333D01*
X21631517Y-18639333D02*
X21602945Y-18639333D01*
X21602945Y-18639333D02*
X21588660Y-18632190D01*
X21788660Y-18632190D02*
X21774374Y-18639333D01*
X21774374Y-18639333D02*
X21745803Y-18639333D01*
X21745803Y-18639333D02*
X21731517Y-18632190D01*
X21731517Y-18632190D02*
X21724374Y-18625047D01*
X21724374Y-18625047D02*
X21717231Y-18610761D01*
X21717231Y-18610761D02*
X21717231Y-18567904D01*
X21717231Y-18567904D02*
X21724374Y-18553619D01*
X21724374Y-18553619D02*
X21731517Y-18546476D01*
X21731517Y-18546476D02*
X21745803Y-18539333D01*
X21745803Y-18539333D02*
X21774374Y-18539333D01*
X21774374Y-18539333D02*
X21788660Y-18546476D01*
X21852945Y-18639333D02*
X21852945Y-18489333D01*
X21852945Y-18546476D02*
X21867231Y-18539333D01*
X21867231Y-18539333D02*
X21895803Y-18539333D01*
X21895803Y-18539333D02*
X21910088Y-18546476D01*
X21910088Y-18546476D02*
X21917231Y-18553619D01*
X21917231Y-18553619D02*
X21924374Y-18567904D01*
X21924374Y-18567904D02*
X21924374Y-18610761D01*
X21924374Y-18610761D02*
X21917231Y-18625047D01*
X21917231Y-18625047D02*
X21910088Y-18632190D01*
X21910088Y-18632190D02*
X21895803Y-18639333D01*
X21895803Y-18639333D02*
X21867231Y-18639333D01*
X21867231Y-18639333D02*
X21852945Y-18632190D01*
D10*
D11*
X17700220Y-18150720D02*
X28500220Y-18150720D01*
D10*
D11*
X17838660Y-18362190D02*
X17860088Y-18369333D01*
X17860088Y-18369333D02*
X17895803Y-18369333D01*
X17895803Y-18369333D02*
X17910088Y-18362190D01*
X17910088Y-18362190D02*
X17917231Y-18355047D01*
X17917231Y-18355047D02*
X17924374Y-18340761D01*
X17924374Y-18340761D02*
X17924374Y-18326476D01*
X17924374Y-18326476D02*
X17917231Y-18312190D01*
X17917231Y-18312190D02*
X17910088Y-18305047D01*
X17910088Y-18305047D02*
X17895803Y-18297904D01*
X17895803Y-18297904D02*
X17867231Y-18290761D01*
X17867231Y-18290761D02*
X17852946Y-18283619D01*
X17852946Y-18283619D02*
X17845803Y-18276476D01*
X17845803Y-18276476D02*
X17838660Y-18262190D01*
X17838660Y-18262190D02*
X17838660Y-18247904D01*
X17838660Y-18247904D02*
X17845803Y-18233619D01*
X17845803Y-18233619D02*
X17852946Y-18226476D01*
X17852946Y-18226476D02*
X17867231Y-18219333D01*
X17867231Y-18219333D02*
X17902946Y-18219333D01*
X17902946Y-18219333D02*
X17924374Y-18226476D01*
X17988660Y-18369333D02*
X17988660Y-18219333D01*
X18052946Y-18369333D02*
X18052946Y-18290761D01*
X18052946Y-18290761D02*
X18045803Y-18276476D01*
X18045803Y-18276476D02*
X18031517Y-18269333D01*
X18031517Y-18269333D02*
X18010088Y-18269333D01*
X18010088Y-18269333D02*
X17995803Y-18276476D01*
X17995803Y-18276476D02*
X17988660Y-18283619D01*
X18181517Y-18362190D02*
X18167231Y-18369333D01*
X18167231Y-18369333D02*
X18138660Y-18369333D01*
X18138660Y-18369333D02*
X18124374Y-18362190D01*
X18124374Y-18362190D02*
X18117231Y-18347904D01*
X18117231Y-18347904D02*
X18117231Y-18290761D01*
X18117231Y-18290761D02*
X18124374Y-18276476D01*
X18124374Y-18276476D02*
X18138660Y-18269333D01*
X18138660Y-18269333D02*
X18167231Y-18269333D01*
X18167231Y-18269333D02*
X18181517Y-18276476D01*
X18181517Y-18276476D02*
X18188660Y-18290761D01*
X18188660Y-18290761D02*
X18188660Y-18305047D01*
X18188660Y-18305047D02*
X18117231Y-18319333D01*
X18310088Y-18362190D02*
X18295803Y-18369333D01*
X18295803Y-18369333D02*
X18267231Y-18369333D01*
X18267231Y-18369333D02*
X18252945Y-18362190D01*
X18252945Y-18362190D02*
X18245803Y-18347904D01*
X18245803Y-18347904D02*
X18245803Y-18290761D01*
X18245803Y-18290761D02*
X18252945Y-18276476D01*
X18252945Y-18276476D02*
X18267231Y-18269333D01*
X18267231Y-18269333D02*
X18295803Y-18269333D01*
X18295803Y-18269333D02*
X18310088Y-18276476D01*
X18310088Y-18276476D02*
X18317231Y-18290761D01*
X18317231Y-18290761D02*
X18317231Y-18305047D01*
X18317231Y-18305047D02*
X18245803Y-18319333D01*
X18360088Y-18269333D02*
X18417231Y-18269333D01*
X18381517Y-18219333D02*
X18381517Y-18347904D01*
X18381517Y-18347904D02*
X18388660Y-18362190D01*
X18388660Y-18362190D02*
X18402945Y-18369333D01*
X18402945Y-18369333D02*
X18417231Y-18369333D01*
X18467231Y-18355047D02*
X18474374Y-18362190D01*
X18474374Y-18362190D02*
X18467231Y-18369333D01*
X18467231Y-18369333D02*
X18460088Y-18362190D01*
X18460088Y-18362190D02*
X18467231Y-18355047D01*
X18467231Y-18355047D02*
X18467231Y-18369333D01*
X18467231Y-18276476D02*
X18474374Y-18283619D01*
X18474374Y-18283619D02*
X18467231Y-18290761D01*
X18467231Y-18290761D02*
X18460088Y-18283619D01*
X18460088Y-18283619D02*
X18467231Y-18276476D01*
X18467231Y-18276476D02*
X18467231Y-18290761D01*
D10*
D11*
X19700220Y-19150720D02*
X19700220Y-19450720D01*
D10*
D11*
X26100220Y-19150720D02*
X26100220Y-19800720D01*
D14*
%TO.N,GND*%
%TO.C,U1*%
X14863500Y-8072500D03*
X14863500Y-7962500D03*
X14808500Y-8127500D03*
X14808500Y-8017500D03*
X14808500Y-7907500D03*
X14753500Y-8072500D03*
X14753500Y-7962500D03*
X14698500Y-8127500D03*
X14698500Y-8017500D03*
X14698500Y-7907500D03*
X14643500Y-8072500D03*
X14643500Y-7962500D03*
%TD*%
D15*
%TO.N,GND*%
%TO.C,J6*%
X13250000Y-9690000D03*
D16*
%TO.N,Net-(U4-VIN)*%
X13250000Y-9182000D03*
%TD*%
D17*
%TO.N,GND*%
%TO.C,J1*%
X14532000Y-11307500D03*
D18*
X14532000Y-10889500D03*
D17*
X13668000Y-11307500D03*
D18*
X13668000Y-10889500D03*
%TD*%
D19*
%TO.N,SW_OUT*%
X13650000Y-8300000D03*
%TO.N,+1V8*%
X14987691Y-8647500D03*
%TO.N,Net-(FL1-Pad4)*%
X14594099Y-10585000D03*
X15502500Y-10169500D03*
X14163996Y-10416024D03*
%TO.N,VSIM*%
X14093331Y-9791718D03*
X14560000Y-9197303D03*
%TO.N,GND*%
X14497500Y-8142500D03*
X15240000Y-10320000D03*
X14467500Y-8680000D03*
%TO.N,+1V8*%
X15560000Y-10720000D03*
%TO.N,LTE_RTS0*%
X14115806Y-8405000D03*
%TO.N,+3V3*%
X15000000Y-10600000D03*
X14696834Y-10103166D03*
X15460000Y-10740000D03*
%TO.N,GND*%
X15020000Y-9880000D03*
%TO.N,RES{slash}FFF_FFH*%
X15701891Y-7909310D03*
X15291882Y-8297159D03*
%TO.N,PS_STATUS*%
X15626070Y-8688924D03*
X15126211Y-8595939D03*
%TO.N,GND*%
X15675000Y-8500000D03*
%TO.N,+3V3*%
X15675000Y-8340000D03*
%TO.N,LTE_RTS1*%
X15657500Y-8160794D03*
X15049237Y-8420000D03*
%TO.N,GND*%
X15680000Y-7720000D03*
%TO.N,Net-(GM02SP1-VBAT-Pad60)*%
X14155000Y-8780356D03*
X14820000Y-10705000D03*
%TO.N,GND*%
X14820000Y-10800000D03*
%TO.N,Net-(U5-RF_IN)*%
X13973500Y-10563970D03*
%TO.N,Net-(FL1-Pad1)*%
X14004194Y-10484194D03*
%TO.N,Net-(U5-RF_IN)*%
X15160000Y-7752500D03*
%TO.N,LTE_RST*%
X14200000Y-7960000D03*
X15402500Y-7880888D03*
%TO.N,LTE_WAKE*%
X14120000Y-7960000D03*
%TO.N,GND*%
X15205806Y-10674194D03*
%TO.N,+1V8*%
X15200000Y-10580000D03*
%TO.N,1V8_LTE*%
X14260000Y-9960000D03*
%TO.N,LTE_ANT*%
X14564556Y-9882500D03*
X14560000Y-9566694D03*
%TO.N,Net-(J1-CC1)*%
X14110053Y-11095988D03*
%TO.N,Net-(J1-CC2)*%
X14278532Y-10921369D03*
%TO.N,USB_D+*%
X15640000Y-7960000D03*
%TO.N,USB_D-*%
X15653562Y-8061950D03*
%TO.N,USB_D+*%
X14240000Y-11000000D03*
%TO.N,USB_D-*%
X14162023Y-11034112D03*
%TO.N,SIM_IO*%
X14260000Y-8140000D03*
%TO.N,GND*%
X14085000Y-10403388D03*
X14180000Y-10575000D03*
%TO.N,GNSS_RF*%
X14560000Y-9465000D03*
%TO.N,1V8_LTE*%
X15440000Y-8710000D03*
X15004237Y-7957374D03*
%TO.N,GNSS_RF*%
X15060806Y-7900806D03*
%TO.N,LTE_CTS1*%
X14840000Y-8402500D03*
X15380000Y-10540000D03*
%TO.N,SIM_CLK*%
X14807944Y-9942056D03*
X14380000Y-8120000D03*
%TO.N,SIM_RST*%
X14342500Y-8400000D03*
X14940000Y-10162500D03*
%TO.N,GNSS_EN*%
X15331911Y-8077579D03*
X15395000Y-8323388D03*
%TO.N,VSIM*%
X14247000Y-10435688D03*
%TO.N,SIM_IO*%
X13868000Y-9908000D03*
%TO.N,LTE_RTS0*%
X14846727Y-8497615D03*
X15253514Y-8093514D03*
%TO.N,Net-(J2-CD)*%
X14150000Y-10250000D03*
%TO.N,SIM_DETECT*%
X14540000Y-9115000D03*
%TO.N,+3V3*%
X13920000Y-7480000D03*
X15414625Y-8076775D03*
%TO.N,GND*%
X15600000Y-10960000D03*
X15588670Y-10290000D03*
X15590000Y-8960000D03*
X13780000Y-10400000D03*
X13660000Y-9460000D03*
%TO.N,+3V3*%
X14235000Y-9470000D03*
%TO.N,BUZZ+*%
X13640000Y-8080000D03*
%TO.N,LTE_CTS0*%
X14580000Y-8462500D03*
%TO.N,LTE_TX0*%
X14380000Y-8020000D03*
%TO.N,LTE_RX0*%
X14675000Y-8220000D03*
%TD*%
D20*
%TO.N,SIM_IO*%
X13748000Y-9908000D02*
X13868000Y-9908000D01*
X13745000Y-9905000D02*
X13748000Y-9908000D01*
X13745000Y-8506612D02*
X13745000Y-9905000D01*
X14111612Y-8140000D02*
X13745000Y-8506612D01*
X14260000Y-8140000D02*
X14111612Y-8140000D01*
%TO.N,+1V8*%
X14957500Y-8677691D02*
X14987691Y-8647500D01*
X14957500Y-9905888D02*
X14957500Y-8677691D01*
X15002500Y-9950888D02*
X14957500Y-9905888D01*
X15002500Y-10382500D02*
X15002500Y-9950888D01*
X15200000Y-10580000D02*
X15002500Y-10382500D01*
%TO.N,Net-(FL1-Pad4)*%
X14163996Y-10441072D02*
X14163996Y-10416024D01*
X14307924Y-10585000D02*
X14163996Y-10441072D01*
X14594099Y-10585000D02*
X14307924Y-10585000D01*
%TO.N,RES{slash}FFF_FFH*%
X15602500Y-7897500D02*
X15477125Y-8022875D01*
X15690081Y-7897500D02*
X15602500Y-7897500D01*
X15477125Y-8022875D02*
X15477125Y-8111916D01*
X15477125Y-8111916D02*
X15291882Y-8297159D01*
X15701891Y-7909310D02*
X15690081Y-7897500D01*
%TO.N,PS_STATUS*%
X15533084Y-8595939D02*
X15126211Y-8595939D01*
X15626070Y-8688924D02*
X15533084Y-8595939D01*
%TO.N,LTE_RTS1*%
X15051737Y-8417500D02*
X15049237Y-8420000D01*
X15657500Y-8160794D02*
X15400795Y-8417500D01*
X15400795Y-8417500D02*
X15051737Y-8417500D01*
%TO.N,Net-(GM02SP1-VBAT-Pad60)*%
X14172500Y-8797855D02*
X14155000Y-8780356D01*
X14172500Y-10057500D02*
X14172500Y-8797855D01*
X14820000Y-10705000D02*
X14172500Y-10057500D01*
%TO.N,LTE_CTS1*%
X15380000Y-8942500D02*
X15380000Y-10540000D01*
X14840000Y-8402500D02*
X15380000Y-8942500D01*
%TO.N,SIM_CLK*%
X14405000Y-9563860D02*
X14405000Y-8165000D01*
X14405000Y-8165000D02*
X14380000Y-8140000D01*
X14380000Y-8140000D02*
X14380000Y-8120000D01*
X14807944Y-9942056D02*
X14783195Y-9942056D01*
X14783195Y-9942056D02*
X14405000Y-9563860D01*
%TO.N,SIM_RST*%
X14336140Y-8406360D02*
X14336140Y-9558640D01*
X14342500Y-8400000D02*
X14336140Y-8406360D01*
X14336140Y-9558640D02*
X14940000Y-10162500D01*
%TD*%
%TA.AperFunction,Conductor*%
%TO.N,GND*%
G36*
X15737654Y-7289468D02*
G01*
X15742230Y-7294749D01*
X15743100Y-7297422D01*
X15745331Y-7308367D01*
X15745490Y-7309349D01*
X15748758Y-7336297D01*
X15748838Y-7337291D01*
X15748957Y-7340257D01*
X15749848Y-7362391D01*
X15749940Y-7364684D01*
X15749950Y-7365182D01*
X15749950Y-7823841D01*
X15747981Y-7830545D01*
X15742701Y-7835120D01*
X15735785Y-7836115D01*
X15733455Y-7835545D01*
X15719817Y-7830773D01*
X15719816Y-7830773D01*
X15701892Y-7828754D01*
X15701891Y-7828754D01*
X15683967Y-7830773D01*
X15683966Y-7830773D01*
X15674018Y-7834254D01*
X15669922Y-7834950D01*
X15596339Y-7834950D01*
X15595482Y-7835120D01*
X15592288Y-7835756D01*
X15585853Y-7837036D01*
X15584255Y-7837354D01*
X15572872Y-7842069D01*
X15565675Y-7846877D01*
X15565675Y-7846878D01*
X15562626Y-7848914D01*
X15562626Y-7848914D01*
X15502071Y-7909470D01*
X15495938Y-7912819D01*
X15488969Y-7912320D01*
X15483376Y-7908133D01*
X15480934Y-7901587D01*
X15480981Y-7899314D01*
X15483057Y-7880888D01*
X15483057Y-7880888D01*
X15481037Y-7862963D01*
X15481037Y-7862963D01*
X15476121Y-7848914D01*
X15475079Y-7845936D01*
X15472649Y-7842069D01*
X15471158Y-7839696D01*
X15465482Y-7830662D01*
X15452726Y-7817907D01*
X15440697Y-7810348D01*
X15437452Y-7808309D01*
X15420425Y-7802351D01*
X15420425Y-7802351D01*
X15402500Y-7800332D01*
X15402500Y-7800332D01*
X15384575Y-7802351D01*
X15384575Y-7802351D01*
X15367548Y-7808309D01*
X15352274Y-7817907D01*
X15339518Y-7830662D01*
X15329921Y-7845936D01*
X15323963Y-7862963D01*
X15323963Y-7862963D01*
X15321944Y-7880888D01*
X15321944Y-7880889D01*
X15323963Y-7898813D01*
X15323963Y-7898814D01*
X15329921Y-7915841D01*
X15337024Y-7927145D01*
X15339518Y-7931114D01*
X15352274Y-7943870D01*
X15367548Y-7953467D01*
X15384414Y-7959369D01*
X15384575Y-7959425D01*
X15384575Y-7959425D01*
X15402500Y-7961445D01*
X15402500Y-7961445D01*
X15402500Y-7961445D01*
X15420925Y-7959369D01*
X15427807Y-7960574D01*
X15432945Y-7965309D01*
X15434708Y-7972070D01*
X15432535Y-7978711D01*
X15431082Y-7980459D01*
X15428539Y-7983001D01*
X15425315Y-7987827D01*
X15425315Y-7987827D01*
X15423321Y-7990811D01*
X15417960Y-7995292D01*
X15414399Y-7996244D01*
X15396700Y-7998238D01*
X15396699Y-7998238D01*
X15379673Y-8004196D01*
X15379192Y-8004498D01*
X15372469Y-8006397D01*
X15367217Y-8005170D01*
X15366863Y-8005000D01*
X15349837Y-7999042D01*
X15349836Y-7999042D01*
X15331911Y-7997022D01*
X15331911Y-7997022D01*
X15313986Y-7999042D01*
X15313986Y-7999042D01*
X15296959Y-8005000D01*
X15282688Y-8013967D01*
X15275964Y-8015867D01*
X15271996Y-8015172D01*
X15271439Y-8014977D01*
X15253514Y-8012957D01*
X15253514Y-8012957D01*
X15235589Y-8014977D01*
X15235588Y-8014977D01*
X15218562Y-8020935D01*
X15203288Y-8030532D01*
X15190532Y-8043288D01*
X15180935Y-8058562D01*
X15174977Y-8075588D01*
X15174977Y-8075589D01*
X15172957Y-8093514D01*
X15172957Y-8093514D01*
X15174977Y-8111439D01*
X15174977Y-8111439D01*
X15180935Y-8128466D01*
X15189101Y-8141463D01*
X15190532Y-8143740D01*
X15203288Y-8156496D01*
X15218562Y-8166093D01*
X15229081Y-8169774D01*
X15235588Y-8172051D01*
X15235589Y-8172051D01*
X15253514Y-8174070D01*
X15253514Y-8174070D01*
X15253514Y-8174070D01*
X15271439Y-8172051D01*
X15271439Y-8172051D01*
X15271439Y-8172051D01*
X15288466Y-8166093D01*
X15302737Y-8157126D01*
X15309461Y-8155226D01*
X15313430Y-8155921D01*
X15313986Y-8156116D01*
X15315792Y-8156319D01*
X15322234Y-8159026D01*
X15326189Y-8164785D01*
X15326403Y-8171769D01*
X15323172Y-8177409D01*
X15286044Y-8214537D01*
X15279912Y-8217886D01*
X15278665Y-8218091D01*
X15273957Y-8218622D01*
X15256930Y-8224580D01*
X15241656Y-8234177D01*
X15228901Y-8246932D01*
X15219303Y-8262206D01*
X15213345Y-8279233D01*
X15213345Y-8279234D01*
X15211326Y-8297158D01*
X15211326Y-8297159D01*
X15213345Y-8315083D01*
X15213345Y-8315084D01*
X15219303Y-8332111D01*
X15221717Y-8335953D01*
X15223617Y-8342676D01*
X15221581Y-8349360D01*
X15216254Y-8353881D01*
X15211218Y-8354950D01*
X15099744Y-8354950D01*
X15093147Y-8353049D01*
X15084189Y-8347421D01*
X15084189Y-8347421D01*
X15067163Y-8341463D01*
X15067162Y-8341463D01*
X15049237Y-8339443D01*
X15049237Y-8339443D01*
X15031312Y-8341463D01*
X15031312Y-8341463D01*
X15014285Y-8347421D01*
X14999011Y-8357018D01*
X14986255Y-8369774D01*
X14976658Y-8385048D01*
X14970700Y-8402075D01*
X14970700Y-8402075D01*
X14969263Y-8414834D01*
X14966556Y-8421275D01*
X14960796Y-8425231D01*
X14953813Y-8425444D01*
X14948172Y-8422214D01*
X14922621Y-8396662D01*
X14919273Y-8390530D01*
X14919067Y-8389284D01*
X14918537Y-8384574D01*
X14912579Y-8367548D01*
X14911008Y-8365048D01*
X14905963Y-8357018D01*
X14902982Y-8352274D01*
X14890226Y-8339518D01*
X14886247Y-8337018D01*
X14874952Y-8329921D01*
X14857925Y-8323963D01*
X14857925Y-8323963D01*
X14840000Y-8321943D01*
X14840000Y-8321943D01*
X14822075Y-8323963D01*
X14822074Y-8323963D01*
X14805048Y-8329921D01*
X14789774Y-8339518D01*
X14777018Y-8352274D01*
X14767421Y-8367548D01*
X14761463Y-8384574D01*
X14761463Y-8384575D01*
X14759443Y-8402500D01*
X14759443Y-8402500D01*
X14761463Y-8420425D01*
X14761463Y-8420425D01*
X14767421Y-8437452D01*
X14774559Y-8448813D01*
X14776459Y-8455537D01*
X14774560Y-8462007D01*
X14774148Y-8462663D01*
X14774148Y-8462663D01*
X14768190Y-8479689D01*
X14768190Y-8479690D01*
X14766170Y-8497615D01*
X14766170Y-8497615D01*
X14768190Y-8515540D01*
X14768190Y-8515540D01*
X14774148Y-8532567D01*
X14779755Y-8541492D01*
X14783745Y-8547841D01*
X14796500Y-8560597D01*
X14811774Y-8570194D01*
X14828801Y-8576152D01*
X14828802Y-8576152D01*
X14846726Y-8578172D01*
X14846727Y-8578172D01*
X14846727Y-8578172D01*
X14864651Y-8576152D01*
X14864652Y-8576152D01*
X14864652Y-8576152D01*
X14881679Y-8570194D01*
X14896370Y-8560963D01*
X14903093Y-8559063D01*
X14909777Y-8561100D01*
X14911735Y-8562694D01*
X14926744Y-8577703D01*
X14930092Y-8583835D01*
X14929594Y-8590804D01*
X14926744Y-8595239D01*
X14924709Y-8597274D01*
X14915112Y-8612548D01*
X14909154Y-8629575D01*
X14908423Y-8636063D01*
X14906411Y-8641564D01*
X14902069Y-8648062D01*
X14902068Y-8648062D01*
X14899621Y-8653972D01*
X14898751Y-8656072D01*
X14898192Y-8657421D01*
X14897354Y-8659445D01*
X14897353Y-8659446D01*
X14894950Y-8671530D01*
X14894950Y-9887023D01*
X14892981Y-9893726D01*
X14887701Y-9898302D01*
X14880785Y-9899296D01*
X14874430Y-9896394D01*
X14872051Y-9893620D01*
X14870926Y-9891830D01*
X14870926Y-9891829D01*
X14858170Y-9879074D01*
X14842896Y-9869477D01*
X14825869Y-9863519D01*
X14825869Y-9863519D01*
X14807944Y-9861499D01*
X14807944Y-9861499D01*
X14798737Y-9862536D01*
X14791855Y-9861331D01*
X14788581Y-9858983D01*
X14589586Y-9659988D01*
X14586238Y-9653856D01*
X14586736Y-9646886D01*
X14590924Y-9641293D01*
X14594260Y-9639516D01*
X14594952Y-9639273D01*
X14610226Y-9629676D01*
X14622982Y-9616921D01*
X14632579Y-9601647D01*
X14638537Y-9584620D01*
X14639408Y-9576886D01*
X14640556Y-9566695D01*
X14640556Y-9566694D01*
X14638537Y-9548769D01*
X14638537Y-9548769D01*
X14632579Y-9531742D01*
X14626737Y-9522445D01*
X14624837Y-9515721D01*
X14626737Y-9509250D01*
X14632579Y-9499952D01*
X14638537Y-9482926D01*
X14640556Y-9465000D01*
X14638537Y-9447075D01*
X14632579Y-9430048D01*
X14631345Y-9428085D01*
X14625405Y-9418631D01*
X14622982Y-9414774D01*
X14610226Y-9402019D01*
X14606547Y-9399707D01*
X14594952Y-9392421D01*
X14577925Y-9386463D01*
X14577925Y-9386463D01*
X14560000Y-9384444D01*
X14560000Y-9384444D01*
X14542075Y-9386463D01*
X14542074Y-9386463D01*
X14525048Y-9392421D01*
X14509774Y-9402019D01*
X14497018Y-9414774D01*
X14490449Y-9425229D01*
X14485216Y-9429858D01*
X14478310Y-9430922D01*
X14471926Y-9428085D01*
X14468088Y-9422246D01*
X14467550Y-9418631D01*
X14467550Y-9243672D01*
X14469518Y-9236968D01*
X14474799Y-9232393D01*
X14481715Y-9231398D01*
X14488070Y-9234301D01*
X14490449Y-9237075D01*
X14497018Y-9247529D01*
X14509774Y-9260285D01*
X14525048Y-9269882D01*
X14533781Y-9272938D01*
X14542074Y-9275840D01*
X14542075Y-9275840D01*
X14560000Y-9277860D01*
X14560000Y-9277860D01*
X14560000Y-9277860D01*
X14577925Y-9275840D01*
X14577925Y-9275840D01*
X14577925Y-9275840D01*
X14594952Y-9269882D01*
X14610226Y-9260285D01*
X14622982Y-9247529D01*
X14632579Y-9232255D01*
X14638537Y-9215229D01*
X14640556Y-9197303D01*
X14638832Y-9182001D01*
X14638537Y-9179378D01*
X14638537Y-9179378D01*
X14632579Y-9162351D01*
X14622981Y-9147077D01*
X14621530Y-9145625D01*
X14618182Y-9139493D01*
X14618540Y-9133640D01*
X14618382Y-9133604D01*
X14618537Y-9132925D01*
X14620556Y-9115000D01*
X14620556Y-9115000D01*
X14618537Y-9097075D01*
X14618537Y-9097075D01*
X14612579Y-9080048D01*
X14602981Y-9064774D01*
X14590226Y-9052018D01*
X14574952Y-9042421D01*
X14557925Y-9036463D01*
X14557925Y-9036463D01*
X14540000Y-9034444D01*
X14540000Y-9034444D01*
X14522075Y-9036463D01*
X14522074Y-9036463D01*
X14505048Y-9042421D01*
X14489774Y-9052018D01*
X14488718Y-9053074D01*
X14482586Y-9056423D01*
X14475617Y-9055924D01*
X14470023Y-9051737D01*
X14467582Y-9045191D01*
X14467550Y-9044306D01*
X14467550Y-8462500D01*
X14499443Y-8462500D01*
X14499443Y-8462500D01*
X14501463Y-8480425D01*
X14501463Y-8480425D01*
X14507421Y-8497452D01*
X14514025Y-8507963D01*
X14517018Y-8512726D01*
X14529774Y-8525482D01*
X14535196Y-8528889D01*
X14544271Y-8534591D01*
X14545048Y-8535079D01*
X14560562Y-8540508D01*
X14562074Y-8541037D01*
X14562075Y-8541037D01*
X14580000Y-8543057D01*
X14580000Y-8543057D01*
X14580000Y-8543057D01*
X14597925Y-8541037D01*
X14597925Y-8541037D01*
X14597925Y-8541037D01*
X14614952Y-8535079D01*
X14630226Y-8525482D01*
X14642982Y-8512726D01*
X14652579Y-8497452D01*
X14658537Y-8480426D01*
X14658537Y-8480425D01*
X14660556Y-8462500D01*
X14660556Y-8462500D01*
X14658537Y-8444575D01*
X14658537Y-8444575D01*
X14656919Y-8439953D01*
X14652579Y-8427548D01*
X14651257Y-8425444D01*
X14646532Y-8417925D01*
X14642982Y-8412274D01*
X14630226Y-8399518D01*
X14630079Y-8399426D01*
X14614952Y-8389921D01*
X14597925Y-8383963D01*
X14597925Y-8383963D01*
X14580000Y-8381943D01*
X14580000Y-8381943D01*
X14562075Y-8383963D01*
X14562074Y-8383963D01*
X14545048Y-8389921D01*
X14529774Y-8399518D01*
X14517018Y-8412274D01*
X14507421Y-8427548D01*
X14501463Y-8444575D01*
X14501463Y-8444575D01*
X14499443Y-8462500D01*
X14467550Y-8462500D01*
X14467550Y-8220000D01*
X14594444Y-8220000D01*
X14594444Y-8220000D01*
X14596463Y-8237925D01*
X14596463Y-8237925D01*
X14602421Y-8254952D01*
X14610256Y-8267421D01*
X14612019Y-8270226D01*
X14624774Y-8282982D01*
X14640048Y-8292579D01*
X14653137Y-8297159D01*
X14657075Y-8298537D01*
X14657075Y-8298537D01*
X14675000Y-8300556D01*
X14675000Y-8300556D01*
X14675001Y-8300556D01*
X14692925Y-8298537D01*
X14692925Y-8298537D01*
X14692926Y-8298537D01*
X14709952Y-8292579D01*
X14725226Y-8282982D01*
X14737982Y-8270226D01*
X14747579Y-8254952D01*
X14753537Y-8237925D01*
X14753639Y-8237018D01*
X14755557Y-8220000D01*
X14755557Y-8220000D01*
X14754646Y-8211918D01*
X14755852Y-8205036D01*
X14758232Y-8202454D01*
X14754296Y-8199508D01*
X14771847Y-8199508D01*
X14772896Y-8199827D01*
X14772942Y-8199731D01*
X14773564Y-8200031D01*
X14773567Y-8200032D01*
X14773570Y-8200033D01*
X14790586Y-8205988D01*
X14808500Y-8208006D01*
X14808500Y-8208006D01*
X14826414Y-8205988D01*
X14826414Y-8205988D01*
X14843430Y-8200033D01*
X14843431Y-8200033D01*
X14844811Y-8199166D01*
X14844811Y-8199166D01*
X14808500Y-8162855D01*
X14808500Y-8162855D01*
X14771847Y-8199508D01*
X14754296Y-8199508D01*
X14752878Y-8198446D01*
X14751100Y-8195110D01*
X14747579Y-8185048D01*
X14747579Y-8185048D01*
X14737982Y-8169774D01*
X14725226Y-8157018D01*
X14721945Y-8154957D01*
X14709952Y-8147421D01*
X14693159Y-8141545D01*
X14692926Y-8141463D01*
X14692926Y-8141463D01*
X14692925Y-8141463D01*
X14679411Y-8139940D01*
X14672969Y-8137234D01*
X14672031Y-8136386D01*
X14661155Y-8125511D01*
X14688500Y-8125511D01*
X14688500Y-8129489D01*
X14690022Y-8133164D01*
X14692835Y-8135978D01*
X14696511Y-8137500D01*
X14700489Y-8137500D01*
X14704164Y-8135978D01*
X14706978Y-8133164D01*
X14708500Y-8129489D01*
X14708500Y-8127500D01*
X14733855Y-8127500D01*
X14753500Y-8147145D01*
X14773145Y-8127500D01*
X14771155Y-8125511D01*
X14798500Y-8125511D01*
X14798500Y-8129489D01*
X14800022Y-8133164D01*
X14802835Y-8135978D01*
X14806511Y-8137500D01*
X14810489Y-8137500D01*
X14814164Y-8135978D01*
X14816978Y-8133164D01*
X14818500Y-8129489D01*
X14818500Y-8127500D01*
X14843855Y-8127500D01*
X14843855Y-8127500D01*
X14880166Y-8163811D01*
X14880166Y-8163811D01*
X14881033Y-8162431D01*
X14881033Y-8162430D01*
X14883571Y-8155179D01*
X14887643Y-8149502D01*
X14891179Y-8147571D01*
X14898430Y-8145033D01*
X14898431Y-8145033D01*
X14899811Y-8144166D01*
X14899811Y-8144166D01*
X14863500Y-8107855D01*
X14863500Y-8107855D01*
X14859916Y-8111439D01*
X14859916Y-8111439D01*
X14843855Y-8127500D01*
X14818500Y-8127500D01*
X14818500Y-8125511D01*
X14816978Y-8121835D01*
X14814164Y-8119022D01*
X14810489Y-8117500D01*
X14806511Y-8117500D01*
X14802835Y-8119022D01*
X14800022Y-8121835D01*
X14798500Y-8125511D01*
X14771155Y-8125511D01*
X14757084Y-8111439D01*
X14753500Y-8107855D01*
X14749916Y-8111439D01*
X14749916Y-8111439D01*
X14733855Y-8127500D01*
X14708500Y-8127500D01*
X14708500Y-8125511D01*
X14706978Y-8121835D01*
X14704164Y-8119022D01*
X14700489Y-8117500D01*
X14696511Y-8117500D01*
X14692835Y-8119022D01*
X14690022Y-8121835D01*
X14688500Y-8125511D01*
X14661155Y-8125511D01*
X14643500Y-8107855D01*
X14643500Y-8107855D01*
X14607189Y-8144166D01*
X14607189Y-8144166D01*
X14608569Y-8145033D01*
X14608570Y-8145033D01*
X14610824Y-8145822D01*
X14616502Y-8149894D01*
X14619077Y-8156390D01*
X14617731Y-8163246D01*
X14615497Y-8166295D01*
X14612019Y-8169773D01*
X14612019Y-8169773D01*
X14602421Y-8185048D01*
X14596463Y-8202074D01*
X14596463Y-8202075D01*
X14594444Y-8220000D01*
X14467550Y-8220000D01*
X14467550Y-8158839D01*
X14467490Y-8158537D01*
X14467008Y-8156116D01*
X14466969Y-8155921D01*
X14465146Y-8146755D01*
X14465146Y-8146755D01*
X14460431Y-8135371D01*
X14460431Y-8135371D01*
X14460392Y-8135277D01*
X14459526Y-8129143D01*
X14460556Y-8120000D01*
X14460556Y-8120000D01*
X14458537Y-8102075D01*
X14458537Y-8102074D01*
X14452579Y-8085047D01*
X14447269Y-8076597D01*
X14446111Y-8072500D01*
X14562994Y-8072500D01*
X14562994Y-8072500D01*
X14565012Y-8090414D01*
X14570966Y-8107430D01*
X14571834Y-8108811D01*
X14608145Y-8072500D01*
X14608145Y-8072500D01*
X14606156Y-8070511D01*
X14633500Y-8070511D01*
X14633500Y-8074489D01*
X14635022Y-8078164D01*
X14637835Y-8080978D01*
X14641511Y-8082500D01*
X14645489Y-8082500D01*
X14649164Y-8080978D01*
X14651978Y-8078164D01*
X14653500Y-8074489D01*
X14653500Y-8072500D01*
X14678855Y-8072500D01*
X14678855Y-8072500D01*
X14683374Y-8077018D01*
X14698500Y-8092145D01*
X14718145Y-8072500D01*
X14716155Y-8070511D01*
X14743500Y-8070511D01*
X14743500Y-8074489D01*
X14745022Y-8078164D01*
X14747835Y-8080978D01*
X14751511Y-8082500D01*
X14755489Y-8082500D01*
X14759164Y-8080978D01*
X14761978Y-8078164D01*
X14763500Y-8074489D01*
X14763500Y-8072500D01*
X14788855Y-8072500D01*
X14788855Y-8072500D01*
X14793374Y-8077018D01*
X14808500Y-8092145D01*
X14828145Y-8072500D01*
X14826155Y-8070511D01*
X14853500Y-8070511D01*
X14853500Y-8074489D01*
X14855022Y-8078164D01*
X14857835Y-8080978D01*
X14861511Y-8082500D01*
X14865489Y-8082500D01*
X14869164Y-8080978D01*
X14871978Y-8078164D01*
X14873500Y-8074489D01*
X14873500Y-8072500D01*
X14898855Y-8072500D01*
X14935166Y-8108811D01*
X14935166Y-8108811D01*
X14936033Y-8107431D01*
X14936033Y-8107430D01*
X14941988Y-8090414D01*
X14941988Y-8090414D01*
X14944006Y-8072500D01*
X14944006Y-8072500D01*
X14941988Y-8054586D01*
X14936033Y-8037569D01*
X14935166Y-8036189D01*
X14898855Y-8072500D01*
X14873500Y-8072500D01*
X14873500Y-8070511D01*
X14871978Y-8066835D01*
X14869164Y-8064022D01*
X14865489Y-8062500D01*
X14861511Y-8062500D01*
X14857835Y-8064022D01*
X14855022Y-8066835D01*
X14853500Y-8070511D01*
X14826155Y-8070511D01*
X14814206Y-8058562D01*
X14808500Y-8052855D01*
X14802794Y-8058562D01*
X14802794Y-8058562D01*
X14788855Y-8072500D01*
X14763500Y-8072500D01*
X14763500Y-8070511D01*
X14761978Y-8066835D01*
X14759164Y-8064022D01*
X14755489Y-8062500D01*
X14751511Y-8062500D01*
X14747835Y-8064022D01*
X14745022Y-8066835D01*
X14743500Y-8070511D01*
X14716155Y-8070511D01*
X14704206Y-8058562D01*
X14698500Y-8052855D01*
X14692794Y-8058562D01*
X14692794Y-8058562D01*
X14678855Y-8072500D01*
X14653500Y-8072500D01*
X14653500Y-8070511D01*
X14651978Y-8066835D01*
X14649164Y-8064022D01*
X14645489Y-8062500D01*
X14641511Y-8062500D01*
X14637835Y-8064022D01*
X14635022Y-8066835D01*
X14633500Y-8070511D01*
X14606156Y-8070511D01*
X14571834Y-8036189D01*
X14571834Y-8036189D01*
X14570967Y-8037569D01*
X14570966Y-8037570D01*
X14565012Y-8054586D01*
X14565012Y-8054586D01*
X14562994Y-8072500D01*
X14446111Y-8072500D01*
X14445369Y-8069874D01*
X14447269Y-8063403D01*
X14452579Y-8054952D01*
X14454737Y-8048784D01*
X14458537Y-8037925D01*
X14458537Y-8037925D01*
X14460556Y-8020000D01*
X14460556Y-8020000D01*
X14460275Y-8017500D01*
X14623855Y-8017500D01*
X14623855Y-8017500D01*
X14643500Y-8037145D01*
X14643500Y-8037145D01*
X14659709Y-8020935D01*
X14663145Y-8017500D01*
X14661155Y-8015511D01*
X14688500Y-8015511D01*
X14688500Y-8019489D01*
X14690022Y-8023164D01*
X14692835Y-8025978D01*
X14696511Y-8027500D01*
X14700489Y-8027500D01*
X14704164Y-8025978D01*
X14706978Y-8023164D01*
X14708500Y-8019489D01*
X14708500Y-8017500D01*
X14733855Y-8017500D01*
X14737289Y-8020934D01*
X14737291Y-8020935D01*
X14753500Y-8037145D01*
X14773145Y-8017500D01*
X14771155Y-8015511D01*
X14798500Y-8015511D01*
X14798500Y-8019489D01*
X14800022Y-8023164D01*
X14802835Y-8025978D01*
X14806511Y-8027500D01*
X14810489Y-8027500D01*
X14814164Y-8025978D01*
X14816978Y-8023164D01*
X14818500Y-8019489D01*
X14818500Y-8017500D01*
X14843855Y-8017500D01*
X14847289Y-8020934D01*
X14847291Y-8020935D01*
X14863500Y-8037145D01*
X14883145Y-8017500D01*
X14883145Y-8017500D01*
X14863500Y-7997855D01*
X14863500Y-7997855D01*
X14859892Y-8001463D01*
X14843855Y-8017500D01*
X14818500Y-8017500D01*
X14818500Y-8015511D01*
X14816978Y-8011835D01*
X14814164Y-8009022D01*
X14810489Y-8007500D01*
X14806511Y-8007500D01*
X14802835Y-8009022D01*
X14800022Y-8011835D01*
X14798500Y-8015511D01*
X14771155Y-8015511D01*
X14757108Y-8001463D01*
X14753500Y-7997855D01*
X14749892Y-8001463D01*
X14749892Y-8001463D01*
X14733855Y-8017500D01*
X14708500Y-8017500D01*
X14708500Y-8015511D01*
X14706978Y-8011835D01*
X14704164Y-8009022D01*
X14700489Y-8007500D01*
X14696511Y-8007500D01*
X14692835Y-8009022D01*
X14690022Y-8011835D01*
X14688500Y-8015511D01*
X14661155Y-8015511D01*
X14643500Y-7997855D01*
X14623855Y-8017500D01*
X14460275Y-8017500D01*
X14458537Y-8002075D01*
X14458537Y-8002074D01*
X14457582Y-7999346D01*
X14452579Y-7985048D01*
X14442982Y-7969774D01*
X14435707Y-7962500D01*
X14562994Y-7962500D01*
X14562994Y-7962500D01*
X14565012Y-7980414D01*
X14570966Y-7997430D01*
X14571834Y-7998811D01*
X14608145Y-7962500D01*
X14608145Y-7962500D01*
X14606156Y-7960511D01*
X14633500Y-7960511D01*
X14633500Y-7964489D01*
X14635022Y-7968164D01*
X14637835Y-7970978D01*
X14641511Y-7972500D01*
X14645489Y-7972500D01*
X14649164Y-7970978D01*
X14651978Y-7968164D01*
X14653500Y-7964489D01*
X14653500Y-7962500D01*
X14678855Y-7962500D01*
X14678855Y-7962500D01*
X14683464Y-7967109D01*
X14698500Y-7982145D01*
X14718145Y-7962500D01*
X14716155Y-7960511D01*
X14743500Y-7960511D01*
X14743500Y-7964489D01*
X14745022Y-7968164D01*
X14747835Y-7970978D01*
X14751511Y-7972500D01*
X14755489Y-7972500D01*
X14759164Y-7970978D01*
X14761978Y-7968164D01*
X14763500Y-7964489D01*
X14763500Y-7962500D01*
X14788855Y-7962500D01*
X14788855Y-7962500D01*
X14793464Y-7967109D01*
X14808500Y-7982145D01*
X14828145Y-7962500D01*
X14826155Y-7960511D01*
X14853500Y-7960511D01*
X14853500Y-7964489D01*
X14855022Y-7968164D01*
X14857835Y-7970978D01*
X14861511Y-7972500D01*
X14865489Y-7972500D01*
X14869164Y-7970978D01*
X14871978Y-7968164D01*
X14873500Y-7964489D01*
X14873500Y-7962500D01*
X14898855Y-7962500D01*
X14898855Y-7962500D01*
X14935702Y-7999346D01*
X14937433Y-8001517D01*
X14941255Y-8007601D01*
X14949189Y-8015535D01*
X14951012Y-8018873D01*
X14953407Y-8019996D01*
X14953467Y-8019922D01*
X14953777Y-8020169D01*
X14953804Y-8020182D01*
X14953867Y-8020241D01*
X14954011Y-8020356D01*
X14954011Y-8020356D01*
X14962957Y-8025978D01*
X14968999Y-8029774D01*
X14969285Y-8029953D01*
X14979105Y-8033390D01*
X14986312Y-8035911D01*
X14986312Y-8035911D01*
X15004237Y-8037931D01*
X15004237Y-8037931D01*
X15004237Y-8037931D01*
X15022162Y-8035911D01*
X15022162Y-8035911D01*
X15022163Y-8035911D01*
X15039189Y-8029953D01*
X15054463Y-8020356D01*
X15067219Y-8007601D01*
X15076816Y-7992327D01*
X15079754Y-7983931D01*
X15083826Y-7978253D01*
X15087362Y-7976322D01*
X15095758Y-7973385D01*
X15111032Y-7963787D01*
X15123787Y-7951032D01*
X15133385Y-7935758D01*
X15139343Y-7918731D01*
X15139343Y-7918731D01*
X15141362Y-7900806D01*
X15141362Y-7900805D01*
X15139343Y-7882881D01*
X15139343Y-7882880D01*
X15133385Y-7865853D01*
X15123787Y-7850579D01*
X15122298Y-7849090D01*
X15118949Y-7842958D01*
X15119448Y-7835989D01*
X15123635Y-7830395D01*
X15130181Y-7827954D01*
X15135161Y-7828618D01*
X15142074Y-7831037D01*
X15142074Y-7831037D01*
X15142074Y-7831037D01*
X15142075Y-7831037D01*
X15142075Y-7831037D01*
X15160000Y-7833056D01*
X15160000Y-7833056D01*
X15160000Y-7833056D01*
X15177925Y-7831037D01*
X15177925Y-7831037D01*
X15177925Y-7831037D01*
X15194952Y-7825079D01*
X15210226Y-7815482D01*
X15222982Y-7802726D01*
X15232579Y-7787452D01*
X15238537Y-7770425D01*
X15240556Y-7752500D01*
X15238537Y-7734574D01*
X15232579Y-7717548D01*
X15222982Y-7702274D01*
X15210226Y-7689518D01*
X15194952Y-7679921D01*
X15177925Y-7673963D01*
X15177925Y-7673963D01*
X15160000Y-7671943D01*
X15160000Y-7671943D01*
X15142075Y-7673963D01*
X15142074Y-7673963D01*
X15125048Y-7679921D01*
X15109774Y-7689518D01*
X15097018Y-7702274D01*
X15087421Y-7717548D01*
X15081463Y-7734574D01*
X15081463Y-7734575D01*
X15079443Y-7752500D01*
X15079443Y-7752500D01*
X15081463Y-7770425D01*
X15081463Y-7770425D01*
X15087421Y-7787452D01*
X15097018Y-7802726D01*
X15098508Y-7804216D01*
X15101856Y-7810348D01*
X15101358Y-7817317D01*
X15097171Y-7822910D01*
X15090624Y-7825352D01*
X15085644Y-7824688D01*
X15078731Y-7822269D01*
X15078731Y-7822269D01*
X15060806Y-7820249D01*
X15060805Y-7820249D01*
X15042881Y-7822269D01*
X15042880Y-7822269D01*
X15025853Y-7828227D01*
X15010579Y-7837824D01*
X14997824Y-7850579D01*
X14988227Y-7865853D01*
X14985289Y-7874249D01*
X14981217Y-7879927D01*
X14977681Y-7881858D01*
X14969284Y-7884796D01*
X14954011Y-7894393D01*
X14941255Y-7907148D01*
X14931658Y-7922422D01*
X14931658Y-7922422D01*
X14928677Y-7930942D01*
X14925741Y-7935614D01*
X14898855Y-7962500D01*
X14873500Y-7962500D01*
X14873500Y-7960511D01*
X14871978Y-7956835D01*
X14869164Y-7954022D01*
X14865489Y-7952500D01*
X14861511Y-7952500D01*
X14857835Y-7954022D01*
X14855022Y-7956835D01*
X14853500Y-7960511D01*
X14826155Y-7960511D01*
X14813066Y-7947421D01*
X14808500Y-7942855D01*
X14803934Y-7947421D01*
X14803934Y-7947421D01*
X14788855Y-7962500D01*
X14763500Y-7962500D01*
X14763500Y-7960511D01*
X14761978Y-7956835D01*
X14759164Y-7954022D01*
X14755489Y-7952500D01*
X14751511Y-7952500D01*
X14747835Y-7954022D01*
X14745022Y-7956835D01*
X14743500Y-7960511D01*
X14716155Y-7960511D01*
X14703066Y-7947421D01*
X14698500Y-7942855D01*
X14693934Y-7947421D01*
X14693934Y-7947421D01*
X14678855Y-7962500D01*
X14653500Y-7962500D01*
X14653500Y-7960511D01*
X14651978Y-7956835D01*
X14649164Y-7954022D01*
X14645489Y-7952500D01*
X14641511Y-7952500D01*
X14637835Y-7954022D01*
X14635022Y-7956835D01*
X14633500Y-7960511D01*
X14606156Y-7960511D01*
X14571834Y-7926189D01*
X14571834Y-7926189D01*
X14570967Y-7927569D01*
X14570966Y-7927570D01*
X14565012Y-7944586D01*
X14565012Y-7944586D01*
X14562994Y-7962500D01*
X14435707Y-7962500D01*
X14430226Y-7957018D01*
X14424574Y-7953467D01*
X14414952Y-7947421D01*
X14397925Y-7941463D01*
X14397925Y-7941463D01*
X14380000Y-7939443D01*
X14380000Y-7939443D01*
X14362075Y-7941463D01*
X14362074Y-7941463D01*
X14345048Y-7947421D01*
X14329774Y-7957018D01*
X14317018Y-7969774D01*
X14307421Y-7985048D01*
X14301463Y-8002074D01*
X14301463Y-8002075D01*
X14299443Y-8020000D01*
X14299443Y-8020000D01*
X14301463Y-8037925D01*
X14301463Y-8037926D01*
X14305628Y-8049829D01*
X14305984Y-8056806D01*
X14302511Y-8062869D01*
X14296312Y-8066092D01*
X14289829Y-8065628D01*
X14277926Y-8061463D01*
X14277925Y-8061463D01*
X14260000Y-8059443D01*
X14260000Y-8059443D01*
X14242075Y-8061463D01*
X14242074Y-8061463D01*
X14225048Y-8067421D01*
X14212112Y-8075549D01*
X14205514Y-8077450D01*
X14105450Y-8077450D01*
X14099409Y-8078652D01*
X14093366Y-8079854D01*
X14093366Y-8079854D01*
X14089966Y-8081262D01*
X14088651Y-8081807D01*
X14081983Y-8084568D01*
X14081983Y-8084569D01*
X14079734Y-8086072D01*
X14071738Y-8091414D01*
X14067382Y-8095770D01*
X14063026Y-8100127D01*
X13696414Y-8466738D01*
X13696414Y-8466739D01*
X13694685Y-8469326D01*
X13694685Y-8469326D01*
X13692636Y-8472393D01*
X13689569Y-8476983D01*
X13689568Y-8476983D01*
X13686854Y-8483537D01*
X13684854Y-8488366D01*
X13684853Y-8488367D01*
X13682450Y-8500451D01*
X13682450Y-8500451D01*
X13682450Y-9898839D01*
X13682450Y-9911161D01*
X13683047Y-9914161D01*
X13684854Y-9923245D01*
X13685221Y-9924133D01*
X13685222Y-9924134D01*
X13685222Y-9924134D01*
X13689569Y-9934629D01*
X13691573Y-9937628D01*
X13691573Y-9937629D01*
X13691573Y-9937629D01*
X13696414Y-9944873D01*
X13696414Y-9944873D01*
X13696414Y-9944873D01*
X13699414Y-9947873D01*
X13704152Y-9952611D01*
X13708127Y-9956586D01*
X13708127Y-9956586D01*
X13713881Y-9960431D01*
X13717811Y-9963056D01*
X13718371Y-9963431D01*
X13729755Y-9968146D01*
X13741839Y-9970550D01*
X13741839Y-9970550D01*
X13741839Y-9970550D01*
X13741839Y-9970550D01*
X13813514Y-9970550D01*
X13820112Y-9972451D01*
X13827365Y-9977008D01*
X13833048Y-9980579D01*
X13850074Y-9986537D01*
X13850075Y-9986537D01*
X13868000Y-9988557D01*
X13868000Y-9988557D01*
X13868000Y-9988557D01*
X13885925Y-9986537D01*
X13885925Y-9986537D01*
X13885925Y-9986537D01*
X13902952Y-9980579D01*
X13918226Y-9970982D01*
X13930982Y-9958226D01*
X13940579Y-9942952D01*
X13946537Y-9925926D01*
X13946839Y-9923245D01*
X13948556Y-9908000D01*
X13948556Y-9908000D01*
X13946537Y-9890075D01*
X13946537Y-9890075D01*
X13942835Y-9879496D01*
X13940579Y-9873048D01*
X13930982Y-9857774D01*
X13918226Y-9845018D01*
X13902952Y-9835421D01*
X13885925Y-9829463D01*
X13885925Y-9829463D01*
X13868000Y-9827444D01*
X13868000Y-9827444D01*
X13850075Y-9829463D01*
X13850074Y-9829463D01*
X13833047Y-9835421D01*
X13826547Y-9839506D01*
X13819823Y-9841406D01*
X13813140Y-9839369D01*
X13808619Y-9834042D01*
X13807550Y-9829006D01*
X13807550Y-8537657D01*
X13809518Y-8530953D01*
X13811182Y-8528889D01*
X13935071Y-8405000D01*
X14035249Y-8405000D01*
X14035249Y-8405001D01*
X14037269Y-8422925D01*
X14037269Y-8422926D01*
X14043227Y-8439953D01*
X14048541Y-8448410D01*
X14052824Y-8455226D01*
X14065580Y-8467982D01*
X14080854Y-8477579D01*
X14095393Y-8482667D01*
X14097880Y-8483537D01*
X14097881Y-8483537D01*
X14115805Y-8485557D01*
X14115806Y-8485557D01*
X14115806Y-8485557D01*
X14133731Y-8483537D01*
X14133731Y-8483537D01*
X14133731Y-8483537D01*
X14150758Y-8477579D01*
X14166032Y-8467982D01*
X14178787Y-8455226D01*
X14188385Y-8439952D01*
X14194343Y-8422926D01*
X14194343Y-8422925D01*
X14196362Y-8405001D01*
X14196362Y-8405000D01*
X14194343Y-8387075D01*
X14194343Y-8387075D01*
X14192593Y-8382075D01*
X14188385Y-8370048D01*
X14188212Y-8369774D01*
X14183944Y-8362981D01*
X14178787Y-8354774D01*
X14166032Y-8342019D01*
X14150758Y-8332421D01*
X14133731Y-8326463D01*
X14133731Y-8326463D01*
X14115806Y-8324444D01*
X14115805Y-8324444D01*
X14097881Y-8326463D01*
X14097880Y-8326463D01*
X14080853Y-8332421D01*
X14065579Y-8342019D01*
X14052824Y-8354774D01*
X14043227Y-8370048D01*
X14037269Y-8387075D01*
X14037269Y-8387075D01*
X14035249Y-8405000D01*
X13935071Y-8405000D01*
X14133889Y-8206182D01*
X14140021Y-8202833D01*
X14142657Y-8202550D01*
X14205514Y-8202550D01*
X14212112Y-8204451D01*
X14223997Y-8211918D01*
X14225048Y-8212579D01*
X14242074Y-8218537D01*
X14242075Y-8218537D01*
X14260000Y-8220556D01*
X14260000Y-8220556D01*
X14260000Y-8220556D01*
X14277925Y-8218537D01*
X14277925Y-8218537D01*
X14277925Y-8218537D01*
X14294952Y-8212579D01*
X14310226Y-8202982D01*
X14321282Y-8191926D01*
X14327414Y-8188577D01*
X14334383Y-8189076D01*
X14339977Y-8193263D01*
X14342418Y-8199809D01*
X14342450Y-8200694D01*
X14342450Y-8308368D01*
X14340481Y-8315072D01*
X14335201Y-8319647D01*
X14331438Y-8320690D01*
X14324575Y-8321463D01*
X14307548Y-8327421D01*
X14292274Y-8337018D01*
X14279518Y-8349774D01*
X14269921Y-8365048D01*
X14263963Y-8382074D01*
X14263963Y-8382075D01*
X14261943Y-8400000D01*
X14261943Y-8400000D01*
X14263963Y-8417925D01*
X14263963Y-8417925D01*
X14269921Y-8434952D01*
X14269921Y-8434952D01*
X14271689Y-8437766D01*
X14273590Y-8444363D01*
X14273590Y-9381218D01*
X14271621Y-9387922D01*
X14266341Y-9392497D01*
X14259425Y-9393492D01*
X14257094Y-9392922D01*
X14252925Y-9391463D01*
X14252925Y-9391463D01*
X14246062Y-9390690D01*
X14239620Y-9387983D01*
X14235665Y-9382224D01*
X14235050Y-9378368D01*
X14235050Y-8804629D01*
X14235050Y-8804627D01*
X14235050Y-8791695D01*
X14235050Y-8791695D01*
X14234934Y-8791112D01*
X14234774Y-8787304D01*
X14235557Y-8780356D01*
X14235522Y-8780050D01*
X14233537Y-8762431D01*
X14233537Y-8762430D01*
X14232766Y-8760226D01*
X14227579Y-8745403D01*
X14226604Y-8743852D01*
X14217982Y-8730129D01*
X14205226Y-8717374D01*
X14189952Y-8707777D01*
X14172926Y-8701819D01*
X14172925Y-8701819D01*
X14155001Y-8699799D01*
X14155000Y-8699799D01*
X14137075Y-8701819D01*
X14137075Y-8701819D01*
X14120048Y-8707777D01*
X14104774Y-8717374D01*
X14092019Y-8730129D01*
X14082421Y-8745403D01*
X14076463Y-8762430D01*
X14076463Y-8762431D01*
X14074444Y-8780355D01*
X14074444Y-8780356D01*
X14076463Y-8798280D01*
X14076463Y-8798281D01*
X14082421Y-8815308D01*
X14084669Y-8818885D01*
X14092019Y-8830582D01*
X14104774Y-8843337D01*
X14104774Y-8843337D01*
X14105281Y-8843741D01*
X14109295Y-8849460D01*
X14109950Y-8853436D01*
X14109950Y-9699159D01*
X14107981Y-9705863D01*
X14102701Y-9710438D01*
X14096162Y-9711481D01*
X14095151Y-9711367D01*
X14093331Y-9711162D01*
X14093331Y-9711162D01*
X14093331Y-9711162D01*
X14093331Y-9711162D01*
X14075406Y-9713181D01*
X14075406Y-9713181D01*
X14058379Y-9719139D01*
X14043105Y-9728737D01*
X14030350Y-9741492D01*
X14020752Y-9756766D01*
X14014794Y-9773793D01*
X14014794Y-9773793D01*
X14012775Y-9791718D01*
X14012775Y-9791719D01*
X14014794Y-9809643D01*
X14014794Y-9809644D01*
X14020752Y-9826671D01*
X14027557Y-9837500D01*
X14030350Y-9841945D01*
X14043105Y-9854700D01*
X14047997Y-9857774D01*
X14056641Y-9863205D01*
X14058379Y-9864297D01*
X14075406Y-9870255D01*
X14075406Y-9870255D01*
X14093331Y-9872275D01*
X14093331Y-9872275D01*
X14093331Y-9872275D01*
X14094885Y-9872100D01*
X14096161Y-9871956D01*
X14103044Y-9873161D01*
X14108182Y-9877896D01*
X14109950Y-9884278D01*
X14109950Y-10063661D01*
X14112353Y-10075745D01*
X14112354Y-10075746D01*
X14117068Y-10087128D01*
X14117069Y-10087129D01*
X14119631Y-10090963D01*
X14119631Y-10090963D01*
X14123914Y-10097373D01*
X14123914Y-10097374D01*
X14133059Y-10106518D01*
X14133061Y-10106520D01*
X14176765Y-10150225D01*
X14180114Y-10156357D01*
X14179616Y-10163326D01*
X14175428Y-10168920D01*
X14168882Y-10171361D01*
X14166609Y-10171315D01*
X14150000Y-10169444D01*
X14150000Y-10169444D01*
X14132075Y-10171463D01*
X14132074Y-10171463D01*
X14115048Y-10177421D01*
X14099774Y-10187018D01*
X14087018Y-10199774D01*
X14077421Y-10215048D01*
X14071463Y-10232075D01*
X14071463Y-10232075D01*
X14069443Y-10250000D01*
X14069443Y-10250000D01*
X14071463Y-10267925D01*
X14071463Y-10267925D01*
X14077421Y-10284952D01*
X14087018Y-10300226D01*
X14099774Y-10312982D01*
X14109569Y-10319137D01*
X14115048Y-10322579D01*
X14121063Y-10324684D01*
X14126741Y-10328756D01*
X14129316Y-10335251D01*
X14127970Y-10342107D01*
X14123565Y-10346887D01*
X14113770Y-10353042D01*
X14113770Y-10353042D01*
X14101014Y-10365798D01*
X14091417Y-10381072D01*
X14085459Y-10398099D01*
X14085459Y-10398099D01*
X14083439Y-10416024D01*
X14083439Y-10416025D01*
X14083815Y-10419361D01*
X14082610Y-10426243D01*
X14077875Y-10431381D01*
X14071114Y-10433144D01*
X14064473Y-10430971D01*
X14062725Y-10429517D01*
X14054420Y-10421213D01*
X14039146Y-10411615D01*
X14022120Y-10405657D01*
X14022119Y-10405657D01*
X14004195Y-10403638D01*
X14004194Y-10403638D01*
X13986269Y-10405657D01*
X13986269Y-10405657D01*
X13969242Y-10411615D01*
X13953968Y-10421213D01*
X13941213Y-10433968D01*
X13931615Y-10449242D01*
X13925657Y-10466269D01*
X13925657Y-10466269D01*
X13923638Y-10484194D01*
X13923638Y-10484194D01*
X13924633Y-10493026D01*
X13923427Y-10499908D01*
X13921079Y-10503183D01*
X13910518Y-10513743D01*
X13900921Y-10529017D01*
X13894963Y-10546044D01*
X13894963Y-10546045D01*
X13892943Y-10563969D01*
X13892943Y-10563970D01*
X13894963Y-10581894D01*
X13894963Y-10581895D01*
X13900921Y-10598922D01*
X13901599Y-10600000D01*
X13910518Y-10614196D01*
X13923274Y-10626951D01*
X13928486Y-10630226D01*
X13936007Y-10634952D01*
X13938548Y-10636548D01*
X13949644Y-10640431D01*
X13955574Y-10642506D01*
X13955575Y-10642506D01*
X13973500Y-10644526D01*
X13973500Y-10644526D01*
X13973500Y-10644526D01*
X13991425Y-10642506D01*
X13991425Y-10642506D01*
X13991425Y-10642506D01*
X14008452Y-10636548D01*
X14023726Y-10626951D01*
X14036482Y-10614196D01*
X14046079Y-10598922D01*
X14052037Y-10581895D01*
X14052250Y-10580000D01*
X14054056Y-10563970D01*
X14054056Y-10563969D01*
X14053329Y-10557513D01*
X14053061Y-10555137D01*
X14054267Y-10548255D01*
X14056615Y-10544982D01*
X14067176Y-10534420D01*
X14076773Y-10519146D01*
X14082731Y-10502120D01*
X14082825Y-10501282D01*
X14084751Y-10484195D01*
X14084751Y-10484194D01*
X14084573Y-10482618D01*
X14084375Y-10480857D01*
X14085580Y-10473975D01*
X14090315Y-10468837D01*
X14097076Y-10467075D01*
X14103717Y-10469247D01*
X14105465Y-10470701D01*
X14113943Y-10479179D01*
X14115013Y-10480483D01*
X14115023Y-10480474D01*
X14115410Y-10480945D01*
X14115410Y-10480946D01*
X14120379Y-10485914D01*
X14124556Y-10490091D01*
X14124557Y-10490092D01*
X14259025Y-10624561D01*
X14259028Y-10624564D01*
X14268050Y-10633586D01*
X14268050Y-10633586D01*
X14275743Y-10638726D01*
X14278295Y-10640431D01*
X14278295Y-10640431D01*
X14278295Y-10640431D01*
X14284963Y-10643193D01*
X14284964Y-10643193D01*
X14289678Y-10645146D01*
X14289679Y-10645146D01*
X14292645Y-10645736D01*
X14295322Y-10646269D01*
X14295324Y-10646269D01*
X14295326Y-10646270D01*
X14301763Y-10647550D01*
X14301763Y-10647550D01*
X14301763Y-10647550D01*
X14301763Y-10647550D01*
X14539613Y-10647550D01*
X14546211Y-10649451D01*
X14554683Y-10654774D01*
X14559147Y-10657579D01*
X14574803Y-10663057D01*
X14576173Y-10663537D01*
X14576174Y-10663537D01*
X14594099Y-10665557D01*
X14594099Y-10665557D01*
X14594099Y-10665557D01*
X14612024Y-10663537D01*
X14612024Y-10663537D01*
X14612024Y-10663537D01*
X14629051Y-10657579D01*
X14644325Y-10647982D01*
X14650656Y-10641651D01*
X14656788Y-10638303D01*
X14663757Y-10638801D01*
X14668192Y-10641651D01*
X14737379Y-10710838D01*
X14740727Y-10716970D01*
X14740933Y-10718218D01*
X14741463Y-10722925D01*
X14747421Y-10739952D01*
X14747451Y-10740000D01*
X14757018Y-10755226D01*
X14769774Y-10767982D01*
X14785048Y-10777579D01*
X14800487Y-10782982D01*
X14802074Y-10783537D01*
X14802075Y-10783537D01*
X14820000Y-10785557D01*
X14820000Y-10785557D01*
X14820000Y-10785557D01*
X14837925Y-10783537D01*
X14837925Y-10783537D01*
X14837925Y-10783537D01*
X14854952Y-10777579D01*
X14870226Y-10767982D01*
X14882982Y-10755226D01*
X14892549Y-10740000D01*
X15379443Y-10740000D01*
X15379443Y-10740000D01*
X15381463Y-10757925D01*
X15381463Y-10757925D01*
X15387421Y-10774952D01*
X15395074Y-10787132D01*
X15397018Y-10790226D01*
X15409774Y-10802982D01*
X15415444Y-10806544D01*
X15423262Y-10811457D01*
X15425048Y-10812579D01*
X15442074Y-10818537D01*
X15442075Y-10818537D01*
X15460000Y-10820557D01*
X15460000Y-10820557D01*
X15460000Y-10820557D01*
X15477925Y-10818537D01*
X15477925Y-10818537D01*
X15477925Y-10818537D01*
X15494952Y-10812579D01*
X15510226Y-10802982D01*
X15516265Y-10796943D01*
X15522397Y-10793594D01*
X15529128Y-10794007D01*
X15542074Y-10798537D01*
X15542074Y-10798537D01*
X15542074Y-10798537D01*
X15542075Y-10798537D01*
X15542075Y-10798537D01*
X15560000Y-10800557D01*
X15560000Y-10800557D01*
X15560000Y-10800557D01*
X15577925Y-10798537D01*
X15577925Y-10798537D01*
X15577925Y-10798537D01*
X15594952Y-10792579D01*
X15610226Y-10782982D01*
X15622982Y-10770226D01*
X15632579Y-10754952D01*
X15638537Y-10737926D01*
X15638583Y-10737514D01*
X15640556Y-10720000D01*
X15640556Y-10720000D01*
X15638537Y-10702075D01*
X15638537Y-10702075D01*
X15634233Y-10689774D01*
X15632579Y-10685048D01*
X15622982Y-10669774D01*
X15610226Y-10657018D01*
X15603161Y-10652579D01*
X15594952Y-10647421D01*
X15577925Y-10641463D01*
X15577925Y-10641463D01*
X15560000Y-10639444D01*
X15560000Y-10639444D01*
X15542075Y-10641463D01*
X15542074Y-10641463D01*
X15525048Y-10647421D01*
X15509774Y-10657018D01*
X15503735Y-10663057D01*
X15497602Y-10666406D01*
X15490871Y-10665993D01*
X15477926Y-10661463D01*
X15477925Y-10661463D01*
X15460000Y-10659444D01*
X15460000Y-10659444D01*
X15442075Y-10661463D01*
X15442074Y-10661463D01*
X15425048Y-10667421D01*
X15409774Y-10677018D01*
X15397018Y-10689774D01*
X15387421Y-10705048D01*
X15381463Y-10722075D01*
X15381463Y-10722075D01*
X15379443Y-10740000D01*
X14892549Y-10740000D01*
X14892579Y-10739952D01*
X14898537Y-10722926D01*
X14898537Y-10722925D01*
X14900556Y-10705001D01*
X14900556Y-10705000D01*
X14898537Y-10687075D01*
X14898537Y-10687075D01*
X14895549Y-10678537D01*
X14892579Y-10670048D01*
X14892406Y-10669774D01*
X14884744Y-10657579D01*
X14882982Y-10654774D01*
X14870226Y-10642019D01*
X14864312Y-10638303D01*
X14854952Y-10632421D01*
X14837925Y-10626463D01*
X14833217Y-10625933D01*
X14826776Y-10623226D01*
X14825838Y-10622379D01*
X14263841Y-10060382D01*
X14260493Y-10054250D01*
X14260991Y-10047281D01*
X14265178Y-10041688D01*
X14271221Y-10039292D01*
X14272640Y-10039132D01*
X14277925Y-10038537D01*
X14277925Y-10038537D01*
X14277925Y-10038537D01*
X14294952Y-10032579D01*
X14310226Y-10022982D01*
X14322982Y-10010226D01*
X14332579Y-9994952D01*
X14338537Y-9977926D01*
X14338664Y-9976797D01*
X14340556Y-9960000D01*
X14340556Y-9960000D01*
X14338537Y-9942075D01*
X14338537Y-9942075D01*
X14335931Y-9934629D01*
X14332579Y-9925048D01*
X14332004Y-9924133D01*
X14325738Y-9914161D01*
X14322982Y-9909774D01*
X14310226Y-9897018D01*
X14309232Y-9896394D01*
X14294952Y-9887421D01*
X14277925Y-9881463D01*
X14277925Y-9881463D01*
X14260000Y-9879444D01*
X14260000Y-9879444D01*
X14248838Y-9880701D01*
X14241956Y-9879496D01*
X14236818Y-9874761D01*
X14235050Y-9868379D01*
X14235050Y-9561632D01*
X14237018Y-9554928D01*
X14242299Y-9550353D01*
X14246061Y-9549310D01*
X14252925Y-9548537D01*
X14252926Y-9548537D01*
X14252926Y-9548537D01*
X14257094Y-9547078D01*
X14264072Y-9546722D01*
X14270135Y-9550195D01*
X14273357Y-9556394D01*
X14273590Y-9558782D01*
X14273590Y-9564801D01*
X14275993Y-9576884D01*
X14275994Y-9576886D01*
X14280708Y-9588268D01*
X14280709Y-9588269D01*
X14284131Y-9593390D01*
X14284131Y-9593391D01*
X14287554Y-9598513D01*
X14287554Y-9598513D01*
X14287554Y-9598513D01*
X14296266Y-9607225D01*
X14296266Y-9607225D01*
X14296973Y-9607932D01*
X14296973Y-9607932D01*
X14296973Y-9607932D01*
X14502676Y-9813635D01*
X14506025Y-9819768D01*
X14505526Y-9826737D01*
X14502677Y-9831171D01*
X14501574Y-9832273D01*
X14491977Y-9847548D01*
X14486019Y-9864574D01*
X14486019Y-9864575D01*
X14483999Y-9882499D01*
X14483999Y-9882500D01*
X14486019Y-9900425D01*
X14486019Y-9900425D01*
X14491977Y-9917452D01*
X14496749Y-9925048D01*
X14501574Y-9932726D01*
X14514329Y-9945482D01*
X14529603Y-9955079D01*
X14544899Y-9960431D01*
X14546630Y-9961037D01*
X14546631Y-9961037D01*
X14564555Y-9963056D01*
X14564556Y-9963056D01*
X14564556Y-9963056D01*
X14582481Y-9961037D01*
X14582481Y-9961037D01*
X14582481Y-9961037D01*
X14599508Y-9955079D01*
X14614782Y-9945482D01*
X14615884Y-9944380D01*
X14622015Y-9941031D01*
X14628985Y-9941529D01*
X14633420Y-9944379D01*
X14691943Y-10002902D01*
X14695291Y-10009034D01*
X14694793Y-10016004D01*
X14690606Y-10021597D01*
X14684563Y-10023992D01*
X14678909Y-10024629D01*
X14678908Y-10024629D01*
X14661881Y-10030587D01*
X14646607Y-10040185D01*
X14633852Y-10052940D01*
X14624255Y-10068214D01*
X14618297Y-10085241D01*
X14618297Y-10085241D01*
X14616277Y-10103166D01*
X14616277Y-10103167D01*
X14618297Y-10121091D01*
X14618297Y-10121092D01*
X14624255Y-10138119D01*
X14631862Y-10150225D01*
X14633852Y-10153393D01*
X14646607Y-10166148D01*
X14653419Y-10170428D01*
X14661837Y-10175717D01*
X14661881Y-10175745D01*
X14675255Y-10180425D01*
X14678908Y-10181703D01*
X14678909Y-10181703D01*
X14696833Y-10183723D01*
X14696834Y-10183723D01*
X14696834Y-10183723D01*
X14714759Y-10181703D01*
X14714759Y-10181703D01*
X14714759Y-10181703D01*
X14731786Y-10175745D01*
X14747060Y-10166148D01*
X14759815Y-10153393D01*
X14769413Y-10138119D01*
X14775370Y-10121092D01*
X14775575Y-10119274D01*
X14776008Y-10115437D01*
X14778714Y-10108995D01*
X14784474Y-10105040D01*
X14791457Y-10104826D01*
X14797098Y-10108057D01*
X14857379Y-10168338D01*
X14860727Y-10174470D01*
X14860933Y-10175717D01*
X14861463Y-10180425D01*
X14867421Y-10197452D01*
X14869053Y-10200050D01*
X14877018Y-10212726D01*
X14889774Y-10225482D01*
X14898808Y-10231158D01*
X14902361Y-10233391D01*
X14905048Y-10235079D01*
X14922074Y-10241037D01*
X14928938Y-10241810D01*
X14935380Y-10244517D01*
X14939335Y-10250276D01*
X14939950Y-10254132D01*
X14939950Y-10388661D01*
X14942353Y-10400745D01*
X14942354Y-10400746D01*
X14942836Y-10401909D01*
X14942836Y-10401910D01*
X14947068Y-10412128D01*
X14947069Y-10412129D01*
X14948366Y-10414069D01*
X14949671Y-10416024D01*
X14949672Y-10416024D01*
X14949672Y-10416024D01*
X14953914Y-10422373D01*
X14953914Y-10422374D01*
X14963059Y-10431518D01*
X14963061Y-10431520D01*
X15033470Y-10501929D01*
X15036818Y-10508061D01*
X15036320Y-10515030D01*
X15032133Y-10520624D01*
X15025586Y-10523065D01*
X15020606Y-10522401D01*
X15017926Y-10521463D01*
X15017925Y-10521463D01*
X15000000Y-10519444D01*
X15000000Y-10519444D01*
X14982075Y-10521463D01*
X14982074Y-10521463D01*
X14965048Y-10527421D01*
X14949774Y-10537018D01*
X14937018Y-10549774D01*
X14927421Y-10565048D01*
X14921463Y-10582075D01*
X14921463Y-10582075D01*
X14919443Y-10600000D01*
X14919443Y-10600000D01*
X14921463Y-10617925D01*
X14921463Y-10617925D01*
X14927421Y-10634952D01*
X14935256Y-10647421D01*
X14937018Y-10650226D01*
X14949774Y-10662982D01*
X14953872Y-10665557D01*
X14960583Y-10669774D01*
X14965048Y-10672579D01*
X14977735Y-10677018D01*
X14982074Y-10678537D01*
X14982075Y-10678537D01*
X15000000Y-10680557D01*
X15000000Y-10680557D01*
X15000000Y-10680557D01*
X15017925Y-10678537D01*
X15017925Y-10678537D01*
X15017925Y-10678537D01*
X15034952Y-10672579D01*
X15050226Y-10662982D01*
X15062982Y-10650226D01*
X15072579Y-10634952D01*
X15078537Y-10617926D01*
X15078872Y-10614952D01*
X15080556Y-10600000D01*
X15080556Y-10600000D01*
X15078537Y-10582075D01*
X15078537Y-10582074D01*
X15077599Y-10579394D01*
X15077243Y-10572416D01*
X15080715Y-10566353D01*
X15086915Y-10563130D01*
X15093872Y-10563771D01*
X15098071Y-10566530D01*
X15117379Y-10585838D01*
X15120727Y-10591970D01*
X15120933Y-10593217D01*
X15121463Y-10597925D01*
X15127421Y-10614952D01*
X15134960Y-10626951D01*
X15137018Y-10630226D01*
X15149774Y-10642982D01*
X15155005Y-10646269D01*
X15161595Y-10650409D01*
X15165048Y-10652579D01*
X15177735Y-10657018D01*
X15182074Y-10658537D01*
X15182075Y-10658537D01*
X15200000Y-10660557D01*
X15200000Y-10660557D01*
X15200000Y-10660557D01*
X15217925Y-10658537D01*
X15217925Y-10658537D01*
X15217925Y-10658537D01*
X15234952Y-10652579D01*
X15250226Y-10642982D01*
X15262982Y-10630226D01*
X15272579Y-10614952D01*
X15278537Y-10597926D01*
X15279067Y-10593217D01*
X15280556Y-10580000D01*
X15280556Y-10580000D01*
X15279281Y-10568678D01*
X15280480Y-10561830D01*
X15276965Y-10557513D01*
X15276693Y-10556805D01*
X15273701Y-10548255D01*
X15272579Y-10545048D01*
X15262982Y-10529774D01*
X15250226Y-10517018D01*
X15245014Y-10513743D01*
X15234952Y-10507421D01*
X15219801Y-10502120D01*
X15217925Y-10501463D01*
X15217925Y-10501463D01*
X15217925Y-10501463D01*
X15213217Y-10500933D01*
X15206776Y-10498226D01*
X15205838Y-10497379D01*
X15068682Y-10360223D01*
X15065333Y-10354091D01*
X15065050Y-10351455D01*
X15065050Y-9944728D01*
X15065050Y-9944728D01*
X15064522Y-9942075D01*
X15064315Y-9941031D01*
X15062646Y-9932644D01*
X15062646Y-9932644D01*
X15062646Y-9932643D01*
X15062646Y-9932643D01*
X15062646Y-9932642D01*
X15057931Y-9921260D01*
X15057931Y-9921260D01*
X15057931Y-9921260D01*
X15054508Y-9916137D01*
X15051086Y-9911015D01*
X15051086Y-9911015D01*
X15042064Y-9901993D01*
X15042061Y-9901990D01*
X15023682Y-9883611D01*
X15020333Y-9877479D01*
X15020050Y-9874843D01*
X15020050Y-8728561D01*
X15022018Y-8721857D01*
X15025853Y-8718062D01*
X15037917Y-8710482D01*
X15039952Y-8708447D01*
X15046084Y-8705098D01*
X15053053Y-8705597D01*
X15057488Y-8708447D01*
X15313818Y-8964777D01*
X15317167Y-8970910D01*
X15317450Y-8973545D01*
X15317450Y-10485515D01*
X15315550Y-10492112D01*
X15307421Y-10505048D01*
X15301463Y-10522075D01*
X15301463Y-10522075D01*
X15299444Y-10540000D01*
X15299444Y-10540000D01*
X15300719Y-10551322D01*
X15299520Y-10558170D01*
X15303035Y-10562486D01*
X15303307Y-10563195D01*
X15307421Y-10574952D01*
X15314261Y-10585838D01*
X15317019Y-10590226D01*
X15329774Y-10602982D01*
X15345048Y-10612579D01*
X15351831Y-10614952D01*
X15362075Y-10618537D01*
X15362075Y-10618537D01*
X15380000Y-10620557D01*
X15380000Y-10620557D01*
X15380001Y-10620557D01*
X15397925Y-10618537D01*
X15397925Y-10618537D01*
X15397926Y-10618537D01*
X15414952Y-10612579D01*
X15430226Y-10602982D01*
X15442982Y-10590226D01*
X15452579Y-10574952D01*
X15458537Y-10557926D01*
X15458537Y-10557925D01*
X15460557Y-10540000D01*
X15460557Y-10540000D01*
X15458537Y-10522075D01*
X15458537Y-10522075D01*
X15453633Y-10508061D01*
X15452579Y-10505048D01*
X15450327Y-10501463D01*
X15444451Y-10492112D01*
X15442550Y-10485515D01*
X15442550Y-10248808D01*
X15444519Y-10242104D01*
X15449799Y-10237529D01*
X15456715Y-10236534D01*
X15461547Y-10238309D01*
X15465889Y-10241037D01*
X15467548Y-10242079D01*
X15484574Y-10248037D01*
X15484575Y-10248037D01*
X15502500Y-10250056D01*
X15502500Y-10250056D01*
X15502500Y-10250056D01*
X15520425Y-10248037D01*
X15520425Y-10248037D01*
X15520425Y-10248037D01*
X15537452Y-10242079D01*
X15552726Y-10232482D01*
X15565482Y-10219726D01*
X15575079Y-10204452D01*
X15581037Y-10187425D01*
X15581644Y-10182032D01*
X15583056Y-10169500D01*
X15583056Y-10169500D01*
X15581037Y-10151575D01*
X15581037Y-10151574D01*
X15575628Y-10136117D01*
X15575079Y-10134548D01*
X15565482Y-10119274D01*
X15552726Y-10106518D01*
X15550033Y-10104826D01*
X15537452Y-10096921D01*
X15520425Y-10090963D01*
X15520425Y-10090963D01*
X15502500Y-10088943D01*
X15502500Y-10088943D01*
X15484575Y-10090963D01*
X15484574Y-10090963D01*
X15467547Y-10096921D01*
X15461547Y-10100691D01*
X15454824Y-10102591D01*
X15448140Y-10100554D01*
X15443619Y-10095228D01*
X15442550Y-10090192D01*
X15442550Y-8936340D01*
X15442550Y-8936340D01*
X15440146Y-8924255D01*
X15438765Y-8920921D01*
X15435431Y-8912872D01*
X15432009Y-8907749D01*
X15428586Y-8902627D01*
X15428586Y-8902627D01*
X15419564Y-8893605D01*
X15419561Y-8893602D01*
X15205616Y-8679657D01*
X15202267Y-8673525D01*
X15202766Y-8666555D01*
X15206953Y-8660962D01*
X15213499Y-8658520D01*
X15214384Y-8658489D01*
X15355739Y-8658489D01*
X15362443Y-8660457D01*
X15367018Y-8665738D01*
X15368013Y-8672654D01*
X15367443Y-8674984D01*
X15361463Y-8692074D01*
X15361463Y-8692075D01*
X15359443Y-8710000D01*
X15359443Y-8710000D01*
X15361463Y-8727925D01*
X15361463Y-8727925D01*
X15367421Y-8744952D01*
X15371790Y-8751906D01*
X15377018Y-8760226D01*
X15389774Y-8772982D01*
X15396852Y-8777429D01*
X15403016Y-8781302D01*
X15405048Y-8782579D01*
X15418550Y-8787304D01*
X15422074Y-8788537D01*
X15422075Y-8788537D01*
X15440000Y-8790557D01*
X15440000Y-8790557D01*
X15440000Y-8790557D01*
X15457925Y-8788537D01*
X15457925Y-8788537D01*
X15457925Y-8788537D01*
X15474952Y-8782579D01*
X15490226Y-8772982D01*
X15502982Y-8760226D01*
X15512579Y-8744952D01*
X15518537Y-8727926D01*
X15518759Y-8725949D01*
X15520556Y-8710000D01*
X15520556Y-8710000D01*
X15519682Y-8702242D01*
X15520888Y-8695360D01*
X15525623Y-8690222D01*
X15532384Y-8688460D01*
X15539024Y-8690632D01*
X15540772Y-8692086D01*
X15543448Y-8694762D01*
X15546797Y-8700894D01*
X15547002Y-8702141D01*
X15547533Y-8706849D01*
X15553491Y-8723876D01*
X15556035Y-8727925D01*
X15563088Y-8739150D01*
X15575843Y-8751906D01*
X15591117Y-8761503D01*
X15608144Y-8767461D01*
X15608145Y-8767461D01*
X15626069Y-8769481D01*
X15626070Y-8769481D01*
X15626070Y-8769481D01*
X15643994Y-8767461D01*
X15643995Y-8767461D01*
X15643995Y-8767461D01*
X15661022Y-8761503D01*
X15676296Y-8751906D01*
X15689051Y-8739150D01*
X15698648Y-8723876D01*
X15704606Y-8706850D01*
X15704856Y-8704634D01*
X15706626Y-8688924D01*
X15706626Y-8688924D01*
X15704606Y-8670999D01*
X15704606Y-8670999D01*
X15700240Y-8658520D01*
X15698648Y-8653972D01*
X15697504Y-8652150D01*
X15690852Y-8641564D01*
X15689051Y-8638698D01*
X15676296Y-8625942D01*
X15663357Y-8617813D01*
X15661022Y-8616345D01*
X15643994Y-8610387D01*
X15639287Y-8609857D01*
X15632845Y-8607150D01*
X15631907Y-8606303D01*
X15582104Y-8556500D01*
X15582102Y-8556497D01*
X15572958Y-8547353D01*
X15567835Y-8543930D01*
X15562713Y-8540508D01*
X15552410Y-8536240D01*
X15551827Y-8535999D01*
X15551330Y-8535793D01*
X15550220Y-8535572D01*
X15545287Y-8534591D01*
X15539245Y-8533389D01*
X15539245Y-8533389D01*
X15539245Y-8533389D01*
X15180697Y-8533389D01*
X15174099Y-8531488D01*
X15161163Y-8523360D01*
X15144136Y-8517402D01*
X15144136Y-8517402D01*
X15126211Y-8515382D01*
X15126211Y-8515382D01*
X15108286Y-8517402D01*
X15108286Y-8517402D01*
X15091259Y-8523360D01*
X15075984Y-8532957D01*
X15075440Y-8533392D01*
X15075305Y-8533223D01*
X15070081Y-8536073D01*
X15063113Y-8535572D01*
X15058682Y-8532723D01*
X15047023Y-8521065D01*
X15043675Y-8514932D01*
X15044173Y-8507963D01*
X15048361Y-8502370D01*
X15054403Y-8499974D01*
X15057579Y-8499617D01*
X15067162Y-8498537D01*
X15067162Y-8498537D01*
X15067163Y-8498537D01*
X15084189Y-8492579D01*
X15099463Y-8482982D01*
X15099464Y-8482981D01*
X15099747Y-8482756D01*
X15099965Y-8482667D01*
X15100053Y-8482611D01*
X15100063Y-8482627D01*
X15106215Y-8480115D01*
X15107478Y-8480050D01*
X15406955Y-8480050D01*
X15406955Y-8480050D01*
X15414563Y-8478537D01*
X15414563Y-8478537D01*
X15416832Y-8478085D01*
X15419040Y-8477646D01*
X15424388Y-8475431D01*
X15424388Y-8475431D01*
X15424388Y-8475431D01*
X15430423Y-8472931D01*
X15430423Y-8472931D01*
X15430423Y-8472931D01*
X15435546Y-8469508D01*
X15435818Y-8469326D01*
X15436822Y-8468656D01*
X15440668Y-8466086D01*
X15449380Y-8457373D01*
X15449381Y-8457373D01*
X15450087Y-8456667D01*
X15450087Y-8456666D01*
X15573432Y-8333321D01*
X15579565Y-8329973D01*
X15586534Y-8330471D01*
X15592127Y-8334658D01*
X15594522Y-8340701D01*
X15596463Y-8357925D01*
X15596463Y-8357925D01*
X15602421Y-8374952D01*
X15608765Y-8385048D01*
X15612018Y-8390226D01*
X15624774Y-8402982D01*
X15633069Y-8408194D01*
X15639562Y-8412274D01*
X15640048Y-8412579D01*
X15655326Y-8417925D01*
X15657074Y-8418537D01*
X15657075Y-8418537D01*
X15675000Y-8420557D01*
X15675000Y-8420557D01*
X15675000Y-8420557D01*
X15692925Y-8418537D01*
X15692925Y-8418537D01*
X15692925Y-8418537D01*
X15709952Y-8412579D01*
X15725226Y-8402982D01*
X15728782Y-8399426D01*
X15734914Y-8396077D01*
X15741883Y-8396576D01*
X15747477Y-8400763D01*
X15749918Y-8407309D01*
X15749950Y-8408194D01*
X15749950Y-11337100D01*
X15747981Y-11343804D01*
X15742701Y-11348380D01*
X15735785Y-11349374D01*
X15729430Y-11346472D01*
X15728782Y-11345868D01*
X15711340Y-11328427D01*
X15711339Y-11328425D01*
X15688432Y-11311277D01*
X15688431Y-11311277D01*
X15663317Y-11297563D01*
X15663317Y-11297563D01*
X15652591Y-11293563D01*
X15636505Y-11287563D01*
X15636504Y-11287563D01*
X15636504Y-11287563D01*
X15608543Y-11281480D01*
X15580000Y-11279439D01*
X15580000Y-11279439D01*
X15551457Y-11281480D01*
X15523496Y-11287563D01*
X15496683Y-11297563D01*
X15471569Y-11311277D01*
X15471568Y-11311277D01*
X15448661Y-11328425D01*
X15448659Y-11328427D01*
X15428427Y-11348659D01*
X15428425Y-11348661D01*
X15411277Y-11371568D01*
X15411277Y-11371569D01*
X15397563Y-11396683D01*
X15387563Y-11423496D01*
X15381480Y-11451457D01*
X15379439Y-11480000D01*
X15379439Y-11480000D01*
X15381480Y-11508543D01*
X15387563Y-11536504D01*
X15387563Y-11536504D01*
X15387563Y-11536505D01*
X15397485Y-11563105D01*
X15397563Y-11563317D01*
X15411277Y-11588431D01*
X15411277Y-11588432D01*
X15428425Y-11611339D01*
X15428427Y-11611340D01*
X15445868Y-11628782D01*
X15449217Y-11634914D01*
X15448718Y-11641883D01*
X15444531Y-11647477D01*
X15437985Y-11649918D01*
X15437100Y-11649950D01*
X13700443Y-11649950D01*
X13699558Y-11649918D01*
X13697362Y-11649761D01*
X13679544Y-11648487D01*
X13677793Y-11648235D01*
X13658621Y-11644065D01*
X13656924Y-11643566D01*
X13638539Y-11636709D01*
X13636930Y-11635974D01*
X13619709Y-11626571D01*
X13618221Y-11625615D01*
X13602513Y-11613856D01*
X13601176Y-11612697D01*
X13587303Y-11598824D01*
X13586144Y-11597487D01*
X13579366Y-11588432D01*
X13574385Y-11581778D01*
X13573429Y-11580290D01*
X13564026Y-11563070D01*
X13563291Y-11561461D01*
X13556433Y-11543075D01*
X13555935Y-11541380D01*
X13551765Y-11522206D01*
X13551513Y-11520456D01*
X13550082Y-11500442D01*
X13550050Y-11499557D01*
X13550050Y-11376395D01*
X13552018Y-11369691D01*
X13557299Y-11365116D01*
X13564215Y-11364121D01*
X13570570Y-11367024D01*
X13573906Y-11371650D01*
X13579381Y-11384867D01*
X13579381Y-11384868D01*
X13590325Y-11401246D01*
X13590325Y-11401247D01*
X13604253Y-11415175D01*
X13604254Y-11415175D01*
X13620631Y-11426118D01*
X13620633Y-11426119D01*
X13638831Y-11433657D01*
X13643000Y-11434486D01*
X13643000Y-11354199D01*
X13643994Y-11355920D01*
X13649579Y-11361506D01*
X13656420Y-11365456D01*
X13664050Y-11367500D01*
X13671950Y-11367500D01*
X13679580Y-11365456D01*
X13686420Y-11361506D01*
X13692006Y-11355920D01*
X13693000Y-11354199D01*
X13693000Y-11434486D01*
X13697169Y-11433657D01*
X13697169Y-11433657D01*
X13715367Y-11426119D01*
X13715368Y-11426118D01*
X13731746Y-11415175D01*
X13731747Y-11415175D01*
X13745675Y-11401247D01*
X13745675Y-11401246D01*
X13756618Y-11384868D01*
X13756619Y-11384867D01*
X13764157Y-11366669D01*
X13764157Y-11366668D01*
X13768000Y-11347349D01*
X13768000Y-11347349D01*
X13768000Y-11332500D01*
X13698000Y-11332500D01*
X13698000Y-11282500D01*
X13768000Y-11282500D01*
X13768000Y-11267651D01*
X13768000Y-11267650D01*
X14432000Y-11267650D01*
X14432000Y-11282500D01*
X14502000Y-11282500D01*
X14502000Y-11332500D01*
X14432000Y-11332500D01*
X14432000Y-11347349D01*
X14435843Y-11366668D01*
X14435843Y-11366669D01*
X14443381Y-11384867D01*
X14443381Y-11384868D01*
X14454325Y-11401246D01*
X14454325Y-11401247D01*
X14468253Y-11415175D01*
X14468254Y-11415175D01*
X14484631Y-11426118D01*
X14484633Y-11426119D01*
X14502831Y-11433657D01*
X14507000Y-11434486D01*
X14507000Y-11354199D01*
X14507994Y-11355920D01*
X14513579Y-11361506D01*
X14520420Y-11365456D01*
X14528050Y-11367500D01*
X14535950Y-11367500D01*
X14543580Y-11365456D01*
X14550420Y-11361506D01*
X14556006Y-11355920D01*
X14557000Y-11354199D01*
X14557000Y-11434486D01*
X14561169Y-11433657D01*
X14561169Y-11433657D01*
X14579367Y-11426119D01*
X14579368Y-11426118D01*
X14595746Y-11415175D01*
X14595747Y-11415175D01*
X14609675Y-11401247D01*
X14609675Y-11401246D01*
X14620618Y-11384868D01*
X14620619Y-11384867D01*
X14628157Y-11366669D01*
X14628157Y-11366668D01*
X14632000Y-11347349D01*
X14632000Y-11347349D01*
X14632000Y-11332500D01*
X14562000Y-11332500D01*
X14562000Y-11282500D01*
X14632000Y-11282500D01*
X14632000Y-11267651D01*
X14632000Y-11267650D01*
X14628157Y-11248332D01*
X14628157Y-11248331D01*
X14620619Y-11230133D01*
X14620618Y-11230131D01*
X14609675Y-11213754D01*
X14609675Y-11213753D01*
X14595747Y-11199825D01*
X14595746Y-11199825D01*
X14579368Y-11188881D01*
X14579367Y-11188881D01*
X14561169Y-11181343D01*
X14561168Y-11181343D01*
X14557000Y-11180514D01*
X14557000Y-11260801D01*
X14556006Y-11259079D01*
X14550420Y-11253494D01*
X14543580Y-11249544D01*
X14535950Y-11247500D01*
X14528050Y-11247500D01*
X14520420Y-11249544D01*
X14513579Y-11253494D01*
X14507994Y-11259079D01*
X14507000Y-11260801D01*
X14507000Y-11180514D01*
X14507000Y-11180514D01*
X14502832Y-11181343D01*
X14502831Y-11181343D01*
X14484633Y-11188881D01*
X14484631Y-11188881D01*
X14468254Y-11199825D01*
X14468253Y-11199825D01*
X14454325Y-11213753D01*
X14454325Y-11213754D01*
X14443381Y-11230131D01*
X14443381Y-11230133D01*
X14435843Y-11248331D01*
X14435843Y-11248332D01*
X14432000Y-11267650D01*
X13768000Y-11267650D01*
X13764157Y-11248332D01*
X13764157Y-11248331D01*
X13756619Y-11230133D01*
X13756618Y-11230131D01*
X13745675Y-11213754D01*
X13745675Y-11213753D01*
X13731747Y-11199825D01*
X13731746Y-11199825D01*
X13715368Y-11188881D01*
X13715367Y-11188881D01*
X13697169Y-11181343D01*
X13697168Y-11181343D01*
X13693000Y-11180514D01*
X13693000Y-11260801D01*
X13692006Y-11259079D01*
X13686420Y-11253494D01*
X13679580Y-11249544D01*
X13671950Y-11247500D01*
X13664050Y-11247500D01*
X13656420Y-11249544D01*
X13649579Y-11253494D01*
X13643994Y-11259079D01*
X13643000Y-11260801D01*
X13643000Y-11180514D01*
X13643000Y-11180514D01*
X13638832Y-11181343D01*
X13638831Y-11181343D01*
X13620633Y-11188881D01*
X13620631Y-11188881D01*
X13604254Y-11199825D01*
X13604253Y-11199825D01*
X13590325Y-11213753D01*
X13590325Y-11213754D01*
X13579381Y-11230131D01*
X13579381Y-11230132D01*
X13573906Y-11243350D01*
X13569522Y-11248790D01*
X13562893Y-11250997D01*
X13556123Y-11249269D01*
X13551362Y-11244155D01*
X13550050Y-11238605D01*
X13550050Y-11095988D01*
X14029496Y-11095988D01*
X14029496Y-11095988D01*
X14031516Y-11113913D01*
X14031516Y-11113913D01*
X14037474Y-11130940D01*
X14047071Y-11146214D01*
X14059826Y-11158970D01*
X14075100Y-11168567D01*
X14092127Y-11174525D01*
X14092128Y-11174525D01*
X14110052Y-11176544D01*
X14110053Y-11176544D01*
X14110053Y-11176544D01*
X14127978Y-11174525D01*
X14127978Y-11174525D01*
X14127978Y-11174525D01*
X14145005Y-11168567D01*
X14160279Y-11158970D01*
X14173034Y-11146214D01*
X14182632Y-11130940D01*
X14188327Y-11114662D01*
X14192399Y-11108985D01*
X14195936Y-11107054D01*
X14196975Y-11106691D01*
X14212249Y-11097093D01*
X14225004Y-11084338D01*
X14225004Y-11084338D01*
X14225497Y-11083845D01*
X14225671Y-11084020D01*
X14230449Y-11080663D01*
X14235817Y-11080085D01*
X14240000Y-11080557D01*
X14240000Y-11080557D01*
X14257925Y-11078537D01*
X14257925Y-11078537D01*
X14257925Y-11078537D01*
X14274952Y-11072579D01*
X14290226Y-11062982D01*
X14302982Y-11050226D01*
X14312579Y-11034952D01*
X14318537Y-11017926D01*
X14319627Y-11008247D01*
X14320556Y-11000000D01*
X14320556Y-11000000D01*
X14320462Y-10999159D01*
X14320324Y-10997941D01*
X14321530Y-10991058D01*
X14326049Y-10986053D01*
X14328758Y-10984351D01*
X14331842Y-10981267D01*
X14337974Y-10977918D01*
X14344943Y-10978416D01*
X14349378Y-10981266D01*
X14351997Y-10983885D01*
X14353663Y-10985552D01*
X14366786Y-10993128D01*
X14381423Y-10997050D01*
X14381424Y-10997050D01*
X14396576Y-10997050D01*
X14396577Y-10997050D01*
X14411213Y-10993128D01*
X14424336Y-10985552D01*
X14424337Y-10985551D01*
X14425040Y-10985145D01*
X14425168Y-10985366D01*
X14430496Y-10983304D01*
X14437340Y-10984706D01*
X14442341Y-10989586D01*
X14442987Y-10990916D01*
X14443381Y-10991867D01*
X14443381Y-10991868D01*
X14454325Y-11008246D01*
X14454325Y-11008247D01*
X14468253Y-11022175D01*
X14468254Y-11022175D01*
X14484631Y-11033119D01*
X14484633Y-11033119D01*
X14502831Y-11040657D01*
X14507000Y-11041486D01*
X14507000Y-10961199D01*
X14507994Y-10962921D01*
X14513579Y-10968506D01*
X14520420Y-10972456D01*
X14528050Y-10974500D01*
X14535950Y-10974500D01*
X14543580Y-10972456D01*
X14550420Y-10968506D01*
X14556006Y-10962921D01*
X14557000Y-10961199D01*
X14557000Y-11041486D01*
X14561169Y-11040657D01*
X14561169Y-11040657D01*
X14579367Y-11033119D01*
X14579368Y-11033119D01*
X14595746Y-11022175D01*
X14595747Y-11022175D01*
X14609675Y-11008247D01*
X14609675Y-11008246D01*
X14620618Y-10991868D01*
X14620619Y-10991867D01*
X14628157Y-10973669D01*
X14628157Y-10973668D01*
X14632000Y-10954350D01*
X14632000Y-10954349D01*
X14632000Y-10914500D01*
X14562000Y-10914500D01*
X14562000Y-10864500D01*
X14632000Y-10864500D01*
X14632000Y-10824651D01*
X14632000Y-10824650D01*
X14628157Y-10805332D01*
X14628157Y-10805331D01*
X14620619Y-10787133D01*
X14620618Y-10787132D01*
X14609675Y-10770754D01*
X14609675Y-10770753D01*
X14595747Y-10756825D01*
X14595746Y-10756825D01*
X14579368Y-10745881D01*
X14579367Y-10745881D01*
X14561169Y-10738343D01*
X14561168Y-10738343D01*
X14557000Y-10737514D01*
X14557000Y-10817801D01*
X14556006Y-10816080D01*
X14550420Y-10810494D01*
X14543580Y-10806544D01*
X14535950Y-10804500D01*
X14528050Y-10804500D01*
X14520420Y-10806544D01*
X14513579Y-10810494D01*
X14507994Y-10816080D01*
X14507000Y-10817801D01*
X14507000Y-10737514D01*
X14507000Y-10737514D01*
X14502832Y-10738343D01*
X14502831Y-10738343D01*
X14484633Y-10745881D01*
X14484631Y-10745881D01*
X14468254Y-10756825D01*
X14468253Y-10756825D01*
X14454325Y-10770753D01*
X14454325Y-10770754D01*
X14443381Y-10787132D01*
X14443381Y-10787133D01*
X14435843Y-10805331D01*
X14435843Y-10805332D01*
X14432000Y-10824650D01*
X14432000Y-10876396D01*
X14430031Y-10883099D01*
X14424751Y-10887675D01*
X14417835Y-10888669D01*
X14413400Y-10887134D01*
X14411214Y-10885872D01*
X14411213Y-10885872D01*
X14396577Y-10881950D01*
X14381423Y-10881950D01*
X14366786Y-10885872D01*
X14366786Y-10885872D01*
X14366786Y-10885872D01*
X14366786Y-10885872D01*
X14365377Y-10886686D01*
X14358587Y-10888333D01*
X14351984Y-10886048D01*
X14348677Y-10882544D01*
X14341513Y-10871143D01*
X14328758Y-10858387D01*
X14313484Y-10848790D01*
X14296457Y-10842832D01*
X14296457Y-10842832D01*
X14278532Y-10840813D01*
X14278532Y-10840813D01*
X14260607Y-10842832D01*
X14260606Y-10842832D01*
X14243580Y-10848790D01*
X14228306Y-10858387D01*
X14215550Y-10871143D01*
X14205953Y-10886417D01*
X14199995Y-10903444D01*
X14199995Y-10903444D01*
X14197975Y-10921369D01*
X14197975Y-10921369D01*
X14198207Y-10923429D01*
X14197002Y-10930311D01*
X14192483Y-10935316D01*
X14189774Y-10937018D01*
X14176526Y-10950266D01*
X14176353Y-10950093D01*
X14171564Y-10953451D01*
X14166205Y-10954026D01*
X14164442Y-10953828D01*
X14162023Y-10953555D01*
X14162022Y-10953555D01*
X14162022Y-10953555D01*
X14162022Y-10953555D01*
X14144098Y-10955575D01*
X14144097Y-10955575D01*
X14127070Y-10961533D01*
X14111796Y-10971130D01*
X14099041Y-10983885D01*
X14089444Y-10999159D01*
X14083748Y-11015437D01*
X14079676Y-11021114D01*
X14076140Y-11023045D01*
X14075100Y-11023409D01*
X14075100Y-11023409D01*
X14059826Y-11033006D01*
X14047071Y-11045762D01*
X14037474Y-11061036D01*
X14031516Y-11078062D01*
X14031516Y-11078063D01*
X14029496Y-11095988D01*
X13550050Y-11095988D01*
X13550050Y-10983395D01*
X13552018Y-10976691D01*
X13557299Y-10972116D01*
X13564215Y-10971121D01*
X13570570Y-10974024D01*
X13573906Y-10978650D01*
X13579381Y-10991867D01*
X13579381Y-10991868D01*
X13590325Y-11008246D01*
X13590325Y-11008247D01*
X13604253Y-11022175D01*
X13604254Y-11022175D01*
X13620631Y-11033119D01*
X13620633Y-11033119D01*
X13638831Y-11040657D01*
X13643000Y-11041486D01*
X13643000Y-10961199D01*
X13643994Y-10962921D01*
X13649579Y-10968506D01*
X13656420Y-10972456D01*
X13664050Y-10974500D01*
X13671950Y-10974500D01*
X13679580Y-10972456D01*
X13686420Y-10968506D01*
X13692006Y-10962921D01*
X13693000Y-10961199D01*
X13693000Y-11041486D01*
X13697169Y-11040657D01*
X13697169Y-11040657D01*
X13715367Y-11033119D01*
X13715368Y-11033119D01*
X13731746Y-11022175D01*
X13731747Y-11022175D01*
X13745675Y-11008247D01*
X13745675Y-11008246D01*
X13756618Y-10991868D01*
X13756619Y-10991868D01*
X13757013Y-10990916D01*
X13761397Y-10985476D01*
X13768026Y-10983269D01*
X13774796Y-10984997D01*
X13775340Y-10985365D01*
X13775663Y-10985551D01*
X13775663Y-10985552D01*
X13788786Y-10993128D01*
X13803423Y-10997050D01*
X13803424Y-10997050D01*
X13818576Y-10997050D01*
X13818577Y-10997050D01*
X13833213Y-10993128D01*
X13846336Y-10985552D01*
X13857051Y-10974837D01*
X13864628Y-10961714D01*
X13868550Y-10947077D01*
X13868550Y-10931923D01*
X13864628Y-10917287D01*
X13857051Y-10904164D01*
X13846336Y-10893449D01*
X13835400Y-10887134D01*
X13833214Y-10885872D01*
X13825895Y-10883911D01*
X13818577Y-10881950D01*
X13803423Y-10881950D01*
X13788786Y-10885872D01*
X13788786Y-10885872D01*
X13788786Y-10885872D01*
X13788786Y-10885872D01*
X13786600Y-10887134D01*
X13779810Y-10888782D01*
X13773207Y-10886496D01*
X13768888Y-10881004D01*
X13768000Y-10876396D01*
X13768000Y-10824651D01*
X13768000Y-10824650D01*
X13764157Y-10805332D01*
X13764157Y-10805331D01*
X13756619Y-10787133D01*
X13756618Y-10787132D01*
X13745675Y-10770754D01*
X13745675Y-10770753D01*
X13731747Y-10756825D01*
X13731746Y-10756825D01*
X13715368Y-10745881D01*
X13715367Y-10745881D01*
X13697169Y-10738343D01*
X13697168Y-10738343D01*
X13693000Y-10737514D01*
X13693000Y-10817801D01*
X13692006Y-10816080D01*
X13686420Y-10810494D01*
X13679580Y-10806544D01*
X13671950Y-10804500D01*
X13664050Y-10804500D01*
X13656420Y-10806544D01*
X13649579Y-10810494D01*
X13643994Y-10816080D01*
X13643000Y-10817801D01*
X13643000Y-10737514D01*
X13643000Y-10737514D01*
X13638832Y-10738343D01*
X13638831Y-10738343D01*
X13620633Y-10745881D01*
X13620631Y-10745881D01*
X13604254Y-10756825D01*
X13604253Y-10756825D01*
X13590325Y-10770753D01*
X13590325Y-10770754D01*
X13579381Y-10787132D01*
X13579381Y-10787133D01*
X13571843Y-10805331D01*
X13571843Y-10805332D01*
X13568000Y-10824650D01*
X13568000Y-10841441D01*
X13566031Y-10848145D01*
X13560751Y-10852720D01*
X13553835Y-10853715D01*
X13547480Y-10850812D01*
X13543702Y-10844934D01*
X13543306Y-10843059D01*
X13540343Y-10820557D01*
X13539145Y-10811457D01*
X13528288Y-10756870D01*
X13513883Y-10703111D01*
X13513531Y-10702075D01*
X13501768Y-10667421D01*
X13495993Y-10650409D01*
X13474695Y-10598990D01*
X13468208Y-10585838D01*
X13450079Y-10549074D01*
X13422251Y-10500876D01*
X13422250Y-10500874D01*
X13391330Y-10454599D01*
X13357450Y-10410446D01*
X13351480Y-10403638D01*
X13320753Y-10368601D01*
X13281399Y-10329247D01*
X13280589Y-10328537D01*
X13239554Y-10292550D01*
X13195400Y-10258670D01*
X13149126Y-10227750D01*
X13149124Y-10227748D01*
X13100925Y-10199921D01*
X13051010Y-10175306D01*
X12999591Y-10154007D01*
X12999590Y-10154007D01*
X12946890Y-10136117D01*
X12946888Y-10136117D01*
X12893132Y-10121713D01*
X12893131Y-10121713D01*
X12893130Y-10121712D01*
X12893129Y-10121712D01*
X12893128Y-10121712D01*
X12838544Y-10110855D01*
X12838543Y-10110854D01*
X12783365Y-10103590D01*
X12766009Y-10102453D01*
X12727828Y-10099950D01*
X12727827Y-10099950D01*
X12600696Y-10099950D01*
X12599308Y-10099872D01*
X12598055Y-10099731D01*
X12590273Y-10098854D01*
X12587567Y-10098236D01*
X12579646Y-10095465D01*
X12577144Y-10094260D01*
X12570039Y-10089796D01*
X12567869Y-10088064D01*
X12561935Y-10082131D01*
X12560204Y-10079960D01*
X12557555Y-10075745D01*
X12555740Y-10072855D01*
X12554535Y-10070354D01*
X12553786Y-10068214D01*
X12551764Y-10062433D01*
X12551146Y-10059726D01*
X12550128Y-10050692D01*
X12550050Y-10049304D01*
X12550050Y-9587716D01*
X13102500Y-9587716D01*
X13102500Y-9665000D01*
X13190000Y-9665000D01*
X13187498Y-9671040D01*
X13185000Y-9683598D01*
X13185000Y-9696402D01*
X13187498Y-9708960D01*
X13190000Y-9715000D01*
X13102500Y-9715000D01*
X13102500Y-9792284D01*
X13103140Y-9798237D01*
X13103140Y-9798238D01*
X13108164Y-9811709D01*
X13108165Y-9811709D01*
X13116781Y-9823219D01*
X13116781Y-9823219D01*
X13128291Y-9831835D01*
X13128291Y-9831835D01*
X13141762Y-9836860D01*
X13141763Y-9836860D01*
X13147715Y-9837500D01*
X13147717Y-9837500D01*
X13225000Y-9837500D01*
X13225000Y-9750000D01*
X13231040Y-9752502D01*
X13243598Y-9755000D01*
X13256402Y-9755000D01*
X13268960Y-9752502D01*
X13275000Y-9750000D01*
X13275000Y-9837500D01*
X13352283Y-9837500D01*
X13352284Y-9837500D01*
X13358237Y-9836860D01*
X13358238Y-9836860D01*
X13371709Y-9831835D01*
X13371709Y-9831835D01*
X13383219Y-9823219D01*
X13383219Y-9823219D01*
X13391835Y-9811709D01*
X13391835Y-9811709D01*
X13396860Y-9798238D01*
X13396860Y-9798237D01*
X13397500Y-9792284D01*
X13397500Y-9792283D01*
X13397500Y-9715000D01*
X13310000Y-9715000D01*
X13312502Y-9708960D01*
X13315000Y-9696402D01*
X13315000Y-9683598D01*
X13312502Y-9671040D01*
X13310000Y-9665000D01*
X13397500Y-9665000D01*
X13397500Y-9587717D01*
X13397500Y-9587716D01*
X13396860Y-9581763D01*
X13396860Y-9581762D01*
X13391835Y-9568291D01*
X13391835Y-9568291D01*
X13383219Y-9556781D01*
X13383219Y-9556781D01*
X13371709Y-9548165D01*
X13371709Y-9548165D01*
X13358238Y-9543140D01*
X13358237Y-9543140D01*
X13352284Y-9542500D01*
X13275000Y-9542500D01*
X13275000Y-9630000D01*
X13268960Y-9627498D01*
X13256402Y-9625000D01*
X13243598Y-9625000D01*
X13231040Y-9627498D01*
X13225000Y-9630000D01*
X13225000Y-9542500D01*
X13147715Y-9542500D01*
X13141763Y-9543140D01*
X13141762Y-9543140D01*
X13128291Y-9548165D01*
X13128291Y-9548165D01*
X13116781Y-9556781D01*
X13116781Y-9556781D01*
X13108165Y-9568291D01*
X13108164Y-9568291D01*
X13103140Y-9581762D01*
X13103140Y-9581763D01*
X13102500Y-9587716D01*
X12550050Y-9587716D01*
X12550050Y-9181999D01*
X13101944Y-9181999D01*
X13101944Y-9182001D01*
X13103963Y-9206368D01*
X13103964Y-9206370D01*
X13109966Y-9230073D01*
X13119789Y-9252467D01*
X13133163Y-9272938D01*
X13149724Y-9290928D01*
X13149725Y-9290928D01*
X13169021Y-9305947D01*
X13190527Y-9317586D01*
X13190527Y-9317586D01*
X13213654Y-9325525D01*
X13213654Y-9325525D01*
X13213654Y-9325525D01*
X13237774Y-9329550D01*
X13237774Y-9329550D01*
X13262226Y-9329550D01*
X13262226Y-9329550D01*
X13286345Y-9325525D01*
X13309473Y-9317586D01*
X13330979Y-9305947D01*
X13350275Y-9290928D01*
X13366837Y-9272938D01*
X13380211Y-9252467D01*
X13390034Y-9230074D01*
X13396036Y-9206369D01*
X13396036Y-9206368D01*
X13398056Y-9182001D01*
X13398056Y-9181999D01*
X13396036Y-9157632D01*
X13396036Y-9157630D01*
X13394144Y-9150157D01*
X13390034Y-9133926D01*
X13380211Y-9111533D01*
X13370765Y-9097075D01*
X13366837Y-9091062D01*
X13350276Y-9073072D01*
X13350275Y-9073071D01*
X13330979Y-9058053D01*
X13330979Y-9058053D01*
X13309473Y-9046415D01*
X13309473Y-9046414D01*
X13286346Y-9038475D01*
X13268256Y-9035456D01*
X13262226Y-9034450D01*
X13237774Y-9034450D01*
X13232950Y-9035255D01*
X13213654Y-9038475D01*
X13190527Y-9046414D01*
X13190526Y-9046415D01*
X13169021Y-9058053D01*
X13169021Y-9058053D01*
X13149725Y-9073071D01*
X13149724Y-9073072D01*
X13133163Y-9091062D01*
X13119789Y-9111533D01*
X13109966Y-9133927D01*
X13103964Y-9157630D01*
X13103963Y-9157632D01*
X13101944Y-9181999D01*
X12550050Y-9181999D01*
X12550050Y-8830696D01*
X12550128Y-8829308D01*
X12551146Y-8820273D01*
X12551763Y-8817567D01*
X12554535Y-8809646D01*
X12555740Y-8807145D01*
X12560205Y-8800039D01*
X12561935Y-8797869D01*
X12567869Y-8791935D01*
X12570039Y-8790205D01*
X12577145Y-8785740D01*
X12579646Y-8784535D01*
X12587567Y-8781764D01*
X12590273Y-8781146D01*
X12597286Y-8780356D01*
X12599308Y-8780128D01*
X12600696Y-8780050D01*
X12706900Y-8780050D01*
X12706944Y-8780047D01*
X12727346Y-8780047D01*
X12727346Y-8780047D01*
X12782901Y-8776404D01*
X12782902Y-8776404D01*
X12782904Y-8776404D01*
X12838104Y-8769134D01*
X12892711Y-8758268D01*
X12946489Y-8743852D01*
X12999210Y-8725949D01*
X13050646Y-8704634D01*
X13100577Y-8680000D01*
X13148789Y-8652152D01*
X13195076Y-8621208D01*
X13239239Y-8587303D01*
X13281089Y-8550581D01*
X13320447Y-8511199D01*
X13357143Y-8469326D01*
X13391022Y-8425142D01*
X13421937Y-8378837D01*
X13443933Y-8340701D01*
X13449755Y-8330608D01*
X13449755Y-8330608D01*
X13449755Y-8330607D01*
X13464833Y-8300000D01*
X13569443Y-8300000D01*
X13569443Y-8300000D01*
X13571463Y-8317925D01*
X13571463Y-8317925D01*
X13577421Y-8334952D01*
X13581512Y-8341463D01*
X13587018Y-8350226D01*
X13599774Y-8362982D01*
X13607041Y-8367548D01*
X13610583Y-8369774D01*
X13615048Y-8372579D01*
X13621831Y-8374952D01*
X13632074Y-8378537D01*
X13632075Y-8378537D01*
X13650000Y-8380556D01*
X13650000Y-8380556D01*
X13650000Y-8380556D01*
X13667925Y-8378537D01*
X13667925Y-8378537D01*
X13667925Y-8378537D01*
X13684952Y-8372579D01*
X13700226Y-8362982D01*
X13712982Y-8350226D01*
X13722579Y-8334952D01*
X13728537Y-8317925D01*
X13728537Y-8317925D01*
X13730556Y-8300000D01*
X13730556Y-8300000D01*
X13728537Y-8282075D01*
X13728537Y-8282074D01*
X13727543Y-8279234D01*
X13722579Y-8265048D01*
X13720326Y-8261463D01*
X13718658Y-8258808D01*
X13712982Y-8249774D01*
X13700226Y-8237018D01*
X13699620Y-8236637D01*
X13684952Y-8227421D01*
X13667925Y-8221463D01*
X13667925Y-8221463D01*
X13650000Y-8219443D01*
X13650000Y-8219443D01*
X13632075Y-8221463D01*
X13632074Y-8221463D01*
X13615048Y-8227421D01*
X13599774Y-8237018D01*
X13587018Y-8249774D01*
X13577421Y-8265048D01*
X13571463Y-8282074D01*
X13571463Y-8282075D01*
X13569443Y-8300000D01*
X13464833Y-8300000D01*
X13474359Y-8280661D01*
X13495642Y-8229212D01*
X13513513Y-8176481D01*
X13527896Y-8122694D01*
X13535541Y-8084150D01*
X13538776Y-8077957D01*
X13544846Y-8074496D01*
X13551823Y-8074867D01*
X13557493Y-8078950D01*
X13560026Y-8085174D01*
X13561463Y-8097925D01*
X13561463Y-8097925D01*
X13567421Y-8114952D01*
X13575305Y-8127500D01*
X13577018Y-8130226D01*
X13589774Y-8142982D01*
X13593039Y-8145033D01*
X13603790Y-8151789D01*
X13605048Y-8152579D01*
X13616241Y-8156495D01*
X13622074Y-8158537D01*
X13622075Y-8158537D01*
X13640000Y-8160556D01*
X13640000Y-8160556D01*
X13640000Y-8160556D01*
X13657925Y-8158537D01*
X13657925Y-8158537D01*
X13657925Y-8158537D01*
X13674952Y-8152579D01*
X13690226Y-8142982D01*
X13702982Y-8130226D01*
X13712579Y-8114952D01*
X13718537Y-8097925D01*
X13718537Y-8097925D01*
X13720556Y-8080000D01*
X13720556Y-8080000D01*
X13718537Y-8062075D01*
X13718537Y-8062074D01*
X13717616Y-8059443D01*
X13712579Y-8045048D01*
X13711652Y-8043572D01*
X13706838Y-8035911D01*
X13702982Y-8029774D01*
X13690226Y-8017018D01*
X13688394Y-8015867D01*
X13674952Y-8007421D01*
X13657925Y-8001463D01*
X13657925Y-8001463D01*
X13640000Y-7999443D01*
X13640000Y-7999443D01*
X13622075Y-8001463D01*
X13622074Y-8001463D01*
X13605048Y-8007421D01*
X13589774Y-8017018D01*
X13577018Y-8029774D01*
X13567421Y-8045048D01*
X13565940Y-8049280D01*
X13561868Y-8054957D01*
X13555373Y-8057532D01*
X13548516Y-8056186D01*
X13543476Y-8051347D01*
X13541852Y-8044552D01*
X13541941Y-8043574D01*
X13545965Y-8012875D01*
X13546033Y-8011835D01*
X13547772Y-7985048D01*
X13549399Y-7960000D01*
X14039443Y-7960000D01*
X14039443Y-7960000D01*
X14041463Y-7977925D01*
X14041463Y-7977925D01*
X14047421Y-7994952D01*
X14053841Y-8005170D01*
X14057018Y-8010226D01*
X14069774Y-8022982D01*
X14076950Y-8027491D01*
X14084825Y-8032439D01*
X14085048Y-8032579D01*
X14094666Y-8035944D01*
X14102074Y-8038537D01*
X14102075Y-8038537D01*
X14120000Y-8040556D01*
X14120000Y-8040556D01*
X14120000Y-8040556D01*
X14137925Y-8038537D01*
X14137925Y-8038537D01*
X14137925Y-8038537D01*
X14137926Y-8038537D01*
X14137926Y-8038537D01*
X14155609Y-8032349D01*
X14155685Y-8032564D01*
X14161513Y-8031603D01*
X14164359Y-8032439D01*
X14164390Y-8032349D01*
X14182074Y-8038537D01*
X14182074Y-8038537D01*
X14182074Y-8038537D01*
X14182075Y-8038537D01*
X14182075Y-8038537D01*
X14200000Y-8040556D01*
X14200000Y-8040556D01*
X14200000Y-8040556D01*
X14217925Y-8038537D01*
X14217925Y-8038537D01*
X14217925Y-8038537D01*
X14234952Y-8032579D01*
X14250226Y-8022982D01*
X14262982Y-8010226D01*
X14272579Y-7994952D01*
X14278537Y-7977925D01*
X14278537Y-7977925D01*
X14280556Y-7960000D01*
X14280556Y-7960000D01*
X14278537Y-7942075D01*
X14278537Y-7942074D01*
X14276327Y-7935758D01*
X14272579Y-7925048D01*
X14262982Y-7909774D01*
X14250226Y-7897018D01*
X14240383Y-7890834D01*
X14607189Y-7890834D01*
X14643500Y-7927145D01*
X14658339Y-7912305D01*
X14663145Y-7907500D01*
X14661156Y-7905511D01*
X14688500Y-7905511D01*
X14688500Y-7909489D01*
X14690022Y-7913164D01*
X14692835Y-7915978D01*
X14696511Y-7917500D01*
X14700489Y-7917500D01*
X14704164Y-7915978D01*
X14706978Y-7913164D01*
X14708500Y-7909489D01*
X14708500Y-7907500D01*
X14733855Y-7907500D01*
X14753500Y-7927145D01*
X14768339Y-7912305D01*
X14773145Y-7907500D01*
X14771156Y-7905511D01*
X14798500Y-7905511D01*
X14798500Y-7909489D01*
X14800022Y-7913164D01*
X14802835Y-7915978D01*
X14806511Y-7917500D01*
X14810489Y-7917500D01*
X14814164Y-7915978D01*
X14816978Y-7913164D01*
X14818500Y-7909489D01*
X14818500Y-7907500D01*
X14843855Y-7907500D01*
X14843855Y-7907500D01*
X14863500Y-7927145D01*
X14863500Y-7927145D01*
X14899811Y-7890834D01*
X14898430Y-7889966D01*
X14891179Y-7887429D01*
X14885502Y-7883357D01*
X14883571Y-7879820D01*
X14881034Y-7872570D01*
X14881033Y-7872569D01*
X14880166Y-7871189D01*
X14880166Y-7871189D01*
X14843855Y-7907500D01*
X14818500Y-7907500D01*
X14818500Y-7905511D01*
X14816978Y-7901835D01*
X14814164Y-7899022D01*
X14810489Y-7897500D01*
X14806511Y-7897500D01*
X14802835Y-7899022D01*
X14800022Y-7901835D01*
X14798500Y-7905511D01*
X14771156Y-7905511D01*
X14753500Y-7887855D01*
X14733855Y-7907500D01*
X14708500Y-7907500D01*
X14708500Y-7905511D01*
X14706978Y-7901835D01*
X14704164Y-7899022D01*
X14700489Y-7897500D01*
X14696511Y-7897500D01*
X14692835Y-7899022D01*
X14690022Y-7901835D01*
X14688500Y-7905511D01*
X14661156Y-7905511D01*
X14626834Y-7871189D01*
X14625966Y-7872569D01*
X14625966Y-7872570D01*
X14623429Y-7879820D01*
X14619357Y-7885498D01*
X14615820Y-7887429D01*
X14608570Y-7889966D01*
X14608569Y-7889966D01*
X14607189Y-7890834D01*
X14240383Y-7890834D01*
X14234952Y-7887421D01*
X14217925Y-7881463D01*
X14217925Y-7881463D01*
X14200000Y-7879443D01*
X14200000Y-7879443D01*
X14182075Y-7881463D01*
X14182074Y-7881463D01*
X14164391Y-7887651D01*
X14164315Y-7887436D01*
X14158486Y-7888396D01*
X14155641Y-7887561D01*
X14155609Y-7887651D01*
X14137926Y-7881463D01*
X14137925Y-7881463D01*
X14120000Y-7879443D01*
X14120000Y-7879443D01*
X14102075Y-7881463D01*
X14102074Y-7881463D01*
X14085048Y-7887421D01*
X14069774Y-7897018D01*
X14057018Y-7909774D01*
X14047421Y-7925048D01*
X14041463Y-7942074D01*
X14041463Y-7942075D01*
X14039443Y-7960000D01*
X13549399Y-7960000D01*
X13549574Y-7957315D01*
X13549561Y-7936066D01*
X13549561Y-7936066D01*
X13549559Y-7933620D01*
X13549552Y-7921707D01*
X13549552Y-7921705D01*
X13549499Y-7835834D01*
X14662189Y-7835834D01*
X14662189Y-7835834D01*
X14698500Y-7872145D01*
X14698500Y-7872145D01*
X14734811Y-7835834D01*
X14734810Y-7835834D01*
X14772189Y-7835834D01*
X14772189Y-7835834D01*
X14808500Y-7872145D01*
X14808500Y-7872145D01*
X14844811Y-7835834D01*
X14843430Y-7834966D01*
X14826414Y-7829012D01*
X14808500Y-7826994D01*
X14808500Y-7826994D01*
X14790586Y-7829012D01*
X14790586Y-7829012D01*
X14773570Y-7834966D01*
X14773569Y-7834967D01*
X14772189Y-7835834D01*
X14734810Y-7835834D01*
X14733430Y-7834966D01*
X14716414Y-7829012D01*
X14698500Y-7826994D01*
X14698500Y-7826994D01*
X14680586Y-7829012D01*
X14680586Y-7829012D01*
X14663570Y-7834966D01*
X14663569Y-7834967D01*
X14662189Y-7835834D01*
X13549499Y-7835834D01*
X13549299Y-7510000D01*
X13549293Y-7495651D01*
X13547485Y-7480000D01*
X13839443Y-7480000D01*
X13839443Y-7480000D01*
X13841463Y-7497925D01*
X13841463Y-7497925D01*
X13847421Y-7514952D01*
X13848459Y-7516604D01*
X13857018Y-7530226D01*
X13869774Y-7542982D01*
X13885048Y-7552579D01*
X13902074Y-7558537D01*
X13902075Y-7558537D01*
X13920000Y-7560556D01*
X13920000Y-7560556D01*
X13920000Y-7560556D01*
X13937925Y-7558537D01*
X13937925Y-7558537D01*
X13937925Y-7558537D01*
X13954952Y-7552579D01*
X13970226Y-7542982D01*
X13982982Y-7530226D01*
X13992579Y-7514952D01*
X13998537Y-7497925D01*
X13998793Y-7495650D01*
X14000556Y-7480000D01*
X14000556Y-7480000D01*
X13998537Y-7462075D01*
X13998537Y-7462074D01*
X13992579Y-7445048D01*
X13982982Y-7429774D01*
X13970226Y-7417018D01*
X13962546Y-7412193D01*
X13954952Y-7407421D01*
X13937925Y-7401463D01*
X13937925Y-7401463D01*
X13920000Y-7399443D01*
X13920000Y-7399443D01*
X13902075Y-7401463D01*
X13902074Y-7401463D01*
X13885048Y-7407421D01*
X13869774Y-7417018D01*
X13857018Y-7429774D01*
X13847421Y-7445048D01*
X13841463Y-7462074D01*
X13841463Y-7462075D01*
X13839443Y-7480000D01*
X13547485Y-7480000D01*
X13546000Y-7467142D01*
X13539458Y-7439199D01*
X13537465Y-7433651D01*
X13529754Y-7412193D01*
X13529753Y-7412191D01*
X13517013Y-7386476D01*
X13517013Y-7386476D01*
X13503583Y-7365750D01*
X13501407Y-7362391D01*
X13501406Y-7362391D01*
X13483140Y-7340257D01*
X13483140Y-7340257D01*
X13479537Y-7336792D01*
X13462455Y-7320365D01*
X13462454Y-7320364D01*
X13462454Y-7320364D01*
X13462373Y-7320294D01*
X13462358Y-7320272D01*
X13462198Y-7320118D01*
X13462233Y-7320080D01*
X13458563Y-7314437D01*
X13458524Y-7307451D01*
X13462269Y-7301552D01*
X13468609Y-7298615D01*
X13471326Y-7298510D01*
X13471456Y-7298519D01*
X13471457Y-7298520D01*
X13497993Y-7300417D01*
X13500000Y-7300561D01*
X13500000Y-7300561D01*
X13500000Y-7300561D01*
X13502859Y-7300356D01*
X13528543Y-7298520D01*
X13556505Y-7292437D01*
X13565896Y-7288934D01*
X13567645Y-7288282D01*
X13571978Y-7287500D01*
X15730950Y-7287500D01*
X15737654Y-7289468D01*
G37*
%TD.AperFunction*%
%TD*%
M02*
