%TF.GenerationSoftware,KiCad,Pcbnew,8.0.5*%
%TF.CreationDate,2024-12-27T02:30:00+01:00*%
%TF.ProjectId,walter_remix - C3v2,77616c74-6572-45f7-9265-6d6978202d20,rev?*%
%TF.SameCoordinates,Original*%
%TF.FileFunction,Copper,L1,Top*%
%TF.FilePolarity,Positive*%
%FSLAX45Y45*%
G04 Gerber Fmt 4.5, Leading zero omitted, Abs format (unit mm)*
G04 Created by KiCad (PCBNEW 8.0.5) date 2024-12-27 02:30:00*
%MOMM*%
%LPD*%
G01*
G04 APERTURE LIST*
G04 Aperture macros list*
%AMRoundRect*
0 Rectangle with rounded corners*
0 $1 Rounding radius*
0 $2 $3 $4 $5 $6 $7 $8 $9 X,Y pos of 4 corners*
0 Add a 4 corners polygon primitive as box body*
4,1,4,$2,$3,$4,$5,$6,$7,$8,$9,$2,$3,0*
0 Add four circle primitives for the rounded corners*
1,1,$1+$1,$2,$3*
1,1,$1+$1,$4,$5*
1,1,$1+$1,$6,$7*
1,1,$1+$1,$8,$9*
0 Add four rect primitives between the rounded corners*
20,1,$1+$1,$2,$3,$4,$5,0*
20,1,$1+$1,$4,$5,$6,$7,0*
20,1,$1+$1,$6,$7,$8,$9,0*
20,1,$1+$1,$8,$9,$2,$3,0*%
G04 Aperture macros list end*
%ADD10C,0.100000*%
%ADD11C,0.150000*%
%ADD12C,0.300000*%
%ADD13C,0.400000*%
%TA.AperFunction,HeatsinkPad*%
%ADD14C,0.600000*%
%TD*%
%TA.AperFunction,SMDPad,CuDef*%
%ADD15R,2.900000X2.900000*%
%TD*%
%TA.AperFunction,SMDPad,CuDef*%
%ADD16R,1.500000X0.900000*%
%TD*%
%TA.AperFunction,ComponentPad*%
%ADD17R,1.950000X1.950000*%
%TD*%
%TA.AperFunction,ComponentPad*%
%ADD18C,1.950000*%
%TD*%
%TA.AperFunction,SMDPad,CuDef*%
%ADD19R,0.600000X0.700000*%
%TD*%
%TA.AperFunction,SMDPad,CuDef*%
%ADD20R,0.180000X0.250000*%
%TD*%
%TA.AperFunction,SMDPad,CuDef*%
%ADD21RoundRect,0.100000X-0.130000X-0.100000X0.130000X-0.100000X0.130000X0.100000X-0.130000X0.100000X0*%
%TD*%
%TA.AperFunction,SMDPad,CuDef*%
%ADD22RoundRect,0.100000X0.130000X0.100000X-0.130000X0.100000X-0.130000X-0.100000X0.130000X-0.100000X0*%
%TD*%
%TA.AperFunction,SMDPad,CuDef*%
%ADD23RoundRect,0.100000X0.100000X-0.130000X0.100000X0.130000X-0.100000X0.130000X-0.100000X-0.130000X0*%
%TD*%
%TA.AperFunction,SMDPad,CuDef*%
%ADD24RoundRect,0.100000X-0.100000X0.130000X-0.100000X-0.130000X0.100000X-0.130000X0.100000X0.130000X0*%
%TD*%
%TA.AperFunction,SMDPad,CuDef*%
%ADD25RoundRect,0.250000X-2.050000X-0.300000X2.050000X-0.300000X2.050000X0.300000X-2.050000X0.300000X0*%
%TD*%
%TA.AperFunction,SMDPad,CuDef*%
%ADD26RoundRect,0.250000X-2.025000X-2.375000X2.025000X-2.375000X2.025000X2.375000X-2.025000X2.375000X0*%
%TD*%
%TA.AperFunction,SMDPad,CuDef*%
%ADD27RoundRect,0.250002X-4.449998X-5.149998X4.449998X-5.149998X4.449998X5.149998X-4.449998X5.149998X0*%
%TD*%
%TA.AperFunction,SMDPad,CuDef*%
%ADD28R,0.400000X0.500000*%
%TD*%
%TA.AperFunction,SMDPad,CuDef*%
%ADD29R,1.050000X1.600000*%
%TD*%
%TA.AperFunction,SMDPad,CuDef*%
%ADD30R,0.285000X0.920000*%
%TD*%
%TA.AperFunction,SMDPad,CuDef*%
%ADD31R,1.000000X2.000000*%
%TD*%
%TA.AperFunction,ComponentPad*%
%ADD32O,1.000000X1.600000*%
%TD*%
%TA.AperFunction,ComponentPad*%
%ADD33O,1.000000X2.100000*%
%TD*%
%TA.AperFunction,SMDPad,CuDef*%
%ADD34RoundRect,0.150000X-0.150000X-0.500000X0.150000X-0.500000X0.150000X0.500000X-0.150000X0.500000X0*%
%TD*%
%TA.AperFunction,SMDPad,CuDef*%
%ADD35RoundRect,0.075000X-0.075000X-0.575000X0.075000X-0.575000X0.075000X0.575000X-0.075000X0.575000X0*%
%TD*%
%TA.AperFunction,SMDPad,CuDef*%
%ADD36C,0.200000*%
%TD*%
%TA.AperFunction,SMDPad,CuDef*%
%ADD37R,2.000000X1.000000*%
%TD*%
%TA.AperFunction,SMDPad,CuDef*%
%ADD38RoundRect,0.500000X-0.500000X-0.500000X0.500000X-0.500000X0.500000X0.500000X-0.500000X0.500000X0*%
%TD*%
%TA.AperFunction,ViaPad*%
%ADD39C,0.600000*%
%TD*%
%TA.AperFunction,Conductor*%
%ADD40C,0.250000*%
%TD*%
%TA.AperFunction,Conductor*%
%ADD41C,0.400000*%
%TD*%
%TA.AperFunction,Conductor*%
%ADD42C,0.500000*%
%TD*%
%TA.AperFunction,Conductor*%
%ADD43C,0.600000*%
%TD*%
G04 APERTURE END LIST*
D10*
D11*
X17700220Y-16600720D02*
X28500220Y-16600720D01*
X28500220Y-19800720D01*
X17700220Y-19800720D01*
X17700220Y-16600720D01*
D10*
D11*
X1000000Y-1000000D02*
X28700220Y-1000000D01*
X28700220Y-20000720D01*
X1000000Y-20000720D01*
X1000000Y-1000000D01*
D10*
D11*
X1200000Y-1200000D02*
X28500220Y-1200000D01*
X28500220Y-19800720D01*
X1200000Y-19800720D01*
X1200000Y-1200000D01*
D10*
D11*
X6000000Y-1200000D02*
X6000000Y-1000000D01*
D10*
D11*
X11000000Y-1200000D02*
X11000000Y-1000000D01*
D10*
D11*
X16000000Y-1200000D02*
X16000000Y-1000000D01*
D10*
D11*
X21000000Y-1200000D02*
X21000000Y-1000000D01*
D10*
D11*
X26000000Y-1200000D02*
X26000000Y-1000000D01*
D10*
D11*
X3608916Y-1159360D02*
X3534630Y-1159360D01*
X3571773Y-1159360D02*
X3571773Y-1029360D01*
X3571773Y-1029360D02*
X3559392Y-1047932D01*
X3559392Y-1047932D02*
X3547011Y-1060313D01*
X3547011Y-1060313D02*
X3534630Y-1066503D01*
D10*
D11*
X8534630Y-1041741D02*
X8540821Y-1035551D01*
X8540821Y-1035551D02*
X8553202Y-1029360D01*
X8553202Y-1029360D02*
X8584154Y-1029360D01*
X8584154Y-1029360D02*
X8596535Y-1035551D01*
X8596535Y-1035551D02*
X8602726Y-1041741D01*
X8602726Y-1041741D02*
X8608916Y-1054122D01*
X8608916Y-1054122D02*
X8608916Y-1066503D01*
X8608916Y-1066503D02*
X8602726Y-1085075D01*
X8602726Y-1085075D02*
X8528440Y-1159360D01*
X8528440Y-1159360D02*
X8608916Y-1159360D01*
D10*
D11*
X13528440Y-1029360D02*
X13608916Y-1029360D01*
X13608916Y-1029360D02*
X13565583Y-1078884D01*
X13565583Y-1078884D02*
X13584154Y-1078884D01*
X13584154Y-1078884D02*
X13596535Y-1085075D01*
X13596535Y-1085075D02*
X13602725Y-1091265D01*
X13602725Y-1091265D02*
X13608916Y-1103646D01*
X13608916Y-1103646D02*
X13608916Y-1134599D01*
X13608916Y-1134599D02*
X13602725Y-1146980D01*
X13602725Y-1146980D02*
X13596535Y-1153170D01*
X13596535Y-1153170D02*
X13584154Y-1159360D01*
X13584154Y-1159360D02*
X13547011Y-1159360D01*
X13547011Y-1159360D02*
X13534630Y-1153170D01*
X13534630Y-1153170D02*
X13528440Y-1146980D01*
D10*
D11*
X18596535Y-1072694D02*
X18596535Y-1159360D01*
X18565583Y-1023170D02*
X18534630Y-1116027D01*
X18534630Y-1116027D02*
X18615106Y-1116027D01*
D10*
D11*
X23602725Y-1029360D02*
X23540821Y-1029360D01*
X23540821Y-1029360D02*
X23534630Y-1091265D01*
X23534630Y-1091265D02*
X23540821Y-1085075D01*
X23540821Y-1085075D02*
X23553202Y-1078884D01*
X23553202Y-1078884D02*
X23584154Y-1078884D01*
X23584154Y-1078884D02*
X23596535Y-1085075D01*
X23596535Y-1085075D02*
X23602725Y-1091265D01*
X23602725Y-1091265D02*
X23608916Y-1103646D01*
X23608916Y-1103646D02*
X23608916Y-1134599D01*
X23608916Y-1134599D02*
X23602725Y-1146980D01*
X23602725Y-1146980D02*
X23596535Y-1153170D01*
X23596535Y-1153170D02*
X23584154Y-1159360D01*
X23584154Y-1159360D02*
X23553202Y-1159360D01*
X23553202Y-1159360D02*
X23540821Y-1153170D01*
X23540821Y-1153170D02*
X23534630Y-1146980D01*
D10*
D11*
X28596535Y-1029360D02*
X28571773Y-1029360D01*
X28571773Y-1029360D02*
X28559392Y-1035551D01*
X28559392Y-1035551D02*
X28553202Y-1041741D01*
X28553202Y-1041741D02*
X28540821Y-1060313D01*
X28540821Y-1060313D02*
X28534630Y-1085075D01*
X28534630Y-1085075D02*
X28534630Y-1134599D01*
X28534630Y-1134599D02*
X28540821Y-1146980D01*
X28540821Y-1146980D02*
X28547011Y-1153170D01*
X28547011Y-1153170D02*
X28559392Y-1159360D01*
X28559392Y-1159360D02*
X28584154Y-1159360D01*
X28584154Y-1159360D02*
X28596535Y-1153170D01*
X28596535Y-1153170D02*
X28602725Y-1146980D01*
X28602725Y-1146980D02*
X28608916Y-1134599D01*
X28608916Y-1134599D02*
X28608916Y-1103646D01*
X28608916Y-1103646D02*
X28602725Y-1091265D01*
X28602725Y-1091265D02*
X28596535Y-1085075D01*
X28596535Y-1085075D02*
X28584154Y-1078884D01*
X28584154Y-1078884D02*
X28559392Y-1078884D01*
X28559392Y-1078884D02*
X28547011Y-1085075D01*
X28547011Y-1085075D02*
X28540821Y-1091265D01*
X28540821Y-1091265D02*
X28534630Y-1103646D01*
D10*
D11*
X6000000Y-19800720D02*
X6000000Y-20000720D01*
D10*
D11*
X11000000Y-19800720D02*
X11000000Y-20000720D01*
D10*
D11*
X16000000Y-19800720D02*
X16000000Y-20000720D01*
D10*
D11*
X21000000Y-19800720D02*
X21000000Y-20000720D01*
D10*
D11*
X26000000Y-19800720D02*
X26000000Y-20000720D01*
D10*
D11*
X3608916Y-19960080D02*
X3534630Y-19960080D01*
X3571773Y-19960080D02*
X3571773Y-19830080D01*
X3571773Y-19830080D02*
X3559392Y-19848652D01*
X3559392Y-19848652D02*
X3547011Y-19861033D01*
X3547011Y-19861033D02*
X3534630Y-19867223D01*
D10*
D11*
X8534630Y-19842461D02*
X8540821Y-19836271D01*
X8540821Y-19836271D02*
X8553202Y-19830080D01*
X8553202Y-19830080D02*
X8584154Y-19830080D01*
X8584154Y-19830080D02*
X8596535Y-19836271D01*
X8596535Y-19836271D02*
X8602726Y-19842461D01*
X8602726Y-19842461D02*
X8608916Y-19854842D01*
X8608916Y-19854842D02*
X8608916Y-19867223D01*
X8608916Y-19867223D02*
X8602726Y-19885795D01*
X8602726Y-19885795D02*
X8528440Y-19960080D01*
X8528440Y-19960080D02*
X8608916Y-19960080D01*
D10*
D11*
X13528440Y-19830080D02*
X13608916Y-19830080D01*
X13608916Y-19830080D02*
X13565583Y-19879604D01*
X13565583Y-19879604D02*
X13584154Y-19879604D01*
X13584154Y-19879604D02*
X13596535Y-19885795D01*
X13596535Y-19885795D02*
X13602725Y-19891985D01*
X13602725Y-19891985D02*
X13608916Y-19904366D01*
X13608916Y-19904366D02*
X13608916Y-19935319D01*
X13608916Y-19935319D02*
X13602725Y-19947700D01*
X13602725Y-19947700D02*
X13596535Y-19953890D01*
X13596535Y-19953890D02*
X13584154Y-19960080D01*
X13584154Y-19960080D02*
X13547011Y-19960080D01*
X13547011Y-19960080D02*
X13534630Y-19953890D01*
X13534630Y-19953890D02*
X13528440Y-19947700D01*
D10*
D11*
X18596535Y-19873414D02*
X18596535Y-19960080D01*
X18565583Y-19823890D02*
X18534630Y-19916747D01*
X18534630Y-19916747D02*
X18615106Y-19916747D01*
D10*
D11*
X23602725Y-19830080D02*
X23540821Y-19830080D01*
X23540821Y-19830080D02*
X23534630Y-19891985D01*
X23534630Y-19891985D02*
X23540821Y-19885795D01*
X23540821Y-19885795D02*
X23553202Y-19879604D01*
X23553202Y-19879604D02*
X23584154Y-19879604D01*
X23584154Y-19879604D02*
X23596535Y-19885795D01*
X23596535Y-19885795D02*
X23602725Y-19891985D01*
X23602725Y-19891985D02*
X23608916Y-19904366D01*
X23608916Y-19904366D02*
X23608916Y-19935319D01*
X23608916Y-19935319D02*
X23602725Y-19947700D01*
X23602725Y-19947700D02*
X23596535Y-19953890D01*
X23596535Y-19953890D02*
X23584154Y-19960080D01*
X23584154Y-19960080D02*
X23553202Y-19960080D01*
X23553202Y-19960080D02*
X23540821Y-19953890D01*
X23540821Y-19953890D02*
X23534630Y-19947700D01*
D10*
D11*
X28596535Y-19830080D02*
X28571773Y-19830080D01*
X28571773Y-19830080D02*
X28559392Y-19836271D01*
X28559392Y-19836271D02*
X28553202Y-19842461D01*
X28553202Y-19842461D02*
X28540821Y-19861033D01*
X28540821Y-19861033D02*
X28534630Y-19885795D01*
X28534630Y-19885795D02*
X28534630Y-19935319D01*
X28534630Y-19935319D02*
X28540821Y-19947700D01*
X28540821Y-19947700D02*
X28547011Y-19953890D01*
X28547011Y-19953890D02*
X28559392Y-19960080D01*
X28559392Y-19960080D02*
X28584154Y-19960080D01*
X28584154Y-19960080D02*
X28596535Y-19953890D01*
X28596535Y-19953890D02*
X28602725Y-19947700D01*
X28602725Y-19947700D02*
X28608916Y-19935319D01*
X28608916Y-19935319D02*
X28608916Y-19904366D01*
X28608916Y-19904366D02*
X28602725Y-19891985D01*
X28602725Y-19891985D02*
X28596535Y-19885795D01*
X28596535Y-19885795D02*
X28584154Y-19879604D01*
X28584154Y-19879604D02*
X28559392Y-19879604D01*
X28559392Y-19879604D02*
X28547011Y-19885795D01*
X28547011Y-19885795D02*
X28540821Y-19891985D01*
X28540821Y-19891985D02*
X28534630Y-19904366D01*
D10*
D11*
X1000000Y-6000000D02*
X1200000Y-6000000D01*
D10*
D11*
X1000000Y-11000000D02*
X1200000Y-11000000D01*
D10*
D11*
X1000000Y-16000000D02*
X1200000Y-16000000D01*
D10*
D11*
X1069048Y-3522218D02*
X1130952Y-3522218D01*
X1056667Y-3559360D02*
X1100000Y-3429360D01*
X1100000Y-3429360D02*
X1143333Y-3559360D01*
D10*
D11*
X1109286Y-8491265D02*
X1127857Y-8497456D01*
X1127857Y-8497456D02*
X1134048Y-8503646D01*
X1134048Y-8503646D02*
X1140238Y-8516027D01*
X1140238Y-8516027D02*
X1140238Y-8534599D01*
X1140238Y-8534599D02*
X1134048Y-8546980D01*
X1134048Y-8546980D02*
X1127857Y-8553170D01*
X1127857Y-8553170D02*
X1115476Y-8559360D01*
X1115476Y-8559360D02*
X1065952Y-8559360D01*
X1065952Y-8559360D02*
X1065952Y-8429360D01*
X1065952Y-8429360D02*
X1109286Y-8429360D01*
X1109286Y-8429360D02*
X1121667Y-8435551D01*
X1121667Y-8435551D02*
X1127857Y-8441741D01*
X1127857Y-8441741D02*
X1134048Y-8454122D01*
X1134048Y-8454122D02*
X1134048Y-8466503D01*
X1134048Y-8466503D02*
X1127857Y-8478884D01*
X1127857Y-8478884D02*
X1121667Y-8485075D01*
X1121667Y-8485075D02*
X1109286Y-8491265D01*
X1109286Y-8491265D02*
X1065952Y-8491265D01*
D10*
D11*
X1140238Y-13546979D02*
X1134048Y-13553170D01*
X1134048Y-13553170D02*
X1115476Y-13559360D01*
X1115476Y-13559360D02*
X1103095Y-13559360D01*
X1103095Y-13559360D02*
X1084524Y-13553170D01*
X1084524Y-13553170D02*
X1072143Y-13540789D01*
X1072143Y-13540789D02*
X1065952Y-13528408D01*
X1065952Y-13528408D02*
X1059762Y-13503646D01*
X1059762Y-13503646D02*
X1059762Y-13485075D01*
X1059762Y-13485075D02*
X1065952Y-13460313D01*
X1065952Y-13460313D02*
X1072143Y-13447932D01*
X1072143Y-13447932D02*
X1084524Y-13435551D01*
X1084524Y-13435551D02*
X1103095Y-13429360D01*
X1103095Y-13429360D02*
X1115476Y-13429360D01*
X1115476Y-13429360D02*
X1134048Y-13435551D01*
X1134048Y-13435551D02*
X1140238Y-13441741D01*
D10*
D11*
X1065952Y-18559360D02*
X1065952Y-18429360D01*
X1065952Y-18429360D02*
X1096905Y-18429360D01*
X1096905Y-18429360D02*
X1115476Y-18435551D01*
X1115476Y-18435551D02*
X1127857Y-18447932D01*
X1127857Y-18447932D02*
X1134048Y-18460313D01*
X1134048Y-18460313D02*
X1140238Y-18485075D01*
X1140238Y-18485075D02*
X1140238Y-18503646D01*
X1140238Y-18503646D02*
X1134048Y-18528408D01*
X1134048Y-18528408D02*
X1127857Y-18540789D01*
X1127857Y-18540789D02*
X1115476Y-18553170D01*
X1115476Y-18553170D02*
X1096905Y-18559360D01*
X1096905Y-18559360D02*
X1065952Y-18559360D01*
D10*
D11*
X28700220Y-6000000D02*
X28500220Y-6000000D01*
D10*
D11*
X28700220Y-11000000D02*
X28500220Y-11000000D01*
D10*
D11*
X28700220Y-16000000D02*
X28500220Y-16000000D01*
D10*
D11*
X28569268Y-3522218D02*
X28631172Y-3522218D01*
X28556887Y-3559360D02*
X28600220Y-3429360D01*
X28600220Y-3429360D02*
X28643553Y-3559360D01*
D10*
D11*
X28609506Y-8491265D02*
X28628077Y-8497456D01*
X28628077Y-8497456D02*
X28634268Y-8503646D01*
X28634268Y-8503646D02*
X28640458Y-8516027D01*
X28640458Y-8516027D02*
X28640458Y-8534599D01*
X28640458Y-8534599D02*
X28634268Y-8546980D01*
X28634268Y-8546980D02*
X28628077Y-8553170D01*
X28628077Y-8553170D02*
X28615696Y-8559360D01*
X28615696Y-8559360D02*
X28566172Y-8559360D01*
X28566172Y-8559360D02*
X28566172Y-8429360D01*
X28566172Y-8429360D02*
X28609506Y-8429360D01*
X28609506Y-8429360D02*
X28621887Y-8435551D01*
X28621887Y-8435551D02*
X28628077Y-8441741D01*
X28628077Y-8441741D02*
X28634268Y-8454122D01*
X28634268Y-8454122D02*
X28634268Y-8466503D01*
X28634268Y-8466503D02*
X28628077Y-8478884D01*
X28628077Y-8478884D02*
X28621887Y-8485075D01*
X28621887Y-8485075D02*
X28609506Y-8491265D01*
X28609506Y-8491265D02*
X28566172Y-8491265D01*
D10*
D11*
X28640458Y-13546979D02*
X28634268Y-13553170D01*
X28634268Y-13553170D02*
X28615696Y-13559360D01*
X28615696Y-13559360D02*
X28603315Y-13559360D01*
X28603315Y-13559360D02*
X28584744Y-13553170D01*
X28584744Y-13553170D02*
X28572363Y-13540789D01*
X28572363Y-13540789D02*
X28566172Y-13528408D01*
X28566172Y-13528408D02*
X28559982Y-13503646D01*
X28559982Y-13503646D02*
X28559982Y-13485075D01*
X28559982Y-13485075D02*
X28566172Y-13460313D01*
X28566172Y-13460313D02*
X28572363Y-13447932D01*
X28572363Y-13447932D02*
X28584744Y-13435551D01*
X28584744Y-13435551D02*
X28603315Y-13429360D01*
X28603315Y-13429360D02*
X28615696Y-13429360D01*
X28615696Y-13429360D02*
X28634268Y-13435551D01*
X28634268Y-13435551D02*
X28640458Y-13441741D01*
D10*
D11*
X28566172Y-18559360D02*
X28566172Y-18429360D01*
X28566172Y-18429360D02*
X28597125Y-18429360D01*
X28597125Y-18429360D02*
X28615696Y-18435551D01*
X28615696Y-18435551D02*
X28628077Y-18447932D01*
X28628077Y-18447932D02*
X28634268Y-18460313D01*
X28634268Y-18460313D02*
X28640458Y-18485075D01*
X28640458Y-18485075D02*
X28640458Y-18503646D01*
X28640458Y-18503646D02*
X28634268Y-18528408D01*
X28634268Y-18528408D02*
X28628077Y-18540789D01*
X28628077Y-18540789D02*
X28615696Y-18553170D01*
X28615696Y-18553170D02*
X28597125Y-18559360D01*
X28597125Y-18559360D02*
X28566172Y-18559360D01*
D10*
D11*
X20045803Y-19379333D02*
X20045803Y-19229333D01*
X20045803Y-19229333D02*
X20081517Y-19229333D01*
X20081517Y-19229333D02*
X20102946Y-19236476D01*
X20102946Y-19236476D02*
X20117231Y-19250761D01*
X20117231Y-19250761D02*
X20124374Y-19265047D01*
X20124374Y-19265047D02*
X20131517Y-19293619D01*
X20131517Y-19293619D02*
X20131517Y-19315047D01*
X20131517Y-19315047D02*
X20124374Y-19343619D01*
X20124374Y-19343619D02*
X20117231Y-19357904D01*
X20117231Y-19357904D02*
X20102946Y-19372190D01*
X20102946Y-19372190D02*
X20081517Y-19379333D01*
X20081517Y-19379333D02*
X20045803Y-19379333D01*
X20260088Y-19379333D02*
X20260088Y-19300761D01*
X20260088Y-19300761D02*
X20252946Y-19286476D01*
X20252946Y-19286476D02*
X20238660Y-19279333D01*
X20238660Y-19279333D02*
X20210088Y-19279333D01*
X20210088Y-19279333D02*
X20195803Y-19286476D01*
X20260088Y-19372190D02*
X20245803Y-19379333D01*
X20245803Y-19379333D02*
X20210088Y-19379333D01*
X20210088Y-19379333D02*
X20195803Y-19372190D01*
X20195803Y-19372190D02*
X20188660Y-19357904D01*
X20188660Y-19357904D02*
X20188660Y-19343619D01*
X20188660Y-19343619D02*
X20195803Y-19329333D01*
X20195803Y-19329333D02*
X20210088Y-19322190D01*
X20210088Y-19322190D02*
X20245803Y-19322190D01*
X20245803Y-19322190D02*
X20260088Y-19315047D01*
X20310088Y-19279333D02*
X20367231Y-19279333D01*
X20331517Y-19229333D02*
X20331517Y-19357904D01*
X20331517Y-19357904D02*
X20338660Y-19372190D01*
X20338660Y-19372190D02*
X20352946Y-19379333D01*
X20352946Y-19379333D02*
X20367231Y-19379333D01*
X20474374Y-19372190D02*
X20460088Y-19379333D01*
X20460088Y-19379333D02*
X20431517Y-19379333D01*
X20431517Y-19379333D02*
X20417231Y-19372190D01*
X20417231Y-19372190D02*
X20410088Y-19357904D01*
X20410088Y-19357904D02*
X20410088Y-19300761D01*
X20410088Y-19300761D02*
X20417231Y-19286476D01*
X20417231Y-19286476D02*
X20431517Y-19279333D01*
X20431517Y-19279333D02*
X20460088Y-19279333D01*
X20460088Y-19279333D02*
X20474374Y-19286476D01*
X20474374Y-19286476D02*
X20481517Y-19300761D01*
X20481517Y-19300761D02*
X20481517Y-19315047D01*
X20481517Y-19315047D02*
X20410088Y-19329333D01*
X20545803Y-19365047D02*
X20552946Y-19372190D01*
X20552946Y-19372190D02*
X20545803Y-19379333D01*
X20545803Y-19379333D02*
X20538660Y-19372190D01*
X20538660Y-19372190D02*
X20545803Y-19365047D01*
X20545803Y-19365047D02*
X20545803Y-19379333D01*
X20545803Y-19286476D02*
X20552946Y-19293619D01*
X20552946Y-19293619D02*
X20545803Y-19300761D01*
X20545803Y-19300761D02*
X20538660Y-19293619D01*
X20538660Y-19293619D02*
X20545803Y-19286476D01*
X20545803Y-19286476D02*
X20545803Y-19300761D01*
D10*
D11*
X17700220Y-19450720D02*
X28500220Y-19450720D01*
D10*
D11*
X17845803Y-19659333D02*
X17845803Y-19509333D01*
X17931517Y-19659333D02*
X17867231Y-19573619D01*
X17931517Y-19509333D02*
X17845803Y-19595047D01*
X17995803Y-19659333D02*
X17995803Y-19559333D01*
X17995803Y-19509333D02*
X17988660Y-19516476D01*
X17988660Y-19516476D02*
X17995803Y-19523619D01*
X17995803Y-19523619D02*
X18002946Y-19516476D01*
X18002946Y-19516476D02*
X17995803Y-19509333D01*
X17995803Y-19509333D02*
X17995803Y-19523619D01*
X18152946Y-19645047D02*
X18145803Y-19652190D01*
X18145803Y-19652190D02*
X18124374Y-19659333D01*
X18124374Y-19659333D02*
X18110088Y-19659333D01*
X18110088Y-19659333D02*
X18088660Y-19652190D01*
X18088660Y-19652190D02*
X18074374Y-19637904D01*
X18074374Y-19637904D02*
X18067231Y-19623619D01*
X18067231Y-19623619D02*
X18060088Y-19595047D01*
X18060088Y-19595047D02*
X18060088Y-19573619D01*
X18060088Y-19573619D02*
X18067231Y-19545047D01*
X18067231Y-19545047D02*
X18074374Y-19530761D01*
X18074374Y-19530761D02*
X18088660Y-19516476D01*
X18088660Y-19516476D02*
X18110088Y-19509333D01*
X18110088Y-19509333D02*
X18124374Y-19509333D01*
X18124374Y-19509333D02*
X18145803Y-19516476D01*
X18145803Y-19516476D02*
X18152946Y-19523619D01*
X18281517Y-19659333D02*
X18281517Y-19580761D01*
X18281517Y-19580761D02*
X18274374Y-19566476D01*
X18274374Y-19566476D02*
X18260088Y-19559333D01*
X18260088Y-19559333D02*
X18231517Y-19559333D01*
X18231517Y-19559333D02*
X18217231Y-19566476D01*
X18281517Y-19652190D02*
X18267231Y-19659333D01*
X18267231Y-19659333D02*
X18231517Y-19659333D01*
X18231517Y-19659333D02*
X18217231Y-19652190D01*
X18217231Y-19652190D02*
X18210088Y-19637904D01*
X18210088Y-19637904D02*
X18210088Y-19623619D01*
X18210088Y-19623619D02*
X18217231Y-19609333D01*
X18217231Y-19609333D02*
X18231517Y-19602190D01*
X18231517Y-19602190D02*
X18267231Y-19602190D01*
X18267231Y-19602190D02*
X18281517Y-19595047D01*
X18417231Y-19659333D02*
X18417231Y-19509333D01*
X18417231Y-19652190D02*
X18402946Y-19659333D01*
X18402946Y-19659333D02*
X18374374Y-19659333D01*
X18374374Y-19659333D02*
X18360088Y-19652190D01*
X18360088Y-19652190D02*
X18352946Y-19645047D01*
X18352946Y-19645047D02*
X18345803Y-19630761D01*
X18345803Y-19630761D02*
X18345803Y-19587904D01*
X18345803Y-19587904D02*
X18352946Y-19573619D01*
X18352946Y-19573619D02*
X18360088Y-19566476D01*
X18360088Y-19566476D02*
X18374374Y-19559333D01*
X18374374Y-19559333D02*
X18402946Y-19559333D01*
X18402946Y-19559333D02*
X18417231Y-19566476D01*
X18602946Y-19580761D02*
X18652946Y-19580761D01*
X18674374Y-19659333D02*
X18602946Y-19659333D01*
X18602946Y-19659333D02*
X18602946Y-19509333D01*
X18602946Y-19509333D02*
X18674374Y-19509333D01*
X18738660Y-19645047D02*
X18745803Y-19652190D01*
X18745803Y-19652190D02*
X18738660Y-19659333D01*
X18738660Y-19659333D02*
X18731517Y-19652190D01*
X18731517Y-19652190D02*
X18738660Y-19645047D01*
X18738660Y-19645047D02*
X18738660Y-19659333D01*
X18810088Y-19659333D02*
X18810088Y-19509333D01*
X18810088Y-19509333D02*
X18845803Y-19509333D01*
X18845803Y-19509333D02*
X18867231Y-19516476D01*
X18867231Y-19516476D02*
X18881517Y-19530761D01*
X18881517Y-19530761D02*
X18888660Y-19545047D01*
X18888660Y-19545047D02*
X18895803Y-19573619D01*
X18895803Y-19573619D02*
X18895803Y-19595047D01*
X18895803Y-19595047D02*
X18888660Y-19623619D01*
X18888660Y-19623619D02*
X18881517Y-19637904D01*
X18881517Y-19637904D02*
X18867231Y-19652190D01*
X18867231Y-19652190D02*
X18845803Y-19659333D01*
X18845803Y-19659333D02*
X18810088Y-19659333D01*
X18960088Y-19645047D02*
X18967231Y-19652190D01*
X18967231Y-19652190D02*
X18960088Y-19659333D01*
X18960088Y-19659333D02*
X18952946Y-19652190D01*
X18952946Y-19652190D02*
X18960088Y-19645047D01*
X18960088Y-19645047D02*
X18960088Y-19659333D01*
X19024374Y-19616476D02*
X19095803Y-19616476D01*
X19010089Y-19659333D02*
X19060089Y-19509333D01*
X19060089Y-19509333D02*
X19110089Y-19659333D01*
X19160088Y-19645047D02*
X19167231Y-19652190D01*
X19167231Y-19652190D02*
X19160088Y-19659333D01*
X19160088Y-19659333D02*
X19152946Y-19652190D01*
X19152946Y-19652190D02*
X19160088Y-19645047D01*
X19160088Y-19645047D02*
X19160088Y-19659333D01*
X19367231Y-19573619D02*
X19352946Y-19566476D01*
X19352946Y-19566476D02*
X19345803Y-19559333D01*
X19345803Y-19559333D02*
X19338660Y-19545047D01*
X19338660Y-19545047D02*
X19338660Y-19537904D01*
X19338660Y-19537904D02*
X19345803Y-19523619D01*
X19345803Y-19523619D02*
X19352946Y-19516476D01*
X19352946Y-19516476D02*
X19367231Y-19509333D01*
X19367231Y-19509333D02*
X19395803Y-19509333D01*
X19395803Y-19509333D02*
X19410089Y-19516476D01*
X19410089Y-19516476D02*
X19417231Y-19523619D01*
X19417231Y-19523619D02*
X19424374Y-19537904D01*
X19424374Y-19537904D02*
X19424374Y-19545047D01*
X19424374Y-19545047D02*
X19417231Y-19559333D01*
X19417231Y-19559333D02*
X19410089Y-19566476D01*
X19410089Y-19566476D02*
X19395803Y-19573619D01*
X19395803Y-19573619D02*
X19367231Y-19573619D01*
X19367231Y-19573619D02*
X19352946Y-19580761D01*
X19352946Y-19580761D02*
X19345803Y-19587904D01*
X19345803Y-19587904D02*
X19338660Y-19602190D01*
X19338660Y-19602190D02*
X19338660Y-19630761D01*
X19338660Y-19630761D02*
X19345803Y-19645047D01*
X19345803Y-19645047D02*
X19352946Y-19652190D01*
X19352946Y-19652190D02*
X19367231Y-19659333D01*
X19367231Y-19659333D02*
X19395803Y-19659333D01*
X19395803Y-19659333D02*
X19410089Y-19652190D01*
X19410089Y-19652190D02*
X19417231Y-19645047D01*
X19417231Y-19645047D02*
X19424374Y-19630761D01*
X19424374Y-19630761D02*
X19424374Y-19602190D01*
X19424374Y-19602190D02*
X19417231Y-19587904D01*
X19417231Y-19587904D02*
X19410089Y-19580761D01*
X19410089Y-19580761D02*
X19395803Y-19573619D01*
X19488660Y-19645047D02*
X19495803Y-19652190D01*
X19495803Y-19652190D02*
X19488660Y-19659333D01*
X19488660Y-19659333D02*
X19481517Y-19652190D01*
X19481517Y-19652190D02*
X19488660Y-19645047D01*
X19488660Y-19645047D02*
X19488660Y-19659333D01*
X19588660Y-19509333D02*
X19602946Y-19509333D01*
X19602946Y-19509333D02*
X19617231Y-19516476D01*
X19617231Y-19516476D02*
X19624374Y-19523619D01*
X19624374Y-19523619D02*
X19631517Y-19537904D01*
X19631517Y-19537904D02*
X19638660Y-19566476D01*
X19638660Y-19566476D02*
X19638660Y-19602190D01*
X19638660Y-19602190D02*
X19631517Y-19630761D01*
X19631517Y-19630761D02*
X19624374Y-19645047D01*
X19624374Y-19645047D02*
X19617231Y-19652190D01*
X19617231Y-19652190D02*
X19602946Y-19659333D01*
X19602946Y-19659333D02*
X19588660Y-19659333D01*
X19588660Y-19659333D02*
X19574374Y-19652190D01*
X19574374Y-19652190D02*
X19567231Y-19645047D01*
X19567231Y-19645047D02*
X19560088Y-19630761D01*
X19560088Y-19630761D02*
X19552946Y-19602190D01*
X19552946Y-19602190D02*
X19552946Y-19566476D01*
X19552946Y-19566476D02*
X19560088Y-19537904D01*
X19560088Y-19537904D02*
X19567231Y-19523619D01*
X19567231Y-19523619D02*
X19574374Y-19516476D01*
X19574374Y-19516476D02*
X19588660Y-19509333D01*
X19702946Y-19645047D02*
X19710088Y-19652190D01*
X19710088Y-19652190D02*
X19702946Y-19659333D01*
X19702946Y-19659333D02*
X19695803Y-19652190D01*
X19695803Y-19652190D02*
X19702946Y-19645047D01*
X19702946Y-19645047D02*
X19702946Y-19659333D01*
X19845803Y-19509333D02*
X19774374Y-19509333D01*
X19774374Y-19509333D02*
X19767231Y-19580761D01*
X19767231Y-19580761D02*
X19774374Y-19573619D01*
X19774374Y-19573619D02*
X19788660Y-19566476D01*
X19788660Y-19566476D02*
X19824374Y-19566476D01*
X19824374Y-19566476D02*
X19838660Y-19573619D01*
X19838660Y-19573619D02*
X19845803Y-19580761D01*
X19845803Y-19580761D02*
X19852946Y-19595047D01*
X19852946Y-19595047D02*
X19852946Y-19630761D01*
X19852946Y-19630761D02*
X19845803Y-19645047D01*
X19845803Y-19645047D02*
X19838660Y-19652190D01*
X19838660Y-19652190D02*
X19824374Y-19659333D01*
X19824374Y-19659333D02*
X19788660Y-19659333D01*
X19788660Y-19659333D02*
X19774374Y-19652190D01*
X19774374Y-19652190D02*
X19767231Y-19645047D01*
D10*
D11*
X17700220Y-19150720D02*
X28500220Y-19150720D01*
D10*
D12*
X26441385Y-19378553D02*
X26391385Y-19307124D01*
X26355671Y-19378553D02*
X26355671Y-19228553D01*
X26355671Y-19228553D02*
X26412814Y-19228553D01*
X26412814Y-19228553D02*
X26427100Y-19235696D01*
X26427100Y-19235696D02*
X26434242Y-19242839D01*
X26434242Y-19242839D02*
X26441385Y-19257124D01*
X26441385Y-19257124D02*
X26441385Y-19278553D01*
X26441385Y-19278553D02*
X26434242Y-19292839D01*
X26434242Y-19292839D02*
X26427100Y-19299981D01*
X26427100Y-19299981D02*
X26412814Y-19307124D01*
X26412814Y-19307124D02*
X26355671Y-19307124D01*
X26562814Y-19371410D02*
X26548528Y-19378553D01*
X26548528Y-19378553D02*
X26519957Y-19378553D01*
X26519957Y-19378553D02*
X26505671Y-19371410D01*
X26505671Y-19371410D02*
X26498528Y-19357124D01*
X26498528Y-19357124D02*
X26498528Y-19299981D01*
X26498528Y-19299981D02*
X26505671Y-19285696D01*
X26505671Y-19285696D02*
X26519957Y-19278553D01*
X26519957Y-19278553D02*
X26548528Y-19278553D01*
X26548528Y-19278553D02*
X26562814Y-19285696D01*
X26562814Y-19285696D02*
X26569957Y-19299981D01*
X26569957Y-19299981D02*
X26569957Y-19314267D01*
X26569957Y-19314267D02*
X26498528Y-19328553D01*
X26619957Y-19278553D02*
X26655671Y-19378553D01*
X26655671Y-19378553D02*
X26691385Y-19278553D01*
X26748528Y-19364267D02*
X26755671Y-19371410D01*
X26755671Y-19371410D02*
X26748528Y-19378553D01*
X26748528Y-19378553D02*
X26741385Y-19371410D01*
X26741385Y-19371410D02*
X26748528Y-19364267D01*
X26748528Y-19364267D02*
X26748528Y-19378553D01*
X26748528Y-19285696D02*
X26755671Y-19292839D01*
X26755671Y-19292839D02*
X26748528Y-19299981D01*
X26748528Y-19299981D02*
X26741385Y-19292839D01*
X26741385Y-19292839D02*
X26748528Y-19285696D01*
X26748528Y-19285696D02*
X26748528Y-19299981D01*
D10*
D11*
X17838660Y-19372190D02*
X17860088Y-19379333D01*
X17860088Y-19379333D02*
X17895803Y-19379333D01*
X17895803Y-19379333D02*
X17910088Y-19372190D01*
X17910088Y-19372190D02*
X17917231Y-19365047D01*
X17917231Y-19365047D02*
X17924374Y-19350761D01*
X17924374Y-19350761D02*
X17924374Y-19336476D01*
X17924374Y-19336476D02*
X17917231Y-19322190D01*
X17917231Y-19322190D02*
X17910088Y-19315047D01*
X17910088Y-19315047D02*
X17895803Y-19307904D01*
X17895803Y-19307904D02*
X17867231Y-19300761D01*
X17867231Y-19300761D02*
X17852946Y-19293619D01*
X17852946Y-19293619D02*
X17845803Y-19286476D01*
X17845803Y-19286476D02*
X17838660Y-19272190D01*
X17838660Y-19272190D02*
X17838660Y-19257904D01*
X17838660Y-19257904D02*
X17845803Y-19243619D01*
X17845803Y-19243619D02*
X17852946Y-19236476D01*
X17852946Y-19236476D02*
X17867231Y-19229333D01*
X17867231Y-19229333D02*
X17902946Y-19229333D01*
X17902946Y-19229333D02*
X17924374Y-19236476D01*
X17988660Y-19379333D02*
X17988660Y-19279333D01*
X17988660Y-19229333D02*
X17981517Y-19236476D01*
X17981517Y-19236476D02*
X17988660Y-19243619D01*
X17988660Y-19243619D02*
X17995803Y-19236476D01*
X17995803Y-19236476D02*
X17988660Y-19229333D01*
X17988660Y-19229333D02*
X17988660Y-19243619D01*
X18045803Y-19279333D02*
X18124374Y-19279333D01*
X18124374Y-19279333D02*
X18045803Y-19379333D01*
X18045803Y-19379333D02*
X18124374Y-19379333D01*
X18238660Y-19372190D02*
X18224374Y-19379333D01*
X18224374Y-19379333D02*
X18195803Y-19379333D01*
X18195803Y-19379333D02*
X18181517Y-19372190D01*
X18181517Y-19372190D02*
X18174374Y-19357904D01*
X18174374Y-19357904D02*
X18174374Y-19300761D01*
X18174374Y-19300761D02*
X18181517Y-19286476D01*
X18181517Y-19286476D02*
X18195803Y-19279333D01*
X18195803Y-19279333D02*
X18224374Y-19279333D01*
X18224374Y-19279333D02*
X18238660Y-19286476D01*
X18238660Y-19286476D02*
X18245803Y-19300761D01*
X18245803Y-19300761D02*
X18245803Y-19315047D01*
X18245803Y-19315047D02*
X18174374Y-19329333D01*
X18310088Y-19365047D02*
X18317231Y-19372190D01*
X18317231Y-19372190D02*
X18310088Y-19379333D01*
X18310088Y-19379333D02*
X18302946Y-19372190D01*
X18302946Y-19372190D02*
X18310088Y-19365047D01*
X18310088Y-19365047D02*
X18310088Y-19379333D01*
X18310088Y-19286476D02*
X18317231Y-19293619D01*
X18317231Y-19293619D02*
X18310088Y-19300761D01*
X18310088Y-19300761D02*
X18302946Y-19293619D01*
X18302946Y-19293619D02*
X18310088Y-19286476D01*
X18310088Y-19286476D02*
X18310088Y-19300761D01*
X18488660Y-19336476D02*
X18560088Y-19336476D01*
X18474374Y-19379333D02*
X18524374Y-19229333D01*
X18524374Y-19229333D02*
X18574374Y-19379333D01*
X18688660Y-19279333D02*
X18688660Y-19379333D01*
X18652946Y-19222190D02*
X18617231Y-19329333D01*
X18617231Y-19329333D02*
X18710088Y-19329333D01*
D10*
D11*
X26345803Y-19659333D02*
X26345803Y-19509333D01*
X26481517Y-19659333D02*
X26481517Y-19509333D01*
X26481517Y-19652190D02*
X26467231Y-19659333D01*
X26467231Y-19659333D02*
X26438660Y-19659333D01*
X26438660Y-19659333D02*
X26424374Y-19652190D01*
X26424374Y-19652190D02*
X26417231Y-19645047D01*
X26417231Y-19645047D02*
X26410088Y-19630761D01*
X26410088Y-19630761D02*
X26410088Y-19587904D01*
X26410088Y-19587904D02*
X26417231Y-19573619D01*
X26417231Y-19573619D02*
X26424374Y-19566476D01*
X26424374Y-19566476D02*
X26438660Y-19559333D01*
X26438660Y-19559333D02*
X26467231Y-19559333D01*
X26467231Y-19559333D02*
X26481517Y-19566476D01*
X26552945Y-19645047D02*
X26560088Y-19652190D01*
X26560088Y-19652190D02*
X26552945Y-19659333D01*
X26552945Y-19659333D02*
X26545803Y-19652190D01*
X26545803Y-19652190D02*
X26552945Y-19645047D01*
X26552945Y-19645047D02*
X26552945Y-19659333D01*
X26552945Y-19566476D02*
X26560088Y-19573619D01*
X26560088Y-19573619D02*
X26552945Y-19580761D01*
X26552945Y-19580761D02*
X26545803Y-19573619D01*
X26545803Y-19573619D02*
X26552945Y-19566476D01*
X26552945Y-19566476D02*
X26552945Y-19580761D01*
X26817231Y-19659333D02*
X26731517Y-19659333D01*
X26774374Y-19659333D02*
X26774374Y-19509333D01*
X26774374Y-19509333D02*
X26760088Y-19530761D01*
X26760088Y-19530761D02*
X26745803Y-19545047D01*
X26745803Y-19545047D02*
X26731517Y-19552190D01*
X26988660Y-19502190D02*
X26860088Y-19695047D01*
X27117231Y-19659333D02*
X27031517Y-19659333D01*
X27074374Y-19659333D02*
X27074374Y-19509333D01*
X27074374Y-19509333D02*
X27060088Y-19530761D01*
X27060088Y-19530761D02*
X27045803Y-19545047D01*
X27045803Y-19545047D02*
X27031517Y-19552190D01*
D10*
D11*
X17700220Y-18750720D02*
X28500220Y-18750720D01*
D10*
D13*
X17869393Y-18821164D02*
X17983679Y-18821164D01*
X17901536Y-19021164D02*
X17926536Y-18821164D01*
X18025345Y-19021164D02*
X18042012Y-18887830D01*
X18050345Y-18821164D02*
X18039631Y-18830688D01*
X18039631Y-18830688D02*
X18047964Y-18840211D01*
X18047964Y-18840211D02*
X18058679Y-18830688D01*
X18058679Y-18830688D02*
X18050345Y-18821164D01*
X18050345Y-18821164D02*
X18047964Y-18840211D01*
X18108679Y-18887830D02*
X18184869Y-18887830D01*
X18145583Y-18821164D02*
X18124155Y-18992592D01*
X18124155Y-18992592D02*
X18131298Y-19011640D01*
X18131298Y-19011640D02*
X18149155Y-19021164D01*
X18149155Y-19021164D02*
X18168202Y-19021164D01*
X18263441Y-19021164D02*
X18245583Y-19011640D01*
X18245583Y-19011640D02*
X18238441Y-18992592D01*
X18238441Y-18992592D02*
X18259869Y-18821164D01*
X18417012Y-19011640D02*
X18396774Y-19021164D01*
X18396774Y-19021164D02*
X18358679Y-19021164D01*
X18358679Y-19021164D02*
X18340821Y-19011640D01*
X18340821Y-19011640D02*
X18333679Y-18992592D01*
X18333679Y-18992592D02*
X18343202Y-18916402D01*
X18343202Y-18916402D02*
X18355107Y-18897354D01*
X18355107Y-18897354D02*
X18375345Y-18887830D01*
X18375345Y-18887830D02*
X18413440Y-18887830D01*
X18413440Y-18887830D02*
X18431298Y-18897354D01*
X18431298Y-18897354D02*
X18438440Y-18916402D01*
X18438440Y-18916402D02*
X18436060Y-18935450D01*
X18436060Y-18935450D02*
X18338440Y-18954497D01*
X18513441Y-19002116D02*
X18521774Y-19011640D01*
X18521774Y-19011640D02*
X18511060Y-19021164D01*
X18511060Y-19021164D02*
X18502726Y-19011640D01*
X18502726Y-19011640D02*
X18513441Y-19002116D01*
X18513441Y-19002116D02*
X18511060Y-19021164D01*
X18526536Y-18897354D02*
X18534869Y-18906878D01*
X18534869Y-18906878D02*
X18524155Y-18916402D01*
X18524155Y-18916402D02*
X18515821Y-18906878D01*
X18515821Y-18906878D02*
X18526536Y-18897354D01*
X18526536Y-18897354D02*
X18524155Y-18916402D01*
D10*
D11*
X17895803Y-18560761D02*
X17845803Y-18560761D01*
X17845803Y-18639333D02*
X17845803Y-18489333D01*
X17845803Y-18489333D02*
X17917231Y-18489333D01*
X17974374Y-18639333D02*
X17974374Y-18539333D01*
X17974374Y-18489333D02*
X17967231Y-18496476D01*
X17967231Y-18496476D02*
X17974374Y-18503619D01*
X17974374Y-18503619D02*
X17981517Y-18496476D01*
X17981517Y-18496476D02*
X17974374Y-18489333D01*
X17974374Y-18489333D02*
X17974374Y-18503619D01*
X18067231Y-18639333D02*
X18052946Y-18632190D01*
X18052946Y-18632190D02*
X18045803Y-18617904D01*
X18045803Y-18617904D02*
X18045803Y-18489333D01*
X18181517Y-18632190D02*
X18167231Y-18639333D01*
X18167231Y-18639333D02*
X18138660Y-18639333D01*
X18138660Y-18639333D02*
X18124374Y-18632190D01*
X18124374Y-18632190D02*
X18117231Y-18617904D01*
X18117231Y-18617904D02*
X18117231Y-18560761D01*
X18117231Y-18560761D02*
X18124374Y-18546476D01*
X18124374Y-18546476D02*
X18138660Y-18539333D01*
X18138660Y-18539333D02*
X18167231Y-18539333D01*
X18167231Y-18539333D02*
X18181517Y-18546476D01*
X18181517Y-18546476D02*
X18188660Y-18560761D01*
X18188660Y-18560761D02*
X18188660Y-18575047D01*
X18188660Y-18575047D02*
X18117231Y-18589333D01*
X18252945Y-18625047D02*
X18260088Y-18632190D01*
X18260088Y-18632190D02*
X18252945Y-18639333D01*
X18252945Y-18639333D02*
X18245803Y-18632190D01*
X18245803Y-18632190D02*
X18252945Y-18625047D01*
X18252945Y-18625047D02*
X18252945Y-18639333D01*
X18252945Y-18546476D02*
X18260088Y-18553619D01*
X18260088Y-18553619D02*
X18252945Y-18560761D01*
X18252945Y-18560761D02*
X18245803Y-18553619D01*
X18245803Y-18553619D02*
X18252945Y-18546476D01*
X18252945Y-18546476D02*
X18252945Y-18560761D01*
X18424374Y-18539333D02*
X18452946Y-18639333D01*
X18452946Y-18639333D02*
X18481517Y-18567904D01*
X18481517Y-18567904D02*
X18510088Y-18639333D01*
X18510088Y-18639333D02*
X18538660Y-18539333D01*
X18660088Y-18639333D02*
X18660088Y-18560761D01*
X18660088Y-18560761D02*
X18652946Y-18546476D01*
X18652946Y-18546476D02*
X18638660Y-18539333D01*
X18638660Y-18539333D02*
X18610088Y-18539333D01*
X18610088Y-18539333D02*
X18595803Y-18546476D01*
X18660088Y-18632190D02*
X18645803Y-18639333D01*
X18645803Y-18639333D02*
X18610088Y-18639333D01*
X18610088Y-18639333D02*
X18595803Y-18632190D01*
X18595803Y-18632190D02*
X18588660Y-18617904D01*
X18588660Y-18617904D02*
X18588660Y-18603619D01*
X18588660Y-18603619D02*
X18595803Y-18589333D01*
X18595803Y-18589333D02*
X18610088Y-18582190D01*
X18610088Y-18582190D02*
X18645803Y-18582190D01*
X18645803Y-18582190D02*
X18660088Y-18575047D01*
X18752946Y-18639333D02*
X18738660Y-18632190D01*
X18738660Y-18632190D02*
X18731517Y-18617904D01*
X18731517Y-18617904D02*
X18731517Y-18489333D01*
X18788660Y-18539333D02*
X18845803Y-18539333D01*
X18810088Y-18489333D02*
X18810088Y-18617904D01*
X18810088Y-18617904D02*
X18817231Y-18632190D01*
X18817231Y-18632190D02*
X18831517Y-18639333D01*
X18831517Y-18639333D02*
X18845803Y-18639333D01*
X18952946Y-18632190D02*
X18938660Y-18639333D01*
X18938660Y-18639333D02*
X18910088Y-18639333D01*
X18910088Y-18639333D02*
X18895803Y-18632190D01*
X18895803Y-18632190D02*
X18888660Y-18617904D01*
X18888660Y-18617904D02*
X18888660Y-18560761D01*
X18888660Y-18560761D02*
X18895803Y-18546476D01*
X18895803Y-18546476D02*
X18910088Y-18539333D01*
X18910088Y-18539333D02*
X18938660Y-18539333D01*
X18938660Y-18539333D02*
X18952946Y-18546476D01*
X18952946Y-18546476D02*
X18960088Y-18560761D01*
X18960088Y-18560761D02*
X18960088Y-18575047D01*
X18960088Y-18575047D02*
X18888660Y-18589333D01*
X19024374Y-18639333D02*
X19024374Y-18539333D01*
X19024374Y-18567904D02*
X19031517Y-18553619D01*
X19031517Y-18553619D02*
X19038660Y-18546476D01*
X19038660Y-18546476D02*
X19052946Y-18539333D01*
X19052946Y-18539333D02*
X19067231Y-18539333D01*
X19081517Y-18653619D02*
X19195803Y-18653619D01*
X19231517Y-18639333D02*
X19231517Y-18539333D01*
X19231517Y-18567904D02*
X19238660Y-18553619D01*
X19238660Y-18553619D02*
X19245803Y-18546476D01*
X19245803Y-18546476D02*
X19260088Y-18539333D01*
X19260088Y-18539333D02*
X19274374Y-18539333D01*
X19381517Y-18632190D02*
X19367231Y-18639333D01*
X19367231Y-18639333D02*
X19338660Y-18639333D01*
X19338660Y-18639333D02*
X19324374Y-18632190D01*
X19324374Y-18632190D02*
X19317231Y-18617904D01*
X19317231Y-18617904D02*
X19317231Y-18560761D01*
X19317231Y-18560761D02*
X19324374Y-18546476D01*
X19324374Y-18546476D02*
X19338660Y-18539333D01*
X19338660Y-18539333D02*
X19367231Y-18539333D01*
X19367231Y-18539333D02*
X19381517Y-18546476D01*
X19381517Y-18546476D02*
X19388660Y-18560761D01*
X19388660Y-18560761D02*
X19388660Y-18575047D01*
X19388660Y-18575047D02*
X19317231Y-18589333D01*
X19452945Y-18639333D02*
X19452945Y-18539333D01*
X19452945Y-18553619D02*
X19460088Y-18546476D01*
X19460088Y-18546476D02*
X19474374Y-18539333D01*
X19474374Y-18539333D02*
X19495803Y-18539333D01*
X19495803Y-18539333D02*
X19510088Y-18546476D01*
X19510088Y-18546476D02*
X19517231Y-18560761D01*
X19517231Y-18560761D02*
X19517231Y-18639333D01*
X19517231Y-18560761D02*
X19524374Y-18546476D01*
X19524374Y-18546476D02*
X19538660Y-18539333D01*
X19538660Y-18539333D02*
X19560088Y-18539333D01*
X19560088Y-18539333D02*
X19574374Y-18546476D01*
X19574374Y-18546476D02*
X19581517Y-18560761D01*
X19581517Y-18560761D02*
X19581517Y-18639333D01*
X19652945Y-18639333D02*
X19652945Y-18539333D01*
X19652945Y-18489333D02*
X19645803Y-18496476D01*
X19645803Y-18496476D02*
X19652945Y-18503619D01*
X19652945Y-18503619D02*
X19660088Y-18496476D01*
X19660088Y-18496476D02*
X19652945Y-18489333D01*
X19652945Y-18489333D02*
X19652945Y-18503619D01*
X19710088Y-18639333D02*
X19788660Y-18539333D01*
X19710088Y-18539333D02*
X19788660Y-18639333D01*
X19960088Y-18582190D02*
X20074374Y-18582190D01*
X20345803Y-18625047D02*
X20338660Y-18632190D01*
X20338660Y-18632190D02*
X20317231Y-18639333D01*
X20317231Y-18639333D02*
X20302945Y-18639333D01*
X20302945Y-18639333D02*
X20281517Y-18632190D01*
X20281517Y-18632190D02*
X20267231Y-18617904D01*
X20267231Y-18617904D02*
X20260088Y-18603619D01*
X20260088Y-18603619D02*
X20252945Y-18575047D01*
X20252945Y-18575047D02*
X20252945Y-18553619D01*
X20252945Y-18553619D02*
X20260088Y-18525047D01*
X20260088Y-18525047D02*
X20267231Y-18510761D01*
X20267231Y-18510761D02*
X20281517Y-18496476D01*
X20281517Y-18496476D02*
X20302945Y-18489333D01*
X20302945Y-18489333D02*
X20317231Y-18489333D01*
X20317231Y-18489333D02*
X20338660Y-18496476D01*
X20338660Y-18496476D02*
X20345803Y-18503619D01*
X20395803Y-18489333D02*
X20488660Y-18489333D01*
X20488660Y-18489333D02*
X20438660Y-18546476D01*
X20438660Y-18546476D02*
X20460088Y-18546476D01*
X20460088Y-18546476D02*
X20474374Y-18553619D01*
X20474374Y-18553619D02*
X20481517Y-18560761D01*
X20481517Y-18560761D02*
X20488660Y-18575047D01*
X20488660Y-18575047D02*
X20488660Y-18610761D01*
X20488660Y-18610761D02*
X20481517Y-18625047D01*
X20481517Y-18625047D02*
X20474374Y-18632190D01*
X20474374Y-18632190D02*
X20460088Y-18639333D01*
X20460088Y-18639333D02*
X20417231Y-18639333D01*
X20417231Y-18639333D02*
X20402945Y-18632190D01*
X20402945Y-18632190D02*
X20395803Y-18625047D01*
X20538660Y-18539333D02*
X20574374Y-18639333D01*
X20574374Y-18639333D02*
X20610088Y-18539333D01*
X20660088Y-18503619D02*
X20667231Y-18496476D01*
X20667231Y-18496476D02*
X20681517Y-18489333D01*
X20681517Y-18489333D02*
X20717231Y-18489333D01*
X20717231Y-18489333D02*
X20731517Y-18496476D01*
X20731517Y-18496476D02*
X20738660Y-18503619D01*
X20738660Y-18503619D02*
X20745803Y-18517904D01*
X20745803Y-18517904D02*
X20745803Y-18532190D01*
X20745803Y-18532190D02*
X20738660Y-18553619D01*
X20738660Y-18553619D02*
X20652945Y-18639333D01*
X20652945Y-18639333D02*
X20745803Y-18639333D01*
X20810088Y-18625047D02*
X20817231Y-18632190D01*
X20817231Y-18632190D02*
X20810088Y-18639333D01*
X20810088Y-18639333D02*
X20802945Y-18632190D01*
X20802945Y-18632190D02*
X20810088Y-18625047D01*
X20810088Y-18625047D02*
X20810088Y-18639333D01*
X20881517Y-18639333D02*
X20881517Y-18489333D01*
X20895803Y-18582190D02*
X20938660Y-18639333D01*
X20938660Y-18539333D02*
X20881517Y-18596476D01*
X21002945Y-18639333D02*
X21002945Y-18539333D01*
X21002945Y-18489333D02*
X20995803Y-18496476D01*
X20995803Y-18496476D02*
X21002945Y-18503619D01*
X21002945Y-18503619D02*
X21010088Y-18496476D01*
X21010088Y-18496476D02*
X21002945Y-18489333D01*
X21002945Y-18489333D02*
X21002945Y-18503619D01*
X21138660Y-18632190D02*
X21124374Y-18639333D01*
X21124374Y-18639333D02*
X21095803Y-18639333D01*
X21095803Y-18639333D02*
X21081517Y-18632190D01*
X21081517Y-18632190D02*
X21074374Y-18625047D01*
X21074374Y-18625047D02*
X21067231Y-18610761D01*
X21067231Y-18610761D02*
X21067231Y-18567904D01*
X21067231Y-18567904D02*
X21074374Y-18553619D01*
X21074374Y-18553619D02*
X21081517Y-18546476D01*
X21081517Y-18546476D02*
X21095803Y-18539333D01*
X21095803Y-18539333D02*
X21124374Y-18539333D01*
X21124374Y-18539333D02*
X21138660Y-18546476D01*
X21267231Y-18639333D02*
X21267231Y-18560761D01*
X21267231Y-18560761D02*
X21260088Y-18546476D01*
X21260088Y-18546476D02*
X21245803Y-18539333D01*
X21245803Y-18539333D02*
X21217231Y-18539333D01*
X21217231Y-18539333D02*
X21202945Y-18546476D01*
X21267231Y-18632190D02*
X21252945Y-18639333D01*
X21252945Y-18639333D02*
X21217231Y-18639333D01*
X21217231Y-18639333D02*
X21202945Y-18632190D01*
X21202945Y-18632190D02*
X21195803Y-18617904D01*
X21195803Y-18617904D02*
X21195803Y-18603619D01*
X21195803Y-18603619D02*
X21202945Y-18589333D01*
X21202945Y-18589333D02*
X21217231Y-18582190D01*
X21217231Y-18582190D02*
X21252945Y-18582190D01*
X21252945Y-18582190D02*
X21267231Y-18575047D01*
X21402945Y-18639333D02*
X21402945Y-18489333D01*
X21402945Y-18632190D02*
X21388660Y-18639333D01*
X21388660Y-18639333D02*
X21360088Y-18639333D01*
X21360088Y-18639333D02*
X21345803Y-18632190D01*
X21345803Y-18632190D02*
X21338660Y-18625047D01*
X21338660Y-18625047D02*
X21331517Y-18610761D01*
X21331517Y-18610761D02*
X21331517Y-18567904D01*
X21331517Y-18567904D02*
X21338660Y-18553619D01*
X21338660Y-18553619D02*
X21345803Y-18546476D01*
X21345803Y-18546476D02*
X21360088Y-18539333D01*
X21360088Y-18539333D02*
X21388660Y-18539333D01*
X21388660Y-18539333D02*
X21402945Y-18546476D01*
X21438660Y-18653619D02*
X21552945Y-18653619D01*
X21588660Y-18539333D02*
X21588660Y-18689333D01*
X21588660Y-18546476D02*
X21602945Y-18539333D01*
X21602945Y-18539333D02*
X21631517Y-18539333D01*
X21631517Y-18539333D02*
X21645803Y-18546476D01*
X21645803Y-18546476D02*
X21652945Y-18553619D01*
X21652945Y-18553619D02*
X21660088Y-18567904D01*
X21660088Y-18567904D02*
X21660088Y-18610761D01*
X21660088Y-18610761D02*
X21652945Y-18625047D01*
X21652945Y-18625047D02*
X21645803Y-18632190D01*
X21645803Y-18632190D02*
X21631517Y-18639333D01*
X21631517Y-18639333D02*
X21602945Y-18639333D01*
X21602945Y-18639333D02*
X21588660Y-18632190D01*
X21788660Y-18632190D02*
X21774374Y-18639333D01*
X21774374Y-18639333D02*
X21745803Y-18639333D01*
X21745803Y-18639333D02*
X21731517Y-18632190D01*
X21731517Y-18632190D02*
X21724374Y-18625047D01*
X21724374Y-18625047D02*
X21717231Y-18610761D01*
X21717231Y-18610761D02*
X21717231Y-18567904D01*
X21717231Y-18567904D02*
X21724374Y-18553619D01*
X21724374Y-18553619D02*
X21731517Y-18546476D01*
X21731517Y-18546476D02*
X21745803Y-18539333D01*
X21745803Y-18539333D02*
X21774374Y-18539333D01*
X21774374Y-18539333D02*
X21788660Y-18546476D01*
X21852945Y-18639333D02*
X21852945Y-18489333D01*
X21852945Y-18546476D02*
X21867231Y-18539333D01*
X21867231Y-18539333D02*
X21895803Y-18539333D01*
X21895803Y-18539333D02*
X21910088Y-18546476D01*
X21910088Y-18546476D02*
X21917231Y-18553619D01*
X21917231Y-18553619D02*
X21924374Y-18567904D01*
X21924374Y-18567904D02*
X21924374Y-18610761D01*
X21924374Y-18610761D02*
X21917231Y-18625047D01*
X21917231Y-18625047D02*
X21910088Y-18632190D01*
X21910088Y-18632190D02*
X21895803Y-18639333D01*
X21895803Y-18639333D02*
X21867231Y-18639333D01*
X21867231Y-18639333D02*
X21852945Y-18632190D01*
D10*
D11*
X17700220Y-18150720D02*
X28500220Y-18150720D01*
D10*
D11*
X17838660Y-18362190D02*
X17860088Y-18369333D01*
X17860088Y-18369333D02*
X17895803Y-18369333D01*
X17895803Y-18369333D02*
X17910088Y-18362190D01*
X17910088Y-18362190D02*
X17917231Y-18355047D01*
X17917231Y-18355047D02*
X17924374Y-18340761D01*
X17924374Y-18340761D02*
X17924374Y-18326476D01*
X17924374Y-18326476D02*
X17917231Y-18312190D01*
X17917231Y-18312190D02*
X17910088Y-18305047D01*
X17910088Y-18305047D02*
X17895803Y-18297904D01*
X17895803Y-18297904D02*
X17867231Y-18290761D01*
X17867231Y-18290761D02*
X17852946Y-18283619D01*
X17852946Y-18283619D02*
X17845803Y-18276476D01*
X17845803Y-18276476D02*
X17838660Y-18262190D01*
X17838660Y-18262190D02*
X17838660Y-18247904D01*
X17838660Y-18247904D02*
X17845803Y-18233619D01*
X17845803Y-18233619D02*
X17852946Y-18226476D01*
X17852946Y-18226476D02*
X17867231Y-18219333D01*
X17867231Y-18219333D02*
X17902946Y-18219333D01*
X17902946Y-18219333D02*
X17924374Y-18226476D01*
X17988660Y-18369333D02*
X17988660Y-18219333D01*
X18052946Y-18369333D02*
X18052946Y-18290761D01*
X18052946Y-18290761D02*
X18045803Y-18276476D01*
X18045803Y-18276476D02*
X18031517Y-18269333D01*
X18031517Y-18269333D02*
X18010088Y-18269333D01*
X18010088Y-18269333D02*
X17995803Y-18276476D01*
X17995803Y-18276476D02*
X17988660Y-18283619D01*
X18181517Y-18362190D02*
X18167231Y-18369333D01*
X18167231Y-18369333D02*
X18138660Y-18369333D01*
X18138660Y-18369333D02*
X18124374Y-18362190D01*
X18124374Y-18362190D02*
X18117231Y-18347904D01*
X18117231Y-18347904D02*
X18117231Y-18290761D01*
X18117231Y-18290761D02*
X18124374Y-18276476D01*
X18124374Y-18276476D02*
X18138660Y-18269333D01*
X18138660Y-18269333D02*
X18167231Y-18269333D01*
X18167231Y-18269333D02*
X18181517Y-18276476D01*
X18181517Y-18276476D02*
X18188660Y-18290761D01*
X18188660Y-18290761D02*
X18188660Y-18305047D01*
X18188660Y-18305047D02*
X18117231Y-18319333D01*
X18310088Y-18362190D02*
X18295803Y-18369333D01*
X18295803Y-18369333D02*
X18267231Y-18369333D01*
X18267231Y-18369333D02*
X18252945Y-18362190D01*
X18252945Y-18362190D02*
X18245803Y-18347904D01*
X18245803Y-18347904D02*
X18245803Y-18290761D01*
X18245803Y-18290761D02*
X18252945Y-18276476D01*
X18252945Y-18276476D02*
X18267231Y-18269333D01*
X18267231Y-18269333D02*
X18295803Y-18269333D01*
X18295803Y-18269333D02*
X18310088Y-18276476D01*
X18310088Y-18276476D02*
X18317231Y-18290761D01*
X18317231Y-18290761D02*
X18317231Y-18305047D01*
X18317231Y-18305047D02*
X18245803Y-18319333D01*
X18360088Y-18269333D02*
X18417231Y-18269333D01*
X18381517Y-18219333D02*
X18381517Y-18347904D01*
X18381517Y-18347904D02*
X18388660Y-18362190D01*
X18388660Y-18362190D02*
X18402945Y-18369333D01*
X18402945Y-18369333D02*
X18417231Y-18369333D01*
X18467231Y-18355047D02*
X18474374Y-18362190D01*
X18474374Y-18362190D02*
X18467231Y-18369333D01*
X18467231Y-18369333D02*
X18460088Y-18362190D01*
X18460088Y-18362190D02*
X18467231Y-18355047D01*
X18467231Y-18355047D02*
X18467231Y-18369333D01*
X18467231Y-18276476D02*
X18474374Y-18283619D01*
X18474374Y-18283619D02*
X18467231Y-18290761D01*
X18467231Y-18290761D02*
X18460088Y-18283619D01*
X18460088Y-18283619D02*
X18467231Y-18276476D01*
X18467231Y-18276476D02*
X18467231Y-18290761D01*
D10*
D11*
X19700220Y-19150720D02*
X19700220Y-19450720D01*
D10*
D11*
X26100220Y-19150720D02*
X26100220Y-19800720D01*
D14*
%TO.P,U1,19,GND*%
%TO.N,GND*%
X14863500Y-8072500D03*
X14863500Y-7962500D03*
X14808500Y-8127500D03*
X14808500Y-8017500D03*
X14808500Y-7907500D03*
X14753500Y-8072500D03*
D15*
X14753500Y-8017500D03*
D14*
X14753500Y-7962500D03*
X14698500Y-8127500D03*
X14698500Y-8017500D03*
X14698500Y-7907500D03*
X14643500Y-8072500D03*
X14643500Y-7962500D03*
D16*
%TO.P,U1,18,IO0*%
%TO.N,P2{slash}GPIO0{slash}3V3_EN*%
X15532500Y-7397500D03*
%TO.P,U1,17,IO1*%
%TO.N,LTE_RX0*%
X15532500Y-7547500D03*
%TO.P,U1,16,IO2*%
%TO.N,LTE_TX0*%
X15532500Y-7697500D03*
%TO.P,U1,15,IO3*%
%TO.N,LTE_RST*%
X15532500Y-7847500D03*
%TO.P,U1,14,IO19*%
%TO.N,USB_D+*%
X15532500Y-7997500D03*
%TO.P,U1,13,IO18*%
%TO.N,USB_D-*%
X15532500Y-8147500D03*
%TO.P,U1,12,IO21/TXD*%
%TO.N,P1{slash}TX0*%
X15532500Y-8297500D03*
%TO.P,U1,11,IO20/RXD*%
%TO.N,P0{slash}RX0*%
X15532500Y-8447500D03*
%TO.P,U1,10,IO10*%
%TO.N,unconnected-(U1-IO10-Pad10)*%
X15532500Y-8597500D03*
%TO.P,U1,9,GND*%
%TO.N,GND*%
X13782500Y-8597500D03*
%TO.P,U1,8,IO9*%
%TO.N,unconnected-(U1-IO9-Pad8)*%
X13782500Y-8447500D03*
%TO.P,U1,7,IO8*%
%TO.N,SW_OUT*%
X13782500Y-8297500D03*
%TO.P,U1,6,IO7*%
%TO.N,BUZZ+*%
X13782500Y-8147500D03*
%TO.P,U1,5,IO6*%
%TO.N,LTE_RTS0*%
X13782500Y-7997500D03*
%TO.P,U1,4,IO5*%
%TO.N,LTE_CTS0*%
X13782500Y-7847500D03*
%TO.P,U1,3,IO4*%
%TO.N,LTE_WAKE*%
X13782500Y-7697500D03*
%TO.P,U1,2,EN*%
%TO.N,+3V3*%
X13782500Y-7547500D03*
%TO.P,U1,1,3V3*%
X13782500Y-7397500D03*
%TD*%
D17*
%TO.P,J6,1,1*%
%TO.N,GND*%
X13250000Y-9690000D03*
D18*
%TO.P,J6,2,2*%
%TO.N,Net-(U4-VIN)*%
X13250000Y-9182000D03*
%TD*%
D19*
%TO.P,Q1,1*%
%TO.N,Net-(J2-CD)*%
X14150000Y-10250000D03*
%TO.P,Q1,2*%
%TO.N,SIM_DETECT*%
X14340000Y-10250000D03*
%TO.P,Q1,3*%
%TO.N,1V8_LTE*%
X14245000Y-10050000D03*
%TD*%
D20*
%TO.P,FL1,1*%
%TO.N,Net-(FL1-Pad1)*%
X14060000Y-10475000D03*
%TO.P,FL1,2*%
%TO.N,GND*%
X14100000Y-10505000D03*
%TO.P,FL1,3*%
X14145000Y-10500000D03*
%TO.P,FL1,4*%
%TO.N,Net-(FL1-Pad4)*%
X14145000Y-10450000D03*
%TO.P,FL1,5*%
%TO.N,GND*%
X14100000Y-10445000D03*
%TD*%
D21*
%TO.P,R25,1*%
%TO.N,+3V3*%
X15296000Y-10760000D03*
%TO.P,R25,2*%
%TO.N,RST*%
X15360000Y-10760000D03*
%TD*%
D22*
%TO.P,R24,1*%
%TO.N,+3V3*%
X14972000Y-10660000D03*
%TO.P,R24,2*%
%TO.N,Net-(GM02SP1-VBAT-Pad60)*%
X14908000Y-10660000D03*
%TD*%
D23*
%TO.P,R23,1*%
%TO.N,Net-(R22-Pad2)*%
X15640000Y-10497500D03*
%TO.P,R23,2*%
%TO.N,GND*%
X15640000Y-10433500D03*
%TD*%
%TO.P,R22,1*%
%TO.N,Net-(R21-Pad2)*%
X15634500Y-10652000D03*
%TO.P,R22,2*%
%TO.N,Net-(R22-Pad2)*%
X15634500Y-10588000D03*
%TD*%
%TO.P,R21,1*%
%TO.N,+1V8*%
X15640000Y-10806500D03*
%TO.P,R21,2*%
%TO.N,Net-(R21-Pad2)*%
X15640000Y-10742500D03*
%TD*%
D21*
%TO.P,R14,2*%
%TO.N,Net-(GM02SP1-VBAT-Pad60)*%
X14746500Y-10720000D03*
%TO.P,R14,1*%
%TO.N,VBUS*%
X14682500Y-10720000D03*
%TD*%
D22*
%TO.P,R10,1*%
%TO.N,GND*%
X14537500Y-10440000D03*
%TO.P,R10,2*%
%TO.N,SIM_DETECT*%
X14473500Y-10440000D03*
%TD*%
%TO.P,R9,1*%
%TO.N,1V8_LTE*%
X14384000Y-10440000D03*
%TO.P,R9,2*%
%TO.N,Net-(J2-CD)*%
X14320000Y-10440000D03*
%TD*%
D23*
%TO.P,R8,1*%
%TO.N,SIM_IO*%
X14040000Y-9846500D03*
%TO.P,R8,2*%
%TO.N,VSIM*%
X14040000Y-9782500D03*
%TD*%
D21*
%TO.P,R7,1*%
%TO.N,+1V8*%
X15256000Y-10580000D03*
%TO.P,R7,2*%
%TO.N,LTE_CTS1*%
X15320000Y-10580000D03*
%TD*%
%TO.P,R6,1*%
%TO.N,+1V8*%
X14502500Y-8760000D03*
%TO.P,R6,2*%
%TO.N,LTE_CTS0*%
X14566500Y-8760000D03*
%TD*%
D23*
%TO.P,C9,1*%
%TO.N,LTE_RST*%
X15680000Y-7837500D03*
%TO.P,C9,2*%
%TO.N,GND*%
X15680000Y-7773500D03*
%TD*%
%TO.P,C5,1*%
%TO.N,Net-(U4-VIN)*%
X14400000Y-8820000D03*
%TO.P,C5,2*%
%TO.N,GND*%
X14400000Y-8756000D03*
%TD*%
D24*
%TO.P,C4,1*%
%TO.N,+3V3*%
X15680000Y-8388000D03*
%TO.P,C4,2*%
%TO.N,GND*%
X15680000Y-8452000D03*
%TD*%
D21*
%TO.P,C3,1*%
%TO.N,RST*%
X15480000Y-10960000D03*
%TO.P,C3,2*%
%TO.N,GND*%
X15544000Y-10960000D03*
%TD*%
%TO.P,C2,1*%
%TO.N,VBUS*%
X14696000Y-10880000D03*
%TO.P,C2,2*%
%TO.N,GND*%
X14760000Y-10880000D03*
%TD*%
%TO.P,C1,1*%
%TO.N,VBUS*%
X14693500Y-10800000D03*
%TO.P,C1,2*%
%TO.N,GND*%
X14757500Y-10800000D03*
%TD*%
D25*
%TO.P,U4,5,~{ON}/OFF*%
%TO.N,GND*%
X14235000Y-9640000D03*
%TO.P,U4,4,FB*%
%TO.N,+3V3*%
X14235000Y-9470000D03*
D26*
%TO.P,U4,3,GND*%
%TO.N,GND*%
X15392500Y-9577500D03*
X15392500Y-9022500D03*
D27*
X15150000Y-9300000D03*
D26*
X14907500Y-9577500D03*
X14907500Y-9022500D03*
D25*
X14235000Y-9300000D03*
%TO.P,U4,2,OUT*%
%TO.N,Net-(D1-K)*%
X14235000Y-9130000D03*
%TO.P,U4,1,VIN*%
%TO.N,Net-(U4-VIN)*%
X14235000Y-8960000D03*
%TD*%
D28*
%TO.P,U2,D*%
%TO.N,N/C*%
X14685000Y-10450000D03*
X14685000Y-10630000D03*
D29*
X14717500Y-10540000D03*
D28*
X14750000Y-10450000D03*
X14750000Y-10630000D03*
%TO.P,U2,G*%
X14815000Y-10450000D03*
D30*
%TO.P,U2,S*%
X14815000Y-10540000D03*
D28*
X14815000Y-10630000D03*
%TD*%
D31*
%TO.P,L1,1,1*%
%TO.N,Net-(D1-K)*%
X14800000Y-10100000D03*
%TO.P,L1,2,2*%
%TO.N,+3V3*%
X14596800Y-10100000D03*
%TD*%
D32*
%TO.P,J1,S1,SHIELD*%
%TO.N,GND*%
X14532000Y-11307500D03*
D33*
X14532000Y-10889500D03*
D32*
X13668000Y-11307500D03*
D33*
X13668000Y-10889500D03*
D34*
%TO.P,J1,B12,GND*%
X13780000Y-10825500D03*
%TO.P,J1,B9,VBUS*%
%TO.N,VBUS*%
X13860000Y-10825500D03*
D35*
%TO.P,J1,B8,SBU2*%
%TO.N,unconnected-(J1-SBU2-PadB8)*%
X13925000Y-10825500D03*
%TO.P,J1,B7,D-*%
%TO.N,USB_D-*%
X14025000Y-10825500D03*
%TO.P,J1,B6,D+*%
%TO.N,USB_D+*%
X14175000Y-10825500D03*
%TO.P,J1,B5,CC2*%
%TO.N,Net-(J1-CC2)*%
X14275000Y-10825500D03*
D34*
%TO.P,J1,B4,VBUS*%
%TO.N,VBUS*%
X14340000Y-10825500D03*
%TO.P,J1,B1,GND*%
%TO.N,GND*%
X14420000Y-10825500D03*
%TO.P,J1,A12,GND*%
X14420000Y-10825500D03*
%TO.P,J1,A9,VBUS*%
%TO.N,VBUS*%
X14340000Y-10825500D03*
D35*
%TO.P,J1,A8,SBU1*%
%TO.N,unconnected-(J1-SBU1-PadA8)*%
X14225000Y-10825500D03*
%TO.P,J1,A7,D-*%
%TO.N,USB_D-*%
X14125000Y-10825500D03*
%TO.P,J1,A6,D+*%
%TO.N,USB_D+*%
X14075000Y-10825500D03*
%TO.P,J1,A5,CC1*%
%TO.N,Net-(J1-CC1)*%
X13975000Y-10825500D03*
D34*
%TO.P,J1,A4,VBUS*%
%TO.N,VBUS*%
X13860000Y-10825500D03*
%TO.P,J1,A1,GND*%
%TO.N,GND*%
X13780000Y-10825500D03*
%TD*%
D36*
%TO.P,IC1,A1,IN*%
%TO.N,+3V3*%
X15100000Y-10615000D03*
%TO.P,IC1,A2,OUT*%
%TO.N,+1V8*%
X15135000Y-10615000D03*
%TO.P,IC1,B1,EN*%
%TO.N,+3V3*%
X15100000Y-10650000D03*
%TO.P,IC1,B2,GND*%
%TO.N,GND*%
X15135000Y-10650000D03*
%TD*%
D37*
%TO.P,D1,1,K*%
%TO.N,Net-(D1-K)*%
X15200000Y-10000000D03*
%TO.P,D1,2,A*%
%TO.N,GND*%
X15200000Y-10431800D03*
%TD*%
D38*
%TO.P,SW2,1,A*%
%TO.N,GND*%
X14800000Y-11150000D03*
%TO.P,SW2,2,A*%
%TO.N,RST*%
X15400000Y-11150000D03*
%TD*%
D39*
%TO.N,SW_OUT*%
X13650000Y-8300000D03*
%TO.N,+1V8*%
X14987691Y-8647500D03*
%TO.N,Net-(FL1-Pad4)*%
X14594099Y-10585000D03*
X15502500Y-10169500D03*
X14163996Y-10416024D03*
%TO.N,VSIM*%
X14093331Y-9791718D03*
X14560000Y-9197303D03*
%TO.N,GND*%
X14497500Y-8142500D03*
X15240000Y-10320000D03*
X14467500Y-8680000D03*
%TO.N,+1V8*%
X15560000Y-10720000D03*
%TO.N,LTE_RTS0*%
X14115806Y-8405000D03*
%TO.N,+3V3*%
X15000000Y-10600000D03*
X14696834Y-10103166D03*
X15460000Y-10740000D03*
%TO.N,GND*%
X15020000Y-9880000D03*
%TO.N,RES{slash}FFF_FFH*%
X15701891Y-7909310D03*
X15291882Y-8297159D03*
%TO.N,PS_STATUS*%
X15626070Y-8688924D03*
X15126211Y-8595939D03*
%TO.N,GND*%
X15675000Y-8500000D03*
%TO.N,+3V3*%
X15675000Y-8340000D03*
%TO.N,LTE_RTS1*%
X15657500Y-8160794D03*
X15049237Y-8420000D03*
%TO.N,GND*%
X15680000Y-7720000D03*
%TO.N,Net-(GM02SP1-VBAT-Pad60)*%
X14155000Y-8780356D03*
X14820000Y-10705000D03*
%TO.N,GND*%
X14820000Y-10800000D03*
%TO.N,Net-(U5-RF_IN)*%
X13973500Y-10563970D03*
%TO.N,Net-(FL1-Pad1)*%
X14004194Y-10484194D03*
%TO.N,Net-(U5-RF_IN)*%
X15160000Y-7752500D03*
%TO.N,LTE_RST*%
X14200000Y-7960000D03*
X15402500Y-7880888D03*
%TO.N,LTE_WAKE*%
X14120000Y-7960000D03*
%TO.N,GND*%
X15205806Y-10674194D03*
%TO.N,+1V8*%
X15200000Y-10580000D03*
%TO.N,1V8_LTE*%
X14260000Y-9960000D03*
%TO.N,LTE_ANT*%
X14564556Y-9882500D03*
X14560000Y-9566694D03*
%TO.N,Net-(J1-CC1)*%
X14110053Y-11095988D03*
%TO.N,Net-(J1-CC2)*%
X14278532Y-10921369D03*
%TO.N,USB_D+*%
X15640000Y-7960000D03*
%TO.N,USB_D-*%
X15653562Y-8061950D03*
%TO.N,USB_D+*%
X14240000Y-11000000D03*
%TO.N,USB_D-*%
X14162023Y-11034112D03*
%TO.N,SIM_IO*%
X14260000Y-8140000D03*
%TO.N,GND*%
X14085000Y-10403388D03*
X14180000Y-10575000D03*
%TO.N,GNSS_RF*%
X14560000Y-9465000D03*
%TO.N,1V8_LTE*%
X15440000Y-8710000D03*
X15004237Y-7957374D03*
%TO.N,GNSS_RF*%
X15060806Y-7900806D03*
%TO.N,LTE_CTS1*%
X14840000Y-8402500D03*
X15380000Y-10540000D03*
%TO.N,SIM_CLK*%
X14807944Y-9942056D03*
X14380000Y-8120000D03*
%TO.N,SIM_RST*%
X14342500Y-8400000D03*
X14940000Y-10162500D03*
%TO.N,GNSS_EN*%
X15331911Y-8077579D03*
X15395000Y-8323388D03*
%TO.N,VSIM*%
X14247000Y-10435688D03*
%TO.N,SIM_IO*%
X13868000Y-9908000D03*
%TO.N,LTE_RTS0*%
X14846727Y-8497615D03*
X15253514Y-8093514D03*
%TO.N,Net-(J2-CD)*%
X14150000Y-10250000D03*
%TO.N,SIM_DETECT*%
X14540000Y-9115000D03*
%TO.N,+3V3*%
X13920000Y-7480000D03*
X15414625Y-8076775D03*
%TO.N,GND*%
X15600000Y-10960000D03*
X15588670Y-10290000D03*
X15590000Y-8960000D03*
X13780000Y-10400000D03*
X13660000Y-9460000D03*
%TO.N,+3V3*%
X14235000Y-9470000D03*
%TO.N,BUZZ+*%
X13640000Y-8080000D03*
%TO.N,LTE_CTS0*%
X14580000Y-8462500D03*
%TO.N,LTE_TX0*%
X14380000Y-8020000D03*
%TO.N,LTE_RX0*%
X14675000Y-8220000D03*
%TD*%
D40*
%TO.N,SW_OUT*%
X13780000Y-8300000D02*
X13782500Y-8297500D01*
X13650000Y-8300000D02*
X13780000Y-8300000D01*
D41*
%TO.N,Net-(D1-K)*%
X14635000Y-9103000D02*
X14572000Y-9040000D01*
X14572000Y-9040000D02*
X14500000Y-9040000D01*
X14635000Y-9878000D02*
X14635000Y-9103000D01*
X14800000Y-10043000D02*
X14635000Y-9878000D01*
X14500000Y-9040000D02*
X14410000Y-9130000D01*
X14800000Y-10100000D02*
X14800000Y-10043000D01*
D42*
X14410000Y-9130000D02*
X14235000Y-9130000D01*
X14847000Y-10053000D02*
X15147000Y-10053000D01*
X15147000Y-10053000D02*
X15200000Y-10000000D01*
X14800000Y-10100000D02*
X14847000Y-10053000D01*
D40*
%TO.N,LTE_RST*%
X15435888Y-7847500D02*
X15532500Y-7847500D01*
X15402500Y-7880888D02*
X15435888Y-7847500D01*
%TO.N,SIM_DETECT*%
X14497500Y-9157500D02*
X14497500Y-10092500D01*
X14540000Y-9115000D02*
X14497500Y-9157500D01*
X14497500Y-10092500D02*
X14340000Y-10250000D01*
%TO.N,GND*%
X14800000Y-10920000D02*
X14760000Y-10880000D01*
X14800000Y-11150000D02*
X14800000Y-10920000D01*
%TO.N,+1V8*%
X14760490Y-8647500D02*
X14987691Y-8647500D01*
X14647500Y-8760490D02*
X14760490Y-8647500D01*
X14647500Y-8840000D02*
X14647500Y-8760490D01*
X14562500Y-8840000D02*
X14647500Y-8840000D01*
X14502500Y-8780000D02*
X14562500Y-8840000D01*
X14502500Y-8760000D02*
X14502500Y-8780000D01*
%TO.N,Net-(FL1-Pad4)*%
X14145000Y-10435020D02*
X14163996Y-10416024D01*
X14145000Y-10450000D02*
X14145000Y-10435020D01*
%TO.N,VSIM*%
X14092500Y-9895000D02*
X14087500Y-9900000D01*
X14087500Y-10317500D02*
X14153860Y-10317500D01*
X14092500Y-9792500D02*
X14092500Y-9895000D01*
X14082500Y-9782500D02*
X14092500Y-9792500D01*
X14247000Y-10410640D02*
X14247000Y-10435688D01*
X14040000Y-9782500D02*
X14082500Y-9782500D01*
X14087500Y-9900000D02*
X14087500Y-10317500D01*
X14153860Y-10317500D02*
X14247000Y-10410640D01*
%TO.N,GND*%
X14468000Y-10825500D02*
X14532000Y-10889500D01*
X14420000Y-10825500D02*
X14468000Y-10825500D01*
%TO.N,Net-(J1-CC1)*%
X14110053Y-11095988D02*
X13975000Y-10960935D01*
X13975000Y-10960935D02*
X13975000Y-10825500D01*
%TO.N,USB_D-*%
X14025000Y-10940251D02*
X14025000Y-10825500D01*
X14118860Y-11034112D02*
X14025000Y-10940251D01*
X14162023Y-11034112D02*
X14118860Y-11034112D01*
%TO.N,USB_D+*%
X14075000Y-10926612D02*
X14075000Y-10825500D01*
X14120000Y-10971612D02*
X14075000Y-10926612D01*
X14211612Y-10971612D02*
X14120000Y-10971612D01*
X14240000Y-11000000D02*
X14211612Y-10971612D01*
X14240000Y-11000000D02*
X14175000Y-10935000D01*
X14175000Y-10935000D02*
X14175000Y-10825500D01*
%TO.N,+3V3*%
X15427500Y-10707500D02*
X15460000Y-10740000D01*
X15296000Y-10740619D02*
X15329119Y-10707500D01*
X15329119Y-10707500D02*
X15427500Y-10707500D01*
X15296000Y-10760000D02*
X15296000Y-10740619D01*
X15050000Y-10650000D02*
X15092500Y-10650000D01*
X15000000Y-10600000D02*
X15050000Y-10650000D01*
%TO.N,GND*%
X14422500Y-10575000D02*
X14180000Y-10575000D01*
X14537500Y-10460000D02*
X14422500Y-10575000D01*
X14537500Y-10440000D02*
X14537500Y-10460000D01*
%TO.N,LTE_TX0*%
X14912500Y-8282500D02*
X15497500Y-7697500D01*
X14649112Y-8282500D02*
X14912500Y-8282500D01*
X14560000Y-8193388D02*
X14649112Y-8282500D01*
X14560000Y-8020000D02*
X14560000Y-8193388D01*
X15497500Y-7697500D02*
X15532500Y-7697500D01*
X14380000Y-8020000D02*
X14560000Y-8020000D01*
%TO.N,GND*%
X15200000Y-10360000D02*
X15240000Y-10320000D01*
X15200000Y-10431800D02*
X15200000Y-10360000D01*
X14400000Y-8747500D02*
X14467500Y-8680000D01*
X14400000Y-8756000D02*
X14400000Y-8747500D01*
X14241500Y-8597500D02*
X13782500Y-8597500D01*
X14400000Y-8756000D02*
X14241500Y-8597500D01*
%TO.N,Net-(R21-Pad2)*%
X15634500Y-10737000D02*
X15640000Y-10742500D01*
X15634500Y-10652000D02*
X15634500Y-10737000D01*
%TO.N,Net-(R22-Pad2)*%
X15640000Y-10582500D02*
X15634500Y-10588000D01*
X15640000Y-10497500D02*
X15640000Y-10582500D01*
%TO.N,GND*%
X15640000Y-10341330D02*
X15588670Y-10290000D01*
X15640000Y-10433500D02*
X15640000Y-10341330D01*
%TO.N,+1V8*%
X15560000Y-10745881D02*
X15560000Y-10720000D01*
X15620619Y-10806500D02*
X15560000Y-10745881D01*
X15640000Y-10806500D02*
X15620619Y-10806500D01*
%TO.N,LTE_CTS0*%
X14566500Y-8476000D02*
X14580000Y-8462500D01*
X14566500Y-8760000D02*
X14566500Y-8476000D01*
%TO.N,LTE_RTS0*%
X14846727Y-8497615D02*
X15222313Y-8122028D01*
X15225000Y-8122028D02*
X15253514Y-8093514D01*
X15222313Y-8122028D02*
X15225000Y-8122028D01*
X13900000Y-8189194D02*
X14115806Y-8405000D01*
X13900000Y-8163640D02*
X13900000Y-8189194D01*
%TO.N,+3V3*%
X15092500Y-10607500D02*
X15092500Y-10615000D01*
X15085000Y-10600000D02*
X15092500Y-10607500D01*
X15000000Y-10600000D02*
X15085000Y-10600000D01*
X14972000Y-10628000D02*
X15000000Y-10600000D01*
X14972000Y-10660000D02*
X14972000Y-10628000D01*
X14693667Y-10100000D02*
X14696834Y-10103166D01*
X14596800Y-10100000D02*
X14693667Y-10100000D01*
%TO.N,GND*%
X15020000Y-9690000D02*
X14907500Y-9577500D01*
X15020000Y-9880000D02*
X15020000Y-9690000D01*
X15680000Y-8495000D02*
X15675000Y-8500000D01*
X15680000Y-8452000D02*
X15680000Y-8495000D01*
%TO.N,+3V3*%
X15680000Y-8345000D02*
X15675000Y-8340000D01*
X15680000Y-8388000D02*
X15680000Y-8345000D01*
%TO.N,USB_D-*%
X15568012Y-8147500D02*
X15532500Y-8147500D01*
X15653562Y-8061950D02*
X15568012Y-8147500D01*
%TO.N,USB_D+*%
X15602500Y-7997500D02*
X15532500Y-7997500D01*
X15640000Y-7960000D02*
X15602500Y-7997500D01*
%TO.N,GND*%
X15680000Y-7773500D02*
X15680000Y-7720000D01*
%TO.N,LTE_RST*%
X15680000Y-7837500D02*
X15542500Y-7837500D01*
X15542500Y-7837500D02*
X15532500Y-7847500D01*
%TO.N,Net-(GM02SP1-VBAT-Pad60)*%
X14908000Y-10660000D02*
X14863000Y-10705000D01*
X14863000Y-10705000D02*
X14820000Y-10705000D01*
X14805000Y-10720000D02*
X14820000Y-10705000D01*
X14746500Y-10720000D02*
X14805000Y-10720000D01*
%TO.N,GND*%
X14757500Y-10800000D02*
X14820000Y-10800000D01*
X14760000Y-10802500D02*
X14757500Y-10800000D01*
X14760000Y-10880000D02*
X14760000Y-10802500D01*
D42*
%TO.N,VBUS*%
X14682500Y-10866500D02*
X14682500Y-10720000D01*
D40*
X14696000Y-10880000D02*
X14682500Y-10866500D01*
%TO.N,Net-(FL1-Pad1)*%
X14050806Y-10484194D02*
X14060000Y-10475000D01*
X14004194Y-10484194D02*
X14050806Y-10484194D01*
%TO.N,LTE_WAKE*%
X13857500Y-7697500D02*
X14120000Y-7960000D01*
X13782500Y-7697500D02*
X13857500Y-7697500D01*
%TO.N,GND*%
X15162730Y-10674194D02*
X15146035Y-10657500D01*
X15205806Y-10674194D02*
X15162730Y-10674194D01*
%TO.N,+1V8*%
X15200000Y-10580000D02*
X15170000Y-10580000D01*
X15256000Y-10580000D02*
X15200000Y-10580000D01*
%TO.N,1V8_LTE*%
X14245000Y-9975000D02*
X14260000Y-9960000D01*
X14245000Y-10050000D02*
X14245000Y-9975000D01*
%TO.N,RST*%
X15360000Y-10840000D02*
X15480000Y-10960000D01*
X15360000Y-10760000D02*
X15360000Y-10840000D01*
%TO.N,Net-(J1-CC2)*%
X14275000Y-10917837D02*
X14275000Y-10825500D01*
X14278532Y-10921369D02*
X14275000Y-10917837D01*
%TO.N,USB_D-*%
X14125000Y-10745000D02*
X14125000Y-10825500D01*
X14050724Y-10728000D02*
X14108000Y-10728000D01*
X14025000Y-10753724D02*
X14050724Y-10728000D01*
X14025000Y-10825500D02*
X14025000Y-10753724D01*
X14108000Y-10728000D02*
X14125000Y-10745000D01*
%TO.N,SIM_IO*%
X13868000Y-9908000D02*
X13929500Y-9846500D01*
X13929500Y-9846500D02*
X14040000Y-9846500D01*
%TO.N,GND*%
X14100000Y-10418388D02*
X14085000Y-10403388D01*
X14100000Y-10445000D02*
X14100000Y-10418388D01*
X14135000Y-10505000D02*
X14140000Y-10500000D01*
X14100000Y-10505000D02*
X14135000Y-10505000D01*
X14138500Y-10533500D02*
X14180000Y-10575000D01*
X14138500Y-10500000D02*
X14138500Y-10533500D01*
%TO.N,BUZZ+*%
X13640000Y-8080000D02*
X13707500Y-8147500D01*
X13707500Y-8147500D02*
X13782500Y-8147500D01*
%TO.N,LTE_RTS0*%
X13812500Y-7997500D02*
X13782500Y-7997500D01*
X13900000Y-8163640D02*
X13900000Y-8085000D01*
X13900000Y-8085000D02*
X13812500Y-7997500D01*
%TO.N,LTE_CTS1*%
X15340000Y-10580000D02*
X15380000Y-10540000D01*
X15320000Y-10580000D02*
X15340000Y-10580000D01*
%TO.N,+1V8*%
X15170000Y-10580000D02*
X15142500Y-10607500D01*
%TO.N,LTE_CTS0*%
X13812500Y-7847500D02*
X13782500Y-7847500D01*
X14000000Y-8035000D02*
X13812500Y-7847500D01*
X14262500Y-8462500D02*
X14000000Y-8200000D01*
X14000000Y-8200000D02*
X14000000Y-8035000D01*
X14580000Y-8462500D02*
X14262500Y-8462500D01*
%TO.N,GNSS_EN*%
X15352125Y-8280514D02*
X15352125Y-8097793D01*
X15352125Y-8097793D02*
X15331911Y-8077579D01*
X15395000Y-8323388D02*
X15352125Y-8280514D01*
%TO.N,SIM_DETECT*%
X14473500Y-10383500D02*
X14340000Y-10250000D01*
X14473500Y-10440000D02*
X14473500Y-10383500D01*
%TO.N,1V8_LTE*%
X14245000Y-10281000D02*
X14245000Y-10050000D01*
X14384000Y-10420000D02*
X14245000Y-10281000D01*
X14384000Y-10440000D02*
X14384000Y-10420000D01*
%TO.N,Net-(J2-CD)*%
X14320000Y-10420000D02*
X14150000Y-10250000D01*
X14320000Y-10440000D02*
X14320000Y-10420000D01*
%TO.N,+3V3*%
X13782500Y-7547500D02*
X13852500Y-7547500D01*
%TO.N,GND*%
X13760000Y-10420000D02*
X13760000Y-10540000D01*
X13780000Y-10400000D02*
X13760000Y-10420000D01*
X15600000Y-10960000D02*
X15544000Y-10960000D01*
%TO.N,RST*%
X15400000Y-11040000D02*
X15480000Y-10960000D01*
X15400000Y-11150000D02*
X15400000Y-11040000D01*
%TO.N,GND*%
X13760000Y-10540000D02*
X13760000Y-10805500D01*
X13760000Y-10805500D02*
X13780000Y-10825500D01*
X13665000Y-9465000D02*
X13660000Y-9460000D01*
X13750000Y-9465000D02*
X13665000Y-9465000D01*
%TO.N,LTE_RX0*%
X15502500Y-7547500D02*
X15532500Y-7547500D01*
X14931000Y-8195000D02*
X14931000Y-8119000D01*
X14700000Y-8195000D02*
X14931000Y-8195000D01*
X14931000Y-8119000D02*
X15502500Y-7547500D01*
X14675000Y-8220000D02*
X14700000Y-8195000D01*
D43*
%TO.N,VBUS*%
X14340000Y-10700000D02*
X14340000Y-10825500D01*
X14340000Y-10660000D02*
X14340000Y-10700000D01*
X13860000Y-10825500D02*
X13860000Y-10660000D01*
X13860000Y-10660000D02*
X14340000Y-10660000D01*
D40*
X14682500Y-10720000D02*
X14680000Y-10720000D01*
D42*
X14565000Y-10660000D02*
X14340000Y-10660000D01*
X14680000Y-10720000D02*
X14625000Y-10720000D01*
X14625000Y-10720000D02*
X14565000Y-10660000D01*
%TD*%
%TA.AperFunction,Conductor*%
%TO.N,GND*%
G36*
X14056440Y-9249008D02*
G01*
X14059738Y-9255167D01*
X14060000Y-9257703D01*
X14060000Y-9352336D01*
X14058031Y-9359040D01*
X14053145Y-9363427D01*
X14052718Y-9363641D01*
X14047173Y-9364950D01*
X14025000Y-9364950D01*
X14024998Y-9364950D01*
X14014720Y-9366000D01*
X14014720Y-9366000D01*
X13998067Y-9371519D01*
X13998066Y-9371519D01*
X13983134Y-9380729D01*
X13970729Y-9393134D01*
X13961519Y-9408066D01*
X13961519Y-9408067D01*
X13956000Y-9424720D01*
X13956000Y-9424720D01*
X13956000Y-9424720D01*
X13954950Y-9434998D01*
X13954950Y-9505000D01*
X13954950Y-9505002D01*
X13956000Y-9515280D01*
X13956000Y-9515280D01*
X13961518Y-9531933D01*
X13961519Y-9531933D01*
X13970729Y-9546866D01*
X13983134Y-9559271D01*
X13998067Y-9568481D01*
X14014720Y-9574000D01*
X14024999Y-9575050D01*
X14047173Y-9575050D01*
X14052717Y-9576359D01*
X14053144Y-9576572D01*
X14058261Y-9581330D01*
X14060000Y-9587664D01*
X14060000Y-9683042D01*
X14058031Y-9689746D01*
X14052751Y-9694321D01*
X14045835Y-9695316D01*
X14043840Y-9694858D01*
X13628640Y-9562749D01*
X13622849Y-9558841D01*
X13620090Y-9552422D01*
X13620000Y-9550933D01*
X13620000Y-9408685D01*
X13621968Y-9401981D01*
X13627249Y-9397406D01*
X13628161Y-9397032D01*
X14043362Y-9246050D01*
X14050335Y-9245609D01*
X14056440Y-9249008D01*
G37*
%TD.AperFunction*%
%TD*%
%TA.AperFunction,Conductor*%
%TO.N,+3V3*%
G36*
X13842214Y-7341968D02*
G01*
X13843449Y-7342874D01*
X13955538Y-7436282D01*
X13959428Y-7442086D01*
X13960000Y-7445808D01*
X13960000Y-7513364D01*
X13958031Y-7520068D01*
X13954478Y-7523681D01*
X13843124Y-7597917D01*
X13836454Y-7599998D01*
X13836246Y-7600000D01*
X13712400Y-7600000D01*
X13705696Y-7598031D01*
X13701121Y-7592751D01*
X13700000Y-7587600D01*
X13700000Y-7352400D01*
X13701968Y-7345696D01*
X13707249Y-7341121D01*
X13712400Y-7340000D01*
X13835511Y-7340000D01*
X13842214Y-7341968D01*
G37*
%TD.AperFunction*%
%TD*%
%TA.AperFunction,Conductor*%
%TO.N,Net-(U4-VIN)*%
G36*
X14103005Y-8841969D02*
G01*
X14104204Y-8842935D01*
X14104230Y-8842903D01*
X14104774Y-8843337D01*
X14104774Y-8843337D01*
X14120048Y-8852934D01*
X14135225Y-8858245D01*
X14137075Y-8858892D01*
X14137075Y-8858892D01*
X14155000Y-8860912D01*
X14155000Y-8860912D01*
X14155001Y-8860912D01*
X14172925Y-8858892D01*
X14172925Y-8858892D01*
X14172926Y-8858892D01*
X14189952Y-8852934D01*
X14205226Y-8843337D01*
X14205227Y-8843337D01*
X14205771Y-8842903D01*
X14205921Y-8843092D01*
X14211064Y-8840283D01*
X14213700Y-8840000D01*
X14468905Y-8840000D01*
X14475609Y-8841969D01*
X14477673Y-8843632D01*
X14496368Y-8862327D01*
X14499717Y-8868459D01*
X14500000Y-8871095D01*
X14500000Y-8958401D01*
X14498031Y-8965105D01*
X14492751Y-8969681D01*
X14490019Y-8970563D01*
X14482259Y-8972107D01*
X14479567Y-8972642D01*
X14466819Y-8977922D01*
X14455345Y-8985589D01*
X14455345Y-8985589D01*
X14434566Y-9006368D01*
X14428434Y-9009717D01*
X14425798Y-9010000D01*
X14000000Y-9010000D01*
X13311314Y-9389276D01*
X13308550Y-9390389D01*
X13296635Y-9393591D01*
X13295208Y-9393886D01*
X13267919Y-9397870D01*
X13266272Y-9397999D01*
X13238794Y-9398318D01*
X13237144Y-9398227D01*
X13209869Y-9394890D01*
X13208246Y-9394581D01*
X13181656Y-9387647D01*
X13180088Y-9387125D01*
X13154657Y-9376718D01*
X13153173Y-9375991D01*
X13129349Y-9362295D01*
X13127975Y-9361378D01*
X13106184Y-9344637D01*
X13104944Y-9343545D01*
X13085573Y-9324056D01*
X13084489Y-9322809D01*
X13067881Y-9300916D01*
X13066972Y-9299536D01*
X13053422Y-9275630D01*
X13052704Y-9274142D01*
X13042452Y-9248646D01*
X13041940Y-9247077D01*
X13035168Y-9220443D01*
X13034869Y-9218819D01*
X13031699Y-9191523D01*
X13031618Y-9189874D01*
X13032105Y-9162397D01*
X13032244Y-9160751D01*
X13036379Y-9133585D01*
X13036736Y-9131972D01*
X13044446Y-9105597D01*
X13045014Y-9104046D01*
X13056163Y-9078928D01*
X13056931Y-9077468D01*
X13071321Y-9054055D01*
X13072277Y-9052710D01*
X13089652Y-9031418D01*
X13090778Y-9030212D01*
X13110829Y-9011419D01*
X13112105Y-9010373D01*
X13134476Y-8994413D01*
X13135881Y-8993546D01*
X13160263Y-8980656D01*
X13161587Y-8980052D01*
X13170178Y-8976732D01*
X13173298Y-8975526D01*
X13175765Y-8974855D01*
X13982257Y-8842903D01*
X13999006Y-8840163D01*
X14001008Y-8840000D01*
X14096301Y-8840000D01*
X14103005Y-8841969D01*
G37*
%TD.AperFunction*%
%TD*%
M02*
