%TF.GenerationSoftware,KiCad,Pcbnew,8.0.5*%
%TF.CreationDate,2024-12-27T02:30:01+01:00*%
%TF.ProjectId,walter_remix - C3v2,77616c74-6572-45f7-9265-6d6978202d20,rev?*%
%TF.SameCoordinates,Original*%
%TF.FileFunction,Legend,Top*%
%TF.FilePolarity,Positive*%
%FSLAX45Y45*%
G04 Gerber Fmt 4.5, Leading zero omitted, Abs format (unit mm)*
G04 Created by KiCad (PCBNEW 8.0.5) date 2024-12-27 02:30:01*
%MOMM*%
%LPD*%
G01*
G04 APERTURE LIST*
%ADD10C,0.100000*%
%ADD11C,0.150000*%
%ADD12C,0.300000*%
%ADD13C,0.400000*%
%ADD14C,0.254000*%
%ADD15C,0.120000*%
%ADD16C,0.200000*%
%ADD17C,0.010000*%
G04 APERTURE END LIST*
D10*
D11*
X17700220Y-16600720D02*
X28500220Y-16600720D01*
X28500220Y-19800720D01*
X17700220Y-19800720D01*
X17700220Y-16600720D01*
D10*
D11*
X1000000Y-1000000D02*
X28700220Y-1000000D01*
X28700220Y-20000720D01*
X1000000Y-20000720D01*
X1000000Y-1000000D01*
D10*
D11*
X1200000Y-1200000D02*
X28500220Y-1200000D01*
X28500220Y-19800720D01*
X1200000Y-19800720D01*
X1200000Y-1200000D01*
D10*
D11*
X6000000Y-1200000D02*
X6000000Y-1000000D01*
D10*
D11*
X11000000Y-1200000D02*
X11000000Y-1000000D01*
D10*
D11*
X16000000Y-1200000D02*
X16000000Y-1000000D01*
D10*
D11*
X21000000Y-1200000D02*
X21000000Y-1000000D01*
D10*
D11*
X26000000Y-1200000D02*
X26000000Y-1000000D01*
D10*
D11*
X3608916Y-1159360D02*
X3534630Y-1159360D01*
X3571773Y-1159360D02*
X3571773Y-1029360D01*
X3571773Y-1029360D02*
X3559392Y-1047932D01*
X3559392Y-1047932D02*
X3547011Y-1060313D01*
X3547011Y-1060313D02*
X3534630Y-1066503D01*
D10*
D11*
X8534630Y-1041741D02*
X8540821Y-1035551D01*
X8540821Y-1035551D02*
X8553202Y-1029360D01*
X8553202Y-1029360D02*
X8584154Y-1029360D01*
X8584154Y-1029360D02*
X8596535Y-1035551D01*
X8596535Y-1035551D02*
X8602726Y-1041741D01*
X8602726Y-1041741D02*
X8608916Y-1054122D01*
X8608916Y-1054122D02*
X8608916Y-1066503D01*
X8608916Y-1066503D02*
X8602726Y-1085075D01*
X8602726Y-1085075D02*
X8528440Y-1159360D01*
X8528440Y-1159360D02*
X8608916Y-1159360D01*
D10*
D11*
X13528440Y-1029360D02*
X13608916Y-1029360D01*
X13608916Y-1029360D02*
X13565583Y-1078884D01*
X13565583Y-1078884D02*
X13584154Y-1078884D01*
X13584154Y-1078884D02*
X13596535Y-1085075D01*
X13596535Y-1085075D02*
X13602725Y-1091265D01*
X13602725Y-1091265D02*
X13608916Y-1103646D01*
X13608916Y-1103646D02*
X13608916Y-1134599D01*
X13608916Y-1134599D02*
X13602725Y-1146980D01*
X13602725Y-1146980D02*
X13596535Y-1153170D01*
X13596535Y-1153170D02*
X13584154Y-1159360D01*
X13584154Y-1159360D02*
X13547011Y-1159360D01*
X13547011Y-1159360D02*
X13534630Y-1153170D01*
X13534630Y-1153170D02*
X13528440Y-1146980D01*
D10*
D11*
X18596535Y-1072694D02*
X18596535Y-1159360D01*
X18565583Y-1023170D02*
X18534630Y-1116027D01*
X18534630Y-1116027D02*
X18615106Y-1116027D01*
D10*
D11*
X23602725Y-1029360D02*
X23540821Y-1029360D01*
X23540821Y-1029360D02*
X23534630Y-1091265D01*
X23534630Y-1091265D02*
X23540821Y-1085075D01*
X23540821Y-1085075D02*
X23553202Y-1078884D01*
X23553202Y-1078884D02*
X23584154Y-1078884D01*
X23584154Y-1078884D02*
X23596535Y-1085075D01*
X23596535Y-1085075D02*
X23602725Y-1091265D01*
X23602725Y-1091265D02*
X23608916Y-1103646D01*
X23608916Y-1103646D02*
X23608916Y-1134599D01*
X23608916Y-1134599D02*
X23602725Y-1146980D01*
X23602725Y-1146980D02*
X23596535Y-1153170D01*
X23596535Y-1153170D02*
X23584154Y-1159360D01*
X23584154Y-1159360D02*
X23553202Y-1159360D01*
X23553202Y-1159360D02*
X23540821Y-1153170D01*
X23540821Y-1153170D02*
X23534630Y-1146980D01*
D10*
D11*
X28596535Y-1029360D02*
X28571773Y-1029360D01*
X28571773Y-1029360D02*
X28559392Y-1035551D01*
X28559392Y-1035551D02*
X28553202Y-1041741D01*
X28553202Y-1041741D02*
X28540821Y-1060313D01*
X28540821Y-1060313D02*
X28534630Y-1085075D01*
X28534630Y-1085075D02*
X28534630Y-1134599D01*
X28534630Y-1134599D02*
X28540821Y-1146980D01*
X28540821Y-1146980D02*
X28547011Y-1153170D01*
X28547011Y-1153170D02*
X28559392Y-1159360D01*
X28559392Y-1159360D02*
X28584154Y-1159360D01*
X28584154Y-1159360D02*
X28596535Y-1153170D01*
X28596535Y-1153170D02*
X28602725Y-1146980D01*
X28602725Y-1146980D02*
X28608916Y-1134599D01*
X28608916Y-1134599D02*
X28608916Y-1103646D01*
X28608916Y-1103646D02*
X28602725Y-1091265D01*
X28602725Y-1091265D02*
X28596535Y-1085075D01*
X28596535Y-1085075D02*
X28584154Y-1078884D01*
X28584154Y-1078884D02*
X28559392Y-1078884D01*
X28559392Y-1078884D02*
X28547011Y-1085075D01*
X28547011Y-1085075D02*
X28540821Y-1091265D01*
X28540821Y-1091265D02*
X28534630Y-1103646D01*
D10*
D11*
X6000000Y-19800720D02*
X6000000Y-20000720D01*
D10*
D11*
X11000000Y-19800720D02*
X11000000Y-20000720D01*
D10*
D11*
X16000000Y-19800720D02*
X16000000Y-20000720D01*
D10*
D11*
X21000000Y-19800720D02*
X21000000Y-20000720D01*
D10*
D11*
X26000000Y-19800720D02*
X26000000Y-20000720D01*
D10*
D11*
X3608916Y-19960080D02*
X3534630Y-19960080D01*
X3571773Y-19960080D02*
X3571773Y-19830080D01*
X3571773Y-19830080D02*
X3559392Y-19848652D01*
X3559392Y-19848652D02*
X3547011Y-19861033D01*
X3547011Y-19861033D02*
X3534630Y-19867223D01*
D10*
D11*
X8534630Y-19842461D02*
X8540821Y-19836271D01*
X8540821Y-19836271D02*
X8553202Y-19830080D01*
X8553202Y-19830080D02*
X8584154Y-19830080D01*
X8584154Y-19830080D02*
X8596535Y-19836271D01*
X8596535Y-19836271D02*
X8602726Y-19842461D01*
X8602726Y-19842461D02*
X8608916Y-19854842D01*
X8608916Y-19854842D02*
X8608916Y-19867223D01*
X8608916Y-19867223D02*
X8602726Y-19885795D01*
X8602726Y-19885795D02*
X8528440Y-19960080D01*
X8528440Y-19960080D02*
X8608916Y-19960080D01*
D10*
D11*
X13528440Y-19830080D02*
X13608916Y-19830080D01*
X13608916Y-19830080D02*
X13565583Y-19879604D01*
X13565583Y-19879604D02*
X13584154Y-19879604D01*
X13584154Y-19879604D02*
X13596535Y-19885795D01*
X13596535Y-19885795D02*
X13602725Y-19891985D01*
X13602725Y-19891985D02*
X13608916Y-19904366D01*
X13608916Y-19904366D02*
X13608916Y-19935319D01*
X13608916Y-19935319D02*
X13602725Y-19947700D01*
X13602725Y-19947700D02*
X13596535Y-19953890D01*
X13596535Y-19953890D02*
X13584154Y-19960080D01*
X13584154Y-19960080D02*
X13547011Y-19960080D01*
X13547011Y-19960080D02*
X13534630Y-19953890D01*
X13534630Y-19953890D02*
X13528440Y-19947700D01*
D10*
D11*
X18596535Y-19873414D02*
X18596535Y-19960080D01*
X18565583Y-19823890D02*
X18534630Y-19916747D01*
X18534630Y-19916747D02*
X18615106Y-19916747D01*
D10*
D11*
X23602725Y-19830080D02*
X23540821Y-19830080D01*
X23540821Y-19830080D02*
X23534630Y-19891985D01*
X23534630Y-19891985D02*
X23540821Y-19885795D01*
X23540821Y-19885795D02*
X23553202Y-19879604D01*
X23553202Y-19879604D02*
X23584154Y-19879604D01*
X23584154Y-19879604D02*
X23596535Y-19885795D01*
X23596535Y-19885795D02*
X23602725Y-19891985D01*
X23602725Y-19891985D02*
X23608916Y-19904366D01*
X23608916Y-19904366D02*
X23608916Y-19935319D01*
X23608916Y-19935319D02*
X23602725Y-19947700D01*
X23602725Y-19947700D02*
X23596535Y-19953890D01*
X23596535Y-19953890D02*
X23584154Y-19960080D01*
X23584154Y-19960080D02*
X23553202Y-19960080D01*
X23553202Y-19960080D02*
X23540821Y-19953890D01*
X23540821Y-19953890D02*
X23534630Y-19947700D01*
D10*
D11*
X28596535Y-19830080D02*
X28571773Y-19830080D01*
X28571773Y-19830080D02*
X28559392Y-19836271D01*
X28559392Y-19836271D02*
X28553202Y-19842461D01*
X28553202Y-19842461D02*
X28540821Y-19861033D01*
X28540821Y-19861033D02*
X28534630Y-19885795D01*
X28534630Y-19885795D02*
X28534630Y-19935319D01*
X28534630Y-19935319D02*
X28540821Y-19947700D01*
X28540821Y-19947700D02*
X28547011Y-19953890D01*
X28547011Y-19953890D02*
X28559392Y-19960080D01*
X28559392Y-19960080D02*
X28584154Y-19960080D01*
X28584154Y-19960080D02*
X28596535Y-19953890D01*
X28596535Y-19953890D02*
X28602725Y-19947700D01*
X28602725Y-19947700D02*
X28608916Y-19935319D01*
X28608916Y-19935319D02*
X28608916Y-19904366D01*
X28608916Y-19904366D02*
X28602725Y-19891985D01*
X28602725Y-19891985D02*
X28596535Y-19885795D01*
X28596535Y-19885795D02*
X28584154Y-19879604D01*
X28584154Y-19879604D02*
X28559392Y-19879604D01*
X28559392Y-19879604D02*
X28547011Y-19885795D01*
X28547011Y-19885795D02*
X28540821Y-19891985D01*
X28540821Y-19891985D02*
X28534630Y-19904366D01*
D10*
D11*
X1000000Y-6000000D02*
X1200000Y-6000000D01*
D10*
D11*
X1000000Y-11000000D02*
X1200000Y-11000000D01*
D10*
D11*
X1000000Y-16000000D02*
X1200000Y-16000000D01*
D10*
D11*
X1069048Y-3522218D02*
X1130952Y-3522218D01*
X1056667Y-3559360D02*
X1100000Y-3429360D01*
X1100000Y-3429360D02*
X1143333Y-3559360D01*
D10*
D11*
X1109286Y-8491265D02*
X1127857Y-8497456D01*
X1127857Y-8497456D02*
X1134048Y-8503646D01*
X1134048Y-8503646D02*
X1140238Y-8516027D01*
X1140238Y-8516027D02*
X1140238Y-8534599D01*
X1140238Y-8534599D02*
X1134048Y-8546980D01*
X1134048Y-8546980D02*
X1127857Y-8553170D01*
X1127857Y-8553170D02*
X1115476Y-8559360D01*
X1115476Y-8559360D02*
X1065952Y-8559360D01*
X1065952Y-8559360D02*
X1065952Y-8429360D01*
X1065952Y-8429360D02*
X1109286Y-8429360D01*
X1109286Y-8429360D02*
X1121667Y-8435551D01*
X1121667Y-8435551D02*
X1127857Y-8441741D01*
X1127857Y-8441741D02*
X1134048Y-8454122D01*
X1134048Y-8454122D02*
X1134048Y-8466503D01*
X1134048Y-8466503D02*
X1127857Y-8478884D01*
X1127857Y-8478884D02*
X1121667Y-8485075D01*
X1121667Y-8485075D02*
X1109286Y-8491265D01*
X1109286Y-8491265D02*
X1065952Y-8491265D01*
D10*
D11*
X1140238Y-13546979D02*
X1134048Y-13553170D01*
X1134048Y-13553170D02*
X1115476Y-13559360D01*
X1115476Y-13559360D02*
X1103095Y-13559360D01*
X1103095Y-13559360D02*
X1084524Y-13553170D01*
X1084524Y-13553170D02*
X1072143Y-13540789D01*
X1072143Y-13540789D02*
X1065952Y-13528408D01*
X1065952Y-13528408D02*
X1059762Y-13503646D01*
X1059762Y-13503646D02*
X1059762Y-13485075D01*
X1059762Y-13485075D02*
X1065952Y-13460313D01*
X1065952Y-13460313D02*
X1072143Y-13447932D01*
X1072143Y-13447932D02*
X1084524Y-13435551D01*
X1084524Y-13435551D02*
X1103095Y-13429360D01*
X1103095Y-13429360D02*
X1115476Y-13429360D01*
X1115476Y-13429360D02*
X1134048Y-13435551D01*
X1134048Y-13435551D02*
X1140238Y-13441741D01*
D10*
D11*
X1065952Y-18559360D02*
X1065952Y-18429360D01*
X1065952Y-18429360D02*
X1096905Y-18429360D01*
X1096905Y-18429360D02*
X1115476Y-18435551D01*
X1115476Y-18435551D02*
X1127857Y-18447932D01*
X1127857Y-18447932D02*
X1134048Y-18460313D01*
X1134048Y-18460313D02*
X1140238Y-18485075D01*
X1140238Y-18485075D02*
X1140238Y-18503646D01*
X1140238Y-18503646D02*
X1134048Y-18528408D01*
X1134048Y-18528408D02*
X1127857Y-18540789D01*
X1127857Y-18540789D02*
X1115476Y-18553170D01*
X1115476Y-18553170D02*
X1096905Y-18559360D01*
X1096905Y-18559360D02*
X1065952Y-18559360D01*
D10*
D11*
X28700220Y-6000000D02*
X28500220Y-6000000D01*
D10*
D11*
X28700220Y-11000000D02*
X28500220Y-11000000D01*
D10*
D11*
X28700220Y-16000000D02*
X28500220Y-16000000D01*
D10*
D11*
X28569268Y-3522218D02*
X28631172Y-3522218D01*
X28556887Y-3559360D02*
X28600220Y-3429360D01*
X28600220Y-3429360D02*
X28643553Y-3559360D01*
D10*
D11*
X28609506Y-8491265D02*
X28628077Y-8497456D01*
X28628077Y-8497456D02*
X28634268Y-8503646D01*
X28634268Y-8503646D02*
X28640458Y-8516027D01*
X28640458Y-8516027D02*
X28640458Y-8534599D01*
X28640458Y-8534599D02*
X28634268Y-8546980D01*
X28634268Y-8546980D02*
X28628077Y-8553170D01*
X28628077Y-8553170D02*
X28615696Y-8559360D01*
X28615696Y-8559360D02*
X28566172Y-8559360D01*
X28566172Y-8559360D02*
X28566172Y-8429360D01*
X28566172Y-8429360D02*
X28609506Y-8429360D01*
X28609506Y-8429360D02*
X28621887Y-8435551D01*
X28621887Y-8435551D02*
X28628077Y-8441741D01*
X28628077Y-8441741D02*
X28634268Y-8454122D01*
X28634268Y-8454122D02*
X28634268Y-8466503D01*
X28634268Y-8466503D02*
X28628077Y-8478884D01*
X28628077Y-8478884D02*
X28621887Y-8485075D01*
X28621887Y-8485075D02*
X28609506Y-8491265D01*
X28609506Y-8491265D02*
X28566172Y-8491265D01*
D10*
D11*
X28640458Y-13546979D02*
X28634268Y-13553170D01*
X28634268Y-13553170D02*
X28615696Y-13559360D01*
X28615696Y-13559360D02*
X28603315Y-13559360D01*
X28603315Y-13559360D02*
X28584744Y-13553170D01*
X28584744Y-13553170D02*
X28572363Y-13540789D01*
X28572363Y-13540789D02*
X28566172Y-13528408D01*
X28566172Y-13528408D02*
X28559982Y-13503646D01*
X28559982Y-13503646D02*
X28559982Y-13485075D01*
X28559982Y-13485075D02*
X28566172Y-13460313D01*
X28566172Y-13460313D02*
X28572363Y-13447932D01*
X28572363Y-13447932D02*
X28584744Y-13435551D01*
X28584744Y-13435551D02*
X28603315Y-13429360D01*
X28603315Y-13429360D02*
X28615696Y-13429360D01*
X28615696Y-13429360D02*
X28634268Y-13435551D01*
X28634268Y-13435551D02*
X28640458Y-13441741D01*
D10*
D11*
X28566172Y-18559360D02*
X28566172Y-18429360D01*
X28566172Y-18429360D02*
X28597125Y-18429360D01*
X28597125Y-18429360D02*
X28615696Y-18435551D01*
X28615696Y-18435551D02*
X28628077Y-18447932D01*
X28628077Y-18447932D02*
X28634268Y-18460313D01*
X28634268Y-18460313D02*
X28640458Y-18485075D01*
X28640458Y-18485075D02*
X28640458Y-18503646D01*
X28640458Y-18503646D02*
X28634268Y-18528408D01*
X28634268Y-18528408D02*
X28628077Y-18540789D01*
X28628077Y-18540789D02*
X28615696Y-18553170D01*
X28615696Y-18553170D02*
X28597125Y-18559360D01*
X28597125Y-18559360D02*
X28566172Y-18559360D01*
D10*
D11*
X20045803Y-19379333D02*
X20045803Y-19229333D01*
X20045803Y-19229333D02*
X20081517Y-19229333D01*
X20081517Y-19229333D02*
X20102946Y-19236476D01*
X20102946Y-19236476D02*
X20117231Y-19250761D01*
X20117231Y-19250761D02*
X20124374Y-19265047D01*
X20124374Y-19265047D02*
X20131517Y-19293619D01*
X20131517Y-19293619D02*
X20131517Y-19315047D01*
X20131517Y-19315047D02*
X20124374Y-19343619D01*
X20124374Y-19343619D02*
X20117231Y-19357904D01*
X20117231Y-19357904D02*
X20102946Y-19372190D01*
X20102946Y-19372190D02*
X20081517Y-19379333D01*
X20081517Y-19379333D02*
X20045803Y-19379333D01*
X20260088Y-19379333D02*
X20260088Y-19300761D01*
X20260088Y-19300761D02*
X20252946Y-19286476D01*
X20252946Y-19286476D02*
X20238660Y-19279333D01*
X20238660Y-19279333D02*
X20210088Y-19279333D01*
X20210088Y-19279333D02*
X20195803Y-19286476D01*
X20260088Y-19372190D02*
X20245803Y-19379333D01*
X20245803Y-19379333D02*
X20210088Y-19379333D01*
X20210088Y-19379333D02*
X20195803Y-19372190D01*
X20195803Y-19372190D02*
X20188660Y-19357904D01*
X20188660Y-19357904D02*
X20188660Y-19343619D01*
X20188660Y-19343619D02*
X20195803Y-19329333D01*
X20195803Y-19329333D02*
X20210088Y-19322190D01*
X20210088Y-19322190D02*
X20245803Y-19322190D01*
X20245803Y-19322190D02*
X20260088Y-19315047D01*
X20310088Y-19279333D02*
X20367231Y-19279333D01*
X20331517Y-19229333D02*
X20331517Y-19357904D01*
X20331517Y-19357904D02*
X20338660Y-19372190D01*
X20338660Y-19372190D02*
X20352946Y-19379333D01*
X20352946Y-19379333D02*
X20367231Y-19379333D01*
X20474374Y-19372190D02*
X20460088Y-19379333D01*
X20460088Y-19379333D02*
X20431517Y-19379333D01*
X20431517Y-19379333D02*
X20417231Y-19372190D01*
X20417231Y-19372190D02*
X20410088Y-19357904D01*
X20410088Y-19357904D02*
X20410088Y-19300761D01*
X20410088Y-19300761D02*
X20417231Y-19286476D01*
X20417231Y-19286476D02*
X20431517Y-19279333D01*
X20431517Y-19279333D02*
X20460088Y-19279333D01*
X20460088Y-19279333D02*
X20474374Y-19286476D01*
X20474374Y-19286476D02*
X20481517Y-19300761D01*
X20481517Y-19300761D02*
X20481517Y-19315047D01*
X20481517Y-19315047D02*
X20410088Y-19329333D01*
X20545803Y-19365047D02*
X20552946Y-19372190D01*
X20552946Y-19372190D02*
X20545803Y-19379333D01*
X20545803Y-19379333D02*
X20538660Y-19372190D01*
X20538660Y-19372190D02*
X20545803Y-19365047D01*
X20545803Y-19365047D02*
X20545803Y-19379333D01*
X20545803Y-19286476D02*
X20552946Y-19293619D01*
X20552946Y-19293619D02*
X20545803Y-19300761D01*
X20545803Y-19300761D02*
X20538660Y-19293619D01*
X20538660Y-19293619D02*
X20545803Y-19286476D01*
X20545803Y-19286476D02*
X20545803Y-19300761D01*
D10*
D11*
X17700220Y-19450720D02*
X28500220Y-19450720D01*
D10*
D11*
X17845803Y-19659333D02*
X17845803Y-19509333D01*
X17931517Y-19659333D02*
X17867231Y-19573619D01*
X17931517Y-19509333D02*
X17845803Y-19595047D01*
X17995803Y-19659333D02*
X17995803Y-19559333D01*
X17995803Y-19509333D02*
X17988660Y-19516476D01*
X17988660Y-19516476D02*
X17995803Y-19523619D01*
X17995803Y-19523619D02*
X18002946Y-19516476D01*
X18002946Y-19516476D02*
X17995803Y-19509333D01*
X17995803Y-19509333D02*
X17995803Y-19523619D01*
X18152946Y-19645047D02*
X18145803Y-19652190D01*
X18145803Y-19652190D02*
X18124374Y-19659333D01*
X18124374Y-19659333D02*
X18110088Y-19659333D01*
X18110088Y-19659333D02*
X18088660Y-19652190D01*
X18088660Y-19652190D02*
X18074374Y-19637904D01*
X18074374Y-19637904D02*
X18067231Y-19623619D01*
X18067231Y-19623619D02*
X18060088Y-19595047D01*
X18060088Y-19595047D02*
X18060088Y-19573619D01*
X18060088Y-19573619D02*
X18067231Y-19545047D01*
X18067231Y-19545047D02*
X18074374Y-19530761D01*
X18074374Y-19530761D02*
X18088660Y-19516476D01*
X18088660Y-19516476D02*
X18110088Y-19509333D01*
X18110088Y-19509333D02*
X18124374Y-19509333D01*
X18124374Y-19509333D02*
X18145803Y-19516476D01*
X18145803Y-19516476D02*
X18152946Y-19523619D01*
X18281517Y-19659333D02*
X18281517Y-19580761D01*
X18281517Y-19580761D02*
X18274374Y-19566476D01*
X18274374Y-19566476D02*
X18260088Y-19559333D01*
X18260088Y-19559333D02*
X18231517Y-19559333D01*
X18231517Y-19559333D02*
X18217231Y-19566476D01*
X18281517Y-19652190D02*
X18267231Y-19659333D01*
X18267231Y-19659333D02*
X18231517Y-19659333D01*
X18231517Y-19659333D02*
X18217231Y-19652190D01*
X18217231Y-19652190D02*
X18210088Y-19637904D01*
X18210088Y-19637904D02*
X18210088Y-19623619D01*
X18210088Y-19623619D02*
X18217231Y-19609333D01*
X18217231Y-19609333D02*
X18231517Y-19602190D01*
X18231517Y-19602190D02*
X18267231Y-19602190D01*
X18267231Y-19602190D02*
X18281517Y-19595047D01*
X18417231Y-19659333D02*
X18417231Y-19509333D01*
X18417231Y-19652190D02*
X18402946Y-19659333D01*
X18402946Y-19659333D02*
X18374374Y-19659333D01*
X18374374Y-19659333D02*
X18360088Y-19652190D01*
X18360088Y-19652190D02*
X18352946Y-19645047D01*
X18352946Y-19645047D02*
X18345803Y-19630761D01*
X18345803Y-19630761D02*
X18345803Y-19587904D01*
X18345803Y-19587904D02*
X18352946Y-19573619D01*
X18352946Y-19573619D02*
X18360088Y-19566476D01*
X18360088Y-19566476D02*
X18374374Y-19559333D01*
X18374374Y-19559333D02*
X18402946Y-19559333D01*
X18402946Y-19559333D02*
X18417231Y-19566476D01*
X18602946Y-19580761D02*
X18652946Y-19580761D01*
X18674374Y-19659333D02*
X18602946Y-19659333D01*
X18602946Y-19659333D02*
X18602946Y-19509333D01*
X18602946Y-19509333D02*
X18674374Y-19509333D01*
X18738660Y-19645047D02*
X18745803Y-19652190D01*
X18745803Y-19652190D02*
X18738660Y-19659333D01*
X18738660Y-19659333D02*
X18731517Y-19652190D01*
X18731517Y-19652190D02*
X18738660Y-19645047D01*
X18738660Y-19645047D02*
X18738660Y-19659333D01*
X18810088Y-19659333D02*
X18810088Y-19509333D01*
X18810088Y-19509333D02*
X18845803Y-19509333D01*
X18845803Y-19509333D02*
X18867231Y-19516476D01*
X18867231Y-19516476D02*
X18881517Y-19530761D01*
X18881517Y-19530761D02*
X18888660Y-19545047D01*
X18888660Y-19545047D02*
X18895803Y-19573619D01*
X18895803Y-19573619D02*
X18895803Y-19595047D01*
X18895803Y-19595047D02*
X18888660Y-19623619D01*
X18888660Y-19623619D02*
X18881517Y-19637904D01*
X18881517Y-19637904D02*
X18867231Y-19652190D01*
X18867231Y-19652190D02*
X18845803Y-19659333D01*
X18845803Y-19659333D02*
X18810088Y-19659333D01*
X18960088Y-19645047D02*
X18967231Y-19652190D01*
X18967231Y-19652190D02*
X18960088Y-19659333D01*
X18960088Y-19659333D02*
X18952946Y-19652190D01*
X18952946Y-19652190D02*
X18960088Y-19645047D01*
X18960088Y-19645047D02*
X18960088Y-19659333D01*
X19024374Y-19616476D02*
X19095803Y-19616476D01*
X19010089Y-19659333D02*
X19060089Y-19509333D01*
X19060089Y-19509333D02*
X19110089Y-19659333D01*
X19160088Y-19645047D02*
X19167231Y-19652190D01*
X19167231Y-19652190D02*
X19160088Y-19659333D01*
X19160088Y-19659333D02*
X19152946Y-19652190D01*
X19152946Y-19652190D02*
X19160088Y-19645047D01*
X19160088Y-19645047D02*
X19160088Y-19659333D01*
X19367231Y-19573619D02*
X19352946Y-19566476D01*
X19352946Y-19566476D02*
X19345803Y-19559333D01*
X19345803Y-19559333D02*
X19338660Y-19545047D01*
X19338660Y-19545047D02*
X19338660Y-19537904D01*
X19338660Y-19537904D02*
X19345803Y-19523619D01*
X19345803Y-19523619D02*
X19352946Y-19516476D01*
X19352946Y-19516476D02*
X19367231Y-19509333D01*
X19367231Y-19509333D02*
X19395803Y-19509333D01*
X19395803Y-19509333D02*
X19410089Y-19516476D01*
X19410089Y-19516476D02*
X19417231Y-19523619D01*
X19417231Y-19523619D02*
X19424374Y-19537904D01*
X19424374Y-19537904D02*
X19424374Y-19545047D01*
X19424374Y-19545047D02*
X19417231Y-19559333D01*
X19417231Y-19559333D02*
X19410089Y-19566476D01*
X19410089Y-19566476D02*
X19395803Y-19573619D01*
X19395803Y-19573619D02*
X19367231Y-19573619D01*
X19367231Y-19573619D02*
X19352946Y-19580761D01*
X19352946Y-19580761D02*
X19345803Y-19587904D01*
X19345803Y-19587904D02*
X19338660Y-19602190D01*
X19338660Y-19602190D02*
X19338660Y-19630761D01*
X19338660Y-19630761D02*
X19345803Y-19645047D01*
X19345803Y-19645047D02*
X19352946Y-19652190D01*
X19352946Y-19652190D02*
X19367231Y-19659333D01*
X19367231Y-19659333D02*
X19395803Y-19659333D01*
X19395803Y-19659333D02*
X19410089Y-19652190D01*
X19410089Y-19652190D02*
X19417231Y-19645047D01*
X19417231Y-19645047D02*
X19424374Y-19630761D01*
X19424374Y-19630761D02*
X19424374Y-19602190D01*
X19424374Y-19602190D02*
X19417231Y-19587904D01*
X19417231Y-19587904D02*
X19410089Y-19580761D01*
X19410089Y-19580761D02*
X19395803Y-19573619D01*
X19488660Y-19645047D02*
X19495803Y-19652190D01*
X19495803Y-19652190D02*
X19488660Y-19659333D01*
X19488660Y-19659333D02*
X19481517Y-19652190D01*
X19481517Y-19652190D02*
X19488660Y-19645047D01*
X19488660Y-19645047D02*
X19488660Y-19659333D01*
X19588660Y-19509333D02*
X19602946Y-19509333D01*
X19602946Y-19509333D02*
X19617231Y-19516476D01*
X19617231Y-19516476D02*
X19624374Y-19523619D01*
X19624374Y-19523619D02*
X19631517Y-19537904D01*
X19631517Y-19537904D02*
X19638660Y-19566476D01*
X19638660Y-19566476D02*
X19638660Y-19602190D01*
X19638660Y-19602190D02*
X19631517Y-19630761D01*
X19631517Y-19630761D02*
X19624374Y-19645047D01*
X19624374Y-19645047D02*
X19617231Y-19652190D01*
X19617231Y-19652190D02*
X19602946Y-19659333D01*
X19602946Y-19659333D02*
X19588660Y-19659333D01*
X19588660Y-19659333D02*
X19574374Y-19652190D01*
X19574374Y-19652190D02*
X19567231Y-19645047D01*
X19567231Y-19645047D02*
X19560088Y-19630761D01*
X19560088Y-19630761D02*
X19552946Y-19602190D01*
X19552946Y-19602190D02*
X19552946Y-19566476D01*
X19552946Y-19566476D02*
X19560088Y-19537904D01*
X19560088Y-19537904D02*
X19567231Y-19523619D01*
X19567231Y-19523619D02*
X19574374Y-19516476D01*
X19574374Y-19516476D02*
X19588660Y-19509333D01*
X19702946Y-19645047D02*
X19710088Y-19652190D01*
X19710088Y-19652190D02*
X19702946Y-19659333D01*
X19702946Y-19659333D02*
X19695803Y-19652190D01*
X19695803Y-19652190D02*
X19702946Y-19645047D01*
X19702946Y-19645047D02*
X19702946Y-19659333D01*
X19845803Y-19509333D02*
X19774374Y-19509333D01*
X19774374Y-19509333D02*
X19767231Y-19580761D01*
X19767231Y-19580761D02*
X19774374Y-19573619D01*
X19774374Y-19573619D02*
X19788660Y-19566476D01*
X19788660Y-19566476D02*
X19824374Y-19566476D01*
X19824374Y-19566476D02*
X19838660Y-19573619D01*
X19838660Y-19573619D02*
X19845803Y-19580761D01*
X19845803Y-19580761D02*
X19852946Y-19595047D01*
X19852946Y-19595047D02*
X19852946Y-19630761D01*
X19852946Y-19630761D02*
X19845803Y-19645047D01*
X19845803Y-19645047D02*
X19838660Y-19652190D01*
X19838660Y-19652190D02*
X19824374Y-19659333D01*
X19824374Y-19659333D02*
X19788660Y-19659333D01*
X19788660Y-19659333D02*
X19774374Y-19652190D01*
X19774374Y-19652190D02*
X19767231Y-19645047D01*
D10*
D11*
X17700220Y-19150720D02*
X28500220Y-19150720D01*
D10*
D12*
X26441385Y-19378553D02*
X26391385Y-19307124D01*
X26355671Y-19378553D02*
X26355671Y-19228553D01*
X26355671Y-19228553D02*
X26412814Y-19228553D01*
X26412814Y-19228553D02*
X26427100Y-19235696D01*
X26427100Y-19235696D02*
X26434242Y-19242839D01*
X26434242Y-19242839D02*
X26441385Y-19257124D01*
X26441385Y-19257124D02*
X26441385Y-19278553D01*
X26441385Y-19278553D02*
X26434242Y-19292839D01*
X26434242Y-19292839D02*
X26427100Y-19299981D01*
X26427100Y-19299981D02*
X26412814Y-19307124D01*
X26412814Y-19307124D02*
X26355671Y-19307124D01*
X26562814Y-19371410D02*
X26548528Y-19378553D01*
X26548528Y-19378553D02*
X26519957Y-19378553D01*
X26519957Y-19378553D02*
X26505671Y-19371410D01*
X26505671Y-19371410D02*
X26498528Y-19357124D01*
X26498528Y-19357124D02*
X26498528Y-19299981D01*
X26498528Y-19299981D02*
X26505671Y-19285696D01*
X26505671Y-19285696D02*
X26519957Y-19278553D01*
X26519957Y-19278553D02*
X26548528Y-19278553D01*
X26548528Y-19278553D02*
X26562814Y-19285696D01*
X26562814Y-19285696D02*
X26569957Y-19299981D01*
X26569957Y-19299981D02*
X26569957Y-19314267D01*
X26569957Y-19314267D02*
X26498528Y-19328553D01*
X26619957Y-19278553D02*
X26655671Y-19378553D01*
X26655671Y-19378553D02*
X26691385Y-19278553D01*
X26748528Y-19364267D02*
X26755671Y-19371410D01*
X26755671Y-19371410D02*
X26748528Y-19378553D01*
X26748528Y-19378553D02*
X26741385Y-19371410D01*
X26741385Y-19371410D02*
X26748528Y-19364267D01*
X26748528Y-19364267D02*
X26748528Y-19378553D01*
X26748528Y-19285696D02*
X26755671Y-19292839D01*
X26755671Y-19292839D02*
X26748528Y-19299981D01*
X26748528Y-19299981D02*
X26741385Y-19292839D01*
X26741385Y-19292839D02*
X26748528Y-19285696D01*
X26748528Y-19285696D02*
X26748528Y-19299981D01*
D10*
D11*
X17838660Y-19372190D02*
X17860088Y-19379333D01*
X17860088Y-19379333D02*
X17895803Y-19379333D01*
X17895803Y-19379333D02*
X17910088Y-19372190D01*
X17910088Y-19372190D02*
X17917231Y-19365047D01*
X17917231Y-19365047D02*
X17924374Y-19350761D01*
X17924374Y-19350761D02*
X17924374Y-19336476D01*
X17924374Y-19336476D02*
X17917231Y-19322190D01*
X17917231Y-19322190D02*
X17910088Y-19315047D01*
X17910088Y-19315047D02*
X17895803Y-19307904D01*
X17895803Y-19307904D02*
X17867231Y-19300761D01*
X17867231Y-19300761D02*
X17852946Y-19293619D01*
X17852946Y-19293619D02*
X17845803Y-19286476D01*
X17845803Y-19286476D02*
X17838660Y-19272190D01*
X17838660Y-19272190D02*
X17838660Y-19257904D01*
X17838660Y-19257904D02*
X17845803Y-19243619D01*
X17845803Y-19243619D02*
X17852946Y-19236476D01*
X17852946Y-19236476D02*
X17867231Y-19229333D01*
X17867231Y-19229333D02*
X17902946Y-19229333D01*
X17902946Y-19229333D02*
X17924374Y-19236476D01*
X17988660Y-19379333D02*
X17988660Y-19279333D01*
X17988660Y-19229333D02*
X17981517Y-19236476D01*
X17981517Y-19236476D02*
X17988660Y-19243619D01*
X17988660Y-19243619D02*
X17995803Y-19236476D01*
X17995803Y-19236476D02*
X17988660Y-19229333D01*
X17988660Y-19229333D02*
X17988660Y-19243619D01*
X18045803Y-19279333D02*
X18124374Y-19279333D01*
X18124374Y-19279333D02*
X18045803Y-19379333D01*
X18045803Y-19379333D02*
X18124374Y-19379333D01*
X18238660Y-19372190D02*
X18224374Y-19379333D01*
X18224374Y-19379333D02*
X18195803Y-19379333D01*
X18195803Y-19379333D02*
X18181517Y-19372190D01*
X18181517Y-19372190D02*
X18174374Y-19357904D01*
X18174374Y-19357904D02*
X18174374Y-19300761D01*
X18174374Y-19300761D02*
X18181517Y-19286476D01*
X18181517Y-19286476D02*
X18195803Y-19279333D01*
X18195803Y-19279333D02*
X18224374Y-19279333D01*
X18224374Y-19279333D02*
X18238660Y-19286476D01*
X18238660Y-19286476D02*
X18245803Y-19300761D01*
X18245803Y-19300761D02*
X18245803Y-19315047D01*
X18245803Y-19315047D02*
X18174374Y-19329333D01*
X18310088Y-19365047D02*
X18317231Y-19372190D01*
X18317231Y-19372190D02*
X18310088Y-19379333D01*
X18310088Y-19379333D02*
X18302946Y-19372190D01*
X18302946Y-19372190D02*
X18310088Y-19365047D01*
X18310088Y-19365047D02*
X18310088Y-19379333D01*
X18310088Y-19286476D02*
X18317231Y-19293619D01*
X18317231Y-19293619D02*
X18310088Y-19300761D01*
X18310088Y-19300761D02*
X18302946Y-19293619D01*
X18302946Y-19293619D02*
X18310088Y-19286476D01*
X18310088Y-19286476D02*
X18310088Y-19300761D01*
X18488660Y-19336476D02*
X18560088Y-19336476D01*
X18474374Y-19379333D02*
X18524374Y-19229333D01*
X18524374Y-19229333D02*
X18574374Y-19379333D01*
X18688660Y-19279333D02*
X18688660Y-19379333D01*
X18652946Y-19222190D02*
X18617231Y-19329333D01*
X18617231Y-19329333D02*
X18710088Y-19329333D01*
D10*
D11*
X26345803Y-19659333D02*
X26345803Y-19509333D01*
X26481517Y-19659333D02*
X26481517Y-19509333D01*
X26481517Y-19652190D02*
X26467231Y-19659333D01*
X26467231Y-19659333D02*
X26438660Y-19659333D01*
X26438660Y-19659333D02*
X26424374Y-19652190D01*
X26424374Y-19652190D02*
X26417231Y-19645047D01*
X26417231Y-19645047D02*
X26410088Y-19630761D01*
X26410088Y-19630761D02*
X26410088Y-19587904D01*
X26410088Y-19587904D02*
X26417231Y-19573619D01*
X26417231Y-19573619D02*
X26424374Y-19566476D01*
X26424374Y-19566476D02*
X26438660Y-19559333D01*
X26438660Y-19559333D02*
X26467231Y-19559333D01*
X26467231Y-19559333D02*
X26481517Y-19566476D01*
X26552945Y-19645047D02*
X26560088Y-19652190D01*
X26560088Y-19652190D02*
X26552945Y-19659333D01*
X26552945Y-19659333D02*
X26545803Y-19652190D01*
X26545803Y-19652190D02*
X26552945Y-19645047D01*
X26552945Y-19645047D02*
X26552945Y-19659333D01*
X26552945Y-19566476D02*
X26560088Y-19573619D01*
X26560088Y-19573619D02*
X26552945Y-19580761D01*
X26552945Y-19580761D02*
X26545803Y-19573619D01*
X26545803Y-19573619D02*
X26552945Y-19566476D01*
X26552945Y-19566476D02*
X26552945Y-19580761D01*
X26817231Y-19659333D02*
X26731517Y-19659333D01*
X26774374Y-19659333D02*
X26774374Y-19509333D01*
X26774374Y-19509333D02*
X26760088Y-19530761D01*
X26760088Y-19530761D02*
X26745803Y-19545047D01*
X26745803Y-19545047D02*
X26731517Y-19552190D01*
X26988660Y-19502190D02*
X26860088Y-19695047D01*
X27117231Y-19659333D02*
X27031517Y-19659333D01*
X27074374Y-19659333D02*
X27074374Y-19509333D01*
X27074374Y-19509333D02*
X27060088Y-19530761D01*
X27060088Y-19530761D02*
X27045803Y-19545047D01*
X27045803Y-19545047D02*
X27031517Y-19552190D01*
D10*
D11*
X17700220Y-18750720D02*
X28500220Y-18750720D01*
D10*
D13*
X17869393Y-18821164D02*
X17983679Y-18821164D01*
X17901536Y-19021164D02*
X17926536Y-18821164D01*
X18025345Y-19021164D02*
X18042012Y-18887830D01*
X18050345Y-18821164D02*
X18039631Y-18830688D01*
X18039631Y-18830688D02*
X18047964Y-18840211D01*
X18047964Y-18840211D02*
X18058679Y-18830688D01*
X18058679Y-18830688D02*
X18050345Y-18821164D01*
X18050345Y-18821164D02*
X18047964Y-18840211D01*
X18108679Y-18887830D02*
X18184869Y-18887830D01*
X18145583Y-18821164D02*
X18124155Y-18992592D01*
X18124155Y-18992592D02*
X18131298Y-19011640D01*
X18131298Y-19011640D02*
X18149155Y-19021164D01*
X18149155Y-19021164D02*
X18168202Y-19021164D01*
X18263441Y-19021164D02*
X18245583Y-19011640D01*
X18245583Y-19011640D02*
X18238441Y-18992592D01*
X18238441Y-18992592D02*
X18259869Y-18821164D01*
X18417012Y-19011640D02*
X18396774Y-19021164D01*
X18396774Y-19021164D02*
X18358679Y-19021164D01*
X18358679Y-19021164D02*
X18340821Y-19011640D01*
X18340821Y-19011640D02*
X18333679Y-18992592D01*
X18333679Y-18992592D02*
X18343202Y-18916402D01*
X18343202Y-18916402D02*
X18355107Y-18897354D01*
X18355107Y-18897354D02*
X18375345Y-18887830D01*
X18375345Y-18887830D02*
X18413440Y-18887830D01*
X18413440Y-18887830D02*
X18431298Y-18897354D01*
X18431298Y-18897354D02*
X18438440Y-18916402D01*
X18438440Y-18916402D02*
X18436060Y-18935450D01*
X18436060Y-18935450D02*
X18338440Y-18954497D01*
X18513441Y-19002116D02*
X18521774Y-19011640D01*
X18521774Y-19011640D02*
X18511060Y-19021164D01*
X18511060Y-19021164D02*
X18502726Y-19011640D01*
X18502726Y-19011640D02*
X18513441Y-19002116D01*
X18513441Y-19002116D02*
X18511060Y-19021164D01*
X18526536Y-18897354D02*
X18534869Y-18906878D01*
X18534869Y-18906878D02*
X18524155Y-18916402D01*
X18524155Y-18916402D02*
X18515821Y-18906878D01*
X18515821Y-18906878D02*
X18526536Y-18897354D01*
X18526536Y-18897354D02*
X18524155Y-18916402D01*
D10*
D11*
X17895803Y-18560761D02*
X17845803Y-18560761D01*
X17845803Y-18639333D02*
X17845803Y-18489333D01*
X17845803Y-18489333D02*
X17917231Y-18489333D01*
X17974374Y-18639333D02*
X17974374Y-18539333D01*
X17974374Y-18489333D02*
X17967231Y-18496476D01*
X17967231Y-18496476D02*
X17974374Y-18503619D01*
X17974374Y-18503619D02*
X17981517Y-18496476D01*
X17981517Y-18496476D02*
X17974374Y-18489333D01*
X17974374Y-18489333D02*
X17974374Y-18503619D01*
X18067231Y-18639333D02*
X18052946Y-18632190D01*
X18052946Y-18632190D02*
X18045803Y-18617904D01*
X18045803Y-18617904D02*
X18045803Y-18489333D01*
X18181517Y-18632190D02*
X18167231Y-18639333D01*
X18167231Y-18639333D02*
X18138660Y-18639333D01*
X18138660Y-18639333D02*
X18124374Y-18632190D01*
X18124374Y-18632190D02*
X18117231Y-18617904D01*
X18117231Y-18617904D02*
X18117231Y-18560761D01*
X18117231Y-18560761D02*
X18124374Y-18546476D01*
X18124374Y-18546476D02*
X18138660Y-18539333D01*
X18138660Y-18539333D02*
X18167231Y-18539333D01*
X18167231Y-18539333D02*
X18181517Y-18546476D01*
X18181517Y-18546476D02*
X18188660Y-18560761D01*
X18188660Y-18560761D02*
X18188660Y-18575047D01*
X18188660Y-18575047D02*
X18117231Y-18589333D01*
X18252945Y-18625047D02*
X18260088Y-18632190D01*
X18260088Y-18632190D02*
X18252945Y-18639333D01*
X18252945Y-18639333D02*
X18245803Y-18632190D01*
X18245803Y-18632190D02*
X18252945Y-18625047D01*
X18252945Y-18625047D02*
X18252945Y-18639333D01*
X18252945Y-18546476D02*
X18260088Y-18553619D01*
X18260088Y-18553619D02*
X18252945Y-18560761D01*
X18252945Y-18560761D02*
X18245803Y-18553619D01*
X18245803Y-18553619D02*
X18252945Y-18546476D01*
X18252945Y-18546476D02*
X18252945Y-18560761D01*
X18424374Y-18539333D02*
X18452946Y-18639333D01*
X18452946Y-18639333D02*
X18481517Y-18567904D01*
X18481517Y-18567904D02*
X18510088Y-18639333D01*
X18510088Y-18639333D02*
X18538660Y-18539333D01*
X18660088Y-18639333D02*
X18660088Y-18560761D01*
X18660088Y-18560761D02*
X18652946Y-18546476D01*
X18652946Y-18546476D02*
X18638660Y-18539333D01*
X18638660Y-18539333D02*
X18610088Y-18539333D01*
X18610088Y-18539333D02*
X18595803Y-18546476D01*
X18660088Y-18632190D02*
X18645803Y-18639333D01*
X18645803Y-18639333D02*
X18610088Y-18639333D01*
X18610088Y-18639333D02*
X18595803Y-18632190D01*
X18595803Y-18632190D02*
X18588660Y-18617904D01*
X18588660Y-18617904D02*
X18588660Y-18603619D01*
X18588660Y-18603619D02*
X18595803Y-18589333D01*
X18595803Y-18589333D02*
X18610088Y-18582190D01*
X18610088Y-18582190D02*
X18645803Y-18582190D01*
X18645803Y-18582190D02*
X18660088Y-18575047D01*
X18752946Y-18639333D02*
X18738660Y-18632190D01*
X18738660Y-18632190D02*
X18731517Y-18617904D01*
X18731517Y-18617904D02*
X18731517Y-18489333D01*
X18788660Y-18539333D02*
X18845803Y-18539333D01*
X18810088Y-18489333D02*
X18810088Y-18617904D01*
X18810088Y-18617904D02*
X18817231Y-18632190D01*
X18817231Y-18632190D02*
X18831517Y-18639333D01*
X18831517Y-18639333D02*
X18845803Y-18639333D01*
X18952946Y-18632190D02*
X18938660Y-18639333D01*
X18938660Y-18639333D02*
X18910088Y-18639333D01*
X18910088Y-18639333D02*
X18895803Y-18632190D01*
X18895803Y-18632190D02*
X18888660Y-18617904D01*
X18888660Y-18617904D02*
X18888660Y-18560761D01*
X18888660Y-18560761D02*
X18895803Y-18546476D01*
X18895803Y-18546476D02*
X18910088Y-18539333D01*
X18910088Y-18539333D02*
X18938660Y-18539333D01*
X18938660Y-18539333D02*
X18952946Y-18546476D01*
X18952946Y-18546476D02*
X18960088Y-18560761D01*
X18960088Y-18560761D02*
X18960088Y-18575047D01*
X18960088Y-18575047D02*
X18888660Y-18589333D01*
X19024374Y-18639333D02*
X19024374Y-18539333D01*
X19024374Y-18567904D02*
X19031517Y-18553619D01*
X19031517Y-18553619D02*
X19038660Y-18546476D01*
X19038660Y-18546476D02*
X19052946Y-18539333D01*
X19052946Y-18539333D02*
X19067231Y-18539333D01*
X19081517Y-18653619D02*
X19195803Y-18653619D01*
X19231517Y-18639333D02*
X19231517Y-18539333D01*
X19231517Y-18567904D02*
X19238660Y-18553619D01*
X19238660Y-18553619D02*
X19245803Y-18546476D01*
X19245803Y-18546476D02*
X19260088Y-18539333D01*
X19260088Y-18539333D02*
X19274374Y-18539333D01*
X19381517Y-18632190D02*
X19367231Y-18639333D01*
X19367231Y-18639333D02*
X19338660Y-18639333D01*
X19338660Y-18639333D02*
X19324374Y-18632190D01*
X19324374Y-18632190D02*
X19317231Y-18617904D01*
X19317231Y-18617904D02*
X19317231Y-18560761D01*
X19317231Y-18560761D02*
X19324374Y-18546476D01*
X19324374Y-18546476D02*
X19338660Y-18539333D01*
X19338660Y-18539333D02*
X19367231Y-18539333D01*
X19367231Y-18539333D02*
X19381517Y-18546476D01*
X19381517Y-18546476D02*
X19388660Y-18560761D01*
X19388660Y-18560761D02*
X19388660Y-18575047D01*
X19388660Y-18575047D02*
X19317231Y-18589333D01*
X19452945Y-18639333D02*
X19452945Y-18539333D01*
X19452945Y-18553619D02*
X19460088Y-18546476D01*
X19460088Y-18546476D02*
X19474374Y-18539333D01*
X19474374Y-18539333D02*
X19495803Y-18539333D01*
X19495803Y-18539333D02*
X19510088Y-18546476D01*
X19510088Y-18546476D02*
X19517231Y-18560761D01*
X19517231Y-18560761D02*
X19517231Y-18639333D01*
X19517231Y-18560761D02*
X19524374Y-18546476D01*
X19524374Y-18546476D02*
X19538660Y-18539333D01*
X19538660Y-18539333D02*
X19560088Y-18539333D01*
X19560088Y-18539333D02*
X19574374Y-18546476D01*
X19574374Y-18546476D02*
X19581517Y-18560761D01*
X19581517Y-18560761D02*
X19581517Y-18639333D01*
X19652945Y-18639333D02*
X19652945Y-18539333D01*
X19652945Y-18489333D02*
X19645803Y-18496476D01*
X19645803Y-18496476D02*
X19652945Y-18503619D01*
X19652945Y-18503619D02*
X19660088Y-18496476D01*
X19660088Y-18496476D02*
X19652945Y-18489333D01*
X19652945Y-18489333D02*
X19652945Y-18503619D01*
X19710088Y-18639333D02*
X19788660Y-18539333D01*
X19710088Y-18539333D02*
X19788660Y-18639333D01*
X19960088Y-18582190D02*
X20074374Y-18582190D01*
X20345803Y-18625047D02*
X20338660Y-18632190D01*
X20338660Y-18632190D02*
X20317231Y-18639333D01*
X20317231Y-18639333D02*
X20302945Y-18639333D01*
X20302945Y-18639333D02*
X20281517Y-18632190D01*
X20281517Y-18632190D02*
X20267231Y-18617904D01*
X20267231Y-18617904D02*
X20260088Y-18603619D01*
X20260088Y-18603619D02*
X20252945Y-18575047D01*
X20252945Y-18575047D02*
X20252945Y-18553619D01*
X20252945Y-18553619D02*
X20260088Y-18525047D01*
X20260088Y-18525047D02*
X20267231Y-18510761D01*
X20267231Y-18510761D02*
X20281517Y-18496476D01*
X20281517Y-18496476D02*
X20302945Y-18489333D01*
X20302945Y-18489333D02*
X20317231Y-18489333D01*
X20317231Y-18489333D02*
X20338660Y-18496476D01*
X20338660Y-18496476D02*
X20345803Y-18503619D01*
X20395803Y-18489333D02*
X20488660Y-18489333D01*
X20488660Y-18489333D02*
X20438660Y-18546476D01*
X20438660Y-18546476D02*
X20460088Y-18546476D01*
X20460088Y-18546476D02*
X20474374Y-18553619D01*
X20474374Y-18553619D02*
X20481517Y-18560761D01*
X20481517Y-18560761D02*
X20488660Y-18575047D01*
X20488660Y-18575047D02*
X20488660Y-18610761D01*
X20488660Y-18610761D02*
X20481517Y-18625047D01*
X20481517Y-18625047D02*
X20474374Y-18632190D01*
X20474374Y-18632190D02*
X20460088Y-18639333D01*
X20460088Y-18639333D02*
X20417231Y-18639333D01*
X20417231Y-18639333D02*
X20402945Y-18632190D01*
X20402945Y-18632190D02*
X20395803Y-18625047D01*
X20538660Y-18539333D02*
X20574374Y-18639333D01*
X20574374Y-18639333D02*
X20610088Y-18539333D01*
X20660088Y-18503619D02*
X20667231Y-18496476D01*
X20667231Y-18496476D02*
X20681517Y-18489333D01*
X20681517Y-18489333D02*
X20717231Y-18489333D01*
X20717231Y-18489333D02*
X20731517Y-18496476D01*
X20731517Y-18496476D02*
X20738660Y-18503619D01*
X20738660Y-18503619D02*
X20745803Y-18517904D01*
X20745803Y-18517904D02*
X20745803Y-18532190D01*
X20745803Y-18532190D02*
X20738660Y-18553619D01*
X20738660Y-18553619D02*
X20652945Y-18639333D01*
X20652945Y-18639333D02*
X20745803Y-18639333D01*
X20810088Y-18625047D02*
X20817231Y-18632190D01*
X20817231Y-18632190D02*
X20810088Y-18639333D01*
X20810088Y-18639333D02*
X20802945Y-18632190D01*
X20802945Y-18632190D02*
X20810088Y-18625047D01*
X20810088Y-18625047D02*
X20810088Y-18639333D01*
X20881517Y-18639333D02*
X20881517Y-18489333D01*
X20895803Y-18582190D02*
X20938660Y-18639333D01*
X20938660Y-18539333D02*
X20881517Y-18596476D01*
X21002945Y-18639333D02*
X21002945Y-18539333D01*
X21002945Y-18489333D02*
X20995803Y-18496476D01*
X20995803Y-18496476D02*
X21002945Y-18503619D01*
X21002945Y-18503619D02*
X21010088Y-18496476D01*
X21010088Y-18496476D02*
X21002945Y-18489333D01*
X21002945Y-18489333D02*
X21002945Y-18503619D01*
X21138660Y-18632190D02*
X21124374Y-18639333D01*
X21124374Y-18639333D02*
X21095803Y-18639333D01*
X21095803Y-18639333D02*
X21081517Y-18632190D01*
X21081517Y-18632190D02*
X21074374Y-18625047D01*
X21074374Y-18625047D02*
X21067231Y-18610761D01*
X21067231Y-18610761D02*
X21067231Y-18567904D01*
X21067231Y-18567904D02*
X21074374Y-18553619D01*
X21074374Y-18553619D02*
X21081517Y-18546476D01*
X21081517Y-18546476D02*
X21095803Y-18539333D01*
X21095803Y-18539333D02*
X21124374Y-18539333D01*
X21124374Y-18539333D02*
X21138660Y-18546476D01*
X21267231Y-18639333D02*
X21267231Y-18560761D01*
X21267231Y-18560761D02*
X21260088Y-18546476D01*
X21260088Y-18546476D02*
X21245803Y-18539333D01*
X21245803Y-18539333D02*
X21217231Y-18539333D01*
X21217231Y-18539333D02*
X21202945Y-18546476D01*
X21267231Y-18632190D02*
X21252945Y-18639333D01*
X21252945Y-18639333D02*
X21217231Y-18639333D01*
X21217231Y-18639333D02*
X21202945Y-18632190D01*
X21202945Y-18632190D02*
X21195803Y-18617904D01*
X21195803Y-18617904D02*
X21195803Y-18603619D01*
X21195803Y-18603619D02*
X21202945Y-18589333D01*
X21202945Y-18589333D02*
X21217231Y-18582190D01*
X21217231Y-18582190D02*
X21252945Y-18582190D01*
X21252945Y-18582190D02*
X21267231Y-18575047D01*
X21402945Y-18639333D02*
X21402945Y-18489333D01*
X21402945Y-18632190D02*
X21388660Y-18639333D01*
X21388660Y-18639333D02*
X21360088Y-18639333D01*
X21360088Y-18639333D02*
X21345803Y-18632190D01*
X21345803Y-18632190D02*
X21338660Y-18625047D01*
X21338660Y-18625047D02*
X21331517Y-18610761D01*
X21331517Y-18610761D02*
X21331517Y-18567904D01*
X21331517Y-18567904D02*
X21338660Y-18553619D01*
X21338660Y-18553619D02*
X21345803Y-18546476D01*
X21345803Y-18546476D02*
X21360088Y-18539333D01*
X21360088Y-18539333D02*
X21388660Y-18539333D01*
X21388660Y-18539333D02*
X21402945Y-18546476D01*
X21438660Y-18653619D02*
X21552945Y-18653619D01*
X21588660Y-18539333D02*
X21588660Y-18689333D01*
X21588660Y-18546476D02*
X21602945Y-18539333D01*
X21602945Y-18539333D02*
X21631517Y-18539333D01*
X21631517Y-18539333D02*
X21645803Y-18546476D01*
X21645803Y-18546476D02*
X21652945Y-18553619D01*
X21652945Y-18553619D02*
X21660088Y-18567904D01*
X21660088Y-18567904D02*
X21660088Y-18610761D01*
X21660088Y-18610761D02*
X21652945Y-18625047D01*
X21652945Y-18625047D02*
X21645803Y-18632190D01*
X21645803Y-18632190D02*
X21631517Y-18639333D01*
X21631517Y-18639333D02*
X21602945Y-18639333D01*
X21602945Y-18639333D02*
X21588660Y-18632190D01*
X21788660Y-18632190D02*
X21774374Y-18639333D01*
X21774374Y-18639333D02*
X21745803Y-18639333D01*
X21745803Y-18639333D02*
X21731517Y-18632190D01*
X21731517Y-18632190D02*
X21724374Y-18625047D01*
X21724374Y-18625047D02*
X21717231Y-18610761D01*
X21717231Y-18610761D02*
X21717231Y-18567904D01*
X21717231Y-18567904D02*
X21724374Y-18553619D01*
X21724374Y-18553619D02*
X21731517Y-18546476D01*
X21731517Y-18546476D02*
X21745803Y-18539333D01*
X21745803Y-18539333D02*
X21774374Y-18539333D01*
X21774374Y-18539333D02*
X21788660Y-18546476D01*
X21852945Y-18639333D02*
X21852945Y-18489333D01*
X21852945Y-18546476D02*
X21867231Y-18539333D01*
X21867231Y-18539333D02*
X21895803Y-18539333D01*
X21895803Y-18539333D02*
X21910088Y-18546476D01*
X21910088Y-18546476D02*
X21917231Y-18553619D01*
X21917231Y-18553619D02*
X21924374Y-18567904D01*
X21924374Y-18567904D02*
X21924374Y-18610761D01*
X21924374Y-18610761D02*
X21917231Y-18625047D01*
X21917231Y-18625047D02*
X21910088Y-18632190D01*
X21910088Y-18632190D02*
X21895803Y-18639333D01*
X21895803Y-18639333D02*
X21867231Y-18639333D01*
X21867231Y-18639333D02*
X21852945Y-18632190D01*
D10*
D11*
X17700220Y-18150720D02*
X28500220Y-18150720D01*
D10*
D11*
X17838660Y-18362190D02*
X17860088Y-18369333D01*
X17860088Y-18369333D02*
X17895803Y-18369333D01*
X17895803Y-18369333D02*
X17910088Y-18362190D01*
X17910088Y-18362190D02*
X17917231Y-18355047D01*
X17917231Y-18355047D02*
X17924374Y-18340761D01*
X17924374Y-18340761D02*
X17924374Y-18326476D01*
X17924374Y-18326476D02*
X17917231Y-18312190D01*
X17917231Y-18312190D02*
X17910088Y-18305047D01*
X17910088Y-18305047D02*
X17895803Y-18297904D01*
X17895803Y-18297904D02*
X17867231Y-18290761D01*
X17867231Y-18290761D02*
X17852946Y-18283619D01*
X17852946Y-18283619D02*
X17845803Y-18276476D01*
X17845803Y-18276476D02*
X17838660Y-18262190D01*
X17838660Y-18262190D02*
X17838660Y-18247904D01*
X17838660Y-18247904D02*
X17845803Y-18233619D01*
X17845803Y-18233619D02*
X17852946Y-18226476D01*
X17852946Y-18226476D02*
X17867231Y-18219333D01*
X17867231Y-18219333D02*
X17902946Y-18219333D01*
X17902946Y-18219333D02*
X17924374Y-18226476D01*
X17988660Y-18369333D02*
X17988660Y-18219333D01*
X18052946Y-18369333D02*
X18052946Y-18290761D01*
X18052946Y-18290761D02*
X18045803Y-18276476D01*
X18045803Y-18276476D02*
X18031517Y-18269333D01*
X18031517Y-18269333D02*
X18010088Y-18269333D01*
X18010088Y-18269333D02*
X17995803Y-18276476D01*
X17995803Y-18276476D02*
X17988660Y-18283619D01*
X18181517Y-18362190D02*
X18167231Y-18369333D01*
X18167231Y-18369333D02*
X18138660Y-18369333D01*
X18138660Y-18369333D02*
X18124374Y-18362190D01*
X18124374Y-18362190D02*
X18117231Y-18347904D01*
X18117231Y-18347904D02*
X18117231Y-18290761D01*
X18117231Y-18290761D02*
X18124374Y-18276476D01*
X18124374Y-18276476D02*
X18138660Y-18269333D01*
X18138660Y-18269333D02*
X18167231Y-18269333D01*
X18167231Y-18269333D02*
X18181517Y-18276476D01*
X18181517Y-18276476D02*
X18188660Y-18290761D01*
X18188660Y-18290761D02*
X18188660Y-18305047D01*
X18188660Y-18305047D02*
X18117231Y-18319333D01*
X18310088Y-18362190D02*
X18295803Y-18369333D01*
X18295803Y-18369333D02*
X18267231Y-18369333D01*
X18267231Y-18369333D02*
X18252945Y-18362190D01*
X18252945Y-18362190D02*
X18245803Y-18347904D01*
X18245803Y-18347904D02*
X18245803Y-18290761D01*
X18245803Y-18290761D02*
X18252945Y-18276476D01*
X18252945Y-18276476D02*
X18267231Y-18269333D01*
X18267231Y-18269333D02*
X18295803Y-18269333D01*
X18295803Y-18269333D02*
X18310088Y-18276476D01*
X18310088Y-18276476D02*
X18317231Y-18290761D01*
X18317231Y-18290761D02*
X18317231Y-18305047D01*
X18317231Y-18305047D02*
X18245803Y-18319333D01*
X18360088Y-18269333D02*
X18417231Y-18269333D01*
X18381517Y-18219333D02*
X18381517Y-18347904D01*
X18381517Y-18347904D02*
X18388660Y-18362190D01*
X18388660Y-18362190D02*
X18402945Y-18369333D01*
X18402945Y-18369333D02*
X18417231Y-18369333D01*
X18467231Y-18355047D02*
X18474374Y-18362190D01*
X18474374Y-18362190D02*
X18467231Y-18369333D01*
X18467231Y-18369333D02*
X18460088Y-18362190D01*
X18460088Y-18362190D02*
X18467231Y-18355047D01*
X18467231Y-18355047D02*
X18467231Y-18369333D01*
X18467231Y-18276476D02*
X18474374Y-18283619D01*
X18474374Y-18283619D02*
X18467231Y-18290761D01*
X18467231Y-18290761D02*
X18460088Y-18283619D01*
X18460088Y-18283619D02*
X18467231Y-18276476D01*
X18467231Y-18276476D02*
X18467231Y-18290761D01*
D10*
D11*
X19700220Y-19150720D02*
X19700220Y-19450720D01*
D10*
D11*
X26100220Y-19150720D02*
X26100220Y-19800720D01*
X13552982Y-8586690D02*
X13633934Y-8586690D01*
X13633934Y-8586690D02*
X13643458Y-8581929D01*
X13643458Y-8581929D02*
X13648220Y-8577167D01*
X13648220Y-8577167D02*
X13652982Y-8567643D01*
X13652982Y-8567643D02*
X13652982Y-8548595D01*
X13652982Y-8548595D02*
X13648220Y-8539071D01*
X13648220Y-8539071D02*
X13643458Y-8534310D01*
X13643458Y-8534310D02*
X13633934Y-8529548D01*
X13633934Y-8529548D02*
X13552982Y-8529548D01*
X13652982Y-8429548D02*
X13652982Y-8486690D01*
X13652982Y-8458119D02*
X13552982Y-8458119D01*
X13552982Y-8458119D02*
X13567268Y-8467643D01*
X13567268Y-8467643D02*
X13576791Y-8477167D01*
X13576791Y-8477167D02*
X13581553Y-8486690D01*
D14*
X13040432Y-9472333D02*
X13131146Y-9472333D01*
X13131146Y-9472333D02*
X13149289Y-9478381D01*
X13149289Y-9478381D02*
X13161384Y-9490476D01*
X13161384Y-9490476D02*
X13167432Y-9508619D01*
X13167432Y-9508619D02*
X13167432Y-9520714D01*
X13040432Y-9357429D02*
X13040432Y-9381619D01*
X13040432Y-9381619D02*
X13046479Y-9393714D01*
X13046479Y-9393714D02*
X13052527Y-9399762D01*
X13052527Y-9399762D02*
X13070670Y-9411857D01*
X13070670Y-9411857D02*
X13094860Y-9417905D01*
X13094860Y-9417905D02*
X13143241Y-9417905D01*
X13143241Y-9417905D02*
X13155336Y-9411857D01*
X13155336Y-9411857D02*
X13161384Y-9405809D01*
X13161384Y-9405809D02*
X13167432Y-9393714D01*
X13167432Y-9393714D02*
X13167432Y-9369524D01*
X13167432Y-9369524D02*
X13161384Y-9357429D01*
X13161384Y-9357429D02*
X13155336Y-9351381D01*
X13155336Y-9351381D02*
X13143241Y-9345333D01*
X13143241Y-9345333D02*
X13113003Y-9345333D01*
X13113003Y-9345333D02*
X13100908Y-9351381D01*
X13100908Y-9351381D02*
X13094860Y-9357429D01*
X13094860Y-9357429D02*
X13088813Y-9369524D01*
X13088813Y-9369524D02*
X13088813Y-9393714D01*
X13088813Y-9393714D02*
X13094860Y-9405809D01*
X13094860Y-9405809D02*
X13100908Y-9411857D01*
X13100908Y-9411857D02*
X13113003Y-9417905D01*
X14381905Y-10076527D02*
X14369809Y-10070479D01*
X14369809Y-10070479D02*
X14357714Y-10058384D01*
X14357714Y-10058384D02*
X14339571Y-10040241D01*
X14339571Y-10040241D02*
X14327476Y-10034194D01*
X14327476Y-10034194D02*
X14315381Y-10034194D01*
X14321428Y-10064432D02*
X14309333Y-10058384D01*
X14309333Y-10058384D02*
X14297238Y-10046289D01*
X14297238Y-10046289D02*
X14291190Y-10022098D01*
X14291190Y-10022098D02*
X14291190Y-9979765D01*
X14291190Y-9979765D02*
X14297238Y-9955575D01*
X14297238Y-9955575D02*
X14309333Y-9943479D01*
X14309333Y-9943479D02*
X14321428Y-9937432D01*
X14321428Y-9937432D02*
X14345619Y-9937432D01*
X14345619Y-9937432D02*
X14357714Y-9943479D01*
X14357714Y-9943479D02*
X14369809Y-9955575D01*
X14369809Y-9955575D02*
X14375857Y-9979765D01*
X14375857Y-9979765D02*
X14375857Y-10022098D01*
X14375857Y-10022098D02*
X14369809Y-10046289D01*
X14369809Y-10046289D02*
X14357714Y-10058384D01*
X14357714Y-10058384D02*
X14345619Y-10064432D01*
X14345619Y-10064432D02*
X14321428Y-10064432D01*
X14496809Y-10064432D02*
X14424238Y-10064432D01*
X14460524Y-10064432D02*
X14460524Y-9937432D01*
X14460524Y-9937432D02*
X14448428Y-9955575D01*
X14448428Y-9955575D02*
X14436333Y-9967670D01*
X14436333Y-9967670D02*
X14424238Y-9973718D01*
D11*
X15194714Y-10918482D02*
X15161381Y-10870863D01*
X15137571Y-10918482D02*
X15137571Y-10818482D01*
X15137571Y-10818482D02*
X15175667Y-10818482D01*
X15175667Y-10818482D02*
X15185190Y-10823244D01*
X15185190Y-10823244D02*
X15189952Y-10828006D01*
X15189952Y-10828006D02*
X15194714Y-10837530D01*
X15194714Y-10837530D02*
X15194714Y-10851815D01*
X15194714Y-10851815D02*
X15189952Y-10861339D01*
X15189952Y-10861339D02*
X15185190Y-10866101D01*
X15185190Y-10866101D02*
X15175667Y-10870863D01*
X15175667Y-10870863D02*
X15137571Y-10870863D01*
X15232809Y-10828006D02*
X15237571Y-10823244D01*
X15237571Y-10823244D02*
X15247095Y-10818482D01*
X15247095Y-10818482D02*
X15270905Y-10818482D01*
X15270905Y-10818482D02*
X15280428Y-10823244D01*
X15280428Y-10823244D02*
X15285190Y-10828006D01*
X15285190Y-10828006D02*
X15289952Y-10837530D01*
X15289952Y-10837530D02*
X15289952Y-10847053D01*
X15289952Y-10847053D02*
X15285190Y-10861339D01*
X15285190Y-10861339D02*
X15228048Y-10918482D01*
X15228048Y-10918482D02*
X15289952Y-10918482D01*
X15380428Y-10818482D02*
X15332809Y-10818482D01*
X15332809Y-10818482D02*
X15328048Y-10866101D01*
X15328048Y-10866101D02*
X15332809Y-10861339D01*
X15332809Y-10861339D02*
X15342333Y-10856577D01*
X15342333Y-10856577D02*
X15366143Y-10856577D01*
X15366143Y-10856577D02*
X15375667Y-10861339D01*
X15375667Y-10861339D02*
X15380428Y-10866101D01*
X15380428Y-10866101D02*
X15385190Y-10875625D01*
X15385190Y-10875625D02*
X15385190Y-10899434D01*
X15385190Y-10899434D02*
X15380428Y-10908958D01*
X15380428Y-10908958D02*
X15375667Y-10913720D01*
X15375667Y-10913720D02*
X15366143Y-10918482D01*
X15366143Y-10918482D02*
X15342333Y-10918482D01*
X15342333Y-10918482D02*
X15332809Y-10913720D01*
X15332809Y-10913720D02*
X15328048Y-10908958D01*
X14875714Y-10810482D02*
X14842381Y-10762863D01*
X14818571Y-10810482D02*
X14818571Y-10710482D01*
X14818571Y-10710482D02*
X14856667Y-10710482D01*
X14856667Y-10710482D02*
X14866190Y-10715244D01*
X14866190Y-10715244D02*
X14870952Y-10720006D01*
X14870952Y-10720006D02*
X14875714Y-10729530D01*
X14875714Y-10729530D02*
X14875714Y-10743815D01*
X14875714Y-10743815D02*
X14870952Y-10753339D01*
X14870952Y-10753339D02*
X14866190Y-10758101D01*
X14866190Y-10758101D02*
X14856667Y-10762863D01*
X14856667Y-10762863D02*
X14818571Y-10762863D01*
X14913809Y-10720006D02*
X14918571Y-10715244D01*
X14918571Y-10715244D02*
X14928095Y-10710482D01*
X14928095Y-10710482D02*
X14951905Y-10710482D01*
X14951905Y-10710482D02*
X14961428Y-10715244D01*
X14961428Y-10715244D02*
X14966190Y-10720006D01*
X14966190Y-10720006D02*
X14970952Y-10729530D01*
X14970952Y-10729530D02*
X14970952Y-10739053D01*
X14970952Y-10739053D02*
X14966190Y-10753339D01*
X14966190Y-10753339D02*
X14909048Y-10810482D01*
X14909048Y-10810482D02*
X14970952Y-10810482D01*
X15056667Y-10743815D02*
X15056667Y-10810482D01*
X15032857Y-10705720D02*
X15009048Y-10777149D01*
X15009048Y-10777149D02*
X15070952Y-10777149D01*
X15769482Y-10478286D02*
X15721863Y-10511619D01*
X15769482Y-10535429D02*
X15669482Y-10535429D01*
X15669482Y-10535429D02*
X15669482Y-10497333D01*
X15669482Y-10497333D02*
X15674244Y-10487810D01*
X15674244Y-10487810D02*
X15679006Y-10483048D01*
X15679006Y-10483048D02*
X15688529Y-10478286D01*
X15688529Y-10478286D02*
X15702815Y-10478286D01*
X15702815Y-10478286D02*
X15712339Y-10483048D01*
X15712339Y-10483048D02*
X15717101Y-10487810D01*
X15717101Y-10487810D02*
X15721863Y-10497333D01*
X15721863Y-10497333D02*
X15721863Y-10535429D01*
X15679006Y-10440190D02*
X15674244Y-10435429D01*
X15674244Y-10435429D02*
X15669482Y-10425905D01*
X15669482Y-10425905D02*
X15669482Y-10402095D01*
X15669482Y-10402095D02*
X15674244Y-10392571D01*
X15674244Y-10392571D02*
X15679006Y-10387810D01*
X15679006Y-10387810D02*
X15688529Y-10383048D01*
X15688529Y-10383048D02*
X15698053Y-10383048D01*
X15698053Y-10383048D02*
X15712339Y-10387810D01*
X15712339Y-10387810D02*
X15769482Y-10444952D01*
X15769482Y-10444952D02*
X15769482Y-10383048D01*
X15669482Y-10349714D02*
X15669482Y-10287810D01*
X15669482Y-10287810D02*
X15707577Y-10321143D01*
X15707577Y-10321143D02*
X15707577Y-10306857D01*
X15707577Y-10306857D02*
X15712339Y-10297333D01*
X15712339Y-10297333D02*
X15717101Y-10292571D01*
X15717101Y-10292571D02*
X15726625Y-10287810D01*
X15726625Y-10287810D02*
X15750434Y-10287810D01*
X15750434Y-10287810D02*
X15759958Y-10292571D01*
X15759958Y-10292571D02*
X15764720Y-10297333D01*
X15764720Y-10297333D02*
X15769482Y-10306857D01*
X15769482Y-10306857D02*
X15769482Y-10335429D01*
X15769482Y-10335429D02*
X15764720Y-10344952D01*
X15764720Y-10344952D02*
X15759958Y-10349714D01*
X15574982Y-10684286D02*
X15527363Y-10717619D01*
X15574982Y-10741429D02*
X15474982Y-10741429D01*
X15474982Y-10741429D02*
X15474982Y-10703333D01*
X15474982Y-10703333D02*
X15479744Y-10693810D01*
X15479744Y-10693810D02*
X15484506Y-10689048D01*
X15484506Y-10689048D02*
X15494029Y-10684286D01*
X15494029Y-10684286D02*
X15508315Y-10684286D01*
X15508315Y-10684286D02*
X15517839Y-10689048D01*
X15517839Y-10689048D02*
X15522601Y-10693810D01*
X15522601Y-10693810D02*
X15527363Y-10703333D01*
X15527363Y-10703333D02*
X15527363Y-10741429D01*
X15484506Y-10646190D02*
X15479744Y-10641429D01*
X15479744Y-10641429D02*
X15474982Y-10631905D01*
X15474982Y-10631905D02*
X15474982Y-10608095D01*
X15474982Y-10608095D02*
X15479744Y-10598571D01*
X15479744Y-10598571D02*
X15484506Y-10593810D01*
X15484506Y-10593810D02*
X15494029Y-10589048D01*
X15494029Y-10589048D02*
X15503553Y-10589048D01*
X15503553Y-10589048D02*
X15517839Y-10593810D01*
X15517839Y-10593810D02*
X15574982Y-10650952D01*
X15574982Y-10650952D02*
X15574982Y-10589048D01*
X15484506Y-10550952D02*
X15479744Y-10546190D01*
X15479744Y-10546190D02*
X15474982Y-10536667D01*
X15474982Y-10536667D02*
X15474982Y-10512857D01*
X15474982Y-10512857D02*
X15479744Y-10503333D01*
X15479744Y-10503333D02*
X15484506Y-10498571D01*
X15484506Y-10498571D02*
X15494029Y-10493810D01*
X15494029Y-10493810D02*
X15503553Y-10493810D01*
X15503553Y-10493810D02*
X15517839Y-10498571D01*
X15517839Y-10498571D02*
X15574982Y-10555714D01*
X15574982Y-10555714D02*
X15574982Y-10493810D01*
X15763482Y-10903286D02*
X15715863Y-10936619D01*
X15763482Y-10960429D02*
X15663482Y-10960429D01*
X15663482Y-10960429D02*
X15663482Y-10922333D01*
X15663482Y-10922333D02*
X15668244Y-10912810D01*
X15668244Y-10912810D02*
X15673006Y-10908048D01*
X15673006Y-10908048D02*
X15682529Y-10903286D01*
X15682529Y-10903286D02*
X15696815Y-10903286D01*
X15696815Y-10903286D02*
X15706339Y-10908048D01*
X15706339Y-10908048D02*
X15711101Y-10912810D01*
X15711101Y-10912810D02*
X15715863Y-10922333D01*
X15715863Y-10922333D02*
X15715863Y-10960429D01*
X15673006Y-10865190D02*
X15668244Y-10860429D01*
X15668244Y-10860429D02*
X15663482Y-10850905D01*
X15663482Y-10850905D02*
X15663482Y-10827095D01*
X15663482Y-10827095D02*
X15668244Y-10817571D01*
X15668244Y-10817571D02*
X15673006Y-10812810D01*
X15673006Y-10812810D02*
X15682529Y-10808048D01*
X15682529Y-10808048D02*
X15692053Y-10808048D01*
X15692053Y-10808048D02*
X15706339Y-10812810D01*
X15706339Y-10812810D02*
X15763482Y-10869952D01*
X15763482Y-10869952D02*
X15763482Y-10808048D01*
X15763482Y-10712810D02*
X15763482Y-10769952D01*
X15763482Y-10741381D02*
X15663482Y-10741381D01*
X15663482Y-10741381D02*
X15677768Y-10750905D01*
X15677768Y-10750905D02*
X15687291Y-10760429D01*
X15687291Y-10760429D02*
X15692053Y-10769952D01*
X14586714Y-10665482D02*
X14553381Y-10617863D01*
X14529571Y-10665482D02*
X14529571Y-10565482D01*
X14529571Y-10565482D02*
X14567667Y-10565482D01*
X14567667Y-10565482D02*
X14577190Y-10570244D01*
X14577190Y-10570244D02*
X14581952Y-10575006D01*
X14581952Y-10575006D02*
X14586714Y-10584530D01*
X14586714Y-10584530D02*
X14586714Y-10598815D01*
X14586714Y-10598815D02*
X14581952Y-10608339D01*
X14581952Y-10608339D02*
X14577190Y-10613101D01*
X14577190Y-10613101D02*
X14567667Y-10617863D01*
X14567667Y-10617863D02*
X14529571Y-10617863D01*
X14681952Y-10665482D02*
X14624809Y-10665482D01*
X14653381Y-10665482D02*
X14653381Y-10565482D01*
X14653381Y-10565482D02*
X14643857Y-10579768D01*
X14643857Y-10579768D02*
X14634333Y-10589291D01*
X14634333Y-10589291D02*
X14624809Y-10594053D01*
X14767667Y-10598815D02*
X14767667Y-10665482D01*
X14743857Y-10560720D02*
X14720048Y-10632149D01*
X14720048Y-10632149D02*
X14781952Y-10632149D01*
X14587714Y-10391482D02*
X14554381Y-10343863D01*
X14530571Y-10391482D02*
X14530571Y-10291482D01*
X14530571Y-10291482D02*
X14568667Y-10291482D01*
X14568667Y-10291482D02*
X14578190Y-10296244D01*
X14578190Y-10296244D02*
X14582952Y-10301006D01*
X14582952Y-10301006D02*
X14587714Y-10310530D01*
X14587714Y-10310530D02*
X14587714Y-10324815D01*
X14587714Y-10324815D02*
X14582952Y-10334339D01*
X14582952Y-10334339D02*
X14578190Y-10339101D01*
X14578190Y-10339101D02*
X14568667Y-10343863D01*
X14568667Y-10343863D02*
X14530571Y-10343863D01*
X14682952Y-10391482D02*
X14625809Y-10391482D01*
X14654381Y-10391482D02*
X14654381Y-10291482D01*
X14654381Y-10291482D02*
X14644857Y-10305768D01*
X14644857Y-10305768D02*
X14635333Y-10315291D01*
X14635333Y-10315291D02*
X14625809Y-10320053D01*
X14744857Y-10291482D02*
X14754381Y-10291482D01*
X14754381Y-10291482D02*
X14763905Y-10296244D01*
X14763905Y-10296244D02*
X14768667Y-10301006D01*
X14768667Y-10301006D02*
X14773428Y-10310530D01*
X14773428Y-10310530D02*
X14778190Y-10329577D01*
X14778190Y-10329577D02*
X14778190Y-10353387D01*
X14778190Y-10353387D02*
X14773428Y-10372434D01*
X14773428Y-10372434D02*
X14768667Y-10381958D01*
X14768667Y-10381958D02*
X14763905Y-10386720D01*
X14763905Y-10386720D02*
X14754381Y-10391482D01*
X14754381Y-10391482D02*
X14744857Y-10391482D01*
X14744857Y-10391482D02*
X14735333Y-10386720D01*
X14735333Y-10386720D02*
X14730571Y-10381958D01*
X14730571Y-10381958D02*
X14725809Y-10372434D01*
X14725809Y-10372434D02*
X14721048Y-10353387D01*
X14721048Y-10353387D02*
X14721048Y-10329577D01*
X14721048Y-10329577D02*
X14725809Y-10310530D01*
X14725809Y-10310530D02*
X14730571Y-10301006D01*
X14730571Y-10301006D02*
X14735333Y-10296244D01*
X14735333Y-10296244D02*
X14744857Y-10291482D01*
X14305333Y-10598482D02*
X14272000Y-10550863D01*
X14248190Y-10598482D02*
X14248190Y-10498482D01*
X14248190Y-10498482D02*
X14286286Y-10498482D01*
X14286286Y-10498482D02*
X14295809Y-10503244D01*
X14295809Y-10503244D02*
X14300571Y-10508006D01*
X14300571Y-10508006D02*
X14305333Y-10517530D01*
X14305333Y-10517530D02*
X14305333Y-10531815D01*
X14305333Y-10531815D02*
X14300571Y-10541339D01*
X14300571Y-10541339D02*
X14295809Y-10546101D01*
X14295809Y-10546101D02*
X14286286Y-10550863D01*
X14286286Y-10550863D02*
X14248190Y-10550863D01*
X14352952Y-10598482D02*
X14372000Y-10598482D01*
X14372000Y-10598482D02*
X14381524Y-10593720D01*
X14381524Y-10593720D02*
X14386286Y-10588958D01*
X14386286Y-10588958D02*
X14395809Y-10574672D01*
X14395809Y-10574672D02*
X14400571Y-10555625D01*
X14400571Y-10555625D02*
X14400571Y-10517530D01*
X14400571Y-10517530D02*
X14395809Y-10508006D01*
X14395809Y-10508006D02*
X14391048Y-10503244D01*
X14391048Y-10503244D02*
X14381524Y-10498482D01*
X14381524Y-10498482D02*
X14362476Y-10498482D01*
X14362476Y-10498482D02*
X14352952Y-10503244D01*
X14352952Y-10503244D02*
X14348190Y-10508006D01*
X14348190Y-10508006D02*
X14343429Y-10517530D01*
X14343429Y-10517530D02*
X14343429Y-10541339D01*
X14343429Y-10541339D02*
X14348190Y-10550863D01*
X14348190Y-10550863D02*
X14352952Y-10555625D01*
X14352952Y-10555625D02*
X14362476Y-10560387D01*
X14362476Y-10560387D02*
X14381524Y-10560387D01*
X14381524Y-10560387D02*
X14391048Y-10555625D01*
X14391048Y-10555625D02*
X14395809Y-10550863D01*
X14395809Y-10550863D02*
X14400571Y-10541339D01*
X14195482Y-9835667D02*
X14147863Y-9869000D01*
X14195482Y-9892809D02*
X14095482Y-9892809D01*
X14095482Y-9892809D02*
X14095482Y-9854714D01*
X14095482Y-9854714D02*
X14100244Y-9845190D01*
X14100244Y-9845190D02*
X14105006Y-9840429D01*
X14105006Y-9840429D02*
X14114529Y-9835667D01*
X14114529Y-9835667D02*
X14128815Y-9835667D01*
X14128815Y-9835667D02*
X14138339Y-9840429D01*
X14138339Y-9840429D02*
X14143101Y-9845190D01*
X14143101Y-9845190D02*
X14147863Y-9854714D01*
X14147863Y-9854714D02*
X14147863Y-9892809D01*
X14138339Y-9778524D02*
X14133577Y-9788048D01*
X14133577Y-9788048D02*
X14128815Y-9792809D01*
X14128815Y-9792809D02*
X14119291Y-9797571D01*
X14119291Y-9797571D02*
X14114529Y-9797571D01*
X14114529Y-9797571D02*
X14105006Y-9792809D01*
X14105006Y-9792809D02*
X14100244Y-9788048D01*
X14100244Y-9788048D02*
X14095482Y-9778524D01*
X14095482Y-9778524D02*
X14095482Y-9759476D01*
X14095482Y-9759476D02*
X14100244Y-9749952D01*
X14100244Y-9749952D02*
X14105006Y-9745190D01*
X14105006Y-9745190D02*
X14114529Y-9740429D01*
X14114529Y-9740429D02*
X14119291Y-9740429D01*
X14119291Y-9740429D02*
X14128815Y-9745190D01*
X14128815Y-9745190D02*
X14133577Y-9749952D01*
X14133577Y-9749952D02*
X14138339Y-9759476D01*
X14138339Y-9759476D02*
X14138339Y-9778524D01*
X14138339Y-9778524D02*
X14143101Y-9788048D01*
X14143101Y-9788048D02*
X14147863Y-9792809D01*
X14147863Y-9792809D02*
X14157387Y-9797571D01*
X14157387Y-9797571D02*
X14176434Y-9797571D01*
X14176434Y-9797571D02*
X14185958Y-9792809D01*
X14185958Y-9792809D02*
X14190720Y-9788048D01*
X14190720Y-9788048D02*
X14195482Y-9778524D01*
X14195482Y-9778524D02*
X14195482Y-9759476D01*
X14195482Y-9759476D02*
X14190720Y-9749952D01*
X14190720Y-9749952D02*
X14185958Y-9745190D01*
X14185958Y-9745190D02*
X14176434Y-9740429D01*
X14176434Y-9740429D02*
X14157387Y-9740429D01*
X14157387Y-9740429D02*
X14147863Y-9745190D01*
X14147863Y-9745190D02*
X14143101Y-9749952D01*
X14143101Y-9749952D02*
X14138339Y-9759476D01*
X15381333Y-10525482D02*
X15348000Y-10477863D01*
X15324190Y-10525482D02*
X15324190Y-10425482D01*
X15324190Y-10425482D02*
X15362286Y-10425482D01*
X15362286Y-10425482D02*
X15371809Y-10430244D01*
X15371809Y-10430244D02*
X15376571Y-10435006D01*
X15376571Y-10435006D02*
X15381333Y-10444530D01*
X15381333Y-10444530D02*
X15381333Y-10458815D01*
X15381333Y-10458815D02*
X15376571Y-10468339D01*
X15376571Y-10468339D02*
X15371809Y-10473101D01*
X15371809Y-10473101D02*
X15362286Y-10477863D01*
X15362286Y-10477863D02*
X15324190Y-10477863D01*
X15414667Y-10425482D02*
X15481333Y-10425482D01*
X15481333Y-10425482D02*
X15438476Y-10525482D01*
X14528333Y-8677482D02*
X14495000Y-8629863D01*
X14471190Y-8677482D02*
X14471190Y-8577482D01*
X14471190Y-8577482D02*
X14509286Y-8577482D01*
X14509286Y-8577482D02*
X14518809Y-8582244D01*
X14518809Y-8582244D02*
X14523571Y-8587006D01*
X14523571Y-8587006D02*
X14528333Y-8596530D01*
X14528333Y-8596530D02*
X14528333Y-8610815D01*
X14528333Y-8610815D02*
X14523571Y-8620339D01*
X14523571Y-8620339D02*
X14518809Y-8625101D01*
X14518809Y-8625101D02*
X14509286Y-8629863D01*
X14509286Y-8629863D02*
X14471190Y-8629863D01*
X14614048Y-8577482D02*
X14595000Y-8577482D01*
X14595000Y-8577482D02*
X14585476Y-8582244D01*
X14585476Y-8582244D02*
X14580714Y-8587006D01*
X14580714Y-8587006D02*
X14571190Y-8601291D01*
X14571190Y-8601291D02*
X14566429Y-8620339D01*
X14566429Y-8620339D02*
X14566429Y-8658434D01*
X14566429Y-8658434D02*
X14571190Y-8667958D01*
X14571190Y-8667958D02*
X14575952Y-8672720D01*
X14575952Y-8672720D02*
X14585476Y-8677482D01*
X14585476Y-8677482D02*
X14604524Y-8677482D01*
X14604524Y-8677482D02*
X14614048Y-8672720D01*
X14614048Y-8672720D02*
X14618809Y-8667958D01*
X14618809Y-8667958D02*
X14623571Y-8658434D01*
X14623571Y-8658434D02*
X14623571Y-8634625D01*
X14623571Y-8634625D02*
X14618809Y-8625101D01*
X14618809Y-8625101D02*
X14614048Y-8620339D01*
X14614048Y-8620339D02*
X14604524Y-8615577D01*
X14604524Y-8615577D02*
X14585476Y-8615577D01*
X14585476Y-8615577D02*
X14575952Y-8620339D01*
X14575952Y-8620339D02*
X14571190Y-8625101D01*
X14571190Y-8625101D02*
X14566429Y-8634625D01*
X15751958Y-7637667D02*
X15756720Y-7642428D01*
X15756720Y-7642428D02*
X15761482Y-7656714D01*
X15761482Y-7656714D02*
X15761482Y-7666238D01*
X15761482Y-7666238D02*
X15756720Y-7680524D01*
X15756720Y-7680524D02*
X15747196Y-7690047D01*
X15747196Y-7690047D02*
X15737672Y-7694809D01*
X15737672Y-7694809D02*
X15718625Y-7699571D01*
X15718625Y-7699571D02*
X15704339Y-7699571D01*
X15704339Y-7699571D02*
X15685291Y-7694809D01*
X15685291Y-7694809D02*
X15675768Y-7690047D01*
X15675768Y-7690047D02*
X15666244Y-7680524D01*
X15666244Y-7680524D02*
X15661482Y-7666238D01*
X15661482Y-7666238D02*
X15661482Y-7656714D01*
X15661482Y-7656714D02*
X15666244Y-7642428D01*
X15666244Y-7642428D02*
X15671006Y-7637667D01*
X15761482Y-7590047D02*
X15761482Y-7571000D01*
X15761482Y-7571000D02*
X15756720Y-7561476D01*
X15756720Y-7561476D02*
X15751958Y-7556714D01*
X15751958Y-7556714D02*
X15737672Y-7547190D01*
X15737672Y-7547190D02*
X15718625Y-7542428D01*
X15718625Y-7542428D02*
X15680529Y-7542428D01*
X15680529Y-7542428D02*
X15671006Y-7547190D01*
X15671006Y-7547190D02*
X15666244Y-7551952D01*
X15666244Y-7551952D02*
X15661482Y-7561476D01*
X15661482Y-7561476D02*
X15661482Y-7580524D01*
X15661482Y-7580524D02*
X15666244Y-7590047D01*
X15666244Y-7590047D02*
X15671006Y-7594809D01*
X15671006Y-7594809D02*
X15680529Y-7599571D01*
X15680529Y-7599571D02*
X15704339Y-7599571D01*
X15704339Y-7599571D02*
X15713863Y-7594809D01*
X15713863Y-7594809D02*
X15718625Y-7590047D01*
X15718625Y-7590047D02*
X15723387Y-7580524D01*
X15723387Y-7580524D02*
X15723387Y-7561476D01*
X15723387Y-7561476D02*
X15718625Y-7551952D01*
X15718625Y-7551952D02*
X15713863Y-7547190D01*
X15713863Y-7547190D02*
X15704339Y-7542428D01*
X14239333Y-8818958D02*
X14234571Y-8823720D01*
X14234571Y-8823720D02*
X14220286Y-8828482D01*
X14220286Y-8828482D02*
X14210762Y-8828482D01*
X14210762Y-8828482D02*
X14196476Y-8823720D01*
X14196476Y-8823720D02*
X14186952Y-8814196D01*
X14186952Y-8814196D02*
X14182190Y-8804672D01*
X14182190Y-8804672D02*
X14177429Y-8785625D01*
X14177429Y-8785625D02*
X14177429Y-8771339D01*
X14177429Y-8771339D02*
X14182190Y-8752291D01*
X14182190Y-8752291D02*
X14186952Y-8742768D01*
X14186952Y-8742768D02*
X14196476Y-8733244D01*
X14196476Y-8733244D02*
X14210762Y-8728482D01*
X14210762Y-8728482D02*
X14220286Y-8728482D01*
X14220286Y-8728482D02*
X14234571Y-8733244D01*
X14234571Y-8733244D02*
X14239333Y-8738006D01*
X14329809Y-8728482D02*
X14282190Y-8728482D01*
X14282190Y-8728482D02*
X14277429Y-8776101D01*
X14277429Y-8776101D02*
X14282190Y-8771339D01*
X14282190Y-8771339D02*
X14291714Y-8766577D01*
X14291714Y-8766577D02*
X14315524Y-8766577D01*
X14315524Y-8766577D02*
X14325048Y-8771339D01*
X14325048Y-8771339D02*
X14329809Y-8776101D01*
X14329809Y-8776101D02*
X14334571Y-8785625D01*
X14334571Y-8785625D02*
X14334571Y-8809434D01*
X14334571Y-8809434D02*
X14329809Y-8818958D01*
X14329809Y-8818958D02*
X14325048Y-8823720D01*
X14325048Y-8823720D02*
X14315524Y-8828482D01*
X14315524Y-8828482D02*
X14291714Y-8828482D01*
X14291714Y-8828482D02*
X14282190Y-8823720D01*
X14282190Y-8823720D02*
X14277429Y-8818958D01*
X15745958Y-8271667D02*
X15750720Y-8276428D01*
X15750720Y-8276428D02*
X15755482Y-8290714D01*
X15755482Y-8290714D02*
X15755482Y-8300238D01*
X15755482Y-8300238D02*
X15750720Y-8314524D01*
X15750720Y-8314524D02*
X15741196Y-8324047D01*
X15741196Y-8324047D02*
X15731672Y-8328809D01*
X15731672Y-8328809D02*
X15712625Y-8333571D01*
X15712625Y-8333571D02*
X15698339Y-8333571D01*
X15698339Y-8333571D02*
X15679291Y-8328809D01*
X15679291Y-8328809D02*
X15669768Y-8324047D01*
X15669768Y-8324047D02*
X15660244Y-8314524D01*
X15660244Y-8314524D02*
X15655482Y-8300238D01*
X15655482Y-8300238D02*
X15655482Y-8290714D01*
X15655482Y-8290714D02*
X15660244Y-8276428D01*
X15660244Y-8276428D02*
X15665006Y-8271667D01*
X15688815Y-8185952D02*
X15755482Y-8185952D01*
X15650720Y-8209762D02*
X15722148Y-8233571D01*
X15722148Y-8233571D02*
X15722148Y-8171667D01*
X15501333Y-11107958D02*
X15496571Y-11112720D01*
X15496571Y-11112720D02*
X15482286Y-11117482D01*
X15482286Y-11117482D02*
X15472762Y-11117482D01*
X15472762Y-11117482D02*
X15458476Y-11112720D01*
X15458476Y-11112720D02*
X15448952Y-11103196D01*
X15448952Y-11103196D02*
X15444190Y-11093672D01*
X15444190Y-11093672D02*
X15439429Y-11074625D01*
X15439429Y-11074625D02*
X15439429Y-11060339D01*
X15439429Y-11060339D02*
X15444190Y-11041291D01*
X15444190Y-11041291D02*
X15448952Y-11031768D01*
X15448952Y-11031768D02*
X15458476Y-11022244D01*
X15458476Y-11022244D02*
X15472762Y-11017482D01*
X15472762Y-11017482D02*
X15482286Y-11017482D01*
X15482286Y-11017482D02*
X15496571Y-11022244D01*
X15496571Y-11022244D02*
X15501333Y-11027006D01*
X15534667Y-11017482D02*
X15596571Y-11017482D01*
X15596571Y-11017482D02*
X15563238Y-11055577D01*
X15563238Y-11055577D02*
X15577524Y-11055577D01*
X15577524Y-11055577D02*
X15587048Y-11060339D01*
X15587048Y-11060339D02*
X15591809Y-11065101D01*
X15591809Y-11065101D02*
X15596571Y-11074625D01*
X15596571Y-11074625D02*
X15596571Y-11098434D01*
X15596571Y-11098434D02*
X15591809Y-11107958D01*
X15591809Y-11107958D02*
X15587048Y-11112720D01*
X15587048Y-11112720D02*
X15577524Y-11117482D01*
X15577524Y-11117482D02*
X15548952Y-11117482D01*
X15548952Y-11117482D02*
X15539429Y-11112720D01*
X15539429Y-11112720D02*
X15534667Y-11107958D01*
X14650333Y-11022958D02*
X14645571Y-11027720D01*
X14645571Y-11027720D02*
X14631286Y-11032482D01*
X14631286Y-11032482D02*
X14621762Y-11032482D01*
X14621762Y-11032482D02*
X14607476Y-11027720D01*
X14607476Y-11027720D02*
X14597952Y-11018196D01*
X14597952Y-11018196D02*
X14593190Y-11008672D01*
X14593190Y-11008672D02*
X14588429Y-10989625D01*
X14588429Y-10989625D02*
X14588429Y-10975339D01*
X14588429Y-10975339D02*
X14593190Y-10956291D01*
X14593190Y-10956291D02*
X14597952Y-10946768D01*
X14597952Y-10946768D02*
X14607476Y-10937244D01*
X14607476Y-10937244D02*
X14621762Y-10932482D01*
X14621762Y-10932482D02*
X14631286Y-10932482D01*
X14631286Y-10932482D02*
X14645571Y-10937244D01*
X14645571Y-10937244D02*
X14650333Y-10942006D01*
X14688429Y-10942006D02*
X14693190Y-10937244D01*
X14693190Y-10937244D02*
X14702714Y-10932482D01*
X14702714Y-10932482D02*
X14726524Y-10932482D01*
X14726524Y-10932482D02*
X14736048Y-10937244D01*
X14736048Y-10937244D02*
X14740809Y-10942006D01*
X14740809Y-10942006D02*
X14745571Y-10951530D01*
X14745571Y-10951530D02*
X14745571Y-10961053D01*
X14745571Y-10961053D02*
X14740809Y-10975339D01*
X14740809Y-10975339D02*
X14683667Y-11032482D01*
X14683667Y-11032482D02*
X14745571Y-11032482D01*
X14541333Y-10845958D02*
X14536571Y-10850720D01*
X14536571Y-10850720D02*
X14522286Y-10855482D01*
X14522286Y-10855482D02*
X14512762Y-10855482D01*
X14512762Y-10855482D02*
X14498476Y-10850720D01*
X14498476Y-10850720D02*
X14488952Y-10841196D01*
X14488952Y-10841196D02*
X14484190Y-10831672D01*
X14484190Y-10831672D02*
X14479429Y-10812625D01*
X14479429Y-10812625D02*
X14479429Y-10798339D01*
X14479429Y-10798339D02*
X14484190Y-10779291D01*
X14484190Y-10779291D02*
X14488952Y-10769768D01*
X14488952Y-10769768D02*
X14498476Y-10760244D01*
X14498476Y-10760244D02*
X14512762Y-10755482D01*
X14512762Y-10755482D02*
X14522286Y-10755482D01*
X14522286Y-10755482D02*
X14536571Y-10760244D01*
X14536571Y-10760244D02*
X14541333Y-10765006D01*
X14636571Y-10855482D02*
X14579429Y-10855482D01*
X14608000Y-10855482D02*
X14608000Y-10755482D01*
X14608000Y-10755482D02*
X14598476Y-10769768D01*
X14598476Y-10769768D02*
X14588952Y-10779291D01*
X14588952Y-10779291D02*
X14579429Y-10784053D01*
X14969667Y-11198720D02*
X14983952Y-11203482D01*
X14983952Y-11203482D02*
X15007762Y-11203482D01*
X15007762Y-11203482D02*
X15017286Y-11198720D01*
X15017286Y-11198720D02*
X15022048Y-11193958D01*
X15022048Y-11193958D02*
X15026809Y-11184434D01*
X15026809Y-11184434D02*
X15026809Y-11174910D01*
X15026809Y-11174910D02*
X15022048Y-11165387D01*
X15022048Y-11165387D02*
X15017286Y-11160625D01*
X15017286Y-11160625D02*
X15007762Y-11155863D01*
X15007762Y-11155863D02*
X14988714Y-11151101D01*
X14988714Y-11151101D02*
X14979190Y-11146339D01*
X14979190Y-11146339D02*
X14974429Y-11141577D01*
X14974429Y-11141577D02*
X14969667Y-11132053D01*
X14969667Y-11132053D02*
X14969667Y-11122530D01*
X14969667Y-11122530D02*
X14974429Y-11113006D01*
X14974429Y-11113006D02*
X14979190Y-11108244D01*
X14979190Y-11108244D02*
X14988714Y-11103482D01*
X14988714Y-11103482D02*
X15012524Y-11103482D01*
X15012524Y-11103482D02*
X15026809Y-11108244D01*
X15060143Y-11103482D02*
X15083952Y-11203482D01*
X15083952Y-11203482D02*
X15103000Y-11132053D01*
X15103000Y-11132053D02*
X15122048Y-11203482D01*
X15122048Y-11203482D02*
X15145857Y-11103482D01*
X15179190Y-11113006D02*
X15183952Y-11108244D01*
X15183952Y-11108244D02*
X15193476Y-11103482D01*
X15193476Y-11103482D02*
X15217286Y-11103482D01*
X15217286Y-11103482D02*
X15226809Y-11108244D01*
X15226809Y-11108244D02*
X15231571Y-11113006D01*
X15231571Y-11113006D02*
X15236333Y-11122530D01*
X15236333Y-11122530D02*
X15236333Y-11132053D01*
X15236333Y-11132053D02*
X15231571Y-11146339D01*
X15231571Y-11146339D02*
X15174429Y-11203482D01*
X15174429Y-11203482D02*
X15236333Y-11203482D01*
D15*
%TO.C,U1*%
X13747500Y-7327500D02*
X13697500Y-7327500D01*
X13747500Y-7277500D01*
X13747500Y-7327500D01*
G36*
X13747500Y-7327500D02*
G01*
X13697500Y-7327500D01*
X13747500Y-7277500D01*
X13747500Y-7327500D01*
G37*
X15568500Y-8668500D02*
X15568500Y-8698500D01*
X15568500Y-6676500D02*
X15568500Y-7326500D01*
X13746500Y-8698500D02*
X15568500Y-8698500D01*
X13746500Y-8668500D02*
X13746500Y-8698500D01*
X13746500Y-6676500D02*
X15568500Y-6676500D01*
X13746500Y-6676500D02*
X13746500Y-7257500D01*
D10*
%TO.C,J6*%
X13250000Y-10050000D02*
X13250000Y-10050000D01*
X13250000Y-10040000D02*
X13250000Y-10040000D01*
D16*
X12650000Y-9994000D02*
X12650000Y-8878000D01*
X13850000Y-9994000D02*
X12650000Y-9994000D01*
X12650000Y-8878000D02*
X13850000Y-8878000D01*
X13850000Y-8878000D02*
X13850000Y-9994000D01*
D10*
X13250000Y-10050000D02*
G75*
G02*
X13250000Y-10040000I0J5000D01*
G01*
X13250000Y-10040000D02*
G75*
G02*
X13250000Y-10050000I0J-5000D01*
G01*
D16*
%TO.C,Q1*%
X14100000Y-10085000D02*
X14100000Y-10190000D01*
D10*
X14145000Y-10320000D02*
X14145000Y-10320000D01*
X14145000Y-10330000D02*
X14145000Y-10330000D01*
D16*
X14185000Y-10085000D02*
X14100000Y-10085000D01*
X14305000Y-10085000D02*
X14390000Y-10085000D01*
X14390000Y-10085000D02*
X14390000Y-10190000D01*
D10*
X14145000Y-10320000D02*
G75*
G02*
X14145000Y-10330000I0J-5000D01*
G01*
X14145000Y-10330000D02*
G75*
G02*
X14145000Y-10320000I0J5000D01*
G01*
D15*
%TO.C,FL1*%
X14040000Y-10425000D02*
X14040000Y-10525000D01*
X14040000Y-10525000D02*
X14160000Y-10525000D01*
X14160000Y-10425000D02*
X14040000Y-10425000D01*
X14160000Y-10525000D02*
X14160000Y-10425000D01*
X14025000Y-10553000D02*
X13997000Y-10525000D01*
X14025000Y-10525000D01*
X14025000Y-10553000D01*
G36*
X14025000Y-10553000D02*
G01*
X13997000Y-10525000D01*
X14025000Y-10525000D01*
X14025000Y-10553000D01*
G37*
%TO.C,U4*%
X14261250Y-8875000D02*
X14237250Y-8842000D01*
X14285250Y-8842000D01*
X14261250Y-8875000D01*
G36*
X14261250Y-8875000D02*
G01*
X14237250Y-8842000D01*
X14285250Y-8842000D01*
X14261250Y-8875000D01*
G37*
X14667500Y-9820000D02*
X14517500Y-9820000D01*
X14667500Y-8780000D02*
X14517500Y-8780000D01*
X14517500Y-9820000D02*
X14517500Y-9725000D01*
X14517500Y-8780000D02*
X14517500Y-8875000D01*
D17*
%TO.C,U2*%
X14650000Y-10425000D02*
X14661000Y-10425000D01*
X14665000Y-10425000D02*
X14665200Y-10425000D01*
X14669200Y-10425000D02*
X14680200Y-10425000D01*
X14684200Y-10425000D02*
X14684400Y-10425000D01*
X14688400Y-10425000D02*
X14699400Y-10425000D01*
X14703400Y-10425000D02*
X14703600Y-10425000D01*
X14707600Y-10425000D02*
X14718600Y-10425000D01*
X14722600Y-10425000D02*
X14722800Y-10425000D01*
X14726800Y-10425000D02*
X14737800Y-10425000D01*
X14741800Y-10425000D02*
X14742000Y-10425000D01*
X14746000Y-10425000D02*
X14757000Y-10425000D01*
X14761000Y-10425000D02*
X14761200Y-10425000D01*
X14765200Y-10425000D02*
X14776200Y-10425000D01*
X14780200Y-10425000D02*
X14780400Y-10425000D01*
X14784400Y-10425000D02*
X14795400Y-10425000D01*
X14799400Y-10425000D02*
X14799600Y-10425000D01*
X14803600Y-10425000D02*
X14814600Y-10425000D01*
X14818600Y-10425000D02*
X14818800Y-10425000D01*
X14822800Y-10425000D02*
X14833800Y-10425000D01*
X14837800Y-10425000D02*
X14838000Y-10425000D01*
X14842000Y-10425000D02*
X14850000Y-10425000D01*
X14650000Y-10540000D02*
X14661000Y-10540000D01*
X14665000Y-10540000D02*
X14665200Y-10540000D01*
X14669200Y-10540000D02*
X14680200Y-10540000D01*
X14684200Y-10540000D02*
X14684400Y-10540000D01*
X14688400Y-10540000D02*
X14699400Y-10540000D01*
X14703400Y-10540000D02*
X14703600Y-10540000D01*
X14707600Y-10540000D02*
X14718600Y-10540000D01*
X14722600Y-10540000D02*
X14722800Y-10540000D01*
X14726800Y-10540000D02*
X14737800Y-10540000D01*
X14741800Y-10540000D02*
X14742000Y-10540000D01*
X14746000Y-10540000D02*
X14757000Y-10540000D01*
X14761000Y-10540000D02*
X14761200Y-10540000D01*
X14765200Y-10540000D02*
X14776200Y-10540000D01*
X14780200Y-10540000D02*
X14780400Y-10540000D01*
X14784400Y-10540000D02*
X14795400Y-10540000D01*
X14799400Y-10540000D02*
X14799600Y-10540000D01*
X14803600Y-10540000D02*
X14814600Y-10540000D01*
X14818600Y-10540000D02*
X14818800Y-10540000D01*
X14822800Y-10540000D02*
X14833800Y-10540000D01*
X14837800Y-10540000D02*
X14838000Y-10540000D01*
X14842000Y-10540000D02*
X14850000Y-10540000D01*
X14650000Y-10655000D02*
X14661000Y-10655000D01*
X14665000Y-10655000D02*
X14665200Y-10655000D01*
X14669200Y-10655000D02*
X14680200Y-10655000D01*
X14684200Y-10655000D02*
X14684400Y-10655000D01*
X14688400Y-10655000D02*
X14699400Y-10655000D01*
X14703400Y-10655000D02*
X14703600Y-10655000D01*
X14707600Y-10655000D02*
X14718600Y-10655000D01*
X14722600Y-10655000D02*
X14722800Y-10655000D01*
X14726800Y-10655000D02*
X14737800Y-10655000D01*
X14741800Y-10655000D02*
X14742000Y-10655000D01*
X14746000Y-10655000D02*
X14757000Y-10655000D01*
X14761000Y-10655000D02*
X14761200Y-10655000D01*
X14765200Y-10655000D02*
X14776200Y-10655000D01*
X14780200Y-10655000D02*
X14780400Y-10655000D01*
X14784400Y-10655000D02*
X14795400Y-10655000D01*
X14799400Y-10655000D02*
X14799600Y-10655000D01*
X14803600Y-10655000D02*
X14814600Y-10655000D01*
X14818600Y-10655000D02*
X14818800Y-10655000D01*
X14822800Y-10655000D02*
X14833800Y-10655000D01*
X14837800Y-10655000D02*
X14838000Y-10655000D01*
X14842000Y-10655000D02*
X14850000Y-10655000D01*
X14685000Y-10440000D02*
X14685000Y-10451000D01*
X14685000Y-10455000D02*
X14685000Y-10455200D01*
X14685000Y-10459200D02*
X14685000Y-10470200D01*
X14685000Y-10474200D02*
X14685000Y-10474400D01*
X14685000Y-10478400D02*
X14685000Y-10489400D01*
X14685000Y-10493400D02*
X14685000Y-10493600D01*
X14685000Y-10497600D02*
X14685000Y-10508600D01*
X14685000Y-10512600D02*
X14685000Y-10512800D01*
X14685000Y-10516800D02*
X14685000Y-10527800D01*
X14685000Y-10531800D02*
X14685000Y-10532000D01*
X14685000Y-10536000D02*
X14685000Y-10547000D01*
X14685000Y-10551000D02*
X14685000Y-10551200D01*
X14685000Y-10555200D02*
X14685000Y-10566200D01*
X14685000Y-10570200D02*
X14685000Y-10570400D01*
X14685000Y-10574400D02*
X14685000Y-10585400D01*
X14685000Y-10589400D02*
X14685000Y-10589600D01*
X14685000Y-10593600D02*
X14685000Y-10604600D01*
X14685000Y-10608600D02*
X14685000Y-10608800D01*
X14685000Y-10612800D02*
X14685000Y-10623800D01*
X14685000Y-10627800D02*
X14685000Y-10628000D01*
X14685000Y-10632000D02*
X14685000Y-10640000D01*
X14750000Y-10440000D02*
X14750000Y-10451000D01*
X14750000Y-10455000D02*
X14750000Y-10455200D01*
X14750000Y-10459200D02*
X14750000Y-10470200D01*
X14750000Y-10474200D02*
X14750000Y-10474400D01*
X14750000Y-10478400D02*
X14750000Y-10489400D01*
X14750000Y-10493400D02*
X14750000Y-10493600D01*
X14750000Y-10497600D02*
X14750000Y-10508600D01*
X14750000Y-10512600D02*
X14750000Y-10512800D01*
X14750000Y-10516800D02*
X14750000Y-10527800D01*
X14750000Y-10531800D02*
X14750000Y-10532000D01*
X14750000Y-10536000D02*
X14750000Y-10547000D01*
X14750000Y-10551000D02*
X14750000Y-10551200D01*
X14750000Y-10555200D02*
X14750000Y-10566200D01*
X14750000Y-10570200D02*
X14750000Y-10570400D01*
X14750000Y-10574400D02*
X14750000Y-10585400D01*
X14750000Y-10589400D02*
X14750000Y-10589600D01*
X14750000Y-10593600D02*
X14750000Y-10604600D01*
X14750000Y-10608600D02*
X14750000Y-10608800D01*
X14750000Y-10612800D02*
X14750000Y-10623800D01*
X14750000Y-10627800D02*
X14750000Y-10628000D01*
X14750000Y-10632000D02*
X14750000Y-10640000D01*
X14815000Y-10440000D02*
X14815000Y-10451000D01*
X14815000Y-10455000D02*
X14815000Y-10455200D01*
X14815000Y-10459200D02*
X14815000Y-10470200D01*
X14815000Y-10474200D02*
X14815000Y-10474400D01*
X14815000Y-10478400D02*
X14815000Y-10489400D01*
X14815000Y-10493400D02*
X14815000Y-10493600D01*
X14815000Y-10497600D02*
X14815000Y-10508600D01*
X14815000Y-10512600D02*
X14815000Y-10512800D01*
X14815000Y-10516800D02*
X14815000Y-10527800D01*
X14815000Y-10531800D02*
X14815000Y-10532000D01*
X14815000Y-10536000D02*
X14815000Y-10547000D01*
X14815000Y-10551000D02*
X14815000Y-10551200D01*
X14815000Y-10555200D02*
X14815000Y-10566200D01*
X14815000Y-10570200D02*
X14815000Y-10570400D01*
X14815000Y-10574400D02*
X14815000Y-10585400D01*
X14815000Y-10589400D02*
X14815000Y-10589600D01*
X14815000Y-10593600D02*
X14815000Y-10604600D01*
X14815000Y-10608600D02*
X14815000Y-10608800D01*
X14815000Y-10612800D02*
X14815000Y-10623800D01*
X14815000Y-10627800D02*
X14815000Y-10628000D01*
X14815000Y-10632000D02*
X14815000Y-10640000D01*
X14650000Y-10440000D02*
X14850000Y-10440000D01*
X14850000Y-10640000D01*
X14650000Y-10640000D01*
X14650000Y-10440000D01*
%TO.C,L1*%
D10*
X14520600Y-9922200D02*
X14876200Y-9922200D01*
X14876200Y-10277800D01*
X14520600Y-10277800D01*
X14520600Y-9922200D01*
D15*
%TO.C,J1*%
X14570000Y-11022000D02*
X14570000Y-11200000D01*
X13820000Y-10730000D02*
X13740000Y-10730000D01*
X13630000Y-11022000D02*
X13630000Y-11200000D01*
D16*
%TO.C,IC1*%
X15055000Y-10615000D02*
X15100000Y-10570000D01*
X15055000Y-10695000D02*
X15055000Y-10615000D01*
X15100000Y-10570000D02*
X15180000Y-10570000D01*
X15180000Y-10570000D02*
X15180000Y-10695000D01*
X15180000Y-10695000D02*
X15055000Y-10695000D01*
X15065000Y-10570000D02*
G75*
G02*
X15045000Y-10570000I-10000J0D01*
G01*
X15045000Y-10570000D02*
G75*
G02*
X15065000Y-10570000I10000J0D01*
G01*
%TO.C,D1*%
D10*
X15479400Y-9923800D02*
X14895200Y-9923800D01*
X14895200Y-10508000D01*
X15479400Y-10508000D01*
X15479400Y-9923800D01*
D15*
%TO.C,SW2*%
X14785000Y-10951900D02*
X14900000Y-10835000D01*
X14785000Y-11020000D02*
X14785000Y-10951900D01*
X14785000Y-11280000D02*
X14785000Y-11350000D01*
X14785000Y-11350000D02*
X14900000Y-11465000D01*
X14900000Y-10835000D02*
X15300000Y-10835000D01*
X14900000Y-11465000D02*
X15300000Y-11465000D01*
X15300000Y-10835000D02*
X15415000Y-10950000D01*
X15300000Y-11465000D02*
X15415000Y-11350000D01*
X15415000Y-10950000D02*
X15415000Y-11020000D01*
X15415000Y-11350000D02*
X15415000Y-11280000D01*
%TD*%
M02*
