%TF.GenerationSoftware,KiCad,Pcbnew,8.0.5*%
%TF.CreationDate,2024-12-27T02:30:01+01:00*%
%TF.ProjectId,walter_remix - C3v2,77616c74-6572-45f7-9265-6d6978202d20,rev?*%
%TF.SameCoordinates,Original*%
%TF.FileFunction,Copper,L4,Bot*%
%TF.FilePolarity,Positive*%
%FSLAX45Y45*%
G04 Gerber Fmt 4.5, Leading zero omitted, Abs format (unit mm)*
G04 Created by KiCad (PCBNEW 8.0.5) date 2024-12-27 02:30:01*
%MOMM*%
%LPD*%
G01*
G04 APERTURE LIST*
G04 Aperture macros list*
%AMRoundRect*
0 Rectangle with rounded corners*
0 $1 Rounding radius*
0 $2 $3 $4 $5 $6 $7 $8 $9 X,Y pos of 4 corners*
0 Add a 4 corners polygon primitive as box body*
4,1,4,$2,$3,$4,$5,$6,$7,$8,$9,$2,$3,0*
0 Add four circle primitives for the rounded corners*
1,1,$1+$1,$2,$3*
1,1,$1+$1,$4,$5*
1,1,$1+$1,$6,$7*
1,1,$1+$1,$8,$9*
0 Add four rect primitives between the rounded corners*
20,1,$1+$1,$2,$3,$4,$5,0*
20,1,$1+$1,$4,$5,$6,$7,0*
20,1,$1+$1,$6,$7,$8,$9,0*
20,1,$1+$1,$8,$9,$2,$3,0*%
%AMOutline5P*
0 Free polygon, 5 corners , with rotation*
0 The origin of the aperture is its center*
0 number of corners: always 5*
0 $1 to $10 corner X, Y*
0 $11 Rotation angle, in degrees counterclockwise*
0 create outline with 5 corners*
4,1,5,$1,$2,$3,$4,$5,$6,$7,$8,$9,$10,$1,$2,$11*%
%AMOutline6P*
0 Free polygon, 6 corners , with rotation*
0 The origin of the aperture is its center*
0 number of corners: always 6*
0 $1 to $12 corner X, Y*
0 $13 Rotation angle, in degrees counterclockwise*
0 create outline with 6 corners*
4,1,6,$1,$2,$3,$4,$5,$6,$7,$8,$9,$10,$11,$12,$1,$2,$13*%
%AMOutline7P*
0 Free polygon, 7 corners , with rotation*
0 The origin of the aperture is its center*
0 number of corners: always 7*
0 $1 to $14 corner X, Y*
0 $15 Rotation angle, in degrees counterclockwise*
0 create outline with 7 corners*
4,1,7,$1,$2,$3,$4,$5,$6,$7,$8,$9,$10,$11,$12,$13,$14,$1,$2,$15*%
%AMOutline8P*
0 Free polygon, 8 corners , with rotation*
0 The origin of the aperture is its center*
0 number of corners: always 8*
0 $1 to $16 corner X, Y*
0 $17 Rotation angle, in degrees counterclockwise*
0 create outline with 8 corners*
4,1,8,$1,$2,$3,$4,$5,$6,$7,$8,$9,$10,$11,$12,$13,$14,$15,$16,$1,$2,$17*%
G04 Aperture macros list end*
%ADD10C,0.100000*%
%ADD11C,0.150000*%
%ADD12C,0.300000*%
%ADD13C,0.400000*%
%TA.AperFunction,HeatsinkPad*%
%ADD14C,0.600000*%
%TD*%
%TA.AperFunction,SMDPad,CuDef*%
%ADD15R,3.200000X1.600000*%
%TD*%
%TA.AperFunction,ComponentPad*%
%ADD16R,1.950000X1.950000*%
%TD*%
%TA.AperFunction,ComponentPad*%
%ADD17C,1.950000*%
%TD*%
%TA.AperFunction,SMDPad,CuDef*%
%ADD18R,0.700000X1.800000*%
%TD*%
%TA.AperFunction,SMDPad,CuDef*%
%ADD19R,0.600000X1.800000*%
%TD*%
%TA.AperFunction,SMDPad,CuDef*%
%ADD20R,1.000000X1.000000*%
%TD*%
%TA.AperFunction,SMDPad,CuDef*%
%ADD21R,0.210000X0.400000*%
%TD*%
%TA.AperFunction,SMDPad,CuDef*%
%ADD22R,0.200000X0.200000*%
%TD*%
%TA.AperFunction,SMDPad,CuDef*%
%ADD23RoundRect,0.100000X0.100000X-0.130000X0.100000X0.130000X-0.100000X0.130000X-0.100000X-0.130000X0*%
%TD*%
%TA.AperFunction,SMDPad,CuDef*%
%ADD24RoundRect,0.100000X0.130000X0.100000X-0.130000X0.100000X-0.130000X-0.100000X0.130000X-0.100000X0*%
%TD*%
%TA.AperFunction,SMDPad,CuDef*%
%ADD25RoundRect,0.100000X-0.100000X0.130000X-0.100000X-0.130000X0.100000X-0.130000X0.100000X0.130000X0*%
%TD*%
%TA.AperFunction,SMDPad,CuDef*%
%ADD26RoundRect,0.100000X-0.130000X-0.100000X0.130000X-0.100000X0.130000X0.100000X-0.130000X0.100000X0*%
%TD*%
%TA.AperFunction,SMDPad,CuDef*%
%ADD27R,0.700000X1.000000*%
%TD*%
%TA.AperFunction,SMDPad,CuDef*%
%ADD28R,0.700000X0.500000*%
%TD*%
%TA.AperFunction,ComponentPad*%
%ADD29O,1.000000X1.600000*%
%TD*%
%TA.AperFunction,ComponentPad*%
%ADD30O,1.000000X2.100000*%
%TD*%
%TA.AperFunction,SMDPad,CuDef*%
%ADD31R,0.800000X0.800000*%
%TD*%
%TA.AperFunction,SMDPad,CuDef*%
%ADD32Outline5P,-0.400000X0.400000X0.000000X0.400000X0.400000X0.000000X0.400000X-0.400000X-0.400000X-0.400000X270.000000*%
%TD*%
%TA.AperFunction,SMDPad,CuDef*%
%ADD33R,0.500000X0.700000*%
%TD*%
%TA.AperFunction,ViaPad*%
%ADD34C,0.600000*%
%TD*%
%TA.AperFunction,Conductor*%
%ADD35C,0.250000*%
%TD*%
G04 APERTURE END LIST*
D10*
D11*
X17700220Y-16600720D02*
X28500220Y-16600720D01*
X28500220Y-19800720D01*
X17700220Y-19800720D01*
X17700220Y-16600720D01*
D10*
D11*
X1000000Y-1000000D02*
X28700220Y-1000000D01*
X28700220Y-20000720D01*
X1000000Y-20000720D01*
X1000000Y-1000000D01*
D10*
D11*
X1200000Y-1200000D02*
X28500220Y-1200000D01*
X28500220Y-19800720D01*
X1200000Y-19800720D01*
X1200000Y-1200000D01*
D10*
D11*
X6000000Y-1200000D02*
X6000000Y-1000000D01*
D10*
D11*
X11000000Y-1200000D02*
X11000000Y-1000000D01*
D10*
D11*
X16000000Y-1200000D02*
X16000000Y-1000000D01*
D10*
D11*
X21000000Y-1200000D02*
X21000000Y-1000000D01*
D10*
D11*
X26000000Y-1200000D02*
X26000000Y-1000000D01*
D10*
D11*
X3608916Y-1159360D02*
X3534630Y-1159360D01*
X3571773Y-1159360D02*
X3571773Y-1029360D01*
X3571773Y-1029360D02*
X3559392Y-1047932D01*
X3559392Y-1047932D02*
X3547011Y-1060313D01*
X3547011Y-1060313D02*
X3534630Y-1066503D01*
D10*
D11*
X8534630Y-1041741D02*
X8540821Y-1035551D01*
X8540821Y-1035551D02*
X8553202Y-1029360D01*
X8553202Y-1029360D02*
X8584154Y-1029360D01*
X8584154Y-1029360D02*
X8596535Y-1035551D01*
X8596535Y-1035551D02*
X8602726Y-1041741D01*
X8602726Y-1041741D02*
X8608916Y-1054122D01*
X8608916Y-1054122D02*
X8608916Y-1066503D01*
X8608916Y-1066503D02*
X8602726Y-1085075D01*
X8602726Y-1085075D02*
X8528440Y-1159360D01*
X8528440Y-1159360D02*
X8608916Y-1159360D01*
D10*
D11*
X13528440Y-1029360D02*
X13608916Y-1029360D01*
X13608916Y-1029360D02*
X13565583Y-1078884D01*
X13565583Y-1078884D02*
X13584154Y-1078884D01*
X13584154Y-1078884D02*
X13596535Y-1085075D01*
X13596535Y-1085075D02*
X13602725Y-1091265D01*
X13602725Y-1091265D02*
X13608916Y-1103646D01*
X13608916Y-1103646D02*
X13608916Y-1134599D01*
X13608916Y-1134599D02*
X13602725Y-1146980D01*
X13602725Y-1146980D02*
X13596535Y-1153170D01*
X13596535Y-1153170D02*
X13584154Y-1159360D01*
X13584154Y-1159360D02*
X13547011Y-1159360D01*
X13547011Y-1159360D02*
X13534630Y-1153170D01*
X13534630Y-1153170D02*
X13528440Y-1146980D01*
D10*
D11*
X18596535Y-1072694D02*
X18596535Y-1159360D01*
X18565583Y-1023170D02*
X18534630Y-1116027D01*
X18534630Y-1116027D02*
X18615106Y-1116027D01*
D10*
D11*
X23602725Y-1029360D02*
X23540821Y-1029360D01*
X23540821Y-1029360D02*
X23534630Y-1091265D01*
X23534630Y-1091265D02*
X23540821Y-1085075D01*
X23540821Y-1085075D02*
X23553202Y-1078884D01*
X23553202Y-1078884D02*
X23584154Y-1078884D01*
X23584154Y-1078884D02*
X23596535Y-1085075D01*
X23596535Y-1085075D02*
X23602725Y-1091265D01*
X23602725Y-1091265D02*
X23608916Y-1103646D01*
X23608916Y-1103646D02*
X23608916Y-1134599D01*
X23608916Y-1134599D02*
X23602725Y-1146980D01*
X23602725Y-1146980D02*
X23596535Y-1153170D01*
X23596535Y-1153170D02*
X23584154Y-1159360D01*
X23584154Y-1159360D02*
X23553202Y-1159360D01*
X23553202Y-1159360D02*
X23540821Y-1153170D01*
X23540821Y-1153170D02*
X23534630Y-1146980D01*
D10*
D11*
X28596535Y-1029360D02*
X28571773Y-1029360D01*
X28571773Y-1029360D02*
X28559392Y-1035551D01*
X28559392Y-1035551D02*
X28553202Y-1041741D01*
X28553202Y-1041741D02*
X28540821Y-1060313D01*
X28540821Y-1060313D02*
X28534630Y-1085075D01*
X28534630Y-1085075D02*
X28534630Y-1134599D01*
X28534630Y-1134599D02*
X28540821Y-1146980D01*
X28540821Y-1146980D02*
X28547011Y-1153170D01*
X28547011Y-1153170D02*
X28559392Y-1159360D01*
X28559392Y-1159360D02*
X28584154Y-1159360D01*
X28584154Y-1159360D02*
X28596535Y-1153170D01*
X28596535Y-1153170D02*
X28602725Y-1146980D01*
X28602725Y-1146980D02*
X28608916Y-1134599D01*
X28608916Y-1134599D02*
X28608916Y-1103646D01*
X28608916Y-1103646D02*
X28602725Y-1091265D01*
X28602725Y-1091265D02*
X28596535Y-1085075D01*
X28596535Y-1085075D02*
X28584154Y-1078884D01*
X28584154Y-1078884D02*
X28559392Y-1078884D01*
X28559392Y-1078884D02*
X28547011Y-1085075D01*
X28547011Y-1085075D02*
X28540821Y-1091265D01*
X28540821Y-1091265D02*
X28534630Y-1103646D01*
D10*
D11*
X6000000Y-19800720D02*
X6000000Y-20000720D01*
D10*
D11*
X11000000Y-19800720D02*
X11000000Y-20000720D01*
D10*
D11*
X16000000Y-19800720D02*
X16000000Y-20000720D01*
D10*
D11*
X21000000Y-19800720D02*
X21000000Y-20000720D01*
D10*
D11*
X26000000Y-19800720D02*
X26000000Y-20000720D01*
D10*
D11*
X3608916Y-19960080D02*
X3534630Y-19960080D01*
X3571773Y-19960080D02*
X3571773Y-19830080D01*
X3571773Y-19830080D02*
X3559392Y-19848652D01*
X3559392Y-19848652D02*
X3547011Y-19861033D01*
X3547011Y-19861033D02*
X3534630Y-19867223D01*
D10*
D11*
X8534630Y-19842461D02*
X8540821Y-19836271D01*
X8540821Y-19836271D02*
X8553202Y-19830080D01*
X8553202Y-19830080D02*
X8584154Y-19830080D01*
X8584154Y-19830080D02*
X8596535Y-19836271D01*
X8596535Y-19836271D02*
X8602726Y-19842461D01*
X8602726Y-19842461D02*
X8608916Y-19854842D01*
X8608916Y-19854842D02*
X8608916Y-19867223D01*
X8608916Y-19867223D02*
X8602726Y-19885795D01*
X8602726Y-19885795D02*
X8528440Y-19960080D01*
X8528440Y-19960080D02*
X8608916Y-19960080D01*
D10*
D11*
X13528440Y-19830080D02*
X13608916Y-19830080D01*
X13608916Y-19830080D02*
X13565583Y-19879604D01*
X13565583Y-19879604D02*
X13584154Y-19879604D01*
X13584154Y-19879604D02*
X13596535Y-19885795D01*
X13596535Y-19885795D02*
X13602725Y-19891985D01*
X13602725Y-19891985D02*
X13608916Y-19904366D01*
X13608916Y-19904366D02*
X13608916Y-19935319D01*
X13608916Y-19935319D02*
X13602725Y-19947700D01*
X13602725Y-19947700D02*
X13596535Y-19953890D01*
X13596535Y-19953890D02*
X13584154Y-19960080D01*
X13584154Y-19960080D02*
X13547011Y-19960080D01*
X13547011Y-19960080D02*
X13534630Y-19953890D01*
X13534630Y-19953890D02*
X13528440Y-19947700D01*
D10*
D11*
X18596535Y-19873414D02*
X18596535Y-19960080D01*
X18565583Y-19823890D02*
X18534630Y-19916747D01*
X18534630Y-19916747D02*
X18615106Y-19916747D01*
D10*
D11*
X23602725Y-19830080D02*
X23540821Y-19830080D01*
X23540821Y-19830080D02*
X23534630Y-19891985D01*
X23534630Y-19891985D02*
X23540821Y-19885795D01*
X23540821Y-19885795D02*
X23553202Y-19879604D01*
X23553202Y-19879604D02*
X23584154Y-19879604D01*
X23584154Y-19879604D02*
X23596535Y-19885795D01*
X23596535Y-19885795D02*
X23602725Y-19891985D01*
X23602725Y-19891985D02*
X23608916Y-19904366D01*
X23608916Y-19904366D02*
X23608916Y-19935319D01*
X23608916Y-19935319D02*
X23602725Y-19947700D01*
X23602725Y-19947700D02*
X23596535Y-19953890D01*
X23596535Y-19953890D02*
X23584154Y-19960080D01*
X23584154Y-19960080D02*
X23553202Y-19960080D01*
X23553202Y-19960080D02*
X23540821Y-19953890D01*
X23540821Y-19953890D02*
X23534630Y-19947700D01*
D10*
D11*
X28596535Y-19830080D02*
X28571773Y-19830080D01*
X28571773Y-19830080D02*
X28559392Y-19836271D01*
X28559392Y-19836271D02*
X28553202Y-19842461D01*
X28553202Y-19842461D02*
X28540821Y-19861033D01*
X28540821Y-19861033D02*
X28534630Y-19885795D01*
X28534630Y-19885795D02*
X28534630Y-19935319D01*
X28534630Y-19935319D02*
X28540821Y-19947700D01*
X28540821Y-19947700D02*
X28547011Y-19953890D01*
X28547011Y-19953890D02*
X28559392Y-19960080D01*
X28559392Y-19960080D02*
X28584154Y-19960080D01*
X28584154Y-19960080D02*
X28596535Y-19953890D01*
X28596535Y-19953890D02*
X28602725Y-19947700D01*
X28602725Y-19947700D02*
X28608916Y-19935319D01*
X28608916Y-19935319D02*
X28608916Y-19904366D01*
X28608916Y-19904366D02*
X28602725Y-19891985D01*
X28602725Y-19891985D02*
X28596535Y-19885795D01*
X28596535Y-19885795D02*
X28584154Y-19879604D01*
X28584154Y-19879604D02*
X28559392Y-19879604D01*
X28559392Y-19879604D02*
X28547011Y-19885795D01*
X28547011Y-19885795D02*
X28540821Y-19891985D01*
X28540821Y-19891985D02*
X28534630Y-19904366D01*
D10*
D11*
X1000000Y-6000000D02*
X1200000Y-6000000D01*
D10*
D11*
X1000000Y-11000000D02*
X1200000Y-11000000D01*
D10*
D11*
X1000000Y-16000000D02*
X1200000Y-16000000D01*
D10*
D11*
X1069048Y-3522218D02*
X1130952Y-3522218D01*
X1056667Y-3559360D02*
X1100000Y-3429360D01*
X1100000Y-3429360D02*
X1143333Y-3559360D01*
D10*
D11*
X1109286Y-8491265D02*
X1127857Y-8497456D01*
X1127857Y-8497456D02*
X1134048Y-8503646D01*
X1134048Y-8503646D02*
X1140238Y-8516027D01*
X1140238Y-8516027D02*
X1140238Y-8534599D01*
X1140238Y-8534599D02*
X1134048Y-8546980D01*
X1134048Y-8546980D02*
X1127857Y-8553170D01*
X1127857Y-8553170D02*
X1115476Y-8559360D01*
X1115476Y-8559360D02*
X1065952Y-8559360D01*
X1065952Y-8559360D02*
X1065952Y-8429360D01*
X1065952Y-8429360D02*
X1109286Y-8429360D01*
X1109286Y-8429360D02*
X1121667Y-8435551D01*
X1121667Y-8435551D02*
X1127857Y-8441741D01*
X1127857Y-8441741D02*
X1134048Y-8454122D01*
X1134048Y-8454122D02*
X1134048Y-8466503D01*
X1134048Y-8466503D02*
X1127857Y-8478884D01*
X1127857Y-8478884D02*
X1121667Y-8485075D01*
X1121667Y-8485075D02*
X1109286Y-8491265D01*
X1109286Y-8491265D02*
X1065952Y-8491265D01*
D10*
D11*
X1140238Y-13546979D02*
X1134048Y-13553170D01*
X1134048Y-13553170D02*
X1115476Y-13559360D01*
X1115476Y-13559360D02*
X1103095Y-13559360D01*
X1103095Y-13559360D02*
X1084524Y-13553170D01*
X1084524Y-13553170D02*
X1072143Y-13540789D01*
X1072143Y-13540789D02*
X1065952Y-13528408D01*
X1065952Y-13528408D02*
X1059762Y-13503646D01*
X1059762Y-13503646D02*
X1059762Y-13485075D01*
X1059762Y-13485075D02*
X1065952Y-13460313D01*
X1065952Y-13460313D02*
X1072143Y-13447932D01*
X1072143Y-13447932D02*
X1084524Y-13435551D01*
X1084524Y-13435551D02*
X1103095Y-13429360D01*
X1103095Y-13429360D02*
X1115476Y-13429360D01*
X1115476Y-13429360D02*
X1134048Y-13435551D01*
X1134048Y-13435551D02*
X1140238Y-13441741D01*
D10*
D11*
X1065952Y-18559360D02*
X1065952Y-18429360D01*
X1065952Y-18429360D02*
X1096905Y-18429360D01*
X1096905Y-18429360D02*
X1115476Y-18435551D01*
X1115476Y-18435551D02*
X1127857Y-18447932D01*
X1127857Y-18447932D02*
X1134048Y-18460313D01*
X1134048Y-18460313D02*
X1140238Y-18485075D01*
X1140238Y-18485075D02*
X1140238Y-18503646D01*
X1140238Y-18503646D02*
X1134048Y-18528408D01*
X1134048Y-18528408D02*
X1127857Y-18540789D01*
X1127857Y-18540789D02*
X1115476Y-18553170D01*
X1115476Y-18553170D02*
X1096905Y-18559360D01*
X1096905Y-18559360D02*
X1065952Y-18559360D01*
D10*
D11*
X28700220Y-6000000D02*
X28500220Y-6000000D01*
D10*
D11*
X28700220Y-11000000D02*
X28500220Y-11000000D01*
D10*
D11*
X28700220Y-16000000D02*
X28500220Y-16000000D01*
D10*
D11*
X28569268Y-3522218D02*
X28631172Y-3522218D01*
X28556887Y-3559360D02*
X28600220Y-3429360D01*
X28600220Y-3429360D02*
X28643553Y-3559360D01*
D10*
D11*
X28609506Y-8491265D02*
X28628077Y-8497456D01*
X28628077Y-8497456D02*
X28634268Y-8503646D01*
X28634268Y-8503646D02*
X28640458Y-8516027D01*
X28640458Y-8516027D02*
X28640458Y-8534599D01*
X28640458Y-8534599D02*
X28634268Y-8546980D01*
X28634268Y-8546980D02*
X28628077Y-8553170D01*
X28628077Y-8553170D02*
X28615696Y-8559360D01*
X28615696Y-8559360D02*
X28566172Y-8559360D01*
X28566172Y-8559360D02*
X28566172Y-8429360D01*
X28566172Y-8429360D02*
X28609506Y-8429360D01*
X28609506Y-8429360D02*
X28621887Y-8435551D01*
X28621887Y-8435551D02*
X28628077Y-8441741D01*
X28628077Y-8441741D02*
X28634268Y-8454122D01*
X28634268Y-8454122D02*
X28634268Y-8466503D01*
X28634268Y-8466503D02*
X28628077Y-8478884D01*
X28628077Y-8478884D02*
X28621887Y-8485075D01*
X28621887Y-8485075D02*
X28609506Y-8491265D01*
X28609506Y-8491265D02*
X28566172Y-8491265D01*
D10*
D11*
X28640458Y-13546979D02*
X28634268Y-13553170D01*
X28634268Y-13553170D02*
X28615696Y-13559360D01*
X28615696Y-13559360D02*
X28603315Y-13559360D01*
X28603315Y-13559360D02*
X28584744Y-13553170D01*
X28584744Y-13553170D02*
X28572363Y-13540789D01*
X28572363Y-13540789D02*
X28566172Y-13528408D01*
X28566172Y-13528408D02*
X28559982Y-13503646D01*
X28559982Y-13503646D02*
X28559982Y-13485075D01*
X28559982Y-13485075D02*
X28566172Y-13460313D01*
X28566172Y-13460313D02*
X28572363Y-13447932D01*
X28572363Y-13447932D02*
X28584744Y-13435551D01*
X28584744Y-13435551D02*
X28603315Y-13429360D01*
X28603315Y-13429360D02*
X28615696Y-13429360D01*
X28615696Y-13429360D02*
X28634268Y-13435551D01*
X28634268Y-13435551D02*
X28640458Y-13441741D01*
D10*
D11*
X28566172Y-18559360D02*
X28566172Y-18429360D01*
X28566172Y-18429360D02*
X28597125Y-18429360D01*
X28597125Y-18429360D02*
X28615696Y-18435551D01*
X28615696Y-18435551D02*
X28628077Y-18447932D01*
X28628077Y-18447932D02*
X28634268Y-18460313D01*
X28634268Y-18460313D02*
X28640458Y-18485075D01*
X28640458Y-18485075D02*
X28640458Y-18503646D01*
X28640458Y-18503646D02*
X28634268Y-18528408D01*
X28634268Y-18528408D02*
X28628077Y-18540789D01*
X28628077Y-18540789D02*
X28615696Y-18553170D01*
X28615696Y-18553170D02*
X28597125Y-18559360D01*
X28597125Y-18559360D02*
X28566172Y-18559360D01*
D10*
D11*
X20045803Y-19379333D02*
X20045803Y-19229333D01*
X20045803Y-19229333D02*
X20081517Y-19229333D01*
X20081517Y-19229333D02*
X20102946Y-19236476D01*
X20102946Y-19236476D02*
X20117231Y-19250761D01*
X20117231Y-19250761D02*
X20124374Y-19265047D01*
X20124374Y-19265047D02*
X20131517Y-19293619D01*
X20131517Y-19293619D02*
X20131517Y-19315047D01*
X20131517Y-19315047D02*
X20124374Y-19343619D01*
X20124374Y-19343619D02*
X20117231Y-19357904D01*
X20117231Y-19357904D02*
X20102946Y-19372190D01*
X20102946Y-19372190D02*
X20081517Y-19379333D01*
X20081517Y-19379333D02*
X20045803Y-19379333D01*
X20260088Y-19379333D02*
X20260088Y-19300761D01*
X20260088Y-19300761D02*
X20252946Y-19286476D01*
X20252946Y-19286476D02*
X20238660Y-19279333D01*
X20238660Y-19279333D02*
X20210088Y-19279333D01*
X20210088Y-19279333D02*
X20195803Y-19286476D01*
X20260088Y-19372190D02*
X20245803Y-19379333D01*
X20245803Y-19379333D02*
X20210088Y-19379333D01*
X20210088Y-19379333D02*
X20195803Y-19372190D01*
X20195803Y-19372190D02*
X20188660Y-19357904D01*
X20188660Y-19357904D02*
X20188660Y-19343619D01*
X20188660Y-19343619D02*
X20195803Y-19329333D01*
X20195803Y-19329333D02*
X20210088Y-19322190D01*
X20210088Y-19322190D02*
X20245803Y-19322190D01*
X20245803Y-19322190D02*
X20260088Y-19315047D01*
X20310088Y-19279333D02*
X20367231Y-19279333D01*
X20331517Y-19229333D02*
X20331517Y-19357904D01*
X20331517Y-19357904D02*
X20338660Y-19372190D01*
X20338660Y-19372190D02*
X20352946Y-19379333D01*
X20352946Y-19379333D02*
X20367231Y-19379333D01*
X20474374Y-19372190D02*
X20460088Y-19379333D01*
X20460088Y-19379333D02*
X20431517Y-19379333D01*
X20431517Y-19379333D02*
X20417231Y-19372190D01*
X20417231Y-19372190D02*
X20410088Y-19357904D01*
X20410088Y-19357904D02*
X20410088Y-19300761D01*
X20410088Y-19300761D02*
X20417231Y-19286476D01*
X20417231Y-19286476D02*
X20431517Y-19279333D01*
X20431517Y-19279333D02*
X20460088Y-19279333D01*
X20460088Y-19279333D02*
X20474374Y-19286476D01*
X20474374Y-19286476D02*
X20481517Y-19300761D01*
X20481517Y-19300761D02*
X20481517Y-19315047D01*
X20481517Y-19315047D02*
X20410088Y-19329333D01*
X20545803Y-19365047D02*
X20552946Y-19372190D01*
X20552946Y-19372190D02*
X20545803Y-19379333D01*
X20545803Y-19379333D02*
X20538660Y-19372190D01*
X20538660Y-19372190D02*
X20545803Y-19365047D01*
X20545803Y-19365047D02*
X20545803Y-19379333D01*
X20545803Y-19286476D02*
X20552946Y-19293619D01*
X20552946Y-19293619D02*
X20545803Y-19300761D01*
X20545803Y-19300761D02*
X20538660Y-19293619D01*
X20538660Y-19293619D02*
X20545803Y-19286476D01*
X20545803Y-19286476D02*
X20545803Y-19300761D01*
D10*
D11*
X17700220Y-19450720D02*
X28500220Y-19450720D01*
D10*
D11*
X17845803Y-19659333D02*
X17845803Y-19509333D01*
X17931517Y-19659333D02*
X17867231Y-19573619D01*
X17931517Y-19509333D02*
X17845803Y-19595047D01*
X17995803Y-19659333D02*
X17995803Y-19559333D01*
X17995803Y-19509333D02*
X17988660Y-19516476D01*
X17988660Y-19516476D02*
X17995803Y-19523619D01*
X17995803Y-19523619D02*
X18002946Y-19516476D01*
X18002946Y-19516476D02*
X17995803Y-19509333D01*
X17995803Y-19509333D02*
X17995803Y-19523619D01*
X18152946Y-19645047D02*
X18145803Y-19652190D01*
X18145803Y-19652190D02*
X18124374Y-19659333D01*
X18124374Y-19659333D02*
X18110088Y-19659333D01*
X18110088Y-19659333D02*
X18088660Y-19652190D01*
X18088660Y-19652190D02*
X18074374Y-19637904D01*
X18074374Y-19637904D02*
X18067231Y-19623619D01*
X18067231Y-19623619D02*
X18060088Y-19595047D01*
X18060088Y-19595047D02*
X18060088Y-19573619D01*
X18060088Y-19573619D02*
X18067231Y-19545047D01*
X18067231Y-19545047D02*
X18074374Y-19530761D01*
X18074374Y-19530761D02*
X18088660Y-19516476D01*
X18088660Y-19516476D02*
X18110088Y-19509333D01*
X18110088Y-19509333D02*
X18124374Y-19509333D01*
X18124374Y-19509333D02*
X18145803Y-19516476D01*
X18145803Y-19516476D02*
X18152946Y-19523619D01*
X18281517Y-19659333D02*
X18281517Y-19580761D01*
X18281517Y-19580761D02*
X18274374Y-19566476D01*
X18274374Y-19566476D02*
X18260088Y-19559333D01*
X18260088Y-19559333D02*
X18231517Y-19559333D01*
X18231517Y-19559333D02*
X18217231Y-19566476D01*
X18281517Y-19652190D02*
X18267231Y-19659333D01*
X18267231Y-19659333D02*
X18231517Y-19659333D01*
X18231517Y-19659333D02*
X18217231Y-19652190D01*
X18217231Y-19652190D02*
X18210088Y-19637904D01*
X18210088Y-19637904D02*
X18210088Y-19623619D01*
X18210088Y-19623619D02*
X18217231Y-19609333D01*
X18217231Y-19609333D02*
X18231517Y-19602190D01*
X18231517Y-19602190D02*
X18267231Y-19602190D01*
X18267231Y-19602190D02*
X18281517Y-19595047D01*
X18417231Y-19659333D02*
X18417231Y-19509333D01*
X18417231Y-19652190D02*
X18402946Y-19659333D01*
X18402946Y-19659333D02*
X18374374Y-19659333D01*
X18374374Y-19659333D02*
X18360088Y-19652190D01*
X18360088Y-19652190D02*
X18352946Y-19645047D01*
X18352946Y-19645047D02*
X18345803Y-19630761D01*
X18345803Y-19630761D02*
X18345803Y-19587904D01*
X18345803Y-19587904D02*
X18352946Y-19573619D01*
X18352946Y-19573619D02*
X18360088Y-19566476D01*
X18360088Y-19566476D02*
X18374374Y-19559333D01*
X18374374Y-19559333D02*
X18402946Y-19559333D01*
X18402946Y-19559333D02*
X18417231Y-19566476D01*
X18602946Y-19580761D02*
X18652946Y-19580761D01*
X18674374Y-19659333D02*
X18602946Y-19659333D01*
X18602946Y-19659333D02*
X18602946Y-19509333D01*
X18602946Y-19509333D02*
X18674374Y-19509333D01*
X18738660Y-19645047D02*
X18745803Y-19652190D01*
X18745803Y-19652190D02*
X18738660Y-19659333D01*
X18738660Y-19659333D02*
X18731517Y-19652190D01*
X18731517Y-19652190D02*
X18738660Y-19645047D01*
X18738660Y-19645047D02*
X18738660Y-19659333D01*
X18810088Y-19659333D02*
X18810088Y-19509333D01*
X18810088Y-19509333D02*
X18845803Y-19509333D01*
X18845803Y-19509333D02*
X18867231Y-19516476D01*
X18867231Y-19516476D02*
X18881517Y-19530761D01*
X18881517Y-19530761D02*
X18888660Y-19545047D01*
X18888660Y-19545047D02*
X18895803Y-19573619D01*
X18895803Y-19573619D02*
X18895803Y-19595047D01*
X18895803Y-19595047D02*
X18888660Y-19623619D01*
X18888660Y-19623619D02*
X18881517Y-19637904D01*
X18881517Y-19637904D02*
X18867231Y-19652190D01*
X18867231Y-19652190D02*
X18845803Y-19659333D01*
X18845803Y-19659333D02*
X18810088Y-19659333D01*
X18960088Y-19645047D02*
X18967231Y-19652190D01*
X18967231Y-19652190D02*
X18960088Y-19659333D01*
X18960088Y-19659333D02*
X18952946Y-19652190D01*
X18952946Y-19652190D02*
X18960088Y-19645047D01*
X18960088Y-19645047D02*
X18960088Y-19659333D01*
X19024374Y-19616476D02*
X19095803Y-19616476D01*
X19010089Y-19659333D02*
X19060089Y-19509333D01*
X19060089Y-19509333D02*
X19110089Y-19659333D01*
X19160088Y-19645047D02*
X19167231Y-19652190D01*
X19167231Y-19652190D02*
X19160088Y-19659333D01*
X19160088Y-19659333D02*
X19152946Y-19652190D01*
X19152946Y-19652190D02*
X19160088Y-19645047D01*
X19160088Y-19645047D02*
X19160088Y-19659333D01*
X19367231Y-19573619D02*
X19352946Y-19566476D01*
X19352946Y-19566476D02*
X19345803Y-19559333D01*
X19345803Y-19559333D02*
X19338660Y-19545047D01*
X19338660Y-19545047D02*
X19338660Y-19537904D01*
X19338660Y-19537904D02*
X19345803Y-19523619D01*
X19345803Y-19523619D02*
X19352946Y-19516476D01*
X19352946Y-19516476D02*
X19367231Y-19509333D01*
X19367231Y-19509333D02*
X19395803Y-19509333D01*
X19395803Y-19509333D02*
X19410089Y-19516476D01*
X19410089Y-19516476D02*
X19417231Y-19523619D01*
X19417231Y-19523619D02*
X19424374Y-19537904D01*
X19424374Y-19537904D02*
X19424374Y-19545047D01*
X19424374Y-19545047D02*
X19417231Y-19559333D01*
X19417231Y-19559333D02*
X19410089Y-19566476D01*
X19410089Y-19566476D02*
X19395803Y-19573619D01*
X19395803Y-19573619D02*
X19367231Y-19573619D01*
X19367231Y-19573619D02*
X19352946Y-19580761D01*
X19352946Y-19580761D02*
X19345803Y-19587904D01*
X19345803Y-19587904D02*
X19338660Y-19602190D01*
X19338660Y-19602190D02*
X19338660Y-19630761D01*
X19338660Y-19630761D02*
X19345803Y-19645047D01*
X19345803Y-19645047D02*
X19352946Y-19652190D01*
X19352946Y-19652190D02*
X19367231Y-19659333D01*
X19367231Y-19659333D02*
X19395803Y-19659333D01*
X19395803Y-19659333D02*
X19410089Y-19652190D01*
X19410089Y-19652190D02*
X19417231Y-19645047D01*
X19417231Y-19645047D02*
X19424374Y-19630761D01*
X19424374Y-19630761D02*
X19424374Y-19602190D01*
X19424374Y-19602190D02*
X19417231Y-19587904D01*
X19417231Y-19587904D02*
X19410089Y-19580761D01*
X19410089Y-19580761D02*
X19395803Y-19573619D01*
X19488660Y-19645047D02*
X19495803Y-19652190D01*
X19495803Y-19652190D02*
X19488660Y-19659333D01*
X19488660Y-19659333D02*
X19481517Y-19652190D01*
X19481517Y-19652190D02*
X19488660Y-19645047D01*
X19488660Y-19645047D02*
X19488660Y-19659333D01*
X19588660Y-19509333D02*
X19602946Y-19509333D01*
X19602946Y-19509333D02*
X19617231Y-19516476D01*
X19617231Y-19516476D02*
X19624374Y-19523619D01*
X19624374Y-19523619D02*
X19631517Y-19537904D01*
X19631517Y-19537904D02*
X19638660Y-19566476D01*
X19638660Y-19566476D02*
X19638660Y-19602190D01*
X19638660Y-19602190D02*
X19631517Y-19630761D01*
X19631517Y-19630761D02*
X19624374Y-19645047D01*
X19624374Y-19645047D02*
X19617231Y-19652190D01*
X19617231Y-19652190D02*
X19602946Y-19659333D01*
X19602946Y-19659333D02*
X19588660Y-19659333D01*
X19588660Y-19659333D02*
X19574374Y-19652190D01*
X19574374Y-19652190D02*
X19567231Y-19645047D01*
X19567231Y-19645047D02*
X19560088Y-19630761D01*
X19560088Y-19630761D02*
X19552946Y-19602190D01*
X19552946Y-19602190D02*
X19552946Y-19566476D01*
X19552946Y-19566476D02*
X19560088Y-19537904D01*
X19560088Y-19537904D02*
X19567231Y-19523619D01*
X19567231Y-19523619D02*
X19574374Y-19516476D01*
X19574374Y-19516476D02*
X19588660Y-19509333D01*
X19702946Y-19645047D02*
X19710088Y-19652190D01*
X19710088Y-19652190D02*
X19702946Y-19659333D01*
X19702946Y-19659333D02*
X19695803Y-19652190D01*
X19695803Y-19652190D02*
X19702946Y-19645047D01*
X19702946Y-19645047D02*
X19702946Y-19659333D01*
X19845803Y-19509333D02*
X19774374Y-19509333D01*
X19774374Y-19509333D02*
X19767231Y-19580761D01*
X19767231Y-19580761D02*
X19774374Y-19573619D01*
X19774374Y-19573619D02*
X19788660Y-19566476D01*
X19788660Y-19566476D02*
X19824374Y-19566476D01*
X19824374Y-19566476D02*
X19838660Y-19573619D01*
X19838660Y-19573619D02*
X19845803Y-19580761D01*
X19845803Y-19580761D02*
X19852946Y-19595047D01*
X19852946Y-19595047D02*
X19852946Y-19630761D01*
X19852946Y-19630761D02*
X19845803Y-19645047D01*
X19845803Y-19645047D02*
X19838660Y-19652190D01*
X19838660Y-19652190D02*
X19824374Y-19659333D01*
X19824374Y-19659333D02*
X19788660Y-19659333D01*
X19788660Y-19659333D02*
X19774374Y-19652190D01*
X19774374Y-19652190D02*
X19767231Y-19645047D01*
D10*
D11*
X17700220Y-19150720D02*
X28500220Y-19150720D01*
D10*
D12*
X26441385Y-19378553D02*
X26391385Y-19307124D01*
X26355671Y-19378553D02*
X26355671Y-19228553D01*
X26355671Y-19228553D02*
X26412814Y-19228553D01*
X26412814Y-19228553D02*
X26427100Y-19235696D01*
X26427100Y-19235696D02*
X26434242Y-19242839D01*
X26434242Y-19242839D02*
X26441385Y-19257124D01*
X26441385Y-19257124D02*
X26441385Y-19278553D01*
X26441385Y-19278553D02*
X26434242Y-19292839D01*
X26434242Y-19292839D02*
X26427100Y-19299981D01*
X26427100Y-19299981D02*
X26412814Y-19307124D01*
X26412814Y-19307124D02*
X26355671Y-19307124D01*
X26562814Y-19371410D02*
X26548528Y-19378553D01*
X26548528Y-19378553D02*
X26519957Y-19378553D01*
X26519957Y-19378553D02*
X26505671Y-19371410D01*
X26505671Y-19371410D02*
X26498528Y-19357124D01*
X26498528Y-19357124D02*
X26498528Y-19299981D01*
X26498528Y-19299981D02*
X26505671Y-19285696D01*
X26505671Y-19285696D02*
X26519957Y-19278553D01*
X26519957Y-19278553D02*
X26548528Y-19278553D01*
X26548528Y-19278553D02*
X26562814Y-19285696D01*
X26562814Y-19285696D02*
X26569957Y-19299981D01*
X26569957Y-19299981D02*
X26569957Y-19314267D01*
X26569957Y-19314267D02*
X26498528Y-19328553D01*
X26619957Y-19278553D02*
X26655671Y-19378553D01*
X26655671Y-19378553D02*
X26691385Y-19278553D01*
X26748528Y-19364267D02*
X26755671Y-19371410D01*
X26755671Y-19371410D02*
X26748528Y-19378553D01*
X26748528Y-19378553D02*
X26741385Y-19371410D01*
X26741385Y-19371410D02*
X26748528Y-19364267D01*
X26748528Y-19364267D02*
X26748528Y-19378553D01*
X26748528Y-19285696D02*
X26755671Y-19292839D01*
X26755671Y-19292839D02*
X26748528Y-19299981D01*
X26748528Y-19299981D02*
X26741385Y-19292839D01*
X26741385Y-19292839D02*
X26748528Y-19285696D01*
X26748528Y-19285696D02*
X26748528Y-19299981D01*
D10*
D11*
X17838660Y-19372190D02*
X17860088Y-19379333D01*
X17860088Y-19379333D02*
X17895803Y-19379333D01*
X17895803Y-19379333D02*
X17910088Y-19372190D01*
X17910088Y-19372190D02*
X17917231Y-19365047D01*
X17917231Y-19365047D02*
X17924374Y-19350761D01*
X17924374Y-19350761D02*
X17924374Y-19336476D01*
X17924374Y-19336476D02*
X17917231Y-19322190D01*
X17917231Y-19322190D02*
X17910088Y-19315047D01*
X17910088Y-19315047D02*
X17895803Y-19307904D01*
X17895803Y-19307904D02*
X17867231Y-19300761D01*
X17867231Y-19300761D02*
X17852946Y-19293619D01*
X17852946Y-19293619D02*
X17845803Y-19286476D01*
X17845803Y-19286476D02*
X17838660Y-19272190D01*
X17838660Y-19272190D02*
X17838660Y-19257904D01*
X17838660Y-19257904D02*
X17845803Y-19243619D01*
X17845803Y-19243619D02*
X17852946Y-19236476D01*
X17852946Y-19236476D02*
X17867231Y-19229333D01*
X17867231Y-19229333D02*
X17902946Y-19229333D01*
X17902946Y-19229333D02*
X17924374Y-19236476D01*
X17988660Y-19379333D02*
X17988660Y-19279333D01*
X17988660Y-19229333D02*
X17981517Y-19236476D01*
X17981517Y-19236476D02*
X17988660Y-19243619D01*
X17988660Y-19243619D02*
X17995803Y-19236476D01*
X17995803Y-19236476D02*
X17988660Y-19229333D01*
X17988660Y-19229333D02*
X17988660Y-19243619D01*
X18045803Y-19279333D02*
X18124374Y-19279333D01*
X18124374Y-19279333D02*
X18045803Y-19379333D01*
X18045803Y-19379333D02*
X18124374Y-19379333D01*
X18238660Y-19372190D02*
X18224374Y-19379333D01*
X18224374Y-19379333D02*
X18195803Y-19379333D01*
X18195803Y-19379333D02*
X18181517Y-19372190D01*
X18181517Y-19372190D02*
X18174374Y-19357904D01*
X18174374Y-19357904D02*
X18174374Y-19300761D01*
X18174374Y-19300761D02*
X18181517Y-19286476D01*
X18181517Y-19286476D02*
X18195803Y-19279333D01*
X18195803Y-19279333D02*
X18224374Y-19279333D01*
X18224374Y-19279333D02*
X18238660Y-19286476D01*
X18238660Y-19286476D02*
X18245803Y-19300761D01*
X18245803Y-19300761D02*
X18245803Y-19315047D01*
X18245803Y-19315047D02*
X18174374Y-19329333D01*
X18310088Y-19365047D02*
X18317231Y-19372190D01*
X18317231Y-19372190D02*
X18310088Y-19379333D01*
X18310088Y-19379333D02*
X18302946Y-19372190D01*
X18302946Y-19372190D02*
X18310088Y-19365047D01*
X18310088Y-19365047D02*
X18310088Y-19379333D01*
X18310088Y-19286476D02*
X18317231Y-19293619D01*
X18317231Y-19293619D02*
X18310088Y-19300761D01*
X18310088Y-19300761D02*
X18302946Y-19293619D01*
X18302946Y-19293619D02*
X18310088Y-19286476D01*
X18310088Y-19286476D02*
X18310088Y-19300761D01*
X18488660Y-19336476D02*
X18560088Y-19336476D01*
X18474374Y-19379333D02*
X18524374Y-19229333D01*
X18524374Y-19229333D02*
X18574374Y-19379333D01*
X18688660Y-19279333D02*
X18688660Y-19379333D01*
X18652946Y-19222190D02*
X18617231Y-19329333D01*
X18617231Y-19329333D02*
X18710088Y-19329333D01*
D10*
D11*
X26345803Y-19659333D02*
X26345803Y-19509333D01*
X26481517Y-19659333D02*
X26481517Y-19509333D01*
X26481517Y-19652190D02*
X26467231Y-19659333D01*
X26467231Y-19659333D02*
X26438660Y-19659333D01*
X26438660Y-19659333D02*
X26424374Y-19652190D01*
X26424374Y-19652190D02*
X26417231Y-19645047D01*
X26417231Y-19645047D02*
X26410088Y-19630761D01*
X26410088Y-19630761D02*
X26410088Y-19587904D01*
X26410088Y-19587904D02*
X26417231Y-19573619D01*
X26417231Y-19573619D02*
X26424374Y-19566476D01*
X26424374Y-19566476D02*
X26438660Y-19559333D01*
X26438660Y-19559333D02*
X26467231Y-19559333D01*
X26467231Y-19559333D02*
X26481517Y-19566476D01*
X26552945Y-19645047D02*
X26560088Y-19652190D01*
X26560088Y-19652190D02*
X26552945Y-19659333D01*
X26552945Y-19659333D02*
X26545803Y-19652190D01*
X26545803Y-19652190D02*
X26552945Y-19645047D01*
X26552945Y-19645047D02*
X26552945Y-19659333D01*
X26552945Y-19566476D02*
X26560088Y-19573619D01*
X26560088Y-19573619D02*
X26552945Y-19580761D01*
X26552945Y-19580761D02*
X26545803Y-19573619D01*
X26545803Y-19573619D02*
X26552945Y-19566476D01*
X26552945Y-19566476D02*
X26552945Y-19580761D01*
X26817231Y-19659333D02*
X26731517Y-19659333D01*
X26774374Y-19659333D02*
X26774374Y-19509333D01*
X26774374Y-19509333D02*
X26760088Y-19530761D01*
X26760088Y-19530761D02*
X26745803Y-19545047D01*
X26745803Y-19545047D02*
X26731517Y-19552190D01*
X26988660Y-19502190D02*
X26860088Y-19695047D01*
X27117231Y-19659333D02*
X27031517Y-19659333D01*
X27074374Y-19659333D02*
X27074374Y-19509333D01*
X27074374Y-19509333D02*
X27060088Y-19530761D01*
X27060088Y-19530761D02*
X27045803Y-19545047D01*
X27045803Y-19545047D02*
X27031517Y-19552190D01*
D10*
D11*
X17700220Y-18750720D02*
X28500220Y-18750720D01*
D10*
D13*
X17869393Y-18821164D02*
X17983679Y-18821164D01*
X17901536Y-19021164D02*
X17926536Y-18821164D01*
X18025345Y-19021164D02*
X18042012Y-18887830D01*
X18050345Y-18821164D02*
X18039631Y-18830688D01*
X18039631Y-18830688D02*
X18047964Y-18840211D01*
X18047964Y-18840211D02*
X18058679Y-18830688D01*
X18058679Y-18830688D02*
X18050345Y-18821164D01*
X18050345Y-18821164D02*
X18047964Y-18840211D01*
X18108679Y-18887830D02*
X18184869Y-18887830D01*
X18145583Y-18821164D02*
X18124155Y-18992592D01*
X18124155Y-18992592D02*
X18131298Y-19011640D01*
X18131298Y-19011640D02*
X18149155Y-19021164D01*
X18149155Y-19021164D02*
X18168202Y-19021164D01*
X18263441Y-19021164D02*
X18245583Y-19011640D01*
X18245583Y-19011640D02*
X18238441Y-18992592D01*
X18238441Y-18992592D02*
X18259869Y-18821164D01*
X18417012Y-19011640D02*
X18396774Y-19021164D01*
X18396774Y-19021164D02*
X18358679Y-19021164D01*
X18358679Y-19021164D02*
X18340821Y-19011640D01*
X18340821Y-19011640D02*
X18333679Y-18992592D01*
X18333679Y-18992592D02*
X18343202Y-18916402D01*
X18343202Y-18916402D02*
X18355107Y-18897354D01*
X18355107Y-18897354D02*
X18375345Y-18887830D01*
X18375345Y-18887830D02*
X18413440Y-18887830D01*
X18413440Y-18887830D02*
X18431298Y-18897354D01*
X18431298Y-18897354D02*
X18438440Y-18916402D01*
X18438440Y-18916402D02*
X18436060Y-18935450D01*
X18436060Y-18935450D02*
X18338440Y-18954497D01*
X18513441Y-19002116D02*
X18521774Y-19011640D01*
X18521774Y-19011640D02*
X18511060Y-19021164D01*
X18511060Y-19021164D02*
X18502726Y-19011640D01*
X18502726Y-19011640D02*
X18513441Y-19002116D01*
X18513441Y-19002116D02*
X18511060Y-19021164D01*
X18526536Y-18897354D02*
X18534869Y-18906878D01*
X18534869Y-18906878D02*
X18524155Y-18916402D01*
X18524155Y-18916402D02*
X18515821Y-18906878D01*
X18515821Y-18906878D02*
X18526536Y-18897354D01*
X18526536Y-18897354D02*
X18524155Y-18916402D01*
D10*
D11*
X17895803Y-18560761D02*
X17845803Y-18560761D01*
X17845803Y-18639333D02*
X17845803Y-18489333D01*
X17845803Y-18489333D02*
X17917231Y-18489333D01*
X17974374Y-18639333D02*
X17974374Y-18539333D01*
X17974374Y-18489333D02*
X17967231Y-18496476D01*
X17967231Y-18496476D02*
X17974374Y-18503619D01*
X17974374Y-18503619D02*
X17981517Y-18496476D01*
X17981517Y-18496476D02*
X17974374Y-18489333D01*
X17974374Y-18489333D02*
X17974374Y-18503619D01*
X18067231Y-18639333D02*
X18052946Y-18632190D01*
X18052946Y-18632190D02*
X18045803Y-18617904D01*
X18045803Y-18617904D02*
X18045803Y-18489333D01*
X18181517Y-18632190D02*
X18167231Y-18639333D01*
X18167231Y-18639333D02*
X18138660Y-18639333D01*
X18138660Y-18639333D02*
X18124374Y-18632190D01*
X18124374Y-18632190D02*
X18117231Y-18617904D01*
X18117231Y-18617904D02*
X18117231Y-18560761D01*
X18117231Y-18560761D02*
X18124374Y-18546476D01*
X18124374Y-18546476D02*
X18138660Y-18539333D01*
X18138660Y-18539333D02*
X18167231Y-18539333D01*
X18167231Y-18539333D02*
X18181517Y-18546476D01*
X18181517Y-18546476D02*
X18188660Y-18560761D01*
X18188660Y-18560761D02*
X18188660Y-18575047D01*
X18188660Y-18575047D02*
X18117231Y-18589333D01*
X18252945Y-18625047D02*
X18260088Y-18632190D01*
X18260088Y-18632190D02*
X18252945Y-18639333D01*
X18252945Y-18639333D02*
X18245803Y-18632190D01*
X18245803Y-18632190D02*
X18252945Y-18625047D01*
X18252945Y-18625047D02*
X18252945Y-18639333D01*
X18252945Y-18546476D02*
X18260088Y-18553619D01*
X18260088Y-18553619D02*
X18252945Y-18560761D01*
X18252945Y-18560761D02*
X18245803Y-18553619D01*
X18245803Y-18553619D02*
X18252945Y-18546476D01*
X18252945Y-18546476D02*
X18252945Y-18560761D01*
X18424374Y-18539333D02*
X18452946Y-18639333D01*
X18452946Y-18639333D02*
X18481517Y-18567904D01*
X18481517Y-18567904D02*
X18510088Y-18639333D01*
X18510088Y-18639333D02*
X18538660Y-18539333D01*
X18660088Y-18639333D02*
X18660088Y-18560761D01*
X18660088Y-18560761D02*
X18652946Y-18546476D01*
X18652946Y-18546476D02*
X18638660Y-18539333D01*
X18638660Y-18539333D02*
X18610088Y-18539333D01*
X18610088Y-18539333D02*
X18595803Y-18546476D01*
X18660088Y-18632190D02*
X18645803Y-18639333D01*
X18645803Y-18639333D02*
X18610088Y-18639333D01*
X18610088Y-18639333D02*
X18595803Y-18632190D01*
X18595803Y-18632190D02*
X18588660Y-18617904D01*
X18588660Y-18617904D02*
X18588660Y-18603619D01*
X18588660Y-18603619D02*
X18595803Y-18589333D01*
X18595803Y-18589333D02*
X18610088Y-18582190D01*
X18610088Y-18582190D02*
X18645803Y-18582190D01*
X18645803Y-18582190D02*
X18660088Y-18575047D01*
X18752946Y-18639333D02*
X18738660Y-18632190D01*
X18738660Y-18632190D02*
X18731517Y-18617904D01*
X18731517Y-18617904D02*
X18731517Y-18489333D01*
X18788660Y-18539333D02*
X18845803Y-18539333D01*
X18810088Y-18489333D02*
X18810088Y-18617904D01*
X18810088Y-18617904D02*
X18817231Y-18632190D01*
X18817231Y-18632190D02*
X18831517Y-18639333D01*
X18831517Y-18639333D02*
X18845803Y-18639333D01*
X18952946Y-18632190D02*
X18938660Y-18639333D01*
X18938660Y-18639333D02*
X18910088Y-18639333D01*
X18910088Y-18639333D02*
X18895803Y-18632190D01*
X18895803Y-18632190D02*
X18888660Y-18617904D01*
X18888660Y-18617904D02*
X18888660Y-18560761D01*
X18888660Y-18560761D02*
X18895803Y-18546476D01*
X18895803Y-18546476D02*
X18910088Y-18539333D01*
X18910088Y-18539333D02*
X18938660Y-18539333D01*
X18938660Y-18539333D02*
X18952946Y-18546476D01*
X18952946Y-18546476D02*
X18960088Y-18560761D01*
X18960088Y-18560761D02*
X18960088Y-18575047D01*
X18960088Y-18575047D02*
X18888660Y-18589333D01*
X19024374Y-18639333D02*
X19024374Y-18539333D01*
X19024374Y-18567904D02*
X19031517Y-18553619D01*
X19031517Y-18553619D02*
X19038660Y-18546476D01*
X19038660Y-18546476D02*
X19052946Y-18539333D01*
X19052946Y-18539333D02*
X19067231Y-18539333D01*
X19081517Y-18653619D02*
X19195803Y-18653619D01*
X19231517Y-18639333D02*
X19231517Y-18539333D01*
X19231517Y-18567904D02*
X19238660Y-18553619D01*
X19238660Y-18553619D02*
X19245803Y-18546476D01*
X19245803Y-18546476D02*
X19260088Y-18539333D01*
X19260088Y-18539333D02*
X19274374Y-18539333D01*
X19381517Y-18632190D02*
X19367231Y-18639333D01*
X19367231Y-18639333D02*
X19338660Y-18639333D01*
X19338660Y-18639333D02*
X19324374Y-18632190D01*
X19324374Y-18632190D02*
X19317231Y-18617904D01*
X19317231Y-18617904D02*
X19317231Y-18560761D01*
X19317231Y-18560761D02*
X19324374Y-18546476D01*
X19324374Y-18546476D02*
X19338660Y-18539333D01*
X19338660Y-18539333D02*
X19367231Y-18539333D01*
X19367231Y-18539333D02*
X19381517Y-18546476D01*
X19381517Y-18546476D02*
X19388660Y-18560761D01*
X19388660Y-18560761D02*
X19388660Y-18575047D01*
X19388660Y-18575047D02*
X19317231Y-18589333D01*
X19452945Y-18639333D02*
X19452945Y-18539333D01*
X19452945Y-18553619D02*
X19460088Y-18546476D01*
X19460088Y-18546476D02*
X19474374Y-18539333D01*
X19474374Y-18539333D02*
X19495803Y-18539333D01*
X19495803Y-18539333D02*
X19510088Y-18546476D01*
X19510088Y-18546476D02*
X19517231Y-18560761D01*
X19517231Y-18560761D02*
X19517231Y-18639333D01*
X19517231Y-18560761D02*
X19524374Y-18546476D01*
X19524374Y-18546476D02*
X19538660Y-18539333D01*
X19538660Y-18539333D02*
X19560088Y-18539333D01*
X19560088Y-18539333D02*
X19574374Y-18546476D01*
X19574374Y-18546476D02*
X19581517Y-18560761D01*
X19581517Y-18560761D02*
X19581517Y-18639333D01*
X19652945Y-18639333D02*
X19652945Y-18539333D01*
X19652945Y-18489333D02*
X19645803Y-18496476D01*
X19645803Y-18496476D02*
X19652945Y-18503619D01*
X19652945Y-18503619D02*
X19660088Y-18496476D01*
X19660088Y-18496476D02*
X19652945Y-18489333D01*
X19652945Y-18489333D02*
X19652945Y-18503619D01*
X19710088Y-18639333D02*
X19788660Y-18539333D01*
X19710088Y-18539333D02*
X19788660Y-18639333D01*
X19960088Y-18582190D02*
X20074374Y-18582190D01*
X20345803Y-18625047D02*
X20338660Y-18632190D01*
X20338660Y-18632190D02*
X20317231Y-18639333D01*
X20317231Y-18639333D02*
X20302945Y-18639333D01*
X20302945Y-18639333D02*
X20281517Y-18632190D01*
X20281517Y-18632190D02*
X20267231Y-18617904D01*
X20267231Y-18617904D02*
X20260088Y-18603619D01*
X20260088Y-18603619D02*
X20252945Y-18575047D01*
X20252945Y-18575047D02*
X20252945Y-18553619D01*
X20252945Y-18553619D02*
X20260088Y-18525047D01*
X20260088Y-18525047D02*
X20267231Y-18510761D01*
X20267231Y-18510761D02*
X20281517Y-18496476D01*
X20281517Y-18496476D02*
X20302945Y-18489333D01*
X20302945Y-18489333D02*
X20317231Y-18489333D01*
X20317231Y-18489333D02*
X20338660Y-18496476D01*
X20338660Y-18496476D02*
X20345803Y-18503619D01*
X20395803Y-18489333D02*
X20488660Y-18489333D01*
X20488660Y-18489333D02*
X20438660Y-18546476D01*
X20438660Y-18546476D02*
X20460088Y-18546476D01*
X20460088Y-18546476D02*
X20474374Y-18553619D01*
X20474374Y-18553619D02*
X20481517Y-18560761D01*
X20481517Y-18560761D02*
X20488660Y-18575047D01*
X20488660Y-18575047D02*
X20488660Y-18610761D01*
X20488660Y-18610761D02*
X20481517Y-18625047D01*
X20481517Y-18625047D02*
X20474374Y-18632190D01*
X20474374Y-18632190D02*
X20460088Y-18639333D01*
X20460088Y-18639333D02*
X20417231Y-18639333D01*
X20417231Y-18639333D02*
X20402945Y-18632190D01*
X20402945Y-18632190D02*
X20395803Y-18625047D01*
X20538660Y-18539333D02*
X20574374Y-18639333D01*
X20574374Y-18639333D02*
X20610088Y-18539333D01*
X20660088Y-18503619D02*
X20667231Y-18496476D01*
X20667231Y-18496476D02*
X20681517Y-18489333D01*
X20681517Y-18489333D02*
X20717231Y-18489333D01*
X20717231Y-18489333D02*
X20731517Y-18496476D01*
X20731517Y-18496476D02*
X20738660Y-18503619D01*
X20738660Y-18503619D02*
X20745803Y-18517904D01*
X20745803Y-18517904D02*
X20745803Y-18532190D01*
X20745803Y-18532190D02*
X20738660Y-18553619D01*
X20738660Y-18553619D02*
X20652945Y-18639333D01*
X20652945Y-18639333D02*
X20745803Y-18639333D01*
X20810088Y-18625047D02*
X20817231Y-18632190D01*
X20817231Y-18632190D02*
X20810088Y-18639333D01*
X20810088Y-18639333D02*
X20802945Y-18632190D01*
X20802945Y-18632190D02*
X20810088Y-18625047D01*
X20810088Y-18625047D02*
X20810088Y-18639333D01*
X20881517Y-18639333D02*
X20881517Y-18489333D01*
X20895803Y-18582190D02*
X20938660Y-18639333D01*
X20938660Y-18539333D02*
X20881517Y-18596476D01*
X21002945Y-18639333D02*
X21002945Y-18539333D01*
X21002945Y-18489333D02*
X20995803Y-18496476D01*
X20995803Y-18496476D02*
X21002945Y-18503619D01*
X21002945Y-18503619D02*
X21010088Y-18496476D01*
X21010088Y-18496476D02*
X21002945Y-18489333D01*
X21002945Y-18489333D02*
X21002945Y-18503619D01*
X21138660Y-18632190D02*
X21124374Y-18639333D01*
X21124374Y-18639333D02*
X21095803Y-18639333D01*
X21095803Y-18639333D02*
X21081517Y-18632190D01*
X21081517Y-18632190D02*
X21074374Y-18625047D01*
X21074374Y-18625047D02*
X21067231Y-18610761D01*
X21067231Y-18610761D02*
X21067231Y-18567904D01*
X21067231Y-18567904D02*
X21074374Y-18553619D01*
X21074374Y-18553619D02*
X21081517Y-18546476D01*
X21081517Y-18546476D02*
X21095803Y-18539333D01*
X21095803Y-18539333D02*
X21124374Y-18539333D01*
X21124374Y-18539333D02*
X21138660Y-18546476D01*
X21267231Y-18639333D02*
X21267231Y-18560761D01*
X21267231Y-18560761D02*
X21260088Y-18546476D01*
X21260088Y-18546476D02*
X21245803Y-18539333D01*
X21245803Y-18539333D02*
X21217231Y-18539333D01*
X21217231Y-18539333D02*
X21202945Y-18546476D01*
X21267231Y-18632190D02*
X21252945Y-18639333D01*
X21252945Y-18639333D02*
X21217231Y-18639333D01*
X21217231Y-18639333D02*
X21202945Y-18632190D01*
X21202945Y-18632190D02*
X21195803Y-18617904D01*
X21195803Y-18617904D02*
X21195803Y-18603619D01*
X21195803Y-18603619D02*
X21202945Y-18589333D01*
X21202945Y-18589333D02*
X21217231Y-18582190D01*
X21217231Y-18582190D02*
X21252945Y-18582190D01*
X21252945Y-18582190D02*
X21267231Y-18575047D01*
X21402945Y-18639333D02*
X21402945Y-18489333D01*
X21402945Y-18632190D02*
X21388660Y-18639333D01*
X21388660Y-18639333D02*
X21360088Y-18639333D01*
X21360088Y-18639333D02*
X21345803Y-18632190D01*
X21345803Y-18632190D02*
X21338660Y-18625047D01*
X21338660Y-18625047D02*
X21331517Y-18610761D01*
X21331517Y-18610761D02*
X21331517Y-18567904D01*
X21331517Y-18567904D02*
X21338660Y-18553619D01*
X21338660Y-18553619D02*
X21345803Y-18546476D01*
X21345803Y-18546476D02*
X21360088Y-18539333D01*
X21360088Y-18539333D02*
X21388660Y-18539333D01*
X21388660Y-18539333D02*
X21402945Y-18546476D01*
X21438660Y-18653619D02*
X21552945Y-18653619D01*
X21588660Y-18539333D02*
X21588660Y-18689333D01*
X21588660Y-18546476D02*
X21602945Y-18539333D01*
X21602945Y-18539333D02*
X21631517Y-18539333D01*
X21631517Y-18539333D02*
X21645803Y-18546476D01*
X21645803Y-18546476D02*
X21652945Y-18553619D01*
X21652945Y-18553619D02*
X21660088Y-18567904D01*
X21660088Y-18567904D02*
X21660088Y-18610761D01*
X21660088Y-18610761D02*
X21652945Y-18625047D01*
X21652945Y-18625047D02*
X21645803Y-18632190D01*
X21645803Y-18632190D02*
X21631517Y-18639333D01*
X21631517Y-18639333D02*
X21602945Y-18639333D01*
X21602945Y-18639333D02*
X21588660Y-18632190D01*
X21788660Y-18632190D02*
X21774374Y-18639333D01*
X21774374Y-18639333D02*
X21745803Y-18639333D01*
X21745803Y-18639333D02*
X21731517Y-18632190D01*
X21731517Y-18632190D02*
X21724374Y-18625047D01*
X21724374Y-18625047D02*
X21717231Y-18610761D01*
X21717231Y-18610761D02*
X21717231Y-18567904D01*
X21717231Y-18567904D02*
X21724374Y-18553619D01*
X21724374Y-18553619D02*
X21731517Y-18546476D01*
X21731517Y-18546476D02*
X21745803Y-18539333D01*
X21745803Y-18539333D02*
X21774374Y-18539333D01*
X21774374Y-18539333D02*
X21788660Y-18546476D01*
X21852945Y-18639333D02*
X21852945Y-18489333D01*
X21852945Y-18546476D02*
X21867231Y-18539333D01*
X21867231Y-18539333D02*
X21895803Y-18539333D01*
X21895803Y-18539333D02*
X21910088Y-18546476D01*
X21910088Y-18546476D02*
X21917231Y-18553619D01*
X21917231Y-18553619D02*
X21924374Y-18567904D01*
X21924374Y-18567904D02*
X21924374Y-18610761D01*
X21924374Y-18610761D02*
X21917231Y-18625047D01*
X21917231Y-18625047D02*
X21910088Y-18632190D01*
X21910088Y-18632190D02*
X21895803Y-18639333D01*
X21895803Y-18639333D02*
X21867231Y-18639333D01*
X21867231Y-18639333D02*
X21852945Y-18632190D01*
D10*
D11*
X17700220Y-18150720D02*
X28500220Y-18150720D01*
D10*
D11*
X17838660Y-18362190D02*
X17860088Y-18369333D01*
X17860088Y-18369333D02*
X17895803Y-18369333D01*
X17895803Y-18369333D02*
X17910088Y-18362190D01*
X17910088Y-18362190D02*
X17917231Y-18355047D01*
X17917231Y-18355047D02*
X17924374Y-18340761D01*
X17924374Y-18340761D02*
X17924374Y-18326476D01*
X17924374Y-18326476D02*
X17917231Y-18312190D01*
X17917231Y-18312190D02*
X17910088Y-18305047D01*
X17910088Y-18305047D02*
X17895803Y-18297904D01*
X17895803Y-18297904D02*
X17867231Y-18290761D01*
X17867231Y-18290761D02*
X17852946Y-18283619D01*
X17852946Y-18283619D02*
X17845803Y-18276476D01*
X17845803Y-18276476D02*
X17838660Y-18262190D01*
X17838660Y-18262190D02*
X17838660Y-18247904D01*
X17838660Y-18247904D02*
X17845803Y-18233619D01*
X17845803Y-18233619D02*
X17852946Y-18226476D01*
X17852946Y-18226476D02*
X17867231Y-18219333D01*
X17867231Y-18219333D02*
X17902946Y-18219333D01*
X17902946Y-18219333D02*
X17924374Y-18226476D01*
X17988660Y-18369333D02*
X17988660Y-18219333D01*
X18052946Y-18369333D02*
X18052946Y-18290761D01*
X18052946Y-18290761D02*
X18045803Y-18276476D01*
X18045803Y-18276476D02*
X18031517Y-18269333D01*
X18031517Y-18269333D02*
X18010088Y-18269333D01*
X18010088Y-18269333D02*
X17995803Y-18276476D01*
X17995803Y-18276476D02*
X17988660Y-18283619D01*
X18181517Y-18362190D02*
X18167231Y-18369333D01*
X18167231Y-18369333D02*
X18138660Y-18369333D01*
X18138660Y-18369333D02*
X18124374Y-18362190D01*
X18124374Y-18362190D02*
X18117231Y-18347904D01*
X18117231Y-18347904D02*
X18117231Y-18290761D01*
X18117231Y-18290761D02*
X18124374Y-18276476D01*
X18124374Y-18276476D02*
X18138660Y-18269333D01*
X18138660Y-18269333D02*
X18167231Y-18269333D01*
X18167231Y-18269333D02*
X18181517Y-18276476D01*
X18181517Y-18276476D02*
X18188660Y-18290761D01*
X18188660Y-18290761D02*
X18188660Y-18305047D01*
X18188660Y-18305047D02*
X18117231Y-18319333D01*
X18310088Y-18362190D02*
X18295803Y-18369333D01*
X18295803Y-18369333D02*
X18267231Y-18369333D01*
X18267231Y-18369333D02*
X18252945Y-18362190D01*
X18252945Y-18362190D02*
X18245803Y-18347904D01*
X18245803Y-18347904D02*
X18245803Y-18290761D01*
X18245803Y-18290761D02*
X18252945Y-18276476D01*
X18252945Y-18276476D02*
X18267231Y-18269333D01*
X18267231Y-18269333D02*
X18295803Y-18269333D01*
X18295803Y-18269333D02*
X18310088Y-18276476D01*
X18310088Y-18276476D02*
X18317231Y-18290761D01*
X18317231Y-18290761D02*
X18317231Y-18305047D01*
X18317231Y-18305047D02*
X18245803Y-18319333D01*
X18360088Y-18269333D02*
X18417231Y-18269333D01*
X18381517Y-18219333D02*
X18381517Y-18347904D01*
X18381517Y-18347904D02*
X18388660Y-18362190D01*
X18388660Y-18362190D02*
X18402945Y-18369333D01*
X18402945Y-18369333D02*
X18417231Y-18369333D01*
X18467231Y-18355047D02*
X18474374Y-18362190D01*
X18474374Y-18362190D02*
X18467231Y-18369333D01*
X18467231Y-18369333D02*
X18460088Y-18362190D01*
X18460088Y-18362190D02*
X18467231Y-18355047D01*
X18467231Y-18355047D02*
X18467231Y-18369333D01*
X18467231Y-18276476D02*
X18474374Y-18283619D01*
X18474374Y-18283619D02*
X18467231Y-18290761D01*
X18467231Y-18290761D02*
X18460088Y-18283619D01*
X18460088Y-18283619D02*
X18467231Y-18276476D01*
X18467231Y-18276476D02*
X18467231Y-18290761D01*
D10*
D11*
X19700220Y-19150720D02*
X19700220Y-19450720D01*
D10*
D11*
X26100220Y-19150720D02*
X26100220Y-19800720D01*
D14*
%TO.P,U1,19,GND*%
%TO.N,GND*%
X14863500Y-8072500D03*
X14863500Y-7962500D03*
X14808500Y-8127500D03*
X14808500Y-8017500D03*
X14808500Y-7907500D03*
X14753500Y-8072500D03*
X14753500Y-7962500D03*
X14698500Y-8127500D03*
X14698500Y-8017500D03*
X14698500Y-7907500D03*
X14643500Y-8072500D03*
X14643500Y-7962500D03*
%TD*%
D15*
%TO.P,SW1,3*%
%TO.N,SW_OUT*%
X13530000Y-8650000D03*
%TO.P,SW1,2,B*%
%TO.N,GND*%
X13530000Y-9450000D03*
%TD*%
D16*
%TO.P,J6,1,1*%
%TO.N,GND*%
X13250000Y-9690000D03*
D17*
%TO.P,J6,2,2*%
%TO.N,Net-(U4-VIN)*%
X13250000Y-9182000D03*
%TD*%
D18*
%TO.P,J4,1,SIG*%
%TO.N,Net-(J4-SIG)*%
X15152400Y-10376800D03*
D19*
%TO.P,J4,2,GND_1*%
%TO.N,GND*%
X15300000Y-10450000D03*
D18*
%TO.P,J4,3,GND_2*%
X15452400Y-10376800D03*
%TD*%
D20*
%TO.P,BZ1,1,+*%
%TO.N,BUZZ+*%
X13960000Y-7640000D03*
%TO.P,BZ1,2,-*%
%TO.N,GND*%
X14260000Y-7640000D03*
%TD*%
D18*
%TO.P,J5,1,SIG*%
%TO.N,Net-(J5-SIG)*%
X15155000Y-9876800D03*
D19*
%TO.P,J5,2,GND_1*%
%TO.N,GND*%
X15302600Y-9950000D03*
D18*
%TO.P,J5,3,GND_2*%
X15455000Y-9876800D03*
%TD*%
D21*
%TO.P,L2,1,1*%
%TO.N,Net-(U5-RF_IN)*%
X14094000Y-10580000D03*
%TO.P,L2,2,2*%
%TO.N,Net-(FL1-Pad1)*%
X14040000Y-10580000D03*
%TD*%
D22*
%TO.P,U5,1,GND*%
%TO.N,GND*%
X15255000Y-7895000D03*
%TO.P,U5,2,VCC*%
%TO.N,1V8_LTE*%
X15210000Y-7895000D03*
%TO.P,U5,3,RF_OUT*%
%TO.N,GNSS_RF*%
X15165000Y-7895000D03*
%TO.P,U5,4,GND_REF*%
%TO.N,GND*%
X15165000Y-7845000D03*
%TO.P,U5,5,RF_IN*%
%TO.N,Net-(U5-RF_IN)*%
X15210000Y-7845000D03*
%TO.P,U5,6,EN*%
%TO.N,GNSS_EN*%
X15255000Y-7845000D03*
%TD*%
D23*
%TO.P,R20,1*%
%TO.N,+3V3*%
X15400000Y-10724000D03*
%TO.P,R20,2*%
%TO.N,+1V8*%
X15400000Y-10660000D03*
%TD*%
D24*
%TO.P,R19,1*%
%TO.N,Net-(J1-CC1)*%
X13857500Y-11040000D03*
%TO.P,R19,2*%
%TO.N,GND*%
X13793500Y-11040000D03*
%TD*%
%TO.P,R18,1*%
%TO.N,Net-(J1-CC2)*%
X14206500Y-10900000D03*
%TO.P,R18,2*%
%TO.N,GND*%
X14142500Y-10900000D03*
%TD*%
%TO.P,R17,1*%
%TO.N,Net-(J4-SIG)*%
X15152000Y-10120000D03*
%TO.P,R17,2*%
%TO.N,LTE_ANT*%
X15088000Y-10120000D03*
%TD*%
D25*
%TO.P,R16,1*%
%TO.N,GND*%
X15020000Y-9956000D03*
%TO.P,R16,2*%
%TO.N,Net-(J4-SIG)*%
X15020000Y-10020000D03*
%TD*%
D23*
%TO.P,R15,1*%
%TO.N,GND*%
X15040000Y-10320000D03*
%TO.P,R15,2*%
%TO.N,LTE_ANT*%
X15040000Y-10256000D03*
%TD*%
D24*
%TO.P,R13,1*%
%TO.N,GND*%
X15640000Y-10140000D03*
%TO.P,R13,2*%
%TO.N,Net-(J5-SIG)*%
X15576000Y-10140000D03*
%TD*%
%TO.P,R12,1*%
%TO.N,Net-(J5-SIG)*%
X15566500Y-10060000D03*
%TO.P,R12,2*%
%TO.N,Net-(FL1-Pad4)*%
X15502500Y-10060000D03*
%TD*%
%TO.P,R11,1*%
%TO.N,GND*%
X15640000Y-10220000D03*
%TO.P,R11,2*%
%TO.N,Net-(FL1-Pad4)*%
X15576000Y-10220000D03*
%TD*%
D25*
%TO.P,R5,1*%
%TO.N,+3V3*%
X15540000Y-8076000D03*
%TO.P,R5,2*%
%TO.N,LTE_RTS1*%
X15540000Y-8140000D03*
%TD*%
%TO.P,R4,1*%
%TO.N,+3V3*%
X15580000Y-8336000D03*
%TO.P,R4,2*%
%TO.N,LTE_RTS0*%
X15580000Y-8400000D03*
%TD*%
D24*
%TO.P,R3,1*%
%TO.N,LTE_WAKE*%
X13977500Y-7920000D03*
%TO.P,R3,2*%
%TO.N,GND*%
X13913500Y-7920000D03*
%TD*%
%TO.P,R2,1*%
%TO.N,RES{slash}FFF_FFH*%
X15587000Y-7899000D03*
%TO.P,R2,2*%
%TO.N,GND*%
X15523000Y-7899000D03*
%TD*%
D23*
%TO.P,R1,1*%
%TO.N,PS_STATUS*%
X15660000Y-8637500D03*
%TO.P,R1,2*%
%TO.N,GND*%
X15660000Y-8573500D03*
%TD*%
D25*
%TO.P,C12,1*%
%TO.N,+1V8*%
X15300000Y-10656000D03*
%TO.P,C12,2*%
%TO.N,GND*%
X15300000Y-10720000D03*
%TD*%
D24*
%TO.P,C11,1*%
%TO.N,+3V3*%
X15337500Y-7560000D03*
%TO.P,C11,2*%
%TO.N,GND*%
X15273500Y-7560000D03*
%TD*%
%TO.P,C10,1*%
%TO.N,+3V3*%
X15337500Y-7640000D03*
%TO.P,C10,2*%
%TO.N,GND*%
X15273500Y-7640000D03*
%TD*%
D23*
%TO.P,C8,1*%
%TO.N,1V8_LTE*%
X15560000Y-8884000D03*
%TO.P,C8,2*%
%TO.N,GND*%
X15560000Y-8820000D03*
%TD*%
D25*
%TO.P,C7,1*%
%TO.N,VSIM*%
X14240000Y-10522500D03*
%TO.P,C7,2*%
%TO.N,GND*%
X14240000Y-10586500D03*
%TD*%
D26*
%TO.P,C6,1*%
%TO.N,+3V3*%
X14242500Y-9660000D03*
%TO.P,C6,2*%
%TO.N,GND*%
X14306500Y-9660000D03*
%TD*%
D27*
%TO.P,J2,1,VCC*%
%TO.N,VSIM*%
X14940000Y-10504000D03*
%TO.P,J2,2,RST*%
%TO.N,SIM_RST*%
X14940000Y-10250000D03*
%TO.P,J2,3,CLK*%
%TO.N,SIM_CLK*%
X14940000Y-9996000D03*
D28*
%TO.P,J2,5,GND*%
%TO.N,GND*%
X13780000Y-10474000D03*
D27*
%TO.P,J2,6,VPP*%
%TO.N,unconnected-(J2-VPP-Pad6)*%
X13780000Y-10250000D03*
%TO.P,J2,7,I/O*%
%TO.N,SIM_IO*%
X13780000Y-9996000D03*
D28*
%TO.P,J2,8,CD*%
%TO.N,Net-(J2-CD)*%
X13780000Y-10534000D03*
%TD*%
D29*
%TO.P,J1,S1,SHIELD*%
%TO.N,GND*%
X14532000Y-11307500D03*
D30*
X14532000Y-10889500D03*
D29*
X13668000Y-11307500D03*
D30*
X13668000Y-10889500D03*
%TD*%
D31*
%TO.P,GM02SP1,G20,GND*%
%TO.N,GND*%
X14400000Y-8620000D03*
%TO.P,GM02SP1,G19,GND*%
X14400000Y-8740000D03*
%TO.P,GM02SP1,G18,GND*%
X14400000Y-8860000D03*
%TO.P,GM02SP1,G17,GND*%
X14400000Y-8980000D03*
%TO.P,GM02SP1,G16,GND*%
X14520000Y-8620000D03*
%TO.P,GM02SP1,G15,GND*%
X14520000Y-8740000D03*
%TO.P,GM02SP1,G14,GND*%
X14520000Y-8860000D03*
%TO.P,GM02SP1,G13,GND*%
X14520000Y-8980000D03*
%TO.P,GM02SP1,G12,GND*%
X14640000Y-8620000D03*
%TO.P,GM02SP1,G11,GND*%
X14640000Y-8740000D03*
%TO.P,GM02SP1,G10,GND*%
X14640000Y-8860000D03*
%TO.P,GM02SP1,G9,GND*%
X14640000Y-8980000D03*
%TO.P,GM02SP1,G8,GND*%
X14760000Y-8620000D03*
%TO.P,GM02SP1,G7,GND*%
X14760000Y-8740000D03*
%TO.P,GM02SP1,G6,GND*%
X14760000Y-8860000D03*
%TO.P,GM02SP1,G5,GND*%
X14760000Y-8980000D03*
%TO.P,GM02SP1,G4,GND*%
X14880000Y-8620000D03*
%TO.P,GM02SP1,G3,GND*%
X14880000Y-8740000D03*
%TO.P,GM02SP1,G2,GND*%
X14880000Y-8860000D03*
D32*
%TO.P,GM02SP1,G1,GND*%
X14880000Y-8980000D03*
D33*
%TO.P,GM02SP1,100,GPIO6/PCM_TX*%
%TO.N,unconnected-(GM02SP1-GPIO6{slash}PCM_TX-Pad100)*%
X15240000Y-9380000D03*
%TO.P,GM02SP1,99,GPIO5/PCM_FS*%
%TO.N,unconnected-(GM02SP1-GPIO5{slash}PCM_FS-Pad99)*%
X15160000Y-9280000D03*
%TO.P,GM02SP1,98,GPIO3/PCM_RX*%
%TO.N,unconnected-(GM02SP1-GPIO3{slash}PCM_RX-Pad98)*%
X15160000Y-9380000D03*
%TO.P,GM02SP1,97,GPIO24/I2C_SCL*%
%TO.N,unconnected-(GM02SP1-GPIO24{slash}I2C_SCL-Pad97)*%
X15080000Y-9280000D03*
%TO.P,GM02SP1,96,GPIO4/PCM_CLK*%
%TO.N,unconnected-(GM02SP1-GPIO4{slash}PCM_CLK-Pad96)*%
X15080000Y-9380000D03*
%TO.P,GM02SP1,95,GPIO23/I2C_SDA*%
%TO.N,unconnected-(GM02SP1-GPIO23{slash}I2C_SDA-Pad95)*%
X15000000Y-9280000D03*
%TO.P,GM02SP1,94,GNSS_RF*%
%TO.N,GNSS_RF*%
X15000000Y-9380000D03*
%TO.P,GM02SP1,93,GND*%
%TO.N,GND*%
X14920000Y-9280000D03*
%TO.P,GM02SP1,92,GND*%
X14920000Y-9380000D03*
%TO.P,GM02SP1,91,GND*%
X14840000Y-9280000D03*
%TO.P,GM02SP1,90,LTE_ANT*%
%TO.N,LTE_ANT*%
X14840000Y-9380000D03*
%TO.P,GM02SP1,89,GND*%
%TO.N,GND*%
X14760000Y-9280000D03*
%TO.P,GM02SP1,88,GND*%
X14760000Y-9380000D03*
%TO.P,GM02SP1,87,GND*%
X14680000Y-9280000D03*
%TO.P,GM02SP1,86,GND*%
X14680000Y-9380000D03*
%TO.P,GM02SP1,85,GND*%
X14600000Y-9280000D03*
%TO.P,GM02SP1,84,GND*%
X14600000Y-9380000D03*
%TO.P,GM02SP1,83,GND*%
X14520000Y-9280000D03*
%TO.P,GM02SP1,82,GND*%
X14520000Y-9380000D03*
%TO.P,GM02SP1,81,GND*%
X14440000Y-9280000D03*
%TO.P,GM02SP1,80,GND*%
X14440000Y-9380000D03*
%TO.P,GM02SP1,79,GND*%
X14360000Y-9280000D03*
%TO.P,GM02SP1,78,GND*%
X14360000Y-9380000D03*
%TO.P,GM02SP1,77,GND*%
%TO.N,unconnected-(GM02SP1-GND-Pad77)*%
X14280000Y-9280000D03*
%TO.P,GM02SP1,76,GND*%
%TO.N,unconnected-(GM02SP1-GND-Pad76)*%
X14280000Y-9380000D03*
%TO.P,GM02SP1,75,GND*%
%TO.N,unconnected-(GM02SP1-GND-Pad75)*%
X14200000Y-9280000D03*
%TO.P,GM02SP1,74,GND*%
%TO.N,unconnected-(GM02SP1-GND-Pad74)*%
X14200000Y-9380000D03*
%TO.P,GM02SP1,73,SIM_VCC*%
%TO.N,VSIM*%
X14120000Y-9280000D03*
%TO.P,GM02SP1,72,ADC*%
%TO.N,unconnected-(GM02SP1-ADC-Pad72)*%
X14120000Y-9380000D03*
%TO.P,GM02SP1,71,GND*%
%TO.N,GND*%
X14040000Y-9380000D03*
D28*
%TO.P,GM02SP1,70,JTAG_TRSTN*%
%TO.N,JTAG_TRSTN*%
X13970000Y-9280000D03*
%TO.P,GM02SP1,69,JTAG_TCK*%
%TO.N,JTAG_TCK*%
X13970000Y-9200000D03*
%TO.P,GM02SP1,68,JTAG_TDO*%
%TO.N,JTAG_TDO*%
X13970000Y-9120000D03*
%TO.P,GM02SP1,67,JTAG_TDI*%
%TO.N,JTAG_TDI*%
X14070000Y-9040000D03*
%TO.P,GM02SP1,66,JTAG_TMS*%
%TO.N,JTAG_TMS*%
X13970000Y-9040000D03*
%TO.P,GM02SP1,65,GND*%
%TO.N,GND*%
X14070000Y-8960000D03*
%TO.P,GM02SP1,64,GND*%
X13970000Y-8960000D03*
%TO.P,GM02SP1,63,VBAT*%
%TO.N,Net-(GM02SP1-VBAT-Pad60)*%
X14070000Y-8880000D03*
%TO.P,GM02SP1,62,VBAT*%
X13970000Y-8880000D03*
%TO.P,GM02SP1,61,GND*%
%TO.N,GND*%
X14070000Y-8800000D03*
%TO.P,GM02SP1,60,VBAT*%
%TO.N,Net-(GM02SP1-VBAT-Pad60)*%
X13970000Y-8800000D03*
%TO.P,GM02SP1,59,GND*%
%TO.N,GND*%
X14070000Y-8720000D03*
%TO.P,GM02SP1,58,GND*%
X13970000Y-8720000D03*
%TO.P,GM02SP1,57,WAKE4*%
%TO.N,unconnected-(GM02SP1-WAKE4-Pad57)*%
X14070000Y-8640000D03*
%TO.P,GM02SP1,56,GND*%
%TO.N,GND*%
X13970000Y-8640000D03*
%TO.P,GM02SP1,55,WAKE3*%
%TO.N,unconnected-(GM02SP1-WAKE3-Pad55)*%
X14070000Y-8560000D03*
%TO.P,GM02SP1,54,GND*%
%TO.N,GND*%
X13970000Y-8560000D03*
%TO.P,GM02SP1,53,32KHZ_CLK_0/P*%
%TO.N,unconnected-(GM02SP1-32KHZ_CLK_0{slash}P-Pad53)*%
X13970000Y-8480000D03*
%TO.P,GM02SP1,52,GND*%
%TO.N,GND*%
X13970000Y-8400000D03*
%TO.P,GM02SP1,51,GND*%
X13970000Y-8320000D03*
D33*
%TO.P,GM02SP1,50,GND*%
X14040000Y-8220000D03*
%TO.P,GM02SP1,49,WAKE2*%
%TO.N,unconnected-(GM02SP1-WAKE2-Pad49)*%
X14120000Y-8320000D03*
%TO.P,GM02SP1,48,WAKE0*%
%TO.N,LTE_WAKE*%
X14120000Y-8220000D03*
%TO.P,GM02SP1,47,WAKE1*%
%TO.N,unconnected-(GM02SP1-WAKE1-Pad47)*%
X14200000Y-8320000D03*
%TO.P,GM02SP1,46,RESTN*%
%TO.N,LTE_RST*%
X14200000Y-8220000D03*
%TO.P,GM02SP1,45,SIM_DETECT*%
%TO.N,SIM_DETECT*%
X14280000Y-8320000D03*
%TO.P,GM02SP1,44,SIM_IO/ISO7816_IO*%
%TO.N,SIM_IO*%
X14280000Y-8220000D03*
%TO.P,GM02SP1,43,SIM_RSTN/ISO7816_RSTN*%
%TO.N,SIM_RST*%
X14360000Y-8320000D03*
%TO.P,GM02SP1,42,SIM_CLK/ISO7816_CLK*%
%TO.N,SIM_CLK*%
X14360000Y-8220000D03*
%TO.P,GM02SP1,41,GPIO27*%
%TO.N,unconnected-(GM02SP1-GPIO27-Pad41)*%
X14440000Y-8320000D03*
%TO.P,GM02SP1,40,GPIO26*%
%TO.N,unconnected-(GM02SP1-GPIO26-Pad40)*%
X14440000Y-8220000D03*
%TO.P,GM02SP1,39,GPIO25*%
%TO.N,unconnected-(GM02SP1-GPIO25-Pad39)*%
X14520000Y-8320000D03*
%TO.P,GM02SP1,38,GND*%
%TO.N,GND*%
X14520000Y-8220000D03*
%TO.P,GM02SP1,37,GND*%
X14600000Y-8320000D03*
%TO.P,GM02SP1,36,TXD0/GPIO12*%
%TO.N,LTE_TX0*%
X14600000Y-8220000D03*
%TO.P,GM02SP1,35,CTS0/GPIO14*%
%TO.N,LTE_CTS0*%
X14680000Y-8320000D03*
%TO.P,GM02SP1,34,RXD0/GPIO13*%
%TO.N,LTE_RX0*%
X14680000Y-8220000D03*
%TO.P,GM02SP1,33,RTS0*%
%TO.N,LTE_RTS0*%
X14760000Y-8320000D03*
%TO.P,GM02SP1,32,TXD1*%
%TO.N,LTE_TX1*%
X14760000Y-8220000D03*
%TO.P,GM02SP1,31,CTS1*%
%TO.N,LTE_CTS1*%
X14840000Y-8320000D03*
%TO.P,GM02SP1,30,RXD1*%
%TO.N,LTE_RX1*%
X14840000Y-8220000D03*
%TO.P,GM02SP1,29,RTS1*%
%TO.N,LTE_RTS1*%
X14920000Y-8320000D03*
%TO.P,GM02SP1,28,TXD2/GPIO15*%
%TO.N,LTE_TX2*%
X14920000Y-8220000D03*
%TO.P,GM02SP1,27,CTS2/GPIO17/DCD0*%
%TO.N,unconnected-(GM02SP1-CTS2{slash}GPIO17{slash}DCD0-Pad27)*%
X15000000Y-8320000D03*
%TO.P,GM02SP1,26,RXD2/GPIO16*%
%TO.N,LTE_RX2*%
X15000000Y-8220000D03*
%TO.P,GM02SP1,25,RTS2/GPIO18/DSR0*%
%TO.N,unconnected-(GM02SP1-RTS2{slash}GPIO18{slash}DSR0-Pad25)*%
X15080000Y-8320000D03*
%TO.P,GM02SP1,24,TXD3/GPIO19*%
%TO.N,unconnected-(GM02SP1-TXD3{slash}GPIO19-Pad24)*%
X15080000Y-8220000D03*
%TO.P,GM02SP1,23,RTS3/GPIO22*%
%TO.N,unconnected-(GM02SP1-RTS3{slash}GPIO22-Pad23)*%
X15160000Y-8320000D03*
%TO.P,GM02SP1,22,RXD3/GPIO20*%
%TO.N,unconnected-(GM02SP1-RXD3{slash}GPIO20-Pad22)*%
X15160000Y-8220000D03*
%TO.P,GM02SP1,21,CTS3/GPIO21*%
%TO.N,unconnected-(GM02SP1-CTS3{slash}GPIO21-Pad21)*%
X15240000Y-8220000D03*
D28*
%TO.P,GM02SP1,20,RES/FFF_FFH*%
%TO.N,RES{slash}FFF_FFH*%
X15310000Y-8320000D03*
%TO.P,GM02SP1,19,PWM0/PULSE0/GPIO31*%
%TO.N,unconnected-(GM02SP1-PWM0{slash}PULSE0{slash}GPIO31-Pad19)*%
X15310000Y-8400000D03*
%TO.P,GM02SP1,18,PWM1/PULSE1/GPIO32*%
%TO.N,unconnected-(GM02SP1-PWM1{slash}PULSE1{slash}GPIO32-Pad18)*%
X15310000Y-8480000D03*
%TO.P,GM02SP1,17,GPIO30*%
%TO.N,unconnected-(GM02SP1-GPIO30-Pad17)*%
X15210000Y-8560000D03*
%TO.P,GM02SP1,16,RING0*%
%TO.N,unconnected-(GM02SP1-RING0-Pad16)*%
X15310000Y-8560000D03*
%TO.P,GM02SP1,15,GPIO29*%
%TO.N,unconnected-(GM02SP1-GPIO29-Pad15)*%
X15210000Y-8640000D03*
%TO.P,GM02SP1,14,GPIO28/DTR0*%
%TO.N,GNSS_EN*%
X15310000Y-8640000D03*
%TO.P,GM02SP1,13,PS_STATUS/GPIO2*%
%TO.N,PS_STATUS*%
X15210000Y-8720000D03*
%TO.P,GM02SP1,12,STATUS_LED/GPIO1*%
%TO.N,unconnected-(GM02SP1-STATUS_LED{slash}GPIO1-Pad12)*%
X15310000Y-8720000D03*
%TO.P,GM02SP1,11,GPIO35/ANT_CRTL1/RFDATA3*%
%TO.N,unconnected-(GM02SP1-GPIO35{slash}ANT_CRTL1{slash}RFDATA3-Pad11)*%
X15210000Y-8800000D03*
%TO.P,GM02SP1,10,GPIO34/ANT_CRTL0/RFDATA2*%
%TO.N,unconnected-(GM02SP1-GPIO34{slash}ANT_CRTL0{slash}RFDATA2-Pad10)*%
X15310000Y-8800000D03*
%TO.P,GM02SP1,9,GPIO33/TXIND/RFDATA1*%
%TO.N,unconnected-(GM02SP1-GPIO33{slash}TXIND{slash}RFDATA1-Pad9)*%
X15210000Y-8880000D03*
%TO.P,GM02SP1,8,1V8*%
%TO.N,1V8_LTE*%
X15310000Y-8880000D03*
%TO.P,GM02SP1,7,GPIO11/SPI_CS2*%
%TO.N,unconnected-(GM02SP1-GPIO11{slash}SPI_CS2-Pad7)*%
X15210000Y-8960000D03*
%TO.P,GM02SP1,6,GND*%
%TO.N,GND*%
X15310000Y-8960000D03*
%TO.P,GM02SP1,5,GPIO10/SPI_CS1*%
%TO.N,unconnected-(GM02SP1-GPIO10{slash}SPI_CS1-Pad5)*%
X15210000Y-9040000D03*
%TO.P,GM02SP1,4,GPIO8/SPI_SDO*%
%TO.N,unconnected-(GM02SP1-GPIO8{slash}SPI_SDO-Pad4)*%
X15310000Y-9040000D03*
%TO.P,GM02SP1,3,GPIO7/SPI_SDI*%
%TO.N,unconnected-(GM02SP1-GPIO7{slash}SPI_SDI-Pad3)*%
X15310000Y-9120000D03*
%TO.P,GM02SP1,2,GPIO9/SPI_CLK*%
%TO.N,unconnected-(GM02SP1-GPIO9{slash}SPI_CLK-Pad2)*%
X15310000Y-9200000D03*
%TO.P,GM02SP1,1,GND*%
%TO.N,GND*%
X15310000Y-9280000D03*
%TD*%
D34*
%TO.N,SW_OUT*%
X13650000Y-8300000D03*
%TO.N,+1V8*%
X14987691Y-8647500D03*
%TO.N,Net-(FL1-Pad4)*%
X14594099Y-10585000D03*
X15502500Y-10169500D03*
X14163996Y-10416024D03*
%TO.N,VSIM*%
X14093331Y-9791718D03*
X14560000Y-9197303D03*
%TO.N,GND*%
X14497500Y-8142500D03*
X15240000Y-10320000D03*
X14467500Y-8680000D03*
%TO.N,+1V8*%
X15560000Y-10720000D03*
%TO.N,LTE_RTS0*%
X14115806Y-8405000D03*
%TO.N,+3V3*%
X15000000Y-10600000D03*
X14696834Y-10103166D03*
X15460000Y-10740000D03*
%TO.N,GND*%
X15020000Y-9880000D03*
%TO.N,RES{slash}FFF_FFH*%
X15701891Y-7909310D03*
X15291882Y-8297159D03*
%TO.N,PS_STATUS*%
X15626070Y-8688924D03*
X15126211Y-8595939D03*
%TO.N,GND*%
X15675000Y-8500000D03*
%TO.N,+3V3*%
X15675000Y-8340000D03*
%TO.N,LTE_RTS1*%
X15657500Y-8160794D03*
X15049237Y-8420000D03*
%TO.N,GND*%
X15680000Y-7720000D03*
%TO.N,Net-(GM02SP1-VBAT-Pad60)*%
X14155000Y-8780356D03*
X14820000Y-10705000D03*
%TO.N,GND*%
X14820000Y-10800000D03*
%TO.N,Net-(U5-RF_IN)*%
X13973500Y-10563970D03*
%TO.N,Net-(FL1-Pad1)*%
X14004194Y-10484194D03*
%TO.N,Net-(U5-RF_IN)*%
X15160000Y-7752500D03*
%TO.N,LTE_RST*%
X14200000Y-7960000D03*
X15402500Y-7880888D03*
%TO.N,LTE_WAKE*%
X14120000Y-7960000D03*
%TO.N,GND*%
X15205806Y-10674194D03*
%TO.N,+1V8*%
X15200000Y-10580000D03*
%TO.N,1V8_LTE*%
X14260000Y-9960000D03*
%TO.N,LTE_ANT*%
X14564556Y-9882500D03*
X14560000Y-9566694D03*
%TO.N,Net-(J1-CC1)*%
X14110053Y-11095988D03*
%TO.N,Net-(J1-CC2)*%
X14278532Y-10921369D03*
%TO.N,USB_D+*%
X15640000Y-7960000D03*
%TO.N,USB_D-*%
X15653562Y-8061950D03*
%TO.N,USB_D+*%
X14240000Y-11000000D03*
%TO.N,USB_D-*%
X14162023Y-11034112D03*
%TO.N,SIM_IO*%
X14260000Y-8140000D03*
%TO.N,GND*%
X14085000Y-10403388D03*
X14180000Y-10575000D03*
%TO.N,GNSS_RF*%
X14560000Y-9465000D03*
%TO.N,1V8_LTE*%
X15440000Y-8710000D03*
X15004237Y-7957374D03*
%TO.N,GNSS_RF*%
X15060806Y-7900806D03*
%TO.N,LTE_CTS1*%
X14840000Y-8402500D03*
X15380000Y-10540000D03*
%TO.N,SIM_CLK*%
X14807944Y-9942056D03*
X14380000Y-8120000D03*
%TO.N,SIM_RST*%
X14342500Y-8400000D03*
X14940000Y-10162500D03*
%TO.N,GNSS_EN*%
X15331911Y-8077579D03*
X15395000Y-8323388D03*
%TO.N,VSIM*%
X14247000Y-10435688D03*
%TO.N,SIM_IO*%
X13868000Y-9908000D03*
%TO.N,LTE_RTS0*%
X14846727Y-8497615D03*
X15253514Y-8093514D03*
%TO.N,Net-(J2-CD)*%
X14150000Y-10250000D03*
%TO.N,SIM_DETECT*%
X14540000Y-9115000D03*
%TO.N,+3V3*%
X13920000Y-7480000D03*
X15414625Y-8076775D03*
%TO.N,GND*%
X15600000Y-10960000D03*
X15588670Y-10290000D03*
X15590000Y-8960000D03*
X13780000Y-10400000D03*
X13660000Y-9460000D03*
%TO.N,+3V3*%
X14235000Y-9470000D03*
%TO.N,BUZZ+*%
X13640000Y-8080000D03*
%TO.N,LTE_CTS0*%
X14580000Y-8462500D03*
%TO.N,LTE_TX0*%
X14380000Y-8020000D03*
%TO.N,LTE_RX0*%
X14675000Y-8220000D03*
%TD*%
D35*
%TO.N,SW_OUT*%
X13530000Y-8420000D02*
X13650000Y-8300000D01*
X13530000Y-8650000D02*
X13530000Y-8420000D01*
%TO.N,GND*%
X13813707Y-9811293D02*
X13912500Y-9712500D01*
X13614200Y-9811293D02*
X13813707Y-9811293D01*
%TO.N,LTE_ANT*%
X15065000Y-10120000D02*
X15088000Y-10120000D01*
X14760556Y-10078500D02*
X15023500Y-10078500D01*
X14564556Y-9882500D02*
X14760556Y-10078500D01*
X15023500Y-10078500D02*
X15065000Y-10120000D01*
%TO.N,+3V3*%
X15465000Y-8026400D02*
X15414625Y-8076775D01*
X15465000Y-7767500D02*
X15465000Y-8026400D01*
X15337500Y-7640000D02*
X15465000Y-7767500D01*
%TO.N,VSIM*%
X14160000Y-9180000D02*
X14120000Y-9220000D01*
X14560000Y-9197303D02*
X14542697Y-9180000D01*
X14542697Y-9180000D02*
X14160000Y-9180000D01*
X14120000Y-9220000D02*
X14120000Y-9280000D01*
%TO.N,LTE_ANT*%
X14840000Y-9440000D02*
X14840000Y-9380000D01*
X14713306Y-9566694D02*
X14840000Y-9440000D01*
X14560000Y-9566694D02*
X14713306Y-9566694D01*
%TO.N,GNSS_RF*%
X15000000Y-9820000D02*
X15000000Y-9380000D01*
X14480000Y-9820000D02*
X15000000Y-9820000D01*
X14480000Y-9545000D02*
X14480000Y-9820000D01*
X14560000Y-9465000D02*
X14480000Y-9545000D01*
%TO.N,SIM_DETECT*%
X14540000Y-9115000D02*
X14390000Y-9115000D01*
X14390000Y-9115000D02*
X14280000Y-9005000D01*
X14280000Y-9005000D02*
X14280000Y-8320000D01*
%TO.N,Net-(J4-SIG)*%
X15152000Y-10261400D02*
X15152000Y-10120000D01*
X15152400Y-10261800D02*
X15152000Y-10261400D01*
X15152400Y-10376800D02*
X15152400Y-10261800D01*
%TO.N,Net-(FL1-Pad4)*%
X15553000Y-10220000D02*
X15502500Y-10169500D01*
X15576000Y-10220000D02*
X15553000Y-10220000D01*
%TO.N,+3V3*%
X14435000Y-9705119D02*
X14435000Y-9841333D01*
X14309881Y-9580000D02*
X14435000Y-9705119D01*
X14435000Y-9841333D02*
X14696834Y-10103166D01*
X14242500Y-9580000D02*
X14309881Y-9580000D01*
X14242500Y-9580000D02*
X14242500Y-9477500D01*
X14242500Y-9660000D02*
X14242500Y-9580000D01*
%TO.N,Net-(J1-CC1)*%
X14110053Y-11095988D02*
X14054065Y-11040000D01*
X14054065Y-11040000D02*
X13857500Y-11040000D01*
%TO.N,GND*%
X14520000Y-8165000D02*
X14497500Y-8142500D01*
X14520000Y-8220000D02*
X14520000Y-8165000D01*
%TO.N,LTE_TX0*%
X14600000Y-8117388D02*
X14600000Y-8220000D01*
X14581000Y-8080000D02*
X14581000Y-8098388D01*
X14581000Y-8098388D02*
X14600000Y-8117388D01*
X14380000Y-8020000D02*
X14440000Y-8080000D01*
X14440000Y-8080000D02*
X14581000Y-8080000D01*
%TO.N,GND*%
X14500000Y-8400000D02*
X14480000Y-8420000D01*
X14565000Y-8400000D02*
X14500000Y-8400000D01*
X14600000Y-8365000D02*
X14565000Y-8400000D01*
X14600000Y-8320000D02*
X14600000Y-8365000D01*
X14070000Y-8960000D02*
X13880000Y-8960000D01*
X14040000Y-8720000D02*
X13970000Y-8720000D01*
X14070000Y-8750000D02*
X14040000Y-8720000D01*
X14070000Y-8800000D02*
X14070000Y-8750000D01*
X14407500Y-8620000D02*
X14467500Y-8680000D01*
X14400000Y-8620000D02*
X14407500Y-8620000D01*
%TO.N,+1V8*%
X15500000Y-10660000D02*
X15560000Y-10720000D01*
X15400000Y-10660000D02*
X15500000Y-10660000D01*
%TO.N,LTE_RTS0*%
X14846727Y-8497615D02*
X14760000Y-8410888D01*
X14760000Y-8410888D02*
X14760000Y-8320000D01*
%TO.N,+3V3*%
X15444000Y-10724000D02*
X15460000Y-10740000D01*
X15400000Y-10724000D02*
X15444000Y-10724000D01*
%TO.N,+1V8*%
X15304000Y-10660000D02*
X15300000Y-10656000D01*
X15400000Y-10660000D02*
X15304000Y-10660000D01*
%TO.N,GND*%
X15020000Y-9956000D02*
X15020000Y-9880000D01*
%TO.N,Net-(J4-SIG)*%
X15152000Y-10100000D02*
X15152000Y-10120000D01*
X15072000Y-10020000D02*
X15152000Y-10100000D01*
X15020000Y-10020000D02*
X15072000Y-10020000D01*
%TO.N,GND*%
X13913500Y-7853500D02*
X13900000Y-7840000D01*
X13913500Y-7920000D02*
X13913500Y-7853500D01*
%TO.N,BUZZ+*%
X13640000Y-7640000D02*
X13960000Y-7640000D01*
X13640000Y-8080000D02*
X13640000Y-7640000D01*
%TO.N,LTE_WAKE*%
X13977500Y-7920000D02*
X14080000Y-7920000D01*
X14080000Y-7920000D02*
X14120000Y-7960000D01*
%TO.N,GND*%
X15520000Y-7880000D02*
X15680000Y-7720000D01*
X15520000Y-7900000D02*
X15520000Y-7880000D01*
%TO.N,RES{slash}FFF_FFH*%
X15690081Y-7897500D02*
X15701891Y-7909310D01*
X15586500Y-7897500D02*
X15690081Y-7897500D01*
X15584000Y-7900000D02*
X15586500Y-7897500D01*
X15310000Y-8315276D02*
X15291882Y-8297159D01*
X15310000Y-8320000D02*
X15310000Y-8315276D01*
%TO.N,PS_STATUS*%
X15660000Y-8654994D02*
X15626070Y-8688924D01*
X15660000Y-8637500D02*
X15660000Y-8654994D01*
X15126211Y-8696211D02*
X15126211Y-8595939D01*
X15150000Y-8720000D02*
X15126211Y-8696211D01*
X15210000Y-8720000D02*
X15150000Y-8720000D01*
%TO.N,GND*%
X15660000Y-8515000D02*
X15675000Y-8500000D01*
X15660000Y-8573500D02*
X15660000Y-8515000D01*
X15250700Y-10499300D02*
X15300000Y-10450000D01*
X15084900Y-10499300D02*
X15250700Y-10499300D01*
X15040000Y-10454400D02*
X15084900Y-10499300D01*
X15040000Y-10320000D02*
X15040000Y-10454400D01*
%TO.N,LTE_ANT*%
X15040000Y-10168000D02*
X15088000Y-10120000D01*
X15040000Y-10256000D02*
X15040000Y-10168000D01*
%TO.N,+3V3*%
X15337500Y-7560000D02*
X15337500Y-7640000D01*
%TO.N,GND*%
X13912500Y-9712500D02*
X13660000Y-9460000D01*
X14273381Y-9712500D02*
X13912500Y-9712500D01*
X14306500Y-9679381D02*
X14273381Y-9712500D01*
X14306500Y-9660000D02*
X14306500Y-9679381D01*
%TO.N,+3V3*%
X14242500Y-9477500D02*
X14235000Y-9470000D01*
X15671000Y-8336000D02*
X15675000Y-8340000D01*
X15580000Y-8336000D02*
X15671000Y-8336000D01*
%TO.N,LTE_RTS1*%
X15636706Y-8140000D02*
X15657500Y-8160794D01*
X15540000Y-8140000D02*
X15636706Y-8140000D01*
X14960000Y-8420000D02*
X15049237Y-8420000D01*
X14920000Y-8380000D02*
X14960000Y-8420000D01*
X14920000Y-8320000D02*
X14920000Y-8380000D01*
%TO.N,+3V3*%
X15559640Y-8336000D02*
X15580000Y-8336000D01*
X15414625Y-8190986D02*
X15559640Y-8336000D01*
X15414625Y-8076775D02*
X15414625Y-8190986D01*
X15415400Y-8076000D02*
X15414625Y-8076775D01*
X15540000Y-8076000D02*
X15415400Y-8076000D01*
%TO.N,GND*%
X15100000Y-7820000D02*
X15060000Y-7780000D01*
X15140000Y-7820000D02*
X15100000Y-7820000D01*
X15220000Y-8000000D02*
X15160000Y-8060000D01*
%TO.N,Net-(GM02SP1-VBAT-Pad60)*%
X13970000Y-8880000D02*
X13970000Y-8800000D01*
X14100000Y-8880000D02*
X13970000Y-8880000D01*
X14155000Y-8825000D02*
X14100000Y-8880000D01*
X14155000Y-8780356D02*
X14155000Y-8825000D01*
%TO.N,Net-(U5-RF_IN)*%
X13973500Y-10609000D02*
X13973500Y-10563970D01*
X13997000Y-10632500D02*
X13973500Y-10609000D01*
X14086500Y-10632500D02*
X13997000Y-10632500D01*
X14094000Y-10625000D02*
X14086500Y-10632500D01*
X14094000Y-10580000D02*
X14094000Y-10625000D01*
%TO.N,Net-(FL1-Pad1)*%
X14036000Y-10516000D02*
X14004194Y-10484194D01*
X14036000Y-10580000D02*
X14036000Y-10516000D01*
%TO.N,Net-(U5-RF_IN)*%
X15210000Y-7802500D02*
X15160000Y-7752500D01*
X15210000Y-7845000D02*
X15210000Y-7802500D01*
%TO.N,LTE_RST*%
X14197500Y-8197500D02*
X14197500Y-7962500D01*
X14197500Y-7962500D02*
X14200000Y-7960000D01*
X14200000Y-8200000D02*
X14197500Y-8197500D01*
X14200000Y-8220000D02*
X14200000Y-8200000D01*
%TO.N,LTE_WAKE*%
X14120000Y-8220000D02*
X14120000Y-7960000D01*
%TO.N,GND*%
X15251612Y-10720000D02*
X15205806Y-10674194D01*
X15300000Y-10720000D02*
X15251612Y-10720000D01*
%TO.N,+1V8*%
X15276000Y-10656000D02*
X15200000Y-10580000D01*
X15300000Y-10656000D02*
X15276000Y-10656000D01*
%TO.N,GND*%
X13668000Y-10914500D02*
X13668000Y-10889500D01*
X13793500Y-11040000D02*
X13668000Y-10914500D01*
X14490000Y-10847500D02*
X14532000Y-10889500D01*
X14175619Y-10847500D02*
X14490000Y-10847500D01*
X14142500Y-10880619D02*
X14175619Y-10847500D01*
X14142500Y-10900000D02*
X14142500Y-10880619D01*
%TO.N,Net-(J1-CC2)*%
X14257163Y-10900000D02*
X14278532Y-10921369D01*
X14206500Y-10900000D02*
X14257163Y-10900000D01*
%TO.N,SIM_IO*%
X13780000Y-9996000D02*
X13868000Y-9908000D01*
X14280000Y-8160000D02*
X14260000Y-8140000D01*
X14280000Y-8220000D02*
X14280000Y-8160000D01*
%TO.N,GND*%
X14191500Y-10586500D02*
X14180000Y-10575000D01*
X14240000Y-10586500D02*
X14191500Y-10586500D01*
%TO.N,VSIM*%
X14240000Y-10442688D02*
X14247000Y-10435688D01*
X14240000Y-10522500D02*
X14240000Y-10442688D01*
%TO.N,1V8_LTE*%
X15440000Y-8884000D02*
X15440000Y-8710000D01*
X15440000Y-8884000D02*
X15314000Y-8884000D01*
X15560000Y-8884000D02*
X15440000Y-8884000D01*
X15017668Y-7970806D02*
X15004237Y-7957374D01*
X15174194Y-7970806D02*
X15017668Y-7970806D01*
X15210000Y-7935000D02*
X15174194Y-7970806D01*
X15210000Y-7895000D02*
X15210000Y-7935000D01*
%TO.N,GND*%
X15260000Y-7960000D02*
X15220000Y-8000000D01*
X15255000Y-7925000D02*
X15260000Y-7930000D01*
X15260000Y-7930000D02*
X15260000Y-7960000D01*
X15255000Y-7895000D02*
X15255000Y-7925000D01*
%TO.N,GNSS_RF*%
X15066612Y-7895000D02*
X15060806Y-7900806D01*
X15165000Y-7895000D02*
X15066612Y-7895000D01*
%TO.N,GNSS_EN*%
X15290000Y-7845000D02*
X15255000Y-7845000D01*
X15340000Y-7895000D02*
X15290000Y-7845000D01*
X15340000Y-8069490D02*
X15340000Y-7895000D01*
X15331911Y-8077579D02*
X15340000Y-8069490D01*
%TO.N,GND*%
X15165000Y-7845000D02*
X15140000Y-7820000D01*
%TO.N,LTE_CTS1*%
X14840000Y-8320000D02*
X14840000Y-8402500D01*
%TO.N,SIM_CLK*%
X14861888Y-9996000D02*
X14807944Y-9942056D01*
X14940000Y-9996000D02*
X14861888Y-9996000D01*
%TO.N,LTE_CTS0*%
X14680000Y-8396360D02*
X14680000Y-8320000D01*
X14613860Y-8462500D02*
X14680000Y-8396360D01*
X14580000Y-8462500D02*
X14613860Y-8462500D01*
%TO.N,SIM_CLK*%
X14360000Y-8140000D02*
X14380000Y-8120000D01*
X14360000Y-8220000D02*
X14360000Y-8140000D01*
%TO.N,SIM_RST*%
X14360000Y-8382500D02*
X14342500Y-8400000D01*
X14360000Y-8320000D02*
X14360000Y-8382500D01*
X14940000Y-10250000D02*
X14940000Y-10162500D01*
%TO.N,GNSS_EN*%
X15395000Y-8615000D02*
X15395000Y-8323388D01*
X15370000Y-8640000D02*
X15395000Y-8615000D01*
X15310000Y-8640000D02*
X15370000Y-8640000D01*
%TO.N,VSIM*%
X14315312Y-10504000D02*
X14940000Y-10504000D01*
X14247000Y-10435688D02*
X14315312Y-10504000D01*
%TO.N,Net-(J2-CD)*%
X13866000Y-10534000D02*
X14150000Y-10250000D01*
X13780000Y-10534000D02*
X13866000Y-10534000D01*
%TO.N,GND*%
X14920000Y-9380000D02*
X14920000Y-9280000D01*
X15377500Y-8997500D02*
X15340000Y-8960000D01*
X15340000Y-8960000D02*
X15310000Y-8960000D01*
X15310000Y-9280000D02*
X15355000Y-9280000D01*
X15355000Y-9280000D02*
X15377500Y-9257500D01*
X15377500Y-9257500D02*
X15377500Y-8997500D01*
X15310000Y-8960000D02*
X15590000Y-8960000D01*
X13780000Y-10474000D02*
X13780000Y-10400000D01*
X15515000Y-9876800D02*
X15640000Y-10001800D01*
X15640000Y-10001800D02*
X15640000Y-10140000D01*
X15455000Y-9876800D02*
X15515000Y-9876800D01*
X15381800Y-9950000D02*
X15455000Y-9876800D01*
X15302600Y-9950000D02*
X15381800Y-9950000D01*
X15428670Y-10450000D02*
X15588670Y-10290000D01*
X15300000Y-10450000D02*
X15428670Y-10450000D01*
X15589381Y-10290000D02*
X15588670Y-10290000D01*
X15640000Y-10239381D02*
X15589381Y-10290000D01*
X15640000Y-10140000D02*
X15640000Y-10239381D01*
X15640000Y-10140000D02*
X15640000Y-10220000D01*
X15612500Y-8937500D02*
X15590000Y-8960000D01*
X15612500Y-8852500D02*
X15612500Y-8937500D01*
X15580000Y-8820000D02*
X15612500Y-8852500D01*
X15560000Y-8820000D02*
X15580000Y-8820000D01*
%TO.N,1V8_LTE*%
X15314000Y-8884000D02*
X15310000Y-8880000D01*
%TO.N,Net-(J5-SIG)*%
X15155000Y-9987400D02*
X15155000Y-9876800D01*
X15240100Y-10072500D02*
X15155000Y-9987400D01*
X15438300Y-9999300D02*
X15365100Y-10072500D01*
X15566500Y-10040000D02*
X15525800Y-9999300D01*
X15525800Y-9999300D02*
X15438300Y-9999300D01*
X15365100Y-10072500D02*
X15240100Y-10072500D01*
X15566500Y-10060000D02*
X15566500Y-10040000D01*
%TO.N,Net-(FL1-Pad4)*%
X15502500Y-10060000D02*
X15502500Y-10169500D01*
%TO.N,Net-(J5-SIG)*%
X15576000Y-10069500D02*
X15566500Y-10060000D01*
X15576000Y-10140000D02*
X15576000Y-10069500D01*
%TO.N,LTE_RTS0*%
X15560000Y-8400000D02*
X15580000Y-8400000D01*
X15253514Y-8093514D02*
X15560000Y-8400000D01*
%TD*%
%TA.AperFunction,Conductor*%
%TO.N,GND*%
G36*
X15354304Y-7441968D02*
G01*
X15358879Y-7447249D01*
X15360000Y-7452400D01*
X15360000Y-7477550D01*
X15358031Y-7484254D01*
X15352751Y-7488829D01*
X15347600Y-7489950D01*
X15320564Y-7489950D01*
X15308825Y-7491495D01*
X15308824Y-7491496D01*
X15294216Y-7497546D01*
X15281672Y-7507172D01*
X15272046Y-7519716D01*
X15265996Y-7534324D01*
X15265995Y-7534324D01*
X15264450Y-7546064D01*
X15264450Y-7573936D01*
X15265995Y-7585675D01*
X15265996Y-7585676D01*
X15269963Y-7595255D01*
X15270710Y-7602202D01*
X15269963Y-7604745D01*
X15265996Y-7614323D01*
X15265995Y-7614324D01*
X15264450Y-7626064D01*
X15264450Y-7653936D01*
X15265995Y-7665675D01*
X15265996Y-7665676D01*
X15269428Y-7673963D01*
X15272046Y-7680284D01*
X15281672Y-7692828D01*
X15294216Y-7702454D01*
X15308824Y-7708504D01*
X15314694Y-7709277D01*
X15321084Y-7712104D01*
X15321844Y-7712803D01*
X15356368Y-7747327D01*
X15359717Y-7753459D01*
X15360000Y-7756095D01*
X15360000Y-7796605D01*
X15358031Y-7803308D01*
X15352751Y-7807884D01*
X15345835Y-7808878D01*
X15339480Y-7805976D01*
X15338832Y-7805373D01*
X15329873Y-7796414D01*
X15323826Y-7792373D01*
X15319629Y-7789569D01*
X15319629Y-7789569D01*
X15319628Y-7789569D01*
X15314519Y-7787452D01*
X15311579Y-7786235D01*
X15310397Y-7785745D01*
X15308245Y-7784854D01*
X15307243Y-7784654D01*
X15302203Y-7783652D01*
X15296161Y-7782450D01*
X15296161Y-7782450D01*
X15296161Y-7782450D01*
X15277684Y-7782450D01*
X15270980Y-7780481D01*
X15266405Y-7775201D01*
X15266228Y-7774795D01*
X15265758Y-7773661D01*
X15265758Y-7773660D01*
X15265431Y-7772872D01*
X15265431Y-7772871D01*
X15262298Y-7768182D01*
X15262298Y-7768182D01*
X15258586Y-7762627D01*
X15258585Y-7762626D01*
X15249564Y-7753604D01*
X15249561Y-7753602D01*
X15242621Y-7746662D01*
X15239273Y-7740530D01*
X15239067Y-7739284D01*
X15238537Y-7734574D01*
X15232579Y-7717548D01*
X15230496Y-7714233D01*
X15223155Y-7702550D01*
X15222982Y-7702274D01*
X15210226Y-7689518D01*
X15208742Y-7688586D01*
X15194952Y-7679921D01*
X15177925Y-7673963D01*
X15177925Y-7673963D01*
X15160000Y-7671943D01*
X15160000Y-7671943D01*
X15142075Y-7673963D01*
X15142074Y-7673963D01*
X15125048Y-7679921D01*
X15109774Y-7689518D01*
X15097018Y-7702274D01*
X15087421Y-7717548D01*
X15081463Y-7734574D01*
X15081463Y-7734575D01*
X15079443Y-7752500D01*
X15079443Y-7752500D01*
X15081463Y-7770425D01*
X15081463Y-7770425D01*
X15087421Y-7787452D01*
X15097018Y-7802726D01*
X15098508Y-7804216D01*
X15101856Y-7810348D01*
X15101358Y-7817317D01*
X15097171Y-7822910D01*
X15090624Y-7825352D01*
X15085644Y-7824688D01*
X15078731Y-7822269D01*
X15078731Y-7822269D01*
X15060806Y-7820249D01*
X15060805Y-7820249D01*
X15042881Y-7822269D01*
X15042880Y-7822269D01*
X15025853Y-7828227D01*
X15010579Y-7837824D01*
X14997824Y-7850579D01*
X14988227Y-7865853D01*
X14985289Y-7874249D01*
X14981217Y-7879927D01*
X14977681Y-7881858D01*
X14969284Y-7884796D01*
X14954011Y-7894393D01*
X14941255Y-7907148D01*
X14931658Y-7922422D01*
X14925700Y-7939449D01*
X14925700Y-7939449D01*
X14923681Y-7957374D01*
X14923681Y-7957375D01*
X14925700Y-7975299D01*
X14925700Y-7975300D01*
X14931658Y-7992327D01*
X14941255Y-8007601D01*
X14954011Y-8020356D01*
X14969285Y-8029953D01*
X14975574Y-8032154D01*
X14986312Y-8035911D01*
X14986312Y-8035911D01*
X15004237Y-8037931D01*
X15004237Y-8037931D01*
X15004237Y-8037931D01*
X15022162Y-8035911D01*
X15022162Y-8035911D01*
X15022163Y-8035911D01*
X15022163Y-8035911D01*
X15022163Y-8035911D01*
X15027477Y-8034052D01*
X15031573Y-8033356D01*
X15174337Y-8033356D01*
X15181041Y-8035324D01*
X15185616Y-8040605D01*
X15186611Y-8047520D01*
X15184836Y-8052353D01*
X15180935Y-8058562D01*
X15174977Y-8075588D01*
X15174977Y-8075589D01*
X15172957Y-8093514D01*
X15172957Y-8093514D01*
X15174977Y-8111439D01*
X15174977Y-8111440D01*
X15177432Y-8118455D01*
X15177788Y-8125432D01*
X15174315Y-8131495D01*
X15168116Y-8134718D01*
X15165728Y-8134950D01*
X15130213Y-8134950D01*
X15130212Y-8134950D01*
X15124252Y-8135591D01*
X15123497Y-8135769D01*
X15123463Y-8135623D01*
X15117362Y-8136058D01*
X15115860Y-8135617D01*
X15115748Y-8135591D01*
X15109788Y-8134950D01*
X15109787Y-8134950D01*
X15109786Y-8134950D01*
X15050213Y-8134950D01*
X15050212Y-8134950D01*
X15044252Y-8135591D01*
X15043497Y-8135769D01*
X15043463Y-8135623D01*
X15037362Y-8136058D01*
X15035860Y-8135617D01*
X15035748Y-8135591D01*
X15029788Y-8134950D01*
X15029787Y-8134950D01*
X15029786Y-8134950D01*
X14970213Y-8134950D01*
X14970212Y-8134950D01*
X14964252Y-8135591D01*
X14963497Y-8135769D01*
X14963463Y-8135623D01*
X14957362Y-8136058D01*
X14955860Y-8135617D01*
X14955748Y-8135591D01*
X14949788Y-8134950D01*
X14949787Y-8134950D01*
X14949786Y-8134950D01*
X14890213Y-8134950D01*
X14890212Y-8134950D01*
X14884252Y-8135591D01*
X14883497Y-8135769D01*
X14883463Y-8135623D01*
X14877362Y-8136058D01*
X14875860Y-8135617D01*
X14875748Y-8135591D01*
X14869788Y-8134950D01*
X14869787Y-8134950D01*
X14869786Y-8134950D01*
X14810213Y-8134950D01*
X14810212Y-8134950D01*
X14804252Y-8135591D01*
X14803497Y-8135769D01*
X14803463Y-8135623D01*
X14797362Y-8136058D01*
X14795860Y-8135617D01*
X14795748Y-8135591D01*
X14789788Y-8134950D01*
X14789787Y-8134950D01*
X14789786Y-8134950D01*
X14730213Y-8134950D01*
X14730212Y-8134950D01*
X14724252Y-8135591D01*
X14723497Y-8135769D01*
X14723463Y-8135623D01*
X14717362Y-8136058D01*
X14715860Y-8135617D01*
X14715748Y-8135591D01*
X14709788Y-8134950D01*
X14709788Y-8134950D01*
X14709787Y-8134950D01*
X14709786Y-8134950D01*
X14674950Y-8134950D01*
X14668246Y-8132981D01*
X14663671Y-8127701D01*
X14662550Y-8122550D01*
X14662550Y-8111227D01*
X14660146Y-8099144D01*
X14660146Y-8099143D01*
X14655431Y-8087760D01*
X14655431Y-8087760D01*
X14648586Y-8077515D01*
X14648089Y-8077018D01*
X14645872Y-8074801D01*
X14642524Y-8068669D01*
X14642480Y-8068460D01*
X14641146Y-8061755D01*
X14636431Y-8050371D01*
X14636431Y-8050371D01*
X14636431Y-8050371D01*
X14629586Y-8040127D01*
X14629585Y-8040126D01*
X14620874Y-8031414D01*
X14620873Y-8031414D01*
X14610629Y-8024569D01*
X14610628Y-8024569D01*
X14599245Y-8019854D01*
X14599245Y-8019854D01*
X14599245Y-8019854D01*
X14599245Y-8019854D01*
X14599244Y-8019853D01*
X14587161Y-8017450D01*
X14587161Y-8017450D01*
X14471350Y-8017450D01*
X14464647Y-8015481D01*
X14460071Y-8010201D01*
X14459028Y-8006438D01*
X14458537Y-8002075D01*
X14458537Y-8002074D01*
X14452579Y-7985048D01*
X14442981Y-7969774D01*
X14430226Y-7957018D01*
X14414952Y-7947421D01*
X14397925Y-7941463D01*
X14397925Y-7941463D01*
X14380000Y-7939443D01*
X14380000Y-7939443D01*
X14362075Y-7941463D01*
X14362074Y-7941463D01*
X14345048Y-7947421D01*
X14329774Y-7957018D01*
X14317018Y-7969774D01*
X14307421Y-7985048D01*
X14301463Y-8002074D01*
X14301463Y-8002075D01*
X14299443Y-8020000D01*
X14299443Y-8020000D01*
X14301463Y-8037925D01*
X14301463Y-8037926D01*
X14305628Y-8049829D01*
X14305984Y-8056806D01*
X14302512Y-8062869D01*
X14296312Y-8066092D01*
X14289829Y-8065628D01*
X14278759Y-8061755D01*
X14277925Y-8061463D01*
X14277925Y-8061463D01*
X14277925Y-8061463D01*
X14271062Y-8060690D01*
X14264620Y-8057983D01*
X14260665Y-8052223D01*
X14260050Y-8048368D01*
X14260050Y-8018241D01*
X14262018Y-8011537D01*
X14262755Y-8010510D01*
X14262981Y-8010227D01*
X14262982Y-8010226D01*
X14272579Y-7994952D01*
X14278537Y-7977925D01*
X14278537Y-7977925D01*
X14280556Y-7960000D01*
X14280556Y-7960000D01*
X14278537Y-7942075D01*
X14278537Y-7942074D01*
X14272579Y-7925048D01*
X14262981Y-7909774D01*
X14250226Y-7897018D01*
X14234952Y-7887421D01*
X14217925Y-7881463D01*
X14217925Y-7881463D01*
X14200000Y-7879443D01*
X14200000Y-7879443D01*
X14182075Y-7881463D01*
X14182074Y-7881463D01*
X14164391Y-7887651D01*
X14164315Y-7887436D01*
X14158486Y-7888396D01*
X14155641Y-7887561D01*
X14155609Y-7887651D01*
X14147449Y-7884796D01*
X14137925Y-7881463D01*
X14137925Y-7881463D01*
X14137925Y-7881463D01*
X14133218Y-7880933D01*
X14126776Y-7878226D01*
X14125839Y-7877380D01*
X14119873Y-7871414D01*
X14113524Y-7867172D01*
X14109629Y-7864569D01*
X14109629Y-7864569D01*
X14109628Y-7864569D01*
X14109628Y-7864568D01*
X14100450Y-7860767D01*
X14098245Y-7859854D01*
X14098245Y-7859854D01*
X14098245Y-7859854D01*
X14092203Y-7858652D01*
X14086161Y-7857450D01*
X14086161Y-7857450D01*
X14086161Y-7857450D01*
X14023018Y-7857450D01*
X14018273Y-7856506D01*
X14006176Y-7851496D01*
X14006176Y-7851495D01*
X13994436Y-7849950D01*
X13960564Y-7849950D01*
X13948825Y-7851495D01*
X13948824Y-7851496D01*
X13934216Y-7857546D01*
X13921672Y-7867172D01*
X13912046Y-7879716D01*
X13905996Y-7894324D01*
X13905995Y-7894324D01*
X13904450Y-7906064D01*
X13904450Y-7933936D01*
X13905995Y-7945675D01*
X13905996Y-7945676D01*
X13911928Y-7960000D01*
X13912046Y-7960284D01*
X13921672Y-7972828D01*
X13934216Y-7982454D01*
X13948824Y-7988504D01*
X13960564Y-7990050D01*
X13994436Y-7990050D01*
X13994436Y-7990050D01*
X14006175Y-7988505D01*
X14006176Y-7988504D01*
X14006176Y-7988504D01*
X14018273Y-7983494D01*
X14023018Y-7982550D01*
X14034283Y-7982550D01*
X14040987Y-7984518D01*
X14045562Y-7989799D01*
X14045987Y-7990855D01*
X14047421Y-7994952D01*
X14047421Y-7994952D01*
X14054638Y-8006438D01*
X14055549Y-8007888D01*
X14057450Y-8014485D01*
X14057450Y-8147516D01*
X14055481Y-8154220D01*
X14054977Y-8154948D01*
X14050620Y-8160767D01*
X14050620Y-8160767D01*
X14045591Y-8174252D01*
X14044950Y-8180212D01*
X14044950Y-8180213D01*
X14044950Y-8259787D01*
X14044950Y-8259788D01*
X14045591Y-8265748D01*
X14045769Y-8266503D01*
X14045623Y-8266537D01*
X14046058Y-8272637D01*
X14045617Y-8274140D01*
X14045591Y-8274252D01*
X14044950Y-8280212D01*
X14044950Y-8280213D01*
X14044950Y-8359787D01*
X14044950Y-8359788D01*
X14045180Y-8361929D01*
X14043939Y-8368805D01*
X14043351Y-8369849D01*
X14043227Y-8370047D01*
X14043227Y-8370048D01*
X14037269Y-8387074D01*
X14037269Y-8387075D01*
X14036177Y-8396768D01*
X14033470Y-8403210D01*
X14027710Y-8407165D01*
X14020727Y-8407379D01*
X14019521Y-8406998D01*
X14015748Y-8405591D01*
X14015748Y-8405591D01*
X14009788Y-8404950D01*
X14009788Y-8404950D01*
X14009787Y-8404950D01*
X14009786Y-8404950D01*
X13930213Y-8404950D01*
X13930212Y-8404950D01*
X13924252Y-8405591D01*
X13910767Y-8410620D01*
X13910766Y-8410621D01*
X13899245Y-8419245D01*
X13899245Y-8419246D01*
X13890621Y-8430766D01*
X13890620Y-8430767D01*
X13885633Y-8444140D01*
X13885591Y-8444252D01*
X13884950Y-8450213D01*
X13884950Y-8450213D01*
X13884950Y-8450214D01*
X13884950Y-8509787D01*
X13884950Y-8509788D01*
X13885591Y-8515748D01*
X13890620Y-8529233D01*
X13890621Y-8529234D01*
X13899245Y-8540754D01*
X13899245Y-8540755D01*
X13910766Y-8549379D01*
X13910767Y-8549380D01*
X13915262Y-8551056D01*
X13924252Y-8554409D01*
X13930213Y-8555050D01*
X13972550Y-8555050D01*
X13979254Y-8557018D01*
X13983829Y-8562299D01*
X13984950Y-8567450D01*
X13984950Y-8589787D01*
X13984950Y-8589788D01*
X13985591Y-8595748D01*
X13985769Y-8596503D01*
X13985623Y-8596537D01*
X13986058Y-8602637D01*
X13985617Y-8604140D01*
X13985591Y-8604252D01*
X13984950Y-8610212D01*
X13984950Y-8610212D01*
X13984950Y-8610214D01*
X13984950Y-8669787D01*
X13984950Y-8669788D01*
X13985591Y-8675748D01*
X13990620Y-8689233D01*
X13990621Y-8689234D01*
X13999245Y-8700754D01*
X13999245Y-8700754D01*
X13999245Y-8700755D01*
X14000667Y-8701819D01*
X14001742Y-8702623D01*
X14005929Y-8708217D01*
X14006427Y-8715186D01*
X14003079Y-8721318D01*
X13996946Y-8724667D01*
X13994311Y-8724950D01*
X13930213Y-8724950D01*
X13930212Y-8724950D01*
X13924252Y-8725591D01*
X13910767Y-8730620D01*
X13910766Y-8730621D01*
X13899245Y-8739245D01*
X13899245Y-8739246D01*
X13890621Y-8750766D01*
X13890620Y-8750767D01*
X13885591Y-8764251D01*
X13885591Y-8764252D01*
X13884950Y-8770213D01*
X13884950Y-8770213D01*
X13884950Y-8770214D01*
X13884950Y-8829787D01*
X13884950Y-8829788D01*
X13885591Y-8835748D01*
X13885769Y-8836503D01*
X13885623Y-8836537D01*
X13886058Y-8842637D01*
X13885617Y-8844140D01*
X13885591Y-8844252D01*
X13884950Y-8850212D01*
X13884950Y-8850214D01*
X13884950Y-8909787D01*
X13884950Y-8909788D01*
X13885591Y-8915748D01*
X13890620Y-8929233D01*
X13890621Y-8929234D01*
X13899245Y-8940754D01*
X13899245Y-8940755D01*
X13911477Y-8949911D01*
X13911307Y-8950138D01*
X13915226Y-8954058D01*
X13916711Y-8960885D01*
X13914269Y-8967432D01*
X13911369Y-8969945D01*
X13911477Y-8970089D01*
X13899245Y-8979245D01*
X13899245Y-8979246D01*
X13890621Y-8990766D01*
X13890620Y-8990767D01*
X13885633Y-9004140D01*
X13885591Y-9004252D01*
X13884950Y-9010213D01*
X13884950Y-9010213D01*
X13884950Y-9010214D01*
X13884950Y-9069787D01*
X13884950Y-9069788D01*
X13885591Y-9075748D01*
X13885769Y-9076503D01*
X13885623Y-9076537D01*
X13886058Y-9082637D01*
X13885617Y-9084140D01*
X13885591Y-9084252D01*
X13884950Y-9090212D01*
X13884950Y-9090214D01*
X13884950Y-9149787D01*
X13884950Y-9149788D01*
X13885591Y-9155748D01*
X13885769Y-9156503D01*
X13885623Y-9156537D01*
X13886058Y-9162637D01*
X13885617Y-9164140D01*
X13885591Y-9164252D01*
X13884950Y-9170212D01*
X13884950Y-9170214D01*
X13884950Y-9229787D01*
X13884950Y-9229788D01*
X13885591Y-9235748D01*
X13885769Y-9236503D01*
X13885623Y-9236537D01*
X13886058Y-9242637D01*
X13885617Y-9244140D01*
X13885591Y-9244252D01*
X13884950Y-9250212D01*
X13884950Y-9250214D01*
X13884950Y-9309787D01*
X13884950Y-9309788D01*
X13885591Y-9315748D01*
X13890620Y-9329233D01*
X13890621Y-9329234D01*
X13899245Y-9340754D01*
X13899245Y-9340755D01*
X13910766Y-9349379D01*
X13910767Y-9349380D01*
X13924252Y-9354409D01*
X13924252Y-9354409D01*
X13924944Y-9354484D01*
X13930213Y-9355050D01*
X14009787Y-9355050D01*
X14015748Y-9354409D01*
X14028217Y-9349759D01*
X14035186Y-9349260D01*
X14041318Y-9352609D01*
X14044667Y-9358741D01*
X14044950Y-9361377D01*
X14044950Y-9419787D01*
X14044950Y-9419787D01*
X14045647Y-9426275D01*
X14044407Y-9433151D01*
X14039646Y-9438264D01*
X14033318Y-9440000D01*
X13872400Y-9440000D01*
X13865696Y-9438032D01*
X13861121Y-9432751D01*
X13860000Y-9427600D01*
X13860000Y-7739863D01*
X13861968Y-7733159D01*
X13867249Y-7728583D01*
X13874165Y-7727589D01*
X13879831Y-7729936D01*
X13885766Y-7734379D01*
X13885767Y-7734379D01*
X13885767Y-7734380D01*
X13899252Y-7739409D01*
X13899252Y-7739409D01*
X13899944Y-7739483D01*
X13905213Y-7740050D01*
X14014787Y-7740050D01*
X14020748Y-7739409D01*
X14034233Y-7734380D01*
X14045755Y-7725755D01*
X14054380Y-7714233D01*
X14059409Y-7700748D01*
X14060050Y-7694787D01*
X14060050Y-7585213D01*
X14059409Y-7579252D01*
X14054380Y-7565767D01*
X14054379Y-7565767D01*
X14054379Y-7565766D01*
X14045755Y-7554245D01*
X14045754Y-7554245D01*
X14034233Y-7545621D01*
X14034233Y-7545620D01*
X14020748Y-7540591D01*
X14020748Y-7540591D01*
X14014788Y-7539950D01*
X14014788Y-7539950D01*
X14014787Y-7539950D01*
X14014786Y-7539950D01*
X13999308Y-7539950D01*
X13992604Y-7537981D01*
X13988028Y-7532701D01*
X13987034Y-7525785D01*
X13988808Y-7520953D01*
X13992579Y-7514952D01*
X13992579Y-7514952D01*
X13998537Y-7497925D01*
X13998579Y-7497546D01*
X14000556Y-7480000D01*
X14000556Y-7480000D01*
X13998537Y-7462075D01*
X13998537Y-7462074D01*
X13996585Y-7456495D01*
X13996228Y-7449518D01*
X13999701Y-7443455D01*
X14005901Y-7440232D01*
X14008289Y-7440000D01*
X15347600Y-7440000D01*
X15354304Y-7441968D01*
G37*
%TD.AperFunction*%
%TA.AperFunction,Conductor*%
G36*
X15221318Y-8402609D02*
G01*
X15224667Y-8408741D01*
X15224950Y-8411377D01*
X15224950Y-8429787D01*
X15224950Y-8429788D01*
X15225591Y-8435748D01*
X15225769Y-8436503D01*
X15225623Y-8436537D01*
X15226058Y-8442637D01*
X15225617Y-8444140D01*
X15225591Y-8444252D01*
X15224950Y-8450212D01*
X15224950Y-8450214D01*
X15224950Y-8472550D01*
X15222981Y-8479254D01*
X15217701Y-8483829D01*
X15212550Y-8484950D01*
X15170213Y-8484950D01*
X15170212Y-8484950D01*
X15164252Y-8485591D01*
X15150767Y-8490620D01*
X15150766Y-8490621D01*
X15139246Y-8499245D01*
X15139245Y-8499245D01*
X15139245Y-8499245D01*
X15133799Y-8506521D01*
X15130465Y-8510974D01*
X15124872Y-8515161D01*
X15121927Y-8515865D01*
X15108286Y-8517402D01*
X15108286Y-8517402D01*
X15091259Y-8523360D01*
X15075985Y-8532957D01*
X15063229Y-8545713D01*
X15053632Y-8560986D01*
X15049185Y-8573695D01*
X15045113Y-8579373D01*
X15038618Y-8581948D01*
X15031762Y-8580602D01*
X15030884Y-8580099D01*
X15022643Y-8574921D01*
X15005616Y-8568963D01*
X15005615Y-8568963D01*
X14987691Y-8566944D01*
X14987690Y-8566944D01*
X14969766Y-8568963D01*
X14969765Y-8568963D01*
X14952738Y-8574921D01*
X14937464Y-8584518D01*
X14924709Y-8597274D01*
X14915112Y-8612548D01*
X14909154Y-8629575D01*
X14909154Y-8629575D01*
X14907134Y-8647500D01*
X14907134Y-8647500D01*
X14909154Y-8665425D01*
X14909154Y-8665425D01*
X14915112Y-8682452D01*
X14921158Y-8692075D01*
X14924709Y-8697726D01*
X14937464Y-8710482D01*
X14952738Y-8720079D01*
X14965850Y-8724667D01*
X14969765Y-8726037D01*
X14969766Y-8726037D01*
X14987690Y-8728057D01*
X14987691Y-8728057D01*
X14987691Y-8728057D01*
X15005615Y-8726037D01*
X15005616Y-8726037D01*
X15005616Y-8726037D01*
X15022643Y-8720079D01*
X15037917Y-8710482D01*
X15044332Y-8704067D01*
X15050463Y-8700719D01*
X15057433Y-8701217D01*
X15063026Y-8705404D01*
X15065261Y-8710416D01*
X15066065Y-8714456D01*
X15066065Y-8714456D01*
X15066417Y-8715306D01*
X15067815Y-8718682D01*
X15070780Y-8725840D01*
X15072261Y-8728056D01*
X15072261Y-8728057D01*
X15072261Y-8728057D01*
X15077625Y-8736084D01*
X15077625Y-8736085D01*
X15086770Y-8745229D01*
X15086772Y-8745231D01*
X15101102Y-8759561D01*
X15101104Y-8759564D01*
X15110126Y-8768586D01*
X15110127Y-8768586D01*
X15116705Y-8772982D01*
X15119439Y-8774808D01*
X15123919Y-8780169D01*
X15124950Y-8785118D01*
X15124950Y-8829787D01*
X15124950Y-8829788D01*
X15125591Y-8835748D01*
X15125769Y-8836503D01*
X15125623Y-8836537D01*
X15126058Y-8842637D01*
X15125617Y-8844140D01*
X15125591Y-8844252D01*
X15124950Y-8850212D01*
X15124950Y-8850214D01*
X15124950Y-8909787D01*
X15124950Y-8909788D01*
X15125591Y-8915748D01*
X15125769Y-8916503D01*
X15125623Y-8916537D01*
X15126058Y-8922637D01*
X15125617Y-8924140D01*
X15125591Y-8924252D01*
X15124950Y-8930212D01*
X15124950Y-8930214D01*
X15124950Y-8989787D01*
X15124950Y-8989788D01*
X15125591Y-8995748D01*
X15125769Y-8996503D01*
X15125623Y-8996537D01*
X15126058Y-9002637D01*
X15125617Y-9004140D01*
X15125591Y-9004252D01*
X15124950Y-9010212D01*
X15124950Y-9010212D01*
X15124950Y-9010214D01*
X15124950Y-9069787D01*
X15124950Y-9069788D01*
X15125591Y-9075748D01*
X15130620Y-9089233D01*
X15130621Y-9089234D01*
X15139245Y-9100754D01*
X15139245Y-9100755D01*
X15150766Y-9109379D01*
X15150767Y-9109380D01*
X15155262Y-9111056D01*
X15164252Y-9114409D01*
X15170213Y-9115050D01*
X15212550Y-9115050D01*
X15219254Y-9117018D01*
X15223829Y-9122299D01*
X15224950Y-9127450D01*
X15224950Y-9149787D01*
X15224950Y-9149788D01*
X15225591Y-9155748D01*
X15225769Y-9156503D01*
X15225623Y-9156537D01*
X15226058Y-9162637D01*
X15225617Y-9164140D01*
X15225591Y-9164252D01*
X15224950Y-9170212D01*
X15224950Y-9170214D01*
X15224950Y-9188623D01*
X15222981Y-9195327D01*
X15217701Y-9199902D01*
X15210785Y-9200897D01*
X15208217Y-9200241D01*
X15195749Y-9195591D01*
X15195748Y-9195591D01*
X15195748Y-9195591D01*
X15189787Y-9194950D01*
X15189786Y-9194950D01*
X15130213Y-9194950D01*
X15130212Y-9194950D01*
X15124252Y-9195591D01*
X15123497Y-9195769D01*
X15123463Y-9195623D01*
X15117362Y-9196058D01*
X15115860Y-9195617D01*
X15115748Y-9195591D01*
X15109788Y-9194950D01*
X15109787Y-9194950D01*
X15109786Y-9194950D01*
X15050213Y-9194950D01*
X15050212Y-9194950D01*
X15044252Y-9195591D01*
X15043497Y-9195769D01*
X15043463Y-9195623D01*
X15037362Y-9196058D01*
X15035860Y-9195617D01*
X15035748Y-9195591D01*
X15029788Y-9194950D01*
X15029787Y-9194950D01*
X15029786Y-9194950D01*
X14970213Y-9194950D01*
X14970212Y-9194950D01*
X14964252Y-9195591D01*
X14950767Y-9200620D01*
X14950766Y-9200621D01*
X14939245Y-9209245D01*
X14939245Y-9209246D01*
X14930621Y-9220766D01*
X14930620Y-9220767D01*
X14925591Y-9234252D01*
X14924950Y-9240212D01*
X14924950Y-9240214D01*
X14924950Y-9304311D01*
X14922981Y-9311015D01*
X14917701Y-9315590D01*
X14910785Y-9316585D01*
X14904430Y-9313682D01*
X14902623Y-9311742D01*
X14900755Y-9309246D01*
X14900755Y-9309245D01*
X14900754Y-9309245D01*
X14900754Y-9309245D01*
X14889233Y-9300621D01*
X14889233Y-9300620D01*
X14875749Y-9295591D01*
X14875748Y-9295591D01*
X14875748Y-9295591D01*
X14869787Y-9294950D01*
X14869786Y-9294950D01*
X14810213Y-9294950D01*
X14810212Y-9294950D01*
X14804252Y-9295591D01*
X14790767Y-9300620D01*
X14790766Y-9300621D01*
X14779245Y-9309245D01*
X14779245Y-9309246D01*
X14770621Y-9320766D01*
X14770620Y-9320767D01*
X14765591Y-9334252D01*
X14764950Y-9340212D01*
X14764950Y-9340212D01*
X14764950Y-9340214D01*
X14764950Y-9419787D01*
X14764950Y-9419789D01*
X14764976Y-9420032D01*
X14764966Y-9420088D01*
X14764968Y-9420120D01*
X14764960Y-9420120D01*
X14763736Y-9426908D01*
X14761415Y-9430125D01*
X14755173Y-9436368D01*
X14749041Y-9439717D01*
X14746405Y-9440000D01*
X14644859Y-9440000D01*
X14638156Y-9438032D01*
X14633580Y-9432751D01*
X14633155Y-9431696D01*
X14632579Y-9430048D01*
X14632579Y-9430048D01*
X14631041Y-9427600D01*
X14622982Y-9414774D01*
X14610226Y-9402019D01*
X14594952Y-9392421D01*
X14577925Y-9386463D01*
X14577925Y-9386463D01*
X14560000Y-9384444D01*
X14560000Y-9384444D01*
X14542075Y-9386463D01*
X14542074Y-9386463D01*
X14525048Y-9392421D01*
X14509774Y-9402019D01*
X14497018Y-9414774D01*
X14487421Y-9430048D01*
X14487421Y-9430048D01*
X14486845Y-9431696D01*
X14482772Y-9437373D01*
X14476277Y-9439948D01*
X14475140Y-9440000D01*
X14366681Y-9440000D01*
X14359978Y-9438032D01*
X14355402Y-9432751D01*
X14354352Y-9426275D01*
X14354409Y-9425748D01*
X14355050Y-9419787D01*
X14355050Y-9340213D01*
X14354409Y-9334252D01*
X14354409Y-9334252D01*
X14354409Y-9334251D01*
X14354231Y-9333497D01*
X14354377Y-9333462D01*
X14353941Y-9327365D01*
X14354382Y-9325863D01*
X14354409Y-9325749D01*
X14354409Y-9325749D01*
X14354409Y-9325748D01*
X14355050Y-9319787D01*
X14355050Y-9254950D01*
X14357018Y-9248246D01*
X14362299Y-9243671D01*
X14367450Y-9242550D01*
X14487076Y-9242550D01*
X14493780Y-9244519D01*
X14496771Y-9247218D01*
X14497018Y-9247529D01*
X14497018Y-9247529D01*
X14509774Y-9260285D01*
X14525048Y-9269882D01*
X14537986Y-9274409D01*
X14542074Y-9275840D01*
X14542075Y-9275840D01*
X14560000Y-9277860D01*
X14560000Y-9277860D01*
X14560000Y-9277860D01*
X14577925Y-9275840D01*
X14577925Y-9275840D01*
X14577925Y-9275840D01*
X14594952Y-9269882D01*
X14610226Y-9260285D01*
X14622982Y-9247529D01*
X14632579Y-9232255D01*
X14638537Y-9215229D01*
X14638579Y-9214850D01*
X14640556Y-9197303D01*
X14640556Y-9197303D01*
X14638537Y-9179378D01*
X14638537Y-9179378D01*
X14636752Y-9174276D01*
X14632579Y-9162351D01*
X14622982Y-9147077D01*
X14621530Y-9145625D01*
X14618182Y-9139493D01*
X14618540Y-9133640D01*
X14618382Y-9133604D01*
X14618537Y-9132925D01*
X14620556Y-9115000D01*
X14620556Y-9115000D01*
X14618537Y-9097075D01*
X14618537Y-9097075D01*
X14616136Y-9090213D01*
X14612579Y-9080048D01*
X14609877Y-9075748D01*
X14602981Y-9064774D01*
X14590226Y-9052018D01*
X14574952Y-9042421D01*
X14557925Y-9036463D01*
X14557925Y-9036463D01*
X14540000Y-9034444D01*
X14540000Y-9034444D01*
X14522075Y-9036463D01*
X14522074Y-9036463D01*
X14505048Y-9042421D01*
X14492112Y-9050549D01*
X14485514Y-9052450D01*
X14421045Y-9052450D01*
X14414341Y-9050482D01*
X14412277Y-9048818D01*
X14346182Y-8982723D01*
X14342833Y-8976591D01*
X14342550Y-8973955D01*
X14342550Y-8491632D01*
X14344518Y-8484928D01*
X14349799Y-8480353D01*
X14353561Y-8479310D01*
X14360425Y-8478537D01*
X14377452Y-8472579D01*
X14392726Y-8462982D01*
X14405482Y-8450226D01*
X14415079Y-8434952D01*
X14421037Y-8417926D01*
X14421118Y-8417201D01*
X14421247Y-8416061D01*
X14423954Y-8409620D01*
X14429713Y-8405665D01*
X14433569Y-8405050D01*
X14469787Y-8405050D01*
X14469787Y-8405050D01*
X14475748Y-8404409D01*
X14475748Y-8404409D01*
X14475749Y-8404409D01*
X14476503Y-8404231D01*
X14476538Y-8404378D01*
X14482634Y-8403941D01*
X14484138Y-8404382D01*
X14484251Y-8404409D01*
X14484252Y-8404409D01*
X14490213Y-8405050D01*
X14499121Y-8405050D01*
X14505825Y-8407018D01*
X14510401Y-8412299D01*
X14511395Y-8419215D01*
X14509621Y-8424047D01*
X14507421Y-8427548D01*
X14501463Y-8444575D01*
X14501463Y-8444575D01*
X14499443Y-8462500D01*
X14499443Y-8462500D01*
X14501463Y-8480425D01*
X14501463Y-8480425D01*
X14507421Y-8497452D01*
X14515787Y-8510766D01*
X14517018Y-8512726D01*
X14529774Y-8525482D01*
X14529774Y-8525482D01*
X14541050Y-8532567D01*
X14545048Y-8535079D01*
X14561268Y-8540755D01*
X14562074Y-8541037D01*
X14562075Y-8541037D01*
X14580000Y-8543057D01*
X14580000Y-8543057D01*
X14580000Y-8543057D01*
X14597925Y-8541037D01*
X14597925Y-8541037D01*
X14597925Y-8541037D01*
X14614952Y-8535079D01*
X14630226Y-8525482D01*
X14631993Y-8523714D01*
X14636016Y-8521026D01*
X14643489Y-8517931D01*
X14650425Y-8513297D01*
X14653734Y-8511086D01*
X14662446Y-8502373D01*
X14662446Y-8502373D01*
X14663153Y-8501667D01*
X14663153Y-8501666D01*
X14703968Y-8460851D01*
X14710100Y-8457503D01*
X14717069Y-8458001D01*
X14721504Y-8460851D01*
X14764105Y-8503453D01*
X14767454Y-8509585D01*
X14767659Y-8510832D01*
X14768190Y-8515540D01*
X14774148Y-8532567D01*
X14779469Y-8541037D01*
X14783745Y-8547841D01*
X14796500Y-8560597D01*
X14797121Y-8560986D01*
X14809816Y-8568963D01*
X14811774Y-8570194D01*
X14821781Y-8573695D01*
X14828801Y-8576152D01*
X14828802Y-8576152D01*
X14846726Y-8578172D01*
X14846727Y-8578172D01*
X14846727Y-8578172D01*
X14864651Y-8576152D01*
X14864652Y-8576152D01*
X14864652Y-8576152D01*
X14881679Y-8570194D01*
X14896953Y-8560597D01*
X14909708Y-8547841D01*
X14919305Y-8532567D01*
X14925263Y-8515541D01*
X14925263Y-8515540D01*
X14927283Y-8497615D01*
X14927283Y-8497615D01*
X14927203Y-8496907D01*
X14926838Y-8493661D01*
X14928043Y-8486779D01*
X14932778Y-8481641D01*
X14939539Y-8479879D01*
X14941579Y-8480111D01*
X14953839Y-8482550D01*
X14953839Y-8482550D01*
X14953839Y-8482550D01*
X14953839Y-8482550D01*
X14994752Y-8482550D01*
X15001349Y-8484451D01*
X15012778Y-8491632D01*
X15014285Y-8492579D01*
X15028678Y-8497615D01*
X15031312Y-8498537D01*
X15031312Y-8498537D01*
X15049237Y-8500557D01*
X15049237Y-8500557D01*
X15049237Y-8500557D01*
X15067162Y-8498537D01*
X15067162Y-8498537D01*
X15067163Y-8498537D01*
X15084189Y-8492579D01*
X15099463Y-8482982D01*
X15112219Y-8470226D01*
X15121816Y-8454952D01*
X15127774Y-8437926D01*
X15127774Y-8437925D01*
X15129794Y-8420000D01*
X15129794Y-8420000D01*
X15129709Y-8419245D01*
X15129663Y-8418838D01*
X15130868Y-8411956D01*
X15135603Y-8406818D01*
X15141984Y-8405050D01*
X15189787Y-8405050D01*
X15195748Y-8404409D01*
X15208217Y-8399759D01*
X15215186Y-8399260D01*
X15221318Y-8402609D01*
G37*
%TD.AperFunction*%
%TA.AperFunction,Conductor*%
G36*
X15354304Y-9277018D02*
G01*
X15358879Y-9282299D01*
X15360000Y-9287450D01*
X15360000Y-9427600D01*
X15358031Y-9434304D01*
X15352751Y-9438879D01*
X15347600Y-9440000D01*
X15326681Y-9440000D01*
X15319978Y-9438032D01*
X15315402Y-9432751D01*
X15314352Y-9426275D01*
X15314409Y-9425748D01*
X15315050Y-9419787D01*
X15315050Y-9340213D01*
X15314409Y-9334252D01*
X15314409Y-9334251D01*
X15309380Y-9320767D01*
X15309379Y-9320766D01*
X15300755Y-9309246D01*
X15300754Y-9309245D01*
X15289233Y-9300621D01*
X15289233Y-9300620D01*
X15285071Y-9299068D01*
X15279478Y-9294881D01*
X15277036Y-9288335D01*
X15278521Y-9281507D01*
X15283462Y-9276567D01*
X15289404Y-9275050D01*
X15347600Y-9275050D01*
X15354304Y-9277018D01*
G37*
%TD.AperFunction*%
%TA.AperFunction,Conductor*%
G36*
X14085761Y-8717018D02*
G01*
X14090337Y-8722299D01*
X14091331Y-8729215D01*
X14089557Y-8734047D01*
X14082421Y-8745404D01*
X14076791Y-8761493D01*
X14072719Y-8767171D01*
X14066224Y-8769745D01*
X14059367Y-8768400D01*
X14054327Y-8763561D01*
X14053469Y-8761731D01*
X14049380Y-8750767D01*
X14049379Y-8750766D01*
X14040755Y-8739246D01*
X14038258Y-8737377D01*
X14034071Y-8731783D01*
X14033573Y-8724814D01*
X14036921Y-8718682D01*
X14043054Y-8715333D01*
X14045688Y-8715050D01*
X14079057Y-8715050D01*
X14085761Y-8717018D01*
G37*
%TD.AperFunction*%
%TD*%
M02*
