%TF.GenerationSoftware,KiCad,Pcbnew,8.0.5*%
%TF.CreationDate,2024-12-27T02:30:04+01:00*%
%TF.ProjectId,walter_remix - C3v2,77616c74-6572-45f7-9265-6d6978202d20,rev?*%
%TF.SameCoordinates,Original*%
%TF.FileFunction,Drillmap*%
%TF.FilePolarity,Positive*%
%FSLAX45Y45*%
G04 Gerber Fmt 4.5, Leading zero omitted, Abs format (unit mm)*
G04 Created by KiCad (PCBNEW 8.0.5) date 2024-12-27 02:30:04*
%MOMM*%
%LPD*%
G01*
G04 APERTURE LIST*
%ADD10C,0.050000*%
%ADD11C,0.100000*%
%ADD12C,0.200000*%
G04 APERTURE END LIST*
D10*
X12600000Y-10150000D02*
G75*
G02*
X12500000Y-10050000I0J100000D01*
G01*
X12500000Y-8830000D02*
G75*
G02*
X12600000Y-8730000I100000J0D01*
G01*
X13499507Y-7929507D02*
G75*
G02*
X12699507Y-8729997I-799997J-493D01*
G01*
X12700000Y-10150000D02*
G75*
G02*
X13500000Y-10950000I0J-800000D01*
G01*
X12600000Y-10150000D02*
X12700000Y-10150000D01*
X12500000Y-8830000D02*
X12500000Y-10050000D01*
X12699507Y-8730000D02*
X12600000Y-8730000D01*
X13499249Y-7510000D02*
X13499507Y-7929507D01*
X13360000Y-7320000D02*
G75*
G02*
X13499249Y-7510000I-60000J-190000D01*
G01*
X14000096Y-6715229D02*
G75*
G02*
X14122557Y-6699999I122464J-484771D01*
G01*
X13650000Y-7100000D02*
G75*
G02*
X13350000Y-7100000I-150000J0D01*
G01*
X13350000Y-7100000D02*
G75*
G02*
X13650000Y-7100000I150000J0D01*
G01*
X14000096Y-6715229D02*
X13368606Y-6874754D01*
X13360000Y-7320000D02*
G75*
G02*
X13368606Y-6874754I140000J220000D01*
G01*
D11*
X15730000Y-11480000D02*
G75*
G02*
X15430000Y-11480000I-150000J0D01*
G01*
X15430000Y-11480000D02*
G75*
G02*
X15730000Y-11480000I150000J0D01*
G01*
D10*
X15800000Y-11500000D02*
G75*
G02*
X15600000Y-11700000I-200000J0D01*
G01*
X13700000Y-11700000D02*
G75*
G02*
X13500000Y-11500000I0J200000D01*
G01*
X15239620Y-6700000D02*
G75*
G02*
X15713962Y-7041886I0J-500000D01*
G01*
X15779473Y-7238420D02*
G75*
G02*
X15800000Y-7364911I-379473J-126490D01*
G01*
X15800000Y-7364911D02*
X15800000Y-11500000D01*
X15600000Y-11700000D02*
X13700000Y-11700000D01*
X15713962Y-7041886D02*
X15779473Y-7238420D01*
X14122557Y-6700000D02*
X15239620Y-6700000D01*
X13500000Y-11500000D02*
X13500000Y-10950000D01*
D12*
D11*
X13778500Y-10907000D02*
X13843500Y-10972000D01*
X13843500Y-10907000D02*
X13778500Y-10972000D01*
X14356500Y-10907000D02*
X14421500Y-10972000D01*
X14421500Y-10907000D02*
X14356500Y-10972000D01*
D12*
X12758277Y-12013984D02*
X12758277Y-11813984D01*
X12758277Y-11813984D02*
X12805896Y-11813984D01*
X12805896Y-11813984D02*
X12834467Y-11823508D01*
X12834467Y-11823508D02*
X12853515Y-11842555D01*
X12853515Y-11842555D02*
X12863039Y-11861603D01*
X12863039Y-11861603D02*
X12872562Y-11899698D01*
X12872562Y-11899698D02*
X12872562Y-11928269D01*
X12872562Y-11928269D02*
X12863039Y-11966365D01*
X12863039Y-11966365D02*
X12853515Y-11985412D01*
X12853515Y-11985412D02*
X12834467Y-12004460D01*
X12834467Y-12004460D02*
X12805896Y-12013984D01*
X12805896Y-12013984D02*
X12758277Y-12013984D01*
X12958277Y-12013984D02*
X12958277Y-11880650D01*
X12958277Y-11918746D02*
X12967801Y-11899698D01*
X12967801Y-11899698D02*
X12977324Y-11890174D01*
X12977324Y-11890174D02*
X12996372Y-11880650D01*
X12996372Y-11880650D02*
X13015420Y-11880650D01*
X13082086Y-12013984D02*
X13082086Y-11880650D01*
X13082086Y-11813984D02*
X13072562Y-11823508D01*
X13072562Y-11823508D02*
X13082086Y-11833031D01*
X13082086Y-11833031D02*
X13091610Y-11823508D01*
X13091610Y-11823508D02*
X13082086Y-11813984D01*
X13082086Y-11813984D02*
X13082086Y-11833031D01*
X13205896Y-12013984D02*
X13186848Y-12004460D01*
X13186848Y-12004460D02*
X13177324Y-11985412D01*
X13177324Y-11985412D02*
X13177324Y-11813984D01*
X13310658Y-12013984D02*
X13291610Y-12004460D01*
X13291610Y-12004460D02*
X13282086Y-11985412D01*
X13282086Y-11985412D02*
X13282086Y-11813984D01*
X13539229Y-12013984D02*
X13539229Y-11813984D01*
X13539229Y-11813984D02*
X13605896Y-11956841D01*
X13605896Y-11956841D02*
X13672562Y-11813984D01*
X13672562Y-11813984D02*
X13672562Y-12013984D01*
X13853515Y-12013984D02*
X13853515Y-11909222D01*
X13853515Y-11909222D02*
X13843991Y-11890174D01*
X13843991Y-11890174D02*
X13824943Y-11880650D01*
X13824943Y-11880650D02*
X13786848Y-11880650D01*
X13786848Y-11880650D02*
X13767801Y-11890174D01*
X13853515Y-12004460D02*
X13834467Y-12013984D01*
X13834467Y-12013984D02*
X13786848Y-12013984D01*
X13786848Y-12013984D02*
X13767801Y-12004460D01*
X13767801Y-12004460D02*
X13758277Y-11985412D01*
X13758277Y-11985412D02*
X13758277Y-11966365D01*
X13758277Y-11966365D02*
X13767801Y-11947317D01*
X13767801Y-11947317D02*
X13786848Y-11937793D01*
X13786848Y-11937793D02*
X13834467Y-11937793D01*
X13834467Y-11937793D02*
X13853515Y-11928269D01*
X13948753Y-11880650D02*
X13948753Y-12080650D01*
X13948753Y-11890174D02*
X13967801Y-11880650D01*
X13967801Y-11880650D02*
X14005896Y-11880650D01*
X14005896Y-11880650D02*
X14024943Y-11890174D01*
X14024943Y-11890174D02*
X14034467Y-11899698D01*
X14034467Y-11899698D02*
X14043991Y-11918746D01*
X14043991Y-11918746D02*
X14043991Y-11975888D01*
X14043991Y-11975888D02*
X14034467Y-11994936D01*
X14034467Y-11994936D02*
X14024943Y-12004460D01*
X14024943Y-12004460D02*
X14005896Y-12013984D01*
X14005896Y-12013984D02*
X13967801Y-12013984D01*
X13967801Y-12013984D02*
X13948753Y-12004460D01*
X14129705Y-11994936D02*
X14139229Y-12004460D01*
X14139229Y-12004460D02*
X14129705Y-12013984D01*
X14129705Y-12013984D02*
X14120182Y-12004460D01*
X14120182Y-12004460D02*
X14129705Y-11994936D01*
X14129705Y-11994936D02*
X14129705Y-12013984D01*
X14129705Y-11890174D02*
X14139229Y-11899698D01*
X14139229Y-11899698D02*
X14129705Y-11909222D01*
X14129705Y-11909222D02*
X14120182Y-11899698D01*
X14120182Y-11899698D02*
X14129705Y-11890174D01*
X14129705Y-11890174D02*
X14129705Y-11909222D01*
D11*
X12432500Y-12310000D02*
X12497500Y-12375000D01*
X12497500Y-12310000D02*
X12432500Y-12375000D01*
D12*
X12796372Y-12233984D02*
X12815420Y-12233984D01*
X12815420Y-12233984D02*
X12834467Y-12243508D01*
X12834467Y-12243508D02*
X12843991Y-12253031D01*
X12843991Y-12253031D02*
X12853515Y-12272079D01*
X12853515Y-12272079D02*
X12863039Y-12310174D01*
X12863039Y-12310174D02*
X12863039Y-12357793D01*
X12863039Y-12357793D02*
X12853515Y-12395888D01*
X12853515Y-12395888D02*
X12843991Y-12414936D01*
X12843991Y-12414936D02*
X12834467Y-12424460D01*
X12834467Y-12424460D02*
X12815420Y-12433984D01*
X12815420Y-12433984D02*
X12796372Y-12433984D01*
X12796372Y-12433984D02*
X12777324Y-12424460D01*
X12777324Y-12424460D02*
X12767801Y-12414936D01*
X12767801Y-12414936D02*
X12758277Y-12395888D01*
X12758277Y-12395888D02*
X12748753Y-12357793D01*
X12748753Y-12357793D02*
X12748753Y-12310174D01*
X12748753Y-12310174D02*
X12758277Y-12272079D01*
X12758277Y-12272079D02*
X12767801Y-12253031D01*
X12767801Y-12253031D02*
X12777324Y-12243508D01*
X12777324Y-12243508D02*
X12796372Y-12233984D01*
X12948753Y-12414936D02*
X12958277Y-12424460D01*
X12958277Y-12424460D02*
X12948753Y-12433984D01*
X12948753Y-12433984D02*
X12939229Y-12424460D01*
X12939229Y-12424460D02*
X12948753Y-12414936D01*
X12948753Y-12414936D02*
X12948753Y-12433984D01*
X13129705Y-12233984D02*
X13091610Y-12233984D01*
X13091610Y-12233984D02*
X13072562Y-12243508D01*
X13072562Y-12243508D02*
X13063039Y-12253031D01*
X13063039Y-12253031D02*
X13043991Y-12281603D01*
X13043991Y-12281603D02*
X13034467Y-12319698D01*
X13034467Y-12319698D02*
X13034467Y-12395888D01*
X13034467Y-12395888D02*
X13043991Y-12414936D01*
X13043991Y-12414936D02*
X13053515Y-12424460D01*
X13053515Y-12424460D02*
X13072562Y-12433984D01*
X13072562Y-12433984D02*
X13110658Y-12433984D01*
X13110658Y-12433984D02*
X13129705Y-12424460D01*
X13129705Y-12424460D02*
X13139229Y-12414936D01*
X13139229Y-12414936D02*
X13148753Y-12395888D01*
X13148753Y-12395888D02*
X13148753Y-12348269D01*
X13148753Y-12348269D02*
X13139229Y-12329222D01*
X13139229Y-12329222D02*
X13129705Y-12319698D01*
X13129705Y-12319698D02*
X13110658Y-12310174D01*
X13110658Y-12310174D02*
X13072562Y-12310174D01*
X13072562Y-12310174D02*
X13053515Y-12319698D01*
X13053515Y-12319698D02*
X13043991Y-12329222D01*
X13043991Y-12329222D02*
X13034467Y-12348269D01*
X13329705Y-12233984D02*
X13234467Y-12233984D01*
X13234467Y-12233984D02*
X13224943Y-12329222D01*
X13224943Y-12329222D02*
X13234467Y-12319698D01*
X13234467Y-12319698D02*
X13253515Y-12310174D01*
X13253515Y-12310174D02*
X13301134Y-12310174D01*
X13301134Y-12310174D02*
X13320182Y-12319698D01*
X13320182Y-12319698D02*
X13329705Y-12329222D01*
X13329705Y-12329222D02*
X13339229Y-12348269D01*
X13339229Y-12348269D02*
X13339229Y-12395888D01*
X13339229Y-12395888D02*
X13329705Y-12414936D01*
X13329705Y-12414936D02*
X13320182Y-12424460D01*
X13320182Y-12424460D02*
X13301134Y-12433984D01*
X13301134Y-12433984D02*
X13253515Y-12433984D01*
X13253515Y-12433984D02*
X13234467Y-12424460D01*
X13234467Y-12424460D02*
X13224943Y-12414936D01*
X13463039Y-12233984D02*
X13482086Y-12233984D01*
X13482086Y-12233984D02*
X13501134Y-12243508D01*
X13501134Y-12243508D02*
X13510658Y-12253031D01*
X13510658Y-12253031D02*
X13520182Y-12272079D01*
X13520182Y-12272079D02*
X13529705Y-12310174D01*
X13529705Y-12310174D02*
X13529705Y-12357793D01*
X13529705Y-12357793D02*
X13520182Y-12395888D01*
X13520182Y-12395888D02*
X13510658Y-12414936D01*
X13510658Y-12414936D02*
X13501134Y-12424460D01*
X13501134Y-12424460D02*
X13482086Y-12433984D01*
X13482086Y-12433984D02*
X13463039Y-12433984D01*
X13463039Y-12433984D02*
X13443991Y-12424460D01*
X13443991Y-12424460D02*
X13434467Y-12414936D01*
X13434467Y-12414936D02*
X13424943Y-12395888D01*
X13424943Y-12395888D02*
X13415420Y-12357793D01*
X13415420Y-12357793D02*
X13415420Y-12310174D01*
X13415420Y-12310174D02*
X13424943Y-12272079D01*
X13424943Y-12272079D02*
X13434467Y-12253031D01*
X13434467Y-12253031D02*
X13443991Y-12243508D01*
X13443991Y-12243508D02*
X13463039Y-12233984D01*
X13615420Y-12433984D02*
X13615420Y-12300650D01*
X13615420Y-12319698D02*
X13624943Y-12310174D01*
X13624943Y-12310174D02*
X13643991Y-12300650D01*
X13643991Y-12300650D02*
X13672563Y-12300650D01*
X13672563Y-12300650D02*
X13691610Y-12310174D01*
X13691610Y-12310174D02*
X13701134Y-12329222D01*
X13701134Y-12329222D02*
X13701134Y-12433984D01*
X13701134Y-12329222D02*
X13710658Y-12310174D01*
X13710658Y-12310174D02*
X13729705Y-12300650D01*
X13729705Y-12300650D02*
X13758277Y-12300650D01*
X13758277Y-12300650D02*
X13777324Y-12310174D01*
X13777324Y-12310174D02*
X13786848Y-12329222D01*
X13786848Y-12329222D02*
X13786848Y-12433984D01*
X13882086Y-12433984D02*
X13882086Y-12300650D01*
X13882086Y-12319698D02*
X13891610Y-12310174D01*
X13891610Y-12310174D02*
X13910658Y-12300650D01*
X13910658Y-12300650D02*
X13939229Y-12300650D01*
X13939229Y-12300650D02*
X13958277Y-12310174D01*
X13958277Y-12310174D02*
X13967801Y-12329222D01*
X13967801Y-12329222D02*
X13967801Y-12433984D01*
X13967801Y-12329222D02*
X13977324Y-12310174D01*
X13977324Y-12310174D02*
X13996372Y-12300650D01*
X13996372Y-12300650D02*
X14024943Y-12300650D01*
X14024943Y-12300650D02*
X14043991Y-12310174D01*
X14043991Y-12310174D02*
X14053515Y-12329222D01*
X14053515Y-12329222D02*
X14053515Y-12433984D01*
X14443991Y-12224460D02*
X14272563Y-12481603D01*
X14701134Y-12233984D02*
X14720182Y-12233984D01*
X14720182Y-12233984D02*
X14739229Y-12243508D01*
X14739229Y-12243508D02*
X14748753Y-12253031D01*
X14748753Y-12253031D02*
X14758277Y-12272079D01*
X14758277Y-12272079D02*
X14767801Y-12310174D01*
X14767801Y-12310174D02*
X14767801Y-12357793D01*
X14767801Y-12357793D02*
X14758277Y-12395888D01*
X14758277Y-12395888D02*
X14748753Y-12414936D01*
X14748753Y-12414936D02*
X14739229Y-12424460D01*
X14739229Y-12424460D02*
X14720182Y-12433984D01*
X14720182Y-12433984D02*
X14701134Y-12433984D01*
X14701134Y-12433984D02*
X14682086Y-12424460D01*
X14682086Y-12424460D02*
X14672563Y-12414936D01*
X14672563Y-12414936D02*
X14663039Y-12395888D01*
X14663039Y-12395888D02*
X14653515Y-12357793D01*
X14653515Y-12357793D02*
X14653515Y-12310174D01*
X14653515Y-12310174D02*
X14663039Y-12272079D01*
X14663039Y-12272079D02*
X14672563Y-12253031D01*
X14672563Y-12253031D02*
X14682086Y-12243508D01*
X14682086Y-12243508D02*
X14701134Y-12233984D01*
X14853515Y-12414936D02*
X14863039Y-12424460D01*
X14863039Y-12424460D02*
X14853515Y-12433984D01*
X14853515Y-12433984D02*
X14843991Y-12424460D01*
X14843991Y-12424460D02*
X14853515Y-12414936D01*
X14853515Y-12414936D02*
X14853515Y-12433984D01*
X14986848Y-12233984D02*
X15005896Y-12233984D01*
X15005896Y-12233984D02*
X15024944Y-12243508D01*
X15024944Y-12243508D02*
X15034467Y-12253031D01*
X15034467Y-12253031D02*
X15043991Y-12272079D01*
X15043991Y-12272079D02*
X15053515Y-12310174D01*
X15053515Y-12310174D02*
X15053515Y-12357793D01*
X15053515Y-12357793D02*
X15043991Y-12395888D01*
X15043991Y-12395888D02*
X15034467Y-12414936D01*
X15034467Y-12414936D02*
X15024944Y-12424460D01*
X15024944Y-12424460D02*
X15005896Y-12433984D01*
X15005896Y-12433984D02*
X14986848Y-12433984D01*
X14986848Y-12433984D02*
X14967801Y-12424460D01*
X14967801Y-12424460D02*
X14958277Y-12414936D01*
X14958277Y-12414936D02*
X14948753Y-12395888D01*
X14948753Y-12395888D02*
X14939229Y-12357793D01*
X14939229Y-12357793D02*
X14939229Y-12310174D01*
X14939229Y-12310174D02*
X14948753Y-12272079D01*
X14948753Y-12272079D02*
X14958277Y-12253031D01*
X14958277Y-12253031D02*
X14967801Y-12243508D01*
X14967801Y-12243508D02*
X14986848Y-12233984D01*
X15129706Y-12253031D02*
X15139229Y-12243508D01*
X15139229Y-12243508D02*
X15158277Y-12233984D01*
X15158277Y-12233984D02*
X15205896Y-12233984D01*
X15205896Y-12233984D02*
X15224944Y-12243508D01*
X15224944Y-12243508D02*
X15234467Y-12253031D01*
X15234467Y-12253031D02*
X15243991Y-12272079D01*
X15243991Y-12272079D02*
X15243991Y-12291127D01*
X15243991Y-12291127D02*
X15234467Y-12319698D01*
X15234467Y-12319698D02*
X15120182Y-12433984D01*
X15120182Y-12433984D02*
X15243991Y-12433984D01*
X15424944Y-12233984D02*
X15329706Y-12233984D01*
X15329706Y-12233984D02*
X15320182Y-12329222D01*
X15320182Y-12329222D02*
X15329706Y-12319698D01*
X15329706Y-12319698D02*
X15348753Y-12310174D01*
X15348753Y-12310174D02*
X15396372Y-12310174D01*
X15396372Y-12310174D02*
X15415420Y-12319698D01*
X15415420Y-12319698D02*
X15424944Y-12329222D01*
X15424944Y-12329222D02*
X15434467Y-12348269D01*
X15434467Y-12348269D02*
X15434467Y-12395888D01*
X15434467Y-12395888D02*
X15424944Y-12414936D01*
X15424944Y-12414936D02*
X15415420Y-12424460D01*
X15415420Y-12424460D02*
X15396372Y-12433984D01*
X15396372Y-12433984D02*
X15348753Y-12433984D01*
X15348753Y-12433984D02*
X15329706Y-12424460D01*
X15329706Y-12424460D02*
X15320182Y-12414936D01*
X15605896Y-12233984D02*
X15567801Y-12233984D01*
X15567801Y-12233984D02*
X15548753Y-12243508D01*
X15548753Y-12243508D02*
X15539229Y-12253031D01*
X15539229Y-12253031D02*
X15520182Y-12281603D01*
X15520182Y-12281603D02*
X15510658Y-12319698D01*
X15510658Y-12319698D02*
X15510658Y-12395888D01*
X15510658Y-12395888D02*
X15520182Y-12414936D01*
X15520182Y-12414936D02*
X15529706Y-12424460D01*
X15529706Y-12424460D02*
X15548753Y-12433984D01*
X15548753Y-12433984D02*
X15586848Y-12433984D01*
X15586848Y-12433984D02*
X15605896Y-12424460D01*
X15605896Y-12424460D02*
X15615420Y-12414936D01*
X15615420Y-12414936D02*
X15624944Y-12395888D01*
X15624944Y-12395888D02*
X15624944Y-12348269D01*
X15624944Y-12348269D02*
X15615420Y-12329222D01*
X15615420Y-12329222D02*
X15605896Y-12319698D01*
X15605896Y-12319698D02*
X15586848Y-12310174D01*
X15586848Y-12310174D02*
X15548753Y-12310174D01*
X15548753Y-12310174D02*
X15529706Y-12319698D01*
X15529706Y-12319698D02*
X15520182Y-12329222D01*
X15520182Y-12329222D02*
X15510658Y-12348269D01*
X15701134Y-12233984D02*
X15701134Y-12272079D01*
X15777325Y-12233984D02*
X15777325Y-12272079D01*
X16072563Y-12510174D02*
X16063039Y-12500650D01*
X16063039Y-12500650D02*
X16043991Y-12472079D01*
X16043991Y-12472079D02*
X16034468Y-12453031D01*
X16034468Y-12453031D02*
X16024944Y-12424460D01*
X16024944Y-12424460D02*
X16015420Y-12376841D01*
X16015420Y-12376841D02*
X16015420Y-12338746D01*
X16015420Y-12338746D02*
X16024944Y-12291127D01*
X16024944Y-12291127D02*
X16034468Y-12262555D01*
X16034468Y-12262555D02*
X16043991Y-12243508D01*
X16043991Y-12243508D02*
X16063039Y-12214936D01*
X16063039Y-12214936D02*
X16072563Y-12205412D01*
X16139229Y-12253031D02*
X16148753Y-12243508D01*
X16148753Y-12243508D02*
X16167801Y-12233984D01*
X16167801Y-12233984D02*
X16215420Y-12233984D01*
X16215420Y-12233984D02*
X16234468Y-12243508D01*
X16234468Y-12243508D02*
X16243991Y-12253031D01*
X16243991Y-12253031D02*
X16253515Y-12272079D01*
X16253515Y-12272079D02*
X16253515Y-12291127D01*
X16253515Y-12291127D02*
X16243991Y-12319698D01*
X16243991Y-12319698D02*
X16129706Y-12433984D01*
X16129706Y-12433984D02*
X16253515Y-12433984D01*
X16491610Y-12433984D02*
X16491610Y-12233984D01*
X16577325Y-12433984D02*
X16577325Y-12329222D01*
X16577325Y-12329222D02*
X16567801Y-12310174D01*
X16567801Y-12310174D02*
X16548753Y-12300650D01*
X16548753Y-12300650D02*
X16520182Y-12300650D01*
X16520182Y-12300650D02*
X16501134Y-12310174D01*
X16501134Y-12310174D02*
X16491610Y-12319698D01*
X16701134Y-12433984D02*
X16682087Y-12424460D01*
X16682087Y-12424460D02*
X16672563Y-12414936D01*
X16672563Y-12414936D02*
X16663039Y-12395888D01*
X16663039Y-12395888D02*
X16663039Y-12338746D01*
X16663039Y-12338746D02*
X16672563Y-12319698D01*
X16672563Y-12319698D02*
X16682087Y-12310174D01*
X16682087Y-12310174D02*
X16701134Y-12300650D01*
X16701134Y-12300650D02*
X16729706Y-12300650D01*
X16729706Y-12300650D02*
X16748753Y-12310174D01*
X16748753Y-12310174D02*
X16758277Y-12319698D01*
X16758277Y-12319698D02*
X16767801Y-12338746D01*
X16767801Y-12338746D02*
X16767801Y-12395888D01*
X16767801Y-12395888D02*
X16758277Y-12414936D01*
X16758277Y-12414936D02*
X16748753Y-12424460D01*
X16748753Y-12424460D02*
X16729706Y-12433984D01*
X16729706Y-12433984D02*
X16701134Y-12433984D01*
X16882087Y-12433984D02*
X16863039Y-12424460D01*
X16863039Y-12424460D02*
X16853515Y-12405412D01*
X16853515Y-12405412D02*
X16853515Y-12233984D01*
X17034468Y-12424460D02*
X17015420Y-12433984D01*
X17015420Y-12433984D02*
X16977325Y-12433984D01*
X16977325Y-12433984D02*
X16958277Y-12424460D01*
X16958277Y-12424460D02*
X16948753Y-12405412D01*
X16948753Y-12405412D02*
X16948753Y-12329222D01*
X16948753Y-12329222D02*
X16958277Y-12310174D01*
X16958277Y-12310174D02*
X16977325Y-12300650D01*
X16977325Y-12300650D02*
X17015420Y-12300650D01*
X17015420Y-12300650D02*
X17034468Y-12310174D01*
X17034468Y-12310174D02*
X17043992Y-12329222D01*
X17043992Y-12329222D02*
X17043992Y-12348269D01*
X17043992Y-12348269D02*
X16948753Y-12367317D01*
X17120182Y-12424460D02*
X17139230Y-12433984D01*
X17139230Y-12433984D02*
X17177325Y-12433984D01*
X17177325Y-12433984D02*
X17196373Y-12424460D01*
X17196373Y-12424460D02*
X17205896Y-12405412D01*
X17205896Y-12405412D02*
X17205896Y-12395888D01*
X17205896Y-12395888D02*
X17196373Y-12376841D01*
X17196373Y-12376841D02*
X17177325Y-12367317D01*
X17177325Y-12367317D02*
X17148753Y-12367317D01*
X17148753Y-12367317D02*
X17129706Y-12357793D01*
X17129706Y-12357793D02*
X17120182Y-12338746D01*
X17120182Y-12338746D02*
X17120182Y-12329222D01*
X17120182Y-12329222D02*
X17129706Y-12310174D01*
X17129706Y-12310174D02*
X17148753Y-12300650D01*
X17148753Y-12300650D02*
X17177325Y-12300650D01*
X17177325Y-12300650D02*
X17196373Y-12310174D01*
X17272563Y-12510174D02*
X17282087Y-12500650D01*
X17282087Y-12500650D02*
X17301134Y-12472079D01*
X17301134Y-12472079D02*
X17310658Y-12453031D01*
X17310658Y-12453031D02*
X17320182Y-12424460D01*
X17320182Y-12424460D02*
X17329706Y-12376841D01*
X17329706Y-12376841D02*
X17329706Y-12338746D01*
X17329706Y-12338746D02*
X17320182Y-12291127D01*
X17320182Y-12291127D02*
X17310658Y-12262555D01*
X17310658Y-12262555D02*
X17301134Y-12243508D01*
X17301134Y-12243508D02*
X17282087Y-12214936D01*
X17282087Y-12214936D02*
X17272563Y-12205412D01*
X17634468Y-12510174D02*
X17624944Y-12500650D01*
X17624944Y-12500650D02*
X17605896Y-12472079D01*
X17605896Y-12472079D02*
X17596373Y-12453031D01*
X17596373Y-12453031D02*
X17586849Y-12424460D01*
X17586849Y-12424460D02*
X17577325Y-12376841D01*
X17577325Y-12376841D02*
X17577325Y-12338746D01*
X17577325Y-12338746D02*
X17586849Y-12291127D01*
X17586849Y-12291127D02*
X17596373Y-12262555D01*
X17596373Y-12262555D02*
X17605896Y-12243508D01*
X17605896Y-12243508D02*
X17624944Y-12214936D01*
X17624944Y-12214936D02*
X17634468Y-12205412D01*
X17710658Y-12300650D02*
X17710658Y-12433984D01*
X17710658Y-12319698D02*
X17720182Y-12310174D01*
X17720182Y-12310174D02*
X17739230Y-12300650D01*
X17739230Y-12300650D02*
X17767801Y-12300650D01*
X17767801Y-12300650D02*
X17786849Y-12310174D01*
X17786849Y-12310174D02*
X17796373Y-12329222D01*
X17796373Y-12329222D02*
X17796373Y-12433984D01*
X17920182Y-12433984D02*
X17901134Y-12424460D01*
X17901134Y-12424460D02*
X17891611Y-12414936D01*
X17891611Y-12414936D02*
X17882087Y-12395888D01*
X17882087Y-12395888D02*
X17882087Y-12338746D01*
X17882087Y-12338746D02*
X17891611Y-12319698D01*
X17891611Y-12319698D02*
X17901134Y-12310174D01*
X17901134Y-12310174D02*
X17920182Y-12300650D01*
X17920182Y-12300650D02*
X17948754Y-12300650D01*
X17948754Y-12300650D02*
X17967801Y-12310174D01*
X17967801Y-12310174D02*
X17977325Y-12319698D01*
X17977325Y-12319698D02*
X17986849Y-12338746D01*
X17986849Y-12338746D02*
X17986849Y-12395888D01*
X17986849Y-12395888D02*
X17977325Y-12414936D01*
X17977325Y-12414936D02*
X17967801Y-12424460D01*
X17967801Y-12424460D02*
X17948754Y-12433984D01*
X17948754Y-12433984D02*
X17920182Y-12433984D01*
X18043992Y-12300650D02*
X18120182Y-12300650D01*
X18072563Y-12233984D02*
X18072563Y-12405412D01*
X18072563Y-12405412D02*
X18082087Y-12424460D01*
X18082087Y-12424460D02*
X18101134Y-12433984D01*
X18101134Y-12433984D02*
X18120182Y-12433984D01*
X18339230Y-12300650D02*
X18339230Y-12500650D01*
X18339230Y-12310174D02*
X18358277Y-12300650D01*
X18358277Y-12300650D02*
X18396373Y-12300650D01*
X18396373Y-12300650D02*
X18415420Y-12310174D01*
X18415420Y-12310174D02*
X18424944Y-12319698D01*
X18424944Y-12319698D02*
X18434468Y-12338746D01*
X18434468Y-12338746D02*
X18434468Y-12395888D01*
X18434468Y-12395888D02*
X18424944Y-12414936D01*
X18424944Y-12414936D02*
X18415420Y-12424460D01*
X18415420Y-12424460D02*
X18396373Y-12433984D01*
X18396373Y-12433984D02*
X18358277Y-12433984D01*
X18358277Y-12433984D02*
X18339230Y-12424460D01*
X18548754Y-12433984D02*
X18529706Y-12424460D01*
X18529706Y-12424460D02*
X18520182Y-12405412D01*
X18520182Y-12405412D02*
X18520182Y-12233984D01*
X18710658Y-12433984D02*
X18710658Y-12329222D01*
X18710658Y-12329222D02*
X18701135Y-12310174D01*
X18701135Y-12310174D02*
X18682087Y-12300650D01*
X18682087Y-12300650D02*
X18643992Y-12300650D01*
X18643992Y-12300650D02*
X18624944Y-12310174D01*
X18710658Y-12424460D02*
X18691611Y-12433984D01*
X18691611Y-12433984D02*
X18643992Y-12433984D01*
X18643992Y-12433984D02*
X18624944Y-12424460D01*
X18624944Y-12424460D02*
X18615420Y-12405412D01*
X18615420Y-12405412D02*
X18615420Y-12386365D01*
X18615420Y-12386365D02*
X18624944Y-12367317D01*
X18624944Y-12367317D02*
X18643992Y-12357793D01*
X18643992Y-12357793D02*
X18691611Y-12357793D01*
X18691611Y-12357793D02*
X18710658Y-12348269D01*
X18777325Y-12300650D02*
X18853515Y-12300650D01*
X18805896Y-12233984D02*
X18805896Y-12405412D01*
X18805896Y-12405412D02*
X18815420Y-12424460D01*
X18815420Y-12424460D02*
X18834468Y-12433984D01*
X18834468Y-12433984D02*
X18853515Y-12433984D01*
X18996373Y-12424460D02*
X18977325Y-12433984D01*
X18977325Y-12433984D02*
X18939230Y-12433984D01*
X18939230Y-12433984D02*
X18920182Y-12424460D01*
X18920182Y-12424460D02*
X18910658Y-12405412D01*
X18910658Y-12405412D02*
X18910658Y-12329222D01*
X18910658Y-12329222D02*
X18920182Y-12310174D01*
X18920182Y-12310174D02*
X18939230Y-12300650D01*
X18939230Y-12300650D02*
X18977325Y-12300650D01*
X18977325Y-12300650D02*
X18996373Y-12310174D01*
X18996373Y-12310174D02*
X19005896Y-12329222D01*
X19005896Y-12329222D02*
X19005896Y-12348269D01*
X19005896Y-12348269D02*
X18910658Y-12367317D01*
X19177325Y-12433984D02*
X19177325Y-12233984D01*
X19177325Y-12424460D02*
X19158277Y-12433984D01*
X19158277Y-12433984D02*
X19120182Y-12433984D01*
X19120182Y-12433984D02*
X19101135Y-12424460D01*
X19101135Y-12424460D02*
X19091611Y-12414936D01*
X19091611Y-12414936D02*
X19082087Y-12395888D01*
X19082087Y-12395888D02*
X19082087Y-12338746D01*
X19082087Y-12338746D02*
X19091611Y-12319698D01*
X19091611Y-12319698D02*
X19101135Y-12310174D01*
X19101135Y-12310174D02*
X19120182Y-12300650D01*
X19120182Y-12300650D02*
X19158277Y-12300650D01*
X19158277Y-12300650D02*
X19177325Y-12310174D01*
X19253516Y-12510174D02*
X19263039Y-12500650D01*
X19263039Y-12500650D02*
X19282087Y-12472079D01*
X19282087Y-12472079D02*
X19291611Y-12453031D01*
X19291611Y-12453031D02*
X19301135Y-12424460D01*
X19301135Y-12424460D02*
X19310658Y-12376841D01*
X19310658Y-12376841D02*
X19310658Y-12338746D01*
X19310658Y-12338746D02*
X19301135Y-12291127D01*
X19301135Y-12291127D02*
X19291611Y-12262555D01*
X19291611Y-12262555D02*
X19282087Y-12243508D01*
X19282087Y-12243508D02*
X19263039Y-12214936D01*
X19263039Y-12214936D02*
X19253516Y-12205412D01*
M02*
