M48
; DRILL file {KiCad 8.0.5} date 2024-12-27T02:30:03+0100
; FORMAT={-:-/ absolute / metric / decimal}
; #@! TF.CreationDate,2024-12-27T02:30:03+01:00
; #@! TF.GenerationSoftware,Kicad,Pcbnew,8.0.5
; #@! TF.FileFunction,Plated,1,4,PTH
FMAT,2
METRIC
; #@! TA.AperFunction,Plated,PTH,ComponentDrill
T1C0.200
; #@! TA.AperFunction,Plated,PTH,ViaDrill
T2C0.300
; #@! TA.AperFunction,Plated,PTH,ComponentDrill
T3C0.600
; #@! TA.AperFunction,Plated,PTH,ComponentDrill
T4C1.300
%
G90
G05
T1
X146.435Y-79.625
X146.435Y-80.725
X146.985Y-79.075
X146.985Y-80.175
X146.985Y-81.275
X147.535Y-79.625
X147.535Y-80.725
X148.085Y-79.075
X148.085Y-80.175
X148.085Y-81.275
X148.635Y-79.625
X148.635Y-80.725
T2
X136.4Y-80.8
X136.5Y-83.0
X136.6Y-94.6
X137.8Y-104.0
X138.68Y-99.08
X139.2Y-74.8
X139.735Y-105.64
X140.042Y-104.842
X140.85Y-104.034
X140.933Y-97.917
X141.101Y-110.96
X141.158Y-84.05
X141.2Y-79.6
X141.5Y-102.5
X141.55Y-87.804
X141.62Y-110.341
X141.64Y-104.16
X141.8Y-105.75
X142.0Y-79.6
X142.35Y-94.7
X142.4Y-110.0
X142.47Y-104.357
X142.6Y-81.4
X142.6Y-99.6
X142.785Y-109.214
X143.425Y-84.0
X143.8Y-80.2
X143.8Y-81.2
X144.675Y-86.8
X144.975Y-81.425
X145.4Y-91.15
X145.6Y-91.973
X145.6Y-94.65
X145.6Y-95.667
X145.646Y-98.825
X145.8Y-84.625
X145.941Y-105.85
X146.75Y-82.2
X146.968Y-101.032
X148.079Y-99.421
X148.2Y-107.05
X148.2Y-108.0
X148.4Y-84.025
X148.467Y-84.976
X149.4Y-101.625
X149.877Y-86.475
X150.0Y-106.0
X150.042Y-79.574
X150.2Y-98.8
X150.492Y-84.2
X150.608Y-79.008
X151.262Y-85.959
X151.6Y-77.525
X152.0Y-105.8
X152.058Y-106.742
X152.4Y-103.2
X152.535Y-80.935
X152.919Y-82.972
X153.319Y-80.776
X153.8Y-105.4
X153.95Y-83.234
X154.025Y-78.809
X154.146Y-80.768
X154.4Y-87.1
X154.6Y-107.4
X155.025Y-101.695
X155.6Y-107.2
X155.887Y-102.9
X155.9Y-89.6
X156.0Y-109.6
X156.261Y-86.889
X156.4Y-79.6
X156.536Y-80.62
X156.575Y-81.608
X156.75Y-83.4
X156.75Y-85.0
X156.8Y-77.2
X157.019Y-79.093
T4
X132.5Y-91.82
X132.5Y-96.9
T3
G00X136.68Y-108.345
M15
G01X136.68Y-109.445
M16
G05
G00X136.68Y-112.775
M15
G01X136.68Y-113.375
M16
G05
G00X145.32Y-108.345
M15
G01X145.32Y-109.445
M16
G05
G00X145.32Y-112.775
M15
G01X145.32Y-113.375
M16
G05
M30
